<svg xmlns="http://www.w3.org/2000/svg" viewBox="0 0 355.48 483.29"><defs><style>.cls-1,.cls-8{fill:#e5ffff;}.cls-2{fill:#c76400;}.cls-3,.cls-4{fill:#fff;}.cls-3{opacity:0.4;}.cls-5{fill:#f7931e;}.cls-6{fill:#fbbf80;}.cls-7{fill:#ffeccb;}.cls-8{opacity:0.79;}.cls-9{fill:#999;opacity:0.8;}</style></defs><title>57tbird</title><g id="glass"><path class="cls-1" d="M30.06,322.56s4.66,60.18,6.41,71.09,2.46,29.64,13.27,39.94,31.46,32,50.3,37,37.37,9,37.37,9h66.88l19.35,3.08s38.91-5,48.57-8.54,18.17-6.3,28.25-19.45,20.08-41.5,20.08-41.5,6.9-53.07,9.91-64.45,4.09-66.42,4.09-66.42l5.34-43.75,1.33-47.06,7-66.24s7.67-49.32,6-55.16-4.64-19-12.15-22.58S247.58,10,247.58,10l-78.7-5.14S101.79,13,94.17,14.94,45.85,32.39,35.37,39.48,7.21,61.36,7.21,61.36L1.54,75.54,6.88,148,23.54,285.25S25.91,311.89,30.06,322.56Z"/></g><g id="liquid"><path class="cls-2" d="M39.25,105.39c-5.79,2-22,9.67-22.21,15.46s1.75,27.42,1.75,27.42l6.64,63.13,7.86,55.74s3.42,61.17,6,65.33,25.49,23.07,33.2,28.92S111,377.14,111,377.14s35.87,8.25,43.94,9,46.88,0,46.88,0,42.18-7.75,51.18-11,41-18.87,48.88-22.75,12.86-14.89,12.86-14.89,4.51-38,5-51.79,2-48,2.52-49.29,2-26.17,2-26.17l2-23.11s1.61-32.25,1.94-31.5,4.33-31.25,4.33-31.25-1.06-10-10.23-12.24S308,106.21,308,106.21l-16.16-3.44L170.69,82.89l-35,3.69L80.54,95.7s-18.52,1-25.63,4.12A159.79,159.79,0,0,1,39.25,105.39Z"/></g><g id="ice_shade" data-name="ice shade"><path class="cls-3" d="M43.54,142.51c-1.59,10.27,2.34,36.74,5.84,45.9S61,220.63,61,220.63s-10,6.13-14.41,13-5.41,17.13-5.41,17.13l16.27,37.64s14.21,23.49,19,24.49,10.64,3.56,15,3.34,16.41.29,16.41.29,8.74,4.84,10.83,4.36c6.51-1.51,24.57,1.29,31.32-1s19-2,19-2,2.77-6.85,4.82-9.07,24.42,4.12,24.42,4.12,18,.74,23.13.13,9.05,3.23,12.71,1,16.73-5.59,16.73-5.59l6.71-3.38a96.78,96.78,0,0,1,8-13c3.84-4.83,2.69-19.34,2.84-21.44s-6-37.32-8.37-38.94c0,0,4.42-2.95,4.63-6.22S261,212.09,261,212.09l8.48-6s9.9,5.82,10,6.64,16.84,12.13,22.79,9.14,15.12-14.53,15.12-14.53-3.75-3-1.79-10.08,6.72-15.23,5.67-20.64,3-20.3,3-20.3S314,169.65,304.91,170.94s-22.71-2.14-22.71-2.14l-12.31-17.67s-33.65,22.19-48.5,19.81-130.81-12-131.16-13.2S43.54,142.51,43.54,142.51Z"/></g><g id="ice"><path class="cls-4" d="M45,141.5c10-8.87,19.25-25.71,34.5-34.41s39.19-19.77,39.19-19.77,11.23-5.93,16-4.43,17.9,15.82,17.9,15.82,20.06,18,23.1,22.14,9.5,23.05,9.4,27.17c0,.61,0,1.53.1,2.66.47,6.57,2.28,20.26,2.28,20.26s-47.88,9-61.24,4.35S89.79,155.8,79,153.47,45,141.5,45,141.5Z"/><path class="cls-4" d="M186.93,153.47a349.43,349.43,0,0,1,37.21-19.31c12.9-5.77,12.44-6,18.5-4.52s20.14,15.88,22,13.07,9.19-11,9.19-11,4.14-14,5.67-15.91S294.88,118,294.88,118s13.6,4.71,18,8.79,9.89,17.53,9.89,17.53,3.76,6.79,1,13.29-8.57,12.83-21.53,16-27.07-20.38-30.39-20.21S258.39,166,249.21,168.8s-29.1,2.55-29.1,2.55-22.54-5.17-28.43-4.69S186.93,153.47,186.93,153.47Z"/></g><g id="orange"><path class="cls-5" d="M162.26,107.09c6-8.57,12.15-23.89,21.59-34.92S209.76,44.72,220,37.31s27.05-22.47,42.16-27.57,33.65-6.85,48.23-6.35S341.29,17,341.29,17l9.25,15.76-12.75-1.21c-12.25-1.17-35.53,4.06-35.53,4.06L260.84,46.23,214.45,72.17,195.2,93.92l-19.45,25.49Z"/><path class="cls-6" d="M188.88,122.28c9.16-12.89,24.2-31.39,37.06-37.39s23.81-15.26,40.33-18,56-4.35,56-4.35l-20.05,24-9.11,16.52-23.32,5.1L222.76,118Z"/><path class="cls-7" d="M178.78,120.4s7-15.8,16.42-26.48,21.09-23.22,35.34-31.75,44-20,61.26-24.86,32.52-9.48,41.88-8.32a57.93,57.93,0,0,1,16.86,4.89s-23.37,26.94-26.76,28.95-48.16,2.84-48.16,2.84L230.54,81.5l-29.44,25-12.22,15.74Z"/></g><g id="glass_front_rim" data-name="glass front rim"><path class="cls-8" d="M11.58,63.51c1.63,5.38-1.37,10.92,9.63,20.32s10.81,15,26.08,18.94,39.59,12.55,39.59,12.55l63.17,9.57,65.68-6.48,83.41-16.73,20.55-7.76,3.08,9.29s-4.81,3.59-19.69,7.47-39.39,13.55-53.87,14.21a86.22,86.22,0,0,0-24.91,4.75L189.46,132l-28.59.72s-31.17-1-44.58-3.06S62.92,118,62.92,118L36.47,104.41,15.3,89.72S2.15,79.19,3.85,75.54,5,66.88,5,66.88Z"/></g><g id="glass_shade" data-name="glass shade"><path class="cls-9" d="M314.15,375.94c-.11-.52-1.13-5.38-2.46-3.64-4.11,5.36-6.1,12.86-9.4,18.77a117.53,117.53,0,0,1-14.19,20.11A112.94,112.94,0,0,1,274,424.71c-1.29.45-2.57.88-3.86,1.29.5-2.76.59-8.52-.94-8.52-5.71,0-11.78,4-17,6.18a109.84,109.84,0,0,1-18.44,5.6c-13.42,2.86-27.13,3.23-40.81,2.93-14.9-.33-29.57-2.38-44.3-4.51-6.8-1-13.6-2-20.4-2.93-5.72-.81-14.09-2.74-19.25.53-3.21-1.34-7.82-4.2-11.2-3.62-1.23.21-1.87,2-2.2,4.15-3.14-1.69-6.36-3.26-9.28-4.93C79.51,417,72.47,413.41,66,409a53.62,53.62,0,0,1-7.9-6.51c-2.13-2.17-3.83-5-6.13-7-1.72-1.46-3.64-2.09-4.95-4-1.68-2.46-2.65-5.81-3.6-8.61-.71-2.07-1.44.91-1.55,1.49a19.76,19.76,0,0,0,.27,7.39,183.28,183.28,0,0,0,7,24.29C52,423.94,57,429.75,63.67,434.71c6,4.46,12.69,8,19.18,11.7l10.72,6.11c3.6,2.05,7.51,5.07,11.52,6,.56.14,1-.46,1.38-1.55a59.75,59.75,0,0,0,9.46,6.46,63.27,63.27,0,0,0,20.76,6.75c15,2.33,30.49,2.65,45.63,2.86,30.21.42,60.86-2.12,89.69-11.67,7.21-2.39,14.67-5,21.27-8.79,7.69-4.45,11.62-9.85,13-18.78a62.51,62.51,0,0,0,.06-18.92c0-.12,0-.29-.07-.49a89,89,0,0,0,8.37-27A34.79,34.79,0,0,0,314.15,375.94Z"/></g><g id="outline"><path d="M288.22,220.68c.29-1.44-.41-2.22-1.66-2.85-2.42-1.21-5.13-1.48-7.58-2.56s-4.58-2-6.86-3.05a4.29,4.29,0,0,1-2.25-2.83c-1.17.45-1.68,1.4-2.37,2.14s-1.54,1.88-2.91,2c-1.07.11-1,.88-.76,1.62a14,14,0,0,0,1.15,2.41c1.59,2.52,1.8,5.35,1.77,8.18,0,3.57-2.35,5.8-5.15,7.42a22.22,22.22,0,0,0-6.17,4.62,14.85,14.85,0,0,1-3.64,2.8,1.79,1.79,0,0,1-2.7-.65,2.08,2.08,0,0,1,0-2.88,6.28,6.28,0,0,1,1.11-.94,29.37,29.37,0,0,0,5.29-4.6,4.94,4.94,0,0,1,2.23-1.43,11.17,11.17,0,0,0,1.35-.54c3.9-1.72,5.39-5.48,3.08-9.09-2.47-3.86-3.55-8.11-4.72-12.4a40.78,40.78,0,0,0-3.44-9c-.63-1.15-.73-2.45-1.41-3.59-1.36-2.34-3.52-3.79-5.62-5.26-3-2.08-6.11-3.92-9.17-5.88a5.92,5.92,0,0,1-1.48-1.24c-2.47-3.23-6-5.14-9.25-7.33-.88-.58-1.9-.93-2.78-1.46-2.29-1.4-4.16-.63-5.89.89-.85.75-1.56.82-2.33.11s-.56-1.62.06-2.36c1-1.18,2-2.34,3-3.46a3.27,3.27,0,0,1,4-.73,25.23,25.23,0,0,1,4.06,2.19,42.11,42.11,0,0,0,6.57,4.12,8.8,8.8,0,0,1,3.16,3,14.44,14.44,0,0,0,4.71,3.76c3.89,2,7.22,4.89,10.79,7.39,2.69,1.88,3.95,5,5.2,8s2.45,6,3.63,9c.32.82.53,1.7.78,2.55s.23,1.62,1.23,2.14c.63-.89,1.31-1.77,1.88-2.71,1.7-2.8,4.21-4.89,6.46-7.19a75,75,0,0,1,6.7-5.55c3.24-2.64,5.48-6.15,8.1-9.32a4.51,4.51,0,0,0,.81-4.71c-1.43-3.43-2.53-7-4-10.39-.91-2.07-2.7-3.62-4.2-5.31-2-2.23-3.82-4.6-6-6.68a2.43,2.43,0,0,1-.25-3.11c.67-.78,1.89-.78,3.05,0a20.52,20.52,0,0,1,4.12,4.1c.54.67.89,1.53,2,1.94a11.18,11.18,0,0,0-.11-3.62c-.09-1.05-.21-2.09-.29-3.14,0-.52.09-1.05.65-1.16s1.07.32,1.2.93c.21,1,.41,2.07.53,3.11.2,1.69.3,3.39.51,5.08a8.45,8.45,0,0,0,1.88,4.65c1.22,1.4,1.68,3.29,3,4.71a1.62,1.62,0,0,0,.38-1.84c-1.58-6.06-1.95-12.3-2.74-18.47-.17-1.31-.7-1.55-1.7-1.26-5.51,1.61-11.24,2.53-16.41,5.19A7.06,7.06,0,0,1,266,157a94,94,0,0,0-15.54,2.66,12.73,12.73,0,0,1-3.14.25,43.86,43.86,0,0,0-9.6,1.31,9.79,9.79,0,0,1-1.66.34,94,94,0,0,0-15.83,2.34c-8,1.71-16.17,2.42-24.27,3.44l-.73.08c-3.87.55-3.88.56-4.18,4.5-.06.91.26,1.94-1,2.45-.68.27-.54,1.12-.54,1.75a100.8,100.8,0,0,0,.28,11.4,3.48,3.48,0,0,1-.34,2.67c-1.18-1-.65-2.39-1.21-3.39-.21-.39,0-1.12-.67-1.12s-.89.65-1,1.2a14,14,0,0,0,1.07,6.39,6.54,6.54,0,0,0,.49.84c.52,1-.1,1.58-.76,2-.83.55-1.1-.33-1.49-.78-.62-.71-.57-1.66-.86-2.5-.14-.38-.36-.78-.82-.77s-.64.5-.58.88c.34,2.45-.11,5.06,1.43,7.25a1.24,1.24,0,0,1-.42,2c-1,.49-1.46-.23-1.79-1.07a35.06,35.06,0,0,1-.91-3.77c-.18-.63-.2-1.71-1.18-1.49a1.6,1.6,0,0,0-1.3,2c.72,2.61.09,5.36.93,7.94a4,4,0,0,1,.09.48,1,1,0,0,1-.6,1.19c-.66.32-1.07-.08-1.43-.56-.82-1.08-.44-2.5-1.06-4.05-.81,1.16-.31,2.07-.2,2.91s.42,1.56.55,2.35c.08.47,0,1.06-.54,1.22a1,1,0,0,1-1.24-.88,33,33,0,0,1-.83-4.28c-.26-2.45-.29-2.53-2.59-2a5.32,5.32,0,0,0-1.61.51c-2.09,1.33-4.54.89-6.79,1.4a3.4,3.4,0,0,0-2.52,1.64,1.88,1.88,0,0,1-.59.76c-2.64,1.47-2.58,4-2.29,6.4.76,6.42.57,12.94,2.09,19.27a1.55,1.55,0,0,1-.48,1.8,9.16,9.16,0,0,1-2-5c-.54-4-.9-8-1.32-12.08a28,28,0,0,0-1-5.69,2.45,2.45,0,0,0-.86,2.42c.32,3.21.72,6.41,1.06,9.62a20.81,20.81,0,0,1,.19,3.15,37.19,37.19,0,0,0,.38,7.23,5.33,5.33,0,0,0,.84,2.25,6.46,6.46,0,0,1,1,3,4.72,4.72,0,0,1-.08,2.64c-.44.91-1.9.67-2.33,1.83-.12.31-.71,0-1-.33a7.1,7.1,0,0,1-1.76-3.66c-.83-6.5-2.32-12.9-2.79-19.47-.11-1.55.16-3.23-.69-5a2.18,2.18,0,0,0-.42,1.91c.72,8,.92,16.14,1.81,24.18a6.8,6.8,0,0,0,1.15,3.89,1.1,1.1,0,0,1-.13,1.71c-.71.58-1.17,0-1.61-.51s-.64-1-1.34-.82c-1.47.48-1.89-.61-2.26-1.57a35.8,35.8,0,0,1-1.53-4.59,72.34,72.34,0,0,1-2.24-16.31c0-1-.11-2.1-.22-3.15-.07-.67-.26-1.35-1.19-1.12-.77.19-1.73.33-1.42,1.51.82,3.12.86,6.36,1.71,9.48.75,2.72,1.23,5.53,1.83,8.3a2.91,2.91,0,0,1,.1.72c0,.61.24,1.47-.66,1.56-.75.08-.73-.71-.84-1.25-1.12-5.3-2.69-10.51-3.24-15.93-.11-1.12-.09-2.35-2-1.46a2.35,2.35,0,0,1-2.89-1.22,2.29,2.29,0,0,1,.93-3,18.62,18.62,0,0,1,4.93-3,6.43,6.43,0,0,0,1.06-.58c2.16-1.34,2.15-1.35,1.67-3.92a13.07,13.07,0,0,1-.44-3.36c.11-1.64.49-2.25,2.24-3.38.37.57-.06,1.08-.14,1.6a9.31,9.31,0,0,0,.32,4.8c.55,1.48,1.12,1.72,2.59,1.2a18.64,18.64,0,0,0,4.09-2.6c.75-.51.5-1.07,0-1.64a4.69,4.69,0,0,1-1.43-3.25c0-.7.23-1.3,1-1.41s.88.56,1.07,1.08.25.95.45,1.38c.66,1.48,1.82,1.88,3.08.9,2-1.54,4-3.06,6.09-4.42.2-.13.5-.28.54-.47.55-2.47,3-2.37,4.27-2a5.66,5.66,0,0,0,4.58-.52,12.15,12.15,0,0,0,3.55-3.26c1-1.34,2.43-2.36,3.55-3.66a26.43,26.43,0,0,0,6.39-16.41c0-.89.12-1.78.1-2.67-.05-3.08-.71-3.64-3.84-3.33-.4,0-.8.12-1.2.19a97.78,97.78,0,0,1-18.64,1.27,110.57,110.57,0,0,1-20-1.89c-5.49-1-11.1-1.31-16.6-2.25-4.21-.72-8.35-1.94-12.58-2.6-5.51-.86-11-2.05-16.51-2.73a131.8,131.8,0,0,1-17.28-3.87c-4.85-1.28-9.63-2.81-14.37-4.42-6.81-2.31-13.7-4.37-20.56-6.47-4.24-1.3-8.37-3-12.67-4.07-1.82-.48-2.21-1.19-2.05-3.18.13-1.69.18-3.42-1.88-4.2a1.94,1.94,0,0,1-.81-.86c-1.51-2.53-1.94-5.4-2.39-8.28,1.55,2.59,1.54,5.91,3.91,8.52.73-1.5.24-2.75.25-4,0-.45-.15-1.1.53-1.15s.72.58.77,1c.12,1.21.09,2.44.28,3.63.26,1.69.68,3.36,2.45,4.18.49.23,1.09.48,1.57,0s.22-.92,0-1.37a8.2,8.2,0,0,1-.67-3.31c0-.65,0-1.4.94-1.4s.74.67.85,1.24a14.61,14.61,0,0,0,2.61,6.19c.24.33.52.74,1,.53a.76.76,0,0,0,.22-1.23c-.94-1-.83-2.41-1.41-3.56a1.09,1.09,0,0,1,.47-1.63c.65.19.62.75.61,1.2,0,1.75.76,3.31,1.22,4.93a2.19,2.19,0,0,0,3.53,1,4.57,4.57,0,0,0,1-1.07c1.63-2.52,3.95-4.47,5.75-6.86,1.42-1.88,3.48-3.14,5.37-4.52,2.28-1.65,4.27-3.71,6.94-4.83a2.86,2.86,0,0,1,2.32-.15c1.53.61,1.9,1.82.81,3A5.74,5.74,0,0,1,63.09,127c-1.54.61-2.68,1.8-4.1,2.54a18,18,0,0,0-5.71,5.15,21.23,21.23,0,0,1-4.05,4.15,5.21,5.21,0,0,0-1.18,1.21c-.88,1.26-.72,1.77.66,2.41,3,1.41,3.57,1.39,5.54-1.36a8.55,8.55,0,0,1,4.22-3.46,2,2,0,0,0,1.21-1.38c1.09-2.91,3.14-5.23,5-7.69.24-.32.63-.65,1-.39a.77.77,0,0,1,.06,1.26c-1.43,1.39-2.09,3.27-3.2,4.86a2,2,0,0,0-.54,1.94c1.7-.65,3.38-1.28,5.05-1.95.83-.33.57-1.47,1.41-1.88,1.22-.59,2.39-1.31,3.54-2,1,.81-.5,1.25-.09,2,2.59,0,5.22.27,7.73-.86a3,3,0,0,1,2.37-.29c1.9.91,3.64,0,5.45-.2.47,0,.92-.24,1.35,0,0,.25.11.51.06.53a39.06,39.06,0,0,0-5,2.82,3.07,3.07,0,0,1-2.07.6c-5-.53-9.57,1.16-14.3,2.07-1.45.28-2.43,1.58-3.84,2a34.84,34.84,0,0,1-3.49,1A5.55,5.55,0,0,0,56.86,142c-2.07,2.33-2,3.12,1.13,3.65,5.71,1,10.85,3.67,16.4,5,5.26,1.29,10.46,2.82,15.73,4.09,7.11,1.71,14.42,2,21.52,3.7,2.4.56,5,.58,7.4,1.23a115.77,115.77,0,0,0,14.3,2.56c2.4.34,4.84.4,7.22.86a129.2,129.2,0,0,0,29.24,2.16,93.43,93.43,0,0,0,13-1.52c1.08-.19,1.59-.79,1.44-1.84-.23-1.6-.48-3.2-.83-4.77a18.54,18.54,0,0,1-.6-5.29,18.78,18.78,0,0,0-.45-6,3.4,3.4,0,0,1,.36-3c1-1.31,1.89-1.33,2.82,0a10.67,10.67,0,0,1,1.65,6.92c-.27,4,.92,7.87,1.17,11.81.08,1.24.77,1.75,2.09,1.81,3.19.17,6.26-.7,9.41-.86,2.9-.15,5.75-.81,8.65-1.09s5.91-.91,8.87-1.38c6.38-1,12.73-2.26,19.15-3.13,7.27-1,14.65-1.51,21.82-3.34a29.8,29.8,0,0,1,5.75-.88,15.71,15.71,0,0,0,5.78-1.57c1.86-.86,2-1,1.46-2.91s-1.05-4.07-1.57-6.11a7.81,7.81,0,0,1-.26-1.43A.67.67,0,0,1,270,140a.62.62,0,0,1,.77.42c.31.83.75,1.6,1,2.47.56,2,1.27,3.94,2.09,6.43.66-1.85,0-3.15,0-4.44a39,39,0,0,0-1-8.17c-.27-1.44-.71-1.47-1.69-.49a22.77,22.77,0,0,0-3.92,5.78c-.6,1.12-.06,2,.17,3s.74,1.88-.46,2.56-2.15.46-3.14-.83a8.34,8.34,0,0,0-2.67-2.42c-1.32-.7-1.85-.48-2.41.92a7.15,7.15,0,0,1-.21.7c-.32.63,0,1.95-1.24,1.63-.92-.24-.41-1.23-.34-1.91a3,3,0,0,1,.19-1.2c1.35-2.09,0-3.2-1.49-4.27-1.84-1.3-3.46-2.88-5.63-3.74a6.52,6.52,0,0,1-3.19-2.89,3,3,0,0,0-1.2-1.46c-3.11-1.53-6.27-2.65-9.79-1.53a29.66,29.66,0,0,1-5.9,1.33,12.78,12.78,0,0,0-5.81,2.3,50.66,50.66,0,0,1-6.71,3.77c1.61-1.82,3.45-2.8,4.35-4.81a8.81,8.81,0,0,0-4.16-.13c-1.85.19-3.67.59-5.51.9a51.75,51.75,0,0,1-5.29.2c-4.1.3-8.23.16-12.35.31s-8.54-.29-12.8.19c-2.57.29-5.06,1-7.65,1.28a18.5,18.5,0,0,1-4.58.19c-6.15-1-12.28.18-18.42,0a52.52,52.52,0,0,1-5.33-.09c-3-.39-6-.21-9-.38a33.23,33.23,0,0,1-4.1-.49,3.64,3.64,0,0,1-2.14-1.06,2.11,2.11,0,0,1-.57-2,1.65,1.65,0,0,1,1.7-1.13,10.51,10.51,0,0,1,2.17.13,17.24,17.24,0,0,0,5.78.07,18.55,18.55,0,0,1,4.77-.07,76.7,76.7,0,0,0,15.45.07,75.25,75.25,0,0,1,10,.22,42.8,42.8,0,0,0,9.37-1.06,55.6,55.6,0,0,1,9.9-.75c4.37.05,8.73,0,13.1,0a109.35,109.35,0,0,0,14-1.27A23.73,23.73,0,0,1,221,128c3.46.27,6.72-.81,10-1.54,3.95-.87,7.86-1.88,11.83-2.67,2.3-.45,4.7-.11,7-.58,4.12-.84,8.3-1.39,12.28-2.81,2.59-.93,5.42-.93,8-2a40.4,40.4,0,0,1,6.63-2.24c1.23-.3,2.36-.74,2.46-2.51.09-1.38,1.14-1.89,2.53-1.3a9.82,9.82,0,0,0,8-.13c2.53-1,5.18-1.67,7.74-2.7a54.34,54.34,0,0,1,8.33-2.57c2.06-.47,3.95-1.41,6-2,1.29-.4,2.29-1.4,3.79-1.67s1.74-2.17,2.31-3.5c.33-.77.25-1.75,1.16-2.41.73,1.27-.77,2.42,0,3.57a2.79,2.79,0,0,0,2.89-2.9,4.29,4.29,0,0,1,.16-1c.17-.53.27-1.25,1-1.23s.66.73.63,1.29,0,.85.54.94.88-.28,1-.83a6.8,6.8,0,0,1,.83-2.53c.27-.47.63-1.09,1.29-.89s.44.9.27,1.43c-.1.3-.28.59-.11.92,2.13-.13,2.5-.48,2.61-2.47,0-.88-.21-1.79.34-2.61.23-.34.5-.67.95-.65s.61.46.62.88-.07.65,0,1c.1,1.06.66,1,1.29.45a3.66,3.66,0,0,0,1.32-2.77c0-.73,0-1.46.07-2.19s.17-1.41,1-1.38,1,.74,1,1.42c0,.32,0,.63,0,1.16,1.8-.87,3.13-1.83,3-4a9.91,9.91,0,0,1,.18-1.69c.25-2.1.25-2.13,2.41-2.31a1.25,1.25,0,0,0,1.24-.92,3.88,3.88,0,0,1,.51-1.09.79.79,0,0,1,1.06-.27c.37.18.33.5.21.83s-.46,1,.16,1.26.9-.23,1.23-.58c1.44-1.57,2.84-3.13,2.23-5.56a21.22,21.22,0,0,1-.18-2.66c-.08-.7,0-1.35.69-1.63,1.07-.42,1.07-1.3,1.11-2.2a17.69,17.69,0,0,0-2.62-9.24,21.67,21.67,0,0,0-6.62-7c-2-1.4-2.82-1.16-4.46.79-1.92,2.29-3.64,4.74-5.77,6.86a27.44,27.44,0,0,1-4.24,3.62,28.62,28.62,0,0,0-6.48,6.47c-4,5-8.12,9.85-12.13,14.82-1.73,2.13-3.32,4.37-5,6.58a1.35,1.35,0,0,0-.24,1.3c2,.54,4.08,1.18,6.19,1.65a5.21,5.21,0,0,0,4.33-1.15,31.66,31.66,0,0,1,5.75-3.12,44.46,44.46,0,0,0,13.58-9.21c2.78-2.92,4.95-6.36,5.31-10.62.21-2.41-.61-4.63-1.15-6.9-.15-.6-.7-1.21,0-1.75a1.78,1.78,0,0,1,1.86,0,5.37,5.37,0,0,1,2.62,2.44c1.2,2.28,2.08,4.49,1.43,7.35-1.36,6.07-4,11.15-9,15A81.32,81.32,0,0,1,319.05,95c-5.11,2.42-10.13,5-15.28,7.4A55.87,55.87,0,0,1,294,106a8.44,8.44,0,0,1-2.39.31c-2.61-.09-5.09.85-7.68,1-.87,0-.75.87-1,1.47-.45,1.43-1,1.6-1.89.41a1.77,1.77,0,0,0-2.07-.72,10.53,10.53,0,0,0-2.36.52c-4.53,2.2-9.4,2.9-14.31,3.51a73.16,73.16,0,0,0-12.69,3.25,52.93,52.93,0,0,1-12,1.87,43.07,43.07,0,0,0-7.91,1.12c-1.64.44-3.33.63-5,.93a32.82,32.82,0,0,0-6.28,1.86,10.91,10.91,0,0,1-5.71.83c-1.6-.25-2.92.77-4.41,1.07a23.88,23.88,0,0,1-5,.62c-1.88,0-3.68.93-5.51.77-3.24-.27-6.36,1-9.57.53a69.47,69.47,0,0,0-9.46-.34,52.45,52.45,0,0,0-8.91,1,82.9,82.9,0,0,1-13.55.94c-5.43,0-10.89.36-16.27-.28-6.1-.72-12.31-.28-18.35-1.71a24.94,24.94,0,0,1-4.41-1.29,18.52,18.52,0,0,0-5.45-1.08c-5.54-.65-11.1-1.2-16.37-3.25a10.13,10.13,0,0,0-1.9-.37c-5.09-.87-10.19-1.46-15.17-3.1-6.9-2.26-14.16-3.39-20.88-6.24-3.27-1.39-6.47-3-9.79-4.22A5.17,5.17,0,0,0,44.2,105c-.32.1-.62.28-.64.65s.26.55.58.68a102.38,102.38,0,0,1,12,6.22c5.54,3.21,11.85,4.23,17.64,6.63s11.56,3.66,17.44,5.05a60.14,60.14,0,0,0,10.54,1.59,44.41,44.41,0,0,1,6.64,1.26c2.14.44,4.49-.24,6.7.51a3.21,3.21,0,0,0,1.2.11c3.05-.14,5.4,1.48,7.78,3,.45.3,1.1.66.9,1.3a1.71,1.71,0,0,1-1.57,1.32,8.57,8.57,0,0,1-2.65-.3A34.77,34.77,0,0,0,110,131.72a22,22,0,0,1-4.77-.75c-2.17-.45-4.33-1.33-6.6-.15a2.55,2.55,0,0,1-2.34-.37C93.84,129,91,128.75,88.26,128a94.61,94.61,0,0,1-10.41-3,101.68,101.68,0,0,0-14.3-4.57,20.26,20.26,0,0,1-5.67-2.1c-1.41-.81-2.91-1.44-4.29-2.27-5.25-3.16-11.07-5.23-16.2-8.65-2.11-1.41-4.74-2-7.12-3.06-1.26-.54-2.48-1.19-3.72-1.78a4.31,4.31,0,0,1-2.09-2.57c-.18-.49-.24-1.08.25-1.32,1.3-.63,1.17-1.52.69-2.6a2,2,0,0,1-.1-1.42.92.92,0,0,1,.66-.66.68.68,0,0,1,.78.44A10.22,10.22,0,0,1,27.48,97a2.8,2.8,0,0,0,1.89,2.54c2.55,1.21,5.28,2,7.81,3.21,1.31.65,2.83.25,4.31.31,0-1.14-.77-1.42-1.33-1.76A150.28,150.28,0,0,1,22.38,88.84c-1.39-1.18-3-2.13-4.57-3.24-.74,3.89-.27,5.17,2.37,6.8.76-.45,0-1.37.58-1.93s1.22-.57,1.53.17a5.05,5.05,0,0,1,.25,1.18,8.53,8.53,0,0,0,1.29,4.12c.24.33.4.77,0,1.1s-.78.1-1.08-.18a12.49,12.49,0,0,1-.95-1.1c-.28-.34-.59-.57-1-.25-1.9,1.42-3.33-.06-4.73-.9C13,92.72,11.19,89.5,8.9,86.8a18.7,18.7,0,0,1-2.26-3.16A2.56,2.56,0,0,0,4.87,82c-.52.9-.22,1.88-.26,2.8C4.36,90.47,5.78,96,6,101.68c.11,3.08,1.07,6.06,1.44,9.1.66,5.51,1.48,11.06.54,16.63-.14.85-.14,2-1.28,2s-1.16-1.08-1.21-2.07a157.35,157.35,0,0,0-2.32-19c-.73-4.26-.91-8.51-1.42-12.76-.22-1.91-1-3.7-1.11-5.68-.26-3.47-.18-7-.56-10.43A15.2,15.2,0,0,1,1,72.74a10.68,10.68,0,0,0,.71-5.22C1.51,66.35,1.38,65,3,64.58c.79-.22,1-1.08,1.25-1.71a18.9,18.9,0,0,1,5.84-7c2.54-2,4.93-4.15,7.32-6.32,1-.94,2.29-1.52,3.36-2.39a130.52,130.52,0,0,1,12.4-8.42c1.21-.78,1.66.13,2.17.73a1.8,1.8,0,0,1-.19,2.78,43.09,43.09,0,0,1-5.35,4.19c-2.28,1.4-4.13,3.4-6.56,4.59a.89.89,0,0,0-.4,1.41c1.31,2.09.2,3.6-1.07,5.22-2.08,2.66-4.51,5-6,8.19a6,6,0,0,0-.46,4.7c.63,1.73.73,3.59,1.53,5.26a1.09,1.09,0,0,1-.34,1.5c-.48.31-.92,0-1.31-.31a4.28,4.28,0,0,1-1.15-1.55,12,12,0,0,0-1.63-2.41c-2.35-2.74-2.65-7.85.27-11.35a52.88,52.88,0,0,1,5.1-5.16c.33-.3.85-.56.44-1.29a6.61,6.61,0,0,0-2.42,1.85,50.68,50.68,0,0,1-4.6,4.32A9.39,9.39,0,0,0,8,66.36a2.08,2.08,0,0,0-.21.91c.83,4.14.49,8.4,1.3,12.54a1.51,1.51,0,0,0,.79,1.36C10,80,10.11,79,10.3,78c.12-.67.06-1.66,1.07-1.62,1.17,0,.69,1.06.7,1.69,0,3,.3,6,1.88,8.67.22.36.39.71.86.74.12-.09.34-.24.33-.27-1.49-2.74.64-4,2.26-5.41,1.07-1,2.22-.36,3.13.24a56.35,56.35,0,0,1,5.08,3.75A176.54,176.54,0,0,0,43,98.21a41.91,41.91,0,0,0,5.44,2.62c.76.35,1.6.67,1.81-.65.14-.81.71-1,1.44-1a9.89,9.89,0,0,0,4.67-1.17,32.32,32.32,0,0,1,11.09-2.3,6.28,6.28,0,0,0,2.82-.6,2.39,2.39,0,0,1,1.39-.33c2.32.41,4.44-.38,6.66-.82A86.54,86.54,0,0,1,91,92.34c2.58-.12,5.33-.14,7.64-1.09,3.06-1.25,6.42-1.43,9.36-3.08,1.56-.88,3.54-1.06,5.33-1.48,2.42-.58,4.73-1.69,7.3-1.63a4.93,4.93,0,0,0,1.8-.67c4.58-1.88,9.17-3.6,14.31-3.07,3.88.41,6.25,2.7,8.11,5.76.58,1-.44,2.12-1.63,1.87a3.65,3.65,0,0,1-2-.91c-2.51-2.89-5.87-2.44-9-2.11-3.57.38-7.18,1-10.36,2.93a5.69,5.69,0,0,1-2.06.68,13.12,13.12,0,0,0-6.47,2.54,5.67,5.67,0,0,1-1.31.63C106.47,95.2,101,98,95.45,100.6a51.12,51.12,0,0,0-5.24,2.93c-2.76,1.71-6,2.39-8.65,4.32-.52.37-1.12.65-1.63,1s-1.53.94-1.36,1.84,1.2.6,1.85.81a67.12,67.12,0,0,0,11.15,2.32,50.22,50.22,0,0,1,7.77,1.86,5.74,5.74,0,0,0,2.39.37c4.36-.54,8.39-1.7,12-4.59q3.85-3.12,7.82-6.13a14.9,14.9,0,0,0,3.56-3.26c1.46-2.08,3.86-2.88,5.95-4.07,1.07-.61,2,.22,3,.42,1.4.29,1,1.38,1.2,2.45.56,4,.95,8,2.4,11.86.3.79,1,1.26,1.36,2,.24.5.72,1.11.13,1.52s-1-.26-1.27-.72a19.07,19.07,0,0,1-2.76-6.93c-.28-1.85-.66-3.67-.9-5.52-.17-1.27-.68-1.26-1.8-1-3.31.8-5.63,3-8,5.17s-5.33,4.45-8.07,6.58c-.85.66-1.45,1.51-2.22,2.22s-2,.35-2.44,1.39c.3.86,1.06.64,1.65.71a42.7,42.7,0,0,1,8.06,1.72,30.76,30.76,0,0,0,8.91,1c4.14.06,8.24.52,12.37.75,5.58.31,11.16.07,16.74.09,3.33,0,6.61-.46,9.91-.67a4.31,4.31,0,0,0,1.19-.21c.65-.23,1.63,0,1.82-.93s-.82-.84-1.25-1.26a11.29,11.29,0,0,0-2.89-2.2,2.84,2.84,0,0,1-1.48-1.57c-1-3.2-3.82-4.93-5.86-7.27-2.65-3-5.87-5.53-8.17-8.93-1.06-1.57-2.74-2.73-4.16-4A5.55,5.55,0,0,1,147,93.07c-.71-1.51,0-2.7,1.66-2.37A1.82,1.82,0,0,0,151,89.63c.89-1.57,2.65-2.3,4-3.66-.89-.62-1.6-.24-2.32,0-1.23.42-2.45.84-3.69,1.22a3,3,0,0,1-2.58-.19,2.05,2.05,0,0,1-1.08-1.78,1.51,1.51,0,0,1,1.29-1.55c3.76-1,7.44-2.21,11.32-2.6,1-.09,2-.11,2.9-.27a26.45,26.45,0,0,1,9.83.65A2.87,2.87,0,0,0,174.13,80a180.07,180.07,0,0,1,14.71-18c3.66-4.09,7.52-8,11-12.23a35,35,0,0,1,8.33-7.38c2.66-1.67,5-3.77,7.56-5.66,5-3.77,10.16-7.42,15.32-11,2.12-1.48,4.22-3,6.33-4.5.46-.32,1.05-.66.94-1.29s-.94-.83-1.54-.92a73.32,73.32,0,0,0-8.42-1,74.11,74.11,0,0,1-9.1-1.3c-3.38-.51-6.78-.45-10.14-.88-2.64-.34-5.32-.33-8-.8-6.42-1.16-12.91-.32-19.37-.39a27.52,27.52,0,0,1-4.36-.16,11.51,11.51,0,0,0-4.1.09,46.21,46.21,0,0,1-10.89.52,5.73,5.73,0,0,0-3.27.58,5.51,5.51,0,0,1-3.73.81c-2-.46-3.64.27-5.44.62a47.54,47.54,0,0,1-6.71.61c-4.6.27-9.13,1.16-13.74,1.22a9.11,9.11,0,0,0-2.78.71,37.06,37.06,0,0,1-5.37,1.11c-6,1-11.9,2.32-17.86,3.39-2.87.51-5.69,1.22-8.53,1.84-2,.43-4,0-6,.52a98.82,98.82,0,0,0-19.48,6.64c-5.4,2.58-11,4.72-16.42,7.26C47,43.19,41,46.08,35.2,49.4a15.62,15.62,0,0,0-1.94,1.46,2,2,0,0,1-2.84-.18c-1.26-1.11-1.21-2.29.27-3.1,3.1-1.7,6.1-3.57,9.34-5,4.56-2.08,9-4.5,13.44-6.81a17.53,17.53,0,0,1,5-1.94c1.8-.32,3.25-1.39,4.78-2.22a90.07,90.07,0,0,1,13.59-5.82C81.39,24.16,86.07,22.48,91,22c5.78-.59,11.38-2.37,17.21-2.69a1.91,1.91,0,0,0,.48-.06c4.49-1.72,9.26-2.28,14-3.07,7.63-1.28,15.21-3,23-3a18.53,18.53,0,0,0,6.69-.93,4.53,4.53,0,0,1,2.15-.25,13.32,13.32,0,0,0,4.32-.36,121.52,121.52,0,0,1,22.46-1.43c4.69.09,9.32-.81,14-.67-6.67-.57-13.28-1.9-20-1a18.28,18.28,0,0,1-5.56-.27c-3.71-.62-7.37,0-11.08.31-4.58.4-9,2-13.67,1.59a6.45,6.45,0,0,0-1.7,0,149.46,149.46,0,0,1-15.2,1.6c-8.36.69-16.41,2.86-24.6,4.3a102.82,102.82,0,0,0-13,3,6.44,6.44,0,0,1-1.41.34c-2.83.18-5.47,1.37-8.17,1.82-5.42.89-10.27,3.31-15.44,4.83a8.69,8.69,0,0,0-2.18,1,30.71,30.71,0,0,1-6.45,3.31,3.11,3.11,0,0,0-.89.38c-4.18,3.27-9.34,4.8-13.72,7.72-1.74,1.17-3.27,1.06-4.43,0-1.53-1.43-1.22-3.33.82-4,5.42-1.64,9.87-5,14.71-7.75a90,90,0,0,1,11.25-5.17c2.26-.88,4.4-2,6.7-2.81,5.81-2.08,11.86-3.14,17.83-4.57,6.61-1.58,13.28-2.82,20-4.11,4.52-.88,9-2.23,13.58-2.52,5.65-.35,11.16-1.73,16.85-1.89a156.17,156.17,0,0,0,17.34-1.95,54.74,54.74,0,0,1,14-.51c4.48.51,9.06.05,13.6.13,5.34.09,10.65.74,16,1.19A77.75,77.75,0,0,0,211.62,5a55.54,55.54,0,0,1,15.95,1c2.36.55,4.8.73,7.18,1.18,5.17,1,10.4,1.48,15.61,2.16.31.05.72.05.92.24,1.6,1.55,3,.71,4.62-.1a82.48,82.48,0,0,1,11.71-4.65c6.93-2.28,14-4.18,21.3-4.51a124.08,124.08,0,0,1,23,.63,6.12,6.12,0,0,1,4,1.59c1.35,1.47,1,2.9-.91,3.47a10,10,0,0,1-4.56.26,88.11,88.11,0,0,0-19.14-.71,108.36,108.36,0,0,0-10.8,1,42.05,42.05,0,0,0-5.66,1.26c-4.89,1.47-9.72,3-14.45,4.94a28.87,28.87,0,0,0-3.74,1.73c-4.21,2.43-8.37,4.92-12.55,7.39a1.61,1.61,0,0,0-.42.25c-3.33,3.59-8,5.41-11.52,8.76a8.35,8.35,0,0,1-2.76,2,20.15,20.15,0,0,0-7.1,5c-2.33,2.32-5.14,3.92-7.7,5.87-3.07,2.34-6.61,4-9.26,7-.86,1-1.68,2-2.57,2.89-3.58,3.74-7.12,7.51-10.66,11.29a8,8,0,0,0-1,1.38c-.46.76-.77,1.46.47,1.86a1.45,1.45,0,0,1,1.12,1.43.7.7,0,0,1-.59.67,1.38,1.38,0,0,1-1.79-.82,5.89,5.89,0,0,0-.56-.78c-5.5,4-20.73,24.58-22.41,32.78.27.45.7.27,1.08.26a1.34,1.34,0,0,1,1.48,1,1,1,0,0,1-.45,1,1.31,1.31,0,0,1-1.76.21c-.32-.22-.51-.63-1-.65-1.94,2.61-1.95,2.62.42,4.71a38.69,38.69,0,0,1,5.8,6.53c.82,1.14,2.32,1.73,2.56,3.42a52.07,52.07,0,0,1,4.21-8.22c3.22-5,5.84-10.46,9.92-14.92a5.43,5.43,0,0,0,.86-1.17c2.26-4.41,6.37-7.28,9.31-11.13,1.18-1.56,3-2.64,4.17-4.33.75-1.06,2.17-1,3.39-.68a2.26,2.26,0,0,1,1.7,2.36c.15,2.49-.12,5,.29,7.49a.83.83,0,0,1-.7,1c-.83-1-.84-2.35-1.13-3.56-.41-1.71-.64-1.76-2-.79a3.58,3.58,0,0,0-1.5,4.63,22.63,22.63,0,0,1,.88,3.28c.12.58,0,1.21-.75,1.29s-.82-.47-.92-1A17.1,17.1,0,0,0,201.77,88c-1.13.27-1.25,1.47-2,2s-.15,1,.11,1.5a9.7,9.7,0,0,1,1.23,3.64c0,.51,0,1.24-.73,1.33-.55.06-.8-.48-1-.94s-.27-.94-.46-1.38-.28-1.49-1.16-1.27a1.84,1.84,0,0,0-1.39,1.8A5.81,5.81,0,0,0,197,97a10.13,10.13,0,0,1,.59,1.59,1,1,0,0,1-.45,1.27c-.67.32-1-.2-1.38-.67a4.46,4.46,0,0,1-.27-.67c-.25-.57-.34-1.47-1.14-1.32A1.72,1.72,0,0,0,193.13,99a12.79,12.79,0,0,0,.31,1.92A1.06,1.06,0,0,1,193,102c-.42.28-.78.08-1-.3-.5-.8-1-.92-1.75-.22s-1.19,1.15-.59,2.08c.26.41.47.85.7,1.28s.43.91,0,1.33-.9.23-1.34,0-.77-.76-1.28-.36-.34,1.19-.13,1.79c.27.76.61,1.5.9,2.26.15.38.27.8-.14,1.09a.83.83,0,0,1-1.09-.18c-.54-.49-.77-1.89-1.7-1.24-1.12.78.11,1.68.41,2.52s.57,1.85.85,2.78c.13.41.15.84-.28,1.06s-.88-.16-1.18-.54a3.08,3.08,0,0,1-.39-.62c-.31-.62-.32-1.61-1.29-1.5-.79.08-1,.94-1.39,1.56-.61,1-1.28,2.06-1.8,3.16-.63,1.31-.38,1.85,1.09,1.89,3.16.09,6.3.49,9.47.34,4.21-.19,8.38-.79,12.57-1.19,6.72-.65,13.17-2.44,19.69-4,5.24-1.28,10.53-2.62,16-2.6,5.11,0,9.91-1.46,14.65-3.17.2-.07.33-.33.47-.47,0-.14,0-.25-.07-.29-3.2-2.62-5.55-6.07-8.48-8.94-2.5-2.44-4.16-5.54-6.66-8-2-2-3.77-4.2-6.07-5.93a3.1,3.1,0,0,0-4-.08,40.6,40.6,0,0,0-7.4,5.86,135.59,135.59,0,0,1-12.7,10.87,38.13,38.13,0,0,0-6,6.54.62.62,0,0,0,.58.68,48.51,48.51,0,0,1,8.28,2.77c1.81.68,3.56,1.57,5.58,1.43a2.49,2.49,0,0,1,1,.2c.37.13.8.27.74.79s-.4.45-.72.53a9.21,9.21,0,0,1-5.5-.1c-1.37-.49-2.76-1-4.07-1.58a11.29,11.29,0,0,0-4.68-1.12c-1.36,0-2.38-.4-2.81-2-2.28,2.75-5.35,4.29-7.33,7a2.29,2.29,0,1,1-3.39-3.07c.85-.9,1.79-1.66,1.48-3.1a1.06,1.06,0,0,1,.22-.68c2.37-3.35,4.56-6.86,7.95-9.34A11.41,11.41,0,0,0,202.63,99a31.66,31.66,0,0,1,4.05-4.14c2.14-1.81,4.11-3.86,6.14-5.82a29.51,29.51,0,0,1,7.92-5.49A7.47,7.47,0,0,0,223,82.2c.83-.86,1.57-1.48,2.92-.67.76.46,2.21-.63,2.44-1.77.38-1.93,1.6-3,3.19-4,2.1-1.34,4.5-2.18,6.41-3.85a10.93,10.93,0,0,1,3-1.43c3.66-1.59,7-3.91,11-4.67,2-.38,4.07-.14,5.92-1.12a46.68,46.68,0,0,1,9.52-3.36c2.21-.61,4.48-2.07,7-1.06a1.48,1.48,0,0,0,1,0,29,29,0,0,1,10.76-1.19,4,4,0,0,0,1.17-.22c2.78-.78,5.57-1.4,8.46-.61a3.7,3.7,0,0,0,1.92-.11,39.37,39.37,0,0,1,12.72-.93c2.06.18,4.35.79,6.4-.44a1,1,0,0,1,.7-.15c2.11.77,3.3-.55,4.57-1.87s2.66-2.24,3.76-4.29a5.38,5.38,0,0,1-1.51,4.62c-.82.9-1.75,1.69-2.57,2.58s-1.79,1.82-3.34,1.31c-.88-.29-1.67.23-2.59.84,2.77,1.37,5.21,2.05,7.44-.44a1.49,1.49,0,0,1,1.29-.57c1.74.3,2.45-.77,3.08-2.1a24.55,24.55,0,0,1,3.74-5.36,155.84,155.84,0,0,1,12.2-13.48c.24-.23.49-.43.71-.67.57-.6,1.2-1.24.28-2a1.88,1.88,0,0,0-2.77.18,21.71,21.71,0,0,1-2,3c-.38.39-.86.56-1.25.09s0-.7.22-1.06c2.08-3,1.72-3.89-1.86-4.27-3.13-.33-6.29-.46-9.44-.7a1.43,1.43,0,0,0-1.52.78c-1.93,2.79-4.09,5.41-5.45,8.57-.23.51-.52,1-1.24,1-.59-.47-.08-.89.13-1.22,1.36-2.13,1.81-4.69,3.21-6.79a1.41,1.41,0,0,0,.12-.47c.09-.38.28-.82-.25-1-.34-.13-.62.1-.83.36a6.82,6.82,0,0,0-1.37,2.54c-.21.76-.38,1.59-1.41,1.91-.68-.83.15-1.49.23-2.2s.7-1.69,0-2.29a2.31,2.31,0,0,0-2.74,0,11.43,11.43,0,0,1-3,1,4.46,4.46,0,0,0-3.38,3.44,13.54,13.54,0,0,1-.71,2.06c-.19.41-.49,1-1.08.74s-.42-.82-.14-1.23c.75-1.08.61-2.26.67-3.6-1.73.2-2.14,1.43-2.47,2.52a8.62,8.62,0,0,1-2.23,3.1.75.75,0,0,1-.65.14.55.55,0,0,1-.36-.77c.34-.91.77-1.78,1.08-2.7.48-1.46.22-1.73-1.28-1.56-2.28.28-4.27,1.54-6.5,2-2.05.38-3.47,1.24-3.35,3.62,0,.47-.17,1.11-.72,1.12-.82,0-.65-.74-.73-1.27-.25-1.74-.25-1.74-2.09-1.56a18.12,18.12,0,0,0-6.1,1.37,3.09,3.09,0,0,0-2,2.71c-.13.88-.15,1.78-.29,2.65a.77.77,0,0,1-.87.68c-.51,0-.63-.43-.62-.86,0-.65.12-1.3.08-1.94-.12-1.66-.55-2-2.16-1.66s-3,.9-3.22,3A24,24,0,0,1,273.09,51c-.12.38-.3.8-.83.61a.71.71,0,0,1-.39-.81c.17-1.2.36-2.4.55-3.6.26-1.66.05-1.85-1.64-1.49a16,16,0,0,0-3.35,1.41,2,2,0,0,0-1.11,1.76c-.13,1-.32,2.08-.5,3.11a.65.65,0,0,1-.7.55.68.68,0,0,1-.64-.62,5.78,5.78,0,0,1,0-.72c0-.81.1-1.84-1-1.84s-2.19.14-2.6,1.39c-.3.92-.52,1.87-.75,2.82-.12.5-.3,1-.91.92s-.44-.57-.54-.94c-.25-.88.62-2.35-1.17-2.41s-4,1.24-4,2.66-.9,2.78-.71,4.29a.71.71,0,0,1-.7.82c-.5,0-.51-.54-.53-1,0-.81,0-1.63-.09-2.43-.16-1.54-.44-1.75-1.82-1.28-.91.31-1.77.77-2.66,1.16-.64.28-.67.82-.66,1.42,0,1.7,0,3.4,0,5.1a4.8,4.8,0,0,1,0,1.2c-.11.44-.19,1.07-.86,1-.43-.07-.6-.52-.65-.93-.19-1.44-.34-2.89-.52-4.34-.21-1.61-.24-1.66-1.72-.88s-3.07,1.41-4.52,2.35c-2.57,1.66-2.64,4.25-3,6.78-.1.69.33,1.45-.4,2.19-1-1.33-.95-2.83-1-4.31s-.14-1.7-1.6-1c-1.08.53-2.09,1.23-3.19,1.75-2.2,1.06-2.85,2.92-2.87,5.17a9.1,9.1,0,0,1-.24,3.55c-1.18-.77-.88-2-1.14-3-.44-1.69-.4-1.7-2.06-1-2.24.89-2.71,1.58-2.76,4,0,2-.11,4-.17,6.07,0,.42-.05.89-.52,1-.66.13-.74-.46-.86-.92a22.62,22.62,0,0,1-.35-3.86c-.08-.76.26-1.78-.71-2.13-.79-.27-1.28.52-1.84,1-1.57,1.26-2.41,1.24-3.52,0-.92-1-.87-1.92.16-3a57.14,57.14,0,0,1,9.33-7.29,27.11,27.11,0,0,0,2.48-1.9,18.83,18.83,0,0,1,4.05-3c4.16-2,7.92-4.7,11.91-7,.65-.38,1-.8.63-1.57a1.3,1.3,0,0,1,.57-1.87c.8-.39,1.39,0,1.82.71.62,1,1.39.49,2.1.16,2.86-1.33,5.69-2.71,8.55-4a19.53,19.53,0,0,1,4.26-1.7c4.3-.81,7.93-3.17,11.9-4.72a42.12,42.12,0,0,1,8.19-2.26,26.39,26.39,0,0,0,4.92-1.3c3.52-1.32,7.22-1.79,10.84-2.66a9.06,9.06,0,0,0,1.41-.33c4.41-2,9.18-2.61,13.87-3.4A50.8,50.8,0,0,0,315,28.53c4.27-1.26,8.64-1.19,13-1.53a33.23,33.23,0,0,1,10.59,1.05,46.4,46.4,0,0,0,5.54.75c.51.06,1.15.51,1.51-.19a1.22,1.22,0,0,0-.39-1.34,52.06,52.06,0,0,1-3.61-5.46A39.75,39.75,0,0,0,332,12a23.74,23.74,0,0,0-7.2-3.38c-.78-.24-1.58-.39-2.33-.69-1.66-.68-2.36-1.87-1.92-3.16.35-1,1.44-1.52,3.09-1.21a18.54,18.54,0,0,1,3.28.91,40.68,40.68,0,0,1,18.72,14.79,47.33,47.33,0,0,1,5.62,9.59,15.09,15.09,0,0,1,.66,6.7c0,.75-.67,1.24-1.11,1.82a60.83,60.83,0,0,1-7.29,7.76c-.35.33-.67.71-1,1.07-.69.76-.74,1.48.3,1.92,2.61,1.1,4.41,3.27,6.56,5a5.1,5.1,0,0,1,1.32,1.42c2.43,4,4.38,8.15,4.7,13,.48,7.26-.91,14.37-1.15,21.57a86.08,86.08,0,0,1-.79,11.11c-.87,5.44-1,11-1.85,16.4a110.11,110.11,0,0,0-1.56,15c-.07,4.45-1.09,8.83-1.48,13.26-.76,8.71-1.69,17.41-3,26.06-.61,4.07-1.2,8.15-2,12.21a12.81,12.81,0,0,1-.61,2.09c-.13.36-.38.77-.88.62a.88.88,0,0,1-.66-.92c.37-3.1-.78-6.1-.64-9.17q.51-11.65,1.9-23.24c.47-3.86.84-7.73,1.19-11.6a39.26,39.26,0,0,1,.63-4.31,14.49,14.49,0,0,0,.52-3.36A64.16,64.16,0,0,1,346.28,119c.86-4.63,1.11-9.31,1.65-14a152.8,152.8,0,0,0,1.21-20.19,7.24,7.24,0,0,0-3.57,2.62c-2.51,3.58-6,6.11-9.2,9-2.47,2.18-5.09,4.16-8.51,4.87-1.26.26-2.49,1-3.83,1.23a2.4,2.4,0,0,0-1.26.68c-4.76,5.22-10.8,7.82-17.64,9.1-3.15.59-6.17,1.93-9.32,2.68-.38.09-.8.28-.84.76s.42.87.85,1c1.66.65,3.31,1.33,5,1.85,2.41.73,4.75,1.67,7.06,2.61a29.67,29.67,0,0,1,11.65,8.81c.77.93,1.27,1.13,2.39.54a8.42,8.42,0,0,0,3.19-2.1,2.53,2.53,0,0,1,2.62-.89c1.4.22,1.86-.5,2-1.77a6.43,6.43,0,0,0-.86-3.71c-2.23-4.18-6.1-6.14-10.32-7.55a3.4,3.4,0,0,1-2.11-1.43,2.47,2.47,0,0,1-.14-2.75c.61-1,1.58-.91,2.6-.73,1.91.33,3.37,1.55,5,2.37a21.32,21.32,0,0,1,10.2,10,4.68,4.68,0,0,1,.58,3.25c-1.41,5.92-1.4,12.08-2.6,18-1.28,6.3-1.06,12.72-2.47,19-.56,2.49-.06,5.16-.49,7.74-.88,5.24-.39,10.65-1.83,15.84a4.08,4.08,0,0,0-.12,1.44c.28,3.57-.76,6.88-1.9,10.18-.4,1.15-.65,2.34-1,3.51-.26,1-.55,2-1.83,1.83a2.24,2.24,0,0,1-1.5-2.48c.73-1.71.58-3.49.75-5.24.68-6.84,2-13.6,2.08-20.51,0-2,.54-4,.75-6a3.89,3.89,0,0,0-.45-2.81,27.38,27.38,0,0,0-.68,4.45,50.42,50.42,0,0,1-1.23,10.36c-.8,3.9-.69,8.08-2.9,11.66a4.28,4.28,0,0,0-.39,1.88,39.32,39.32,0,0,1-.8,7.23,3,3,0,0,0,1.11,3.44c1.3,1.05,1.21,2.19.16,3.56A18.47,18.47,0,0,1,318,210a3,3,0,0,0-1,2.61c.21,1.8-.45,3.52-.67,5.28-.05.39-.41.87-.08,1.15,2.05,1.68,1.22,3.94,1,5.88-.87,6.82-1.88,13.63-3.09,20.39A51.73,51.73,0,0,0,313.07,257a11.18,11.18,0,0,0,.2,1.93c.32,1.32,1,2.66-.85,3.5-.31.14-.38.85-.51,1.31-1,3.43-1.19,7-1.86,10.5a138.11,138.11,0,0,0-2.21,16.08c-.12,1.69,0,3.4-.09,5.1a1.1,1.1,0,0,1-.46,1.08c-.8-.15-.61-.81-.59-1.32a172.52,172.52,0,0,1,1.88-21.76c.54-3.26.65-6.59,1.17-9.87.18-1.16,0-2.51,1.54-3,.71-.22.69-.83.64-1.41-.48-5.62.33-11.15,1.12-16.69a12.53,12.53,0,0,0,0-1.94c0-.52-.18-1-.8-1a1,1,0,0,0-1.16,1,6.35,6.35,0,0,0-.08,1,87.66,87.66,0,0,1-2.25,17.06c-1.5,6.69-2.62,13.47-3.64,20.25-.13.83,0,1.74-.71,2.37-.68-.26-.53-.67-.46-1.06.66-4.15,1.37-8.3,2-12.46.91-6.08,2.29-12.09,2.7-18.24a61.15,61.15,0,0,0,.07-7.29c0-.71-.34-1.74.31-2.06,1.59-.79,1.17-2.08,1.2-3.33.07-2.5.25-5,.32-7.52s-.24-4.85-.35-7.27c-.06-1.47-.43-1.55-1.59-.77a7.54,7.54,0,0,0-3.57,5.64c-.61,4.3-1.87,8.52-2.84,12.77-.25,1.09-.42,2.2-.66,3.46-.69-.42-.29-.92-.26-1.27a59.63,59.63,0,0,1,1.51-8.59,68.16,68.16,0,0,0,1-7.7c.14-1.2-.4-1.7-1.67-1.77-3.52-.21-3.62-.08-4.21,3.47-.92,5.43-2,10.83-3,16.24,0,.23-.07.49-.53.54.58-4.23,1-8.46,1.78-12.64.41-2.33.25-4.7.82-7a1.66,1.66,0,0,0-1-2c-1.31-.64-2.54-1.43-3.82-2.11-1.57-.85-2.8-.86-4,.42ZM268.4,132.34c-1.61.32-2.39-.52-2.81-2a17.45,17.45,0,0,0-1-2.72c-.94-1.94-2-2.34-4.09-1.94a65.76,65.76,0,0,0-7.3,1.77,14.28,14.28,0,0,1-5,.87,3.25,3.25,0,0,0-2.65.89c1.36.8,2.5,1.57,3.72,2.17a25,25,0,0,1,6.69,4.32,34.14,34.14,0,0,0,4.9,3.53c1.6,1.09,2,1,3.23-.52a47.91,47.91,0,0,0,4.27-6.47,26.33,26.33,0,0,0,5.16-9.41,36.45,36.45,0,0,0-6.29,1.52c-1.12.28-1.2.81-.78,1.74A43.33,43.33,0,0,1,268.4,132.34Zm11.48-64.26h-1c-2.86,0-3.12.44-1.66,3a4.45,4.45,0,0,1,.81,2.21c.06,4.12-.18,8.27,1.29,12.25.35,1-.26,1.33-1.17,1.29a1.75,1.75,0,0,1-1.59-1.29,8.9,8.9,0,0,1-.51-3.35c0-3.65-.61-7.26-.95-10.88-.26-2.79-1.24-3.41-3.9-2.59-4.54,1.41-9.32,2.17-13.5,4.64a9.5,9.5,0,0,1-1.59.61c-2.25.85-4.54,1.64-6.76,2.56-3.19,1.31-6.13,3.17-9.59,3.91a18.3,18.3,0,0,0-4.13,2c-.76.39-.85.92-.27,1.54.28.3.59.56.87.85,2.75,2.85,5.6,5.61,8.19,8.59,3.7,4.26,6.84,9,11.61,12.24a2.52,2.52,0,0,1,1,1.33,1.35,1.35,0,0,0,1.75.9c3.88-.85,7.9-.86,11.74-1.94,2.41-.69,4.83-1.33,7.26-1.95,1.81-.47,2-.73,1.88-2.72-.19-2.42-.42-4.84-.57-7.26-.06-1-.33-2.42,1.21-2.42,1.37,0,1.05,1.36,1.14,2.27.23,2.18.39,4.36.66,6.52.1.78.27,1.86,1.23,1.89a16.79,16.79,0,0,0,7.15-1,1.41,1.41,0,0,0,.68-1,15.36,15.36,0,0,1,2.64-4.25c2.21-3.08,4.14-6.36,6.77-9.14a22.72,22.72,0,0,0,2.51-3c2.76-4.18,6.16-7.83,9.37-11.64a35.43,35.43,0,0,0,3.35-4.47c.83-1.38.74-1.66-.74-2a22.68,22.68,0,0,0-4.32-.66,94.91,94.91,0,0,0-16,1.07C289.7,67,284.66,67.75,279.88,68.08ZM313.57,197.4a3.88,3.88,0,0,1-2.7-2.27,35.28,35.28,0,0,1-4.1-20.64,4.38,4.38,0,0,0-.21-2.38,56.72,56.72,0,0,1-4.22-16.39c-.33-2.49-.62-5-.91-7.48-.11-.94-.24-1.88-1.49-1.73s-1.26,1-1.13,2a34,34,0,0,1,.53,4.58,89.22,89.22,0,0,0,2,17.32c.29,1.5.31,3.08,1.73,4.12a1,1,0,0,1,.28,1.32.93.93,0,0,1-1.22.5c-1.62-.66-1.74.31-1.83,1.53-.13,1.91.81,3.63.92,5.49.25,4.55,1.61,8.91,2.57,13.31.84,3.81,1.64,7.78,3.68,11.26a1.5,1.5,0,0,1,.21.68c0,.49,0,1-.59,1.19s-.74-.21-1-.56c-.77-1.11-.72-2.47-1.1-3.69-2.76-8.75-4.43-17.74-6.07-26.73-.51-2.77-.87-5.61.35-8.36a2.68,2.68,0,0,0,0-1.43c-.59-3.27-.91-6.58-1.21-9.89a79.68,79.68,0,0,0-1.25-9.36c-.37-1.72-1.31-2.1-2.79-1.27-.89.5-.87,1.34-.78,2.13.24,2.09.61,4.17.84,6.26s.76,4.3.8,6.49a27.39,27.39,0,0,0,2,10.62c.41.94.8,1.76-.23,2.58a1.82,1.82,0,0,0-.66,1.75c.67,4.71,1.35,9.41,2.37,14.06.67,3,1.52,6,1.95,9a59.69,59.69,0,0,0,1.91,9.74,8,8,0,0,1,.31,1.16.57.57,0,0,1-.46.73.9.9,0,0,1-.64-.23,4.24,4.24,0,0,1-.94-2.45c-1.16-6.77-2.34-13.55-4-20.23-1-4.17-2.41-8.24-2.57-12.59a5.3,5.3,0,0,1,.66-3.47,1.92,1.92,0,0,0,.34-1.83c-1.4-4.18-1.59-8.58-2.35-12.88-.47-2.64-.32-5.34-1-8-.38-1.49-1.14-1.86-2.42-1.16-.89.47-.6,1.2-.5,1.91.77,5.61,1.68,11.2,2.25,16.82a54,54,0,0,0,2.18,10.92c.16.53.22,1.11.35,1.66a1.24,1.24,0,0,1-.21,1.15c-1.6,1.74-1.58,4-1.82,6.09a12.21,12.21,0,0,0,.47,5.53c.55,1.52-.25,3.1.11,4.55a135.43,135.43,0,0,1,2.58,13.58,9.29,9.29,0,0,0,2,5.13c1.74,1.83,4.18,1.94,6.59,1.42a1.36,1.36,0,0,0,1.06-1.44c.06-1.22.51-1.89,1.84-1.34a1.39,1.39,0,0,0,1.71-.5,17.4,17.4,0,0,0,3.12-4,6.15,6.15,0,0,1,2.17-2.8,1.17,1.17,0,0,0,.65-1.43c-1-2.4-.4-4.74.34-7a13.91,13.91,0,0,0,.58-4.79c-.05-1.3-.05-2.59-.06-3.89a6,6,0,0,1,1.29-4.29,7,7,0,0,0,1.42-3.83c.44-3.51,1-7-.06-10.56-.72-2.35-.76-5,1.54-6.94a2.24,2.24,0,0,0,.56-1.56,24.86,24.86,0,0,1,.82-3.3c.86-3,1.57-5.94.75-9.07-.49-1.88-.8-3.81-1.14-5.72a12,12,0,0,0-1.7-4.26c-.66-1.07-1.14-1-1.93,0-1,1.23-.63,2.62-.58,4,.09,2.59,1.05,5.09,1.1,7.65a34,34,0,0,0,1.33,7.87c.11.44.5.88-.31,1.58-.52-1.86-1.53-3.36-1.74-5.23-.24-2.08-.54-4.17-.87-6.24-.44-2.72-.93-5.42-1.43-8.13-.1-.53-.08-1.21-.82-1.34-1.11-.19-3.62,2-3.67,3.15a24.92,24.92,0,0,0,.44,6.28c1.08,5,1,10.19,3.61,14.78a.62.62,0,0,1-.17.86c-.5.14-.7-.23-.94-.55a15.53,15.53,0,0,1-2.75-6.43c-.87-4.52-2.24-9-2.21-13.63,0-1-.26-1.92-1.65-1.9-1.65,0-2,.25-2.19,1.84a4.83,4.83,0,0,0-.09,2.17c.73,2.1.64,4.31.88,6.47.64,5.86,1.29,11.71,4.6,16.85a1.84,1.84,0,0,1,.08,1.17,43.68,43.68,0,0,0,0,10.41A32.8,32.8,0,0,0,311,193C311.6,194.56,312.9,195.71,313.57,197.4ZM54.91,103.3c6,3.9,12.89,4.28,19.58,6.54-.16-1.46-.26-2.69,1-3.06a13.16,13.16,0,0,0,3.08-1.88c3.87-2.4,8.29-3.65,12.21-5.92.84-.49,1.68-1,2.5-1.49s1.86-.4,2.32-1.43c-1.68-.83-3.16,0-4.64.16a65.37,65.37,0,0,0-10.31,1.37c-3.79,1-7.66.75-11.46,1.46a61.32,61.32,0,0,0-6.89,1.23C59.85,101,57.2,101.32,54.91,103.3ZM164.83,86.72a2.86,2.86,0,0,1-1.32,2.78c-1.77,1.55-3.52,3.11-5.3,4.64a4.84,4.84,0,0,0-1.45,1.91c-.35.9.36,2.29,1.44,3.08s1.4-.27,2-.72c1.59-1.29,2.38-3.29,4-4.59,2.7-2.21,4.37-5.15,6.08-8.09.28-.48.77-1,.27-1.52a1.13,1.13,0,0,0-1.56-.13c-1.54,1.2-3.22.77-4.9.53a5.25,5.25,0,0,0-5.1,1.54,7.49,7.49,0,0,1-1.79,1.23c-1.37.85-2.75,1.69-4,2.66-1.74,1.3-1.74,1.72-.33,3.25s1.61,1.75,3.12,0C158.31,90.52,161.8,89.29,164.83,86.72Zm121.36,111a70.71,70.71,0,0,0,2.31,15,3.73,3.73,0,0,0,2.1,2.53c.79.37,1.64.6,2.44,1s1.55,0,1.22-.92c-.65-1.86-.61-3.82-1.1-5.69a106.15,106.15,0,0,1-2.48-11.56c-.32-2.24-.55-4.49-.92-6.72-.18-1.09-.71-1.21-1.43-.41-1.39,1.57-2.9,3.1-2.16,5.53A4,4,0,0,1,286.19,197.71Zm19.7-69.61c0-.56,0-1.13.11-1.69a1.38,1.38,0,0,0-1.05-1.65c-1.89-.71-3.73-1.54-5.65-2.15-2.27-.71-2.63-.37-2.37,1.93.44,3.84.83,7.69,1.37,11.52a12.46,12.46,0,0,0,1.23,3.63c.38.77,1.09,1.51,2.16,1s.94-1.42.62-2.29a43.28,43.28,0,0,1-1.68-6.32,18.94,18.94,0,0,1-.58-6c.09-.72.54-1.28,1.26-1.23s.53.84.56,1.36A48.92,48.92,0,0,0,304,137.15a4.74,4.74,0,0,0,.4,1.13A2,2,0,0,0,307,139c1-.34.62-1.17.47-1.85s-.39-1.4-.56-2.11A22.24,22.24,0,0,1,305.89,128.1Zm-23.42-3.21a49.3,49.3,0,0,0,.41,6.92c.38,3.69,1,7.35,1.69,11a8,8,0,0,0,.84,2.27c.49.9,2.79,1.13,4,.44s.33-1.45.1-2.11a90.82,90.82,0,0,1-3.91-16.48c-.29-1.92-.74-3.8-1.1-5.71-.14-.76-.33-1.47-1.31-1.4s-1,.83-1,1.6C282.31,122.54,282.38,123.67,282.47,124.89Zm-80-114.82a13.31,13.31,0,0,0,4.94,1c3.57,0,7.09.53,10.64.82,3.3.27,6.45,1.45,9.79,1.53,1.06,0,2.08-.21,3.13-.13a36,36,0,0,1,11.55,2.46c1.54.64,2.39.22,3.62-1.48-2.68-.4-5.17-1.42-7.88-1.25a13.77,13.77,0,0,1-4.55-.64,79.83,79.83,0,0,0-17.46-2.54C211.65,9.63,207.08,10.78,202.46,10.07Zm87.29,110.15c.37-1.35-.74-1.23-1.42-1.41s-1.49,0-1.53,1a15.88,15.88,0,0,0,.15,1.68c.26,3.22,1,6.36,1.48,9.54a54,54,0,0,0,2.95,11.45c.21.56.12,1.76,1.18,1.45s.48-1.18.32-1.86a2.24,2.24,0,0,0-.14-.46c-1.18-2.64-1.28-5.48-1.59-8.28-.4-3.61-.9-7.21-1.37-10.81C289.67,121.74,289.17,121,289.75,120.22Zm-13.5,8.19c-.92,1.26-1.73,2.26-2.4,3.34-.29.49-.83,1.22,0,1.71,1.15.72,1.13,1.88,1.33,3a50.12,50.12,0,0,1,.56,7.74,9.29,9.29,0,0,0,.37,2.63c.42,1.25.89,1.38,2.47,1.07,1.41-.27,1.17-1.19.84-2-1.38-3.46-1.35-7.12-1.69-10.73-.11-1.21-.14-2.43-.27-3.63A4.4,4.4,0,0,0,276.25,128.41Zm18.84,10.17c1,1,1,2.09,1.29,3.08.15.47.42.94,1,.84s.61-.68.53-1.15-.31-1.09-.44-1.64c-.26-1.17-.74-2.27-1-3.47-.84-4-1.13-8-1.77-12a17.51,17.51,0,0,0-.74-3,1.37,1.37,0,0,0-1.6-.82c-.8.15-.53.84-.48,1.38.3,3,.58,5.93.91,8.9a60.64,60.64,0,0,0,1.53,9.13Zm-145.86,102c0-1.35.09-2.4,0-3.42-.67-6.34-1.38-12.68-1.67-19a3.36,3.36,0,0,0-.08-.71c-.14-.5-.41-.92-1-.92a1.05,1.05,0,0,0-1.08.81,8.21,8.21,0,0,0-.16,1.92c0,3.21.73,6.41.12,9.64a4.29,4.29,0,0,0,.34,2.13,38.41,38.41,0,0,1,1.57,6.58A3.6,3.6,0,0,0,149.23,240.59ZM328,135.72c-1-.27-1.71.32-2.45.56-2.65.9-2.95,1.42-2.76,4.2a5.29,5.29,0,0,0,.77,2.76,8.14,8.14,0,0,1,1.21,4.59,38,38,0,0,0,.49,3.84c.08.52.1,1.14,1,1.39C326.43,147.19,328.87,141.62,328,135.72ZM259.38,66.88c-1.6.23-3,1.33-4.64,1.12a11.44,11.44,0,0,0-3.06.47,13.08,13.08,0,0,0-7.34,3.17.42.42,0,0,1-.22.08c-3.89.45-6.51,3.5-10,4.81a1,1,0,0,0-.67.93C235.59,77.39,257.64,68.56,259.38,66.88ZM277,121.29c1.08,1,1.81,2,1.39,3.36a3,3,0,0,0,.19,1.41,72.17,72.17,0,0,1,1.52,13.67,18,18,0,0,0,1.4,6.1c.24.58.53,1.28,1.39,1s.52-1,.4-1.61c-.59-2.76-1.25-5.5-1.73-8.27a118.09,118.09,0,0,1-1.47-14.18C280,120.74,279.4,120.45,277,121.29Zm9.65,90.47c0-.87-.79-1.8-1-2.92q-.75-5.15-1.52-10.29c-.08-.54.07-1.25-.79-1.22a1.29,1.29,0,0,0-1.25,1,8.5,8.5,0,0,0-.08,3.62c.48,2.95,1.05,5.88,1.62,8.82a2.94,2.94,0,0,0,1.49,2.12c.34.18.71.46,1.12.26S286.6,212.47,286.61,211.76Zm26.28-76.91a31.51,31.51,0,0,1-.71-4,4.26,4.26,0,0,0-2.7-3.7c-1-.54-1.56-.33-1.52.84a38.71,38.71,0,0,0,1.39,8.82c.14.48.4.91,1,.92C311.14,137.68,312.92,135.7,312.89,134.85Zm-.73,99.68c1.38-4.51,1.67-9.19,2.24-13.82.21-1.76.25-3.54.37-5.31,0-.4.07-1-.44-.93-1.37.26-1.37,1.87-2.34,2.59a1.11,1.11,0,0,0-.48,1.26.53.53,0,0,0,.39.25c1,.08,1,.66.92,1.52A88.15,88.15,0,0,0,312.16,234.53ZM277.3,203.16c.67,2.32,1.34,4.66,2,7a1.73,1.73,0,0,0,.95,1.05,1.08,1.08,0,0,0,1.14.08.82.82,0,0,0,.19-1.1c-.69-1.33-.64-2.83-1-4.24s-.54-2.86-.83-4.29c-.09-.5-.38-1.09-.94-.74C278.07,201.39,277.23,202,277.3,203.16ZM154.24,231a2.86,2.86,0,0,0,.6-2.62c-.24-2.58-.61-5.14-.66-7.74,0-2.34-.42-4.67-.68-7-.05-.48-.2-1-.86-.9-.49.1-.48.6-.47,1s.14,1,.19,1.45a75.51,75.51,0,0,1,.86,9.16C153.17,226.45,153.84,228.55,154.24,231Zm117.33-23.71c1.74.73,3.12,1.34,4.53,1.89,1.11.42,1.42.13,1.19-1.14a14.28,14.28,0,0,0-1.61-4ZM277,61.93v.67a52.55,52.55,0,0,0,14.32-1.29,1.88,1.88,0,0,0-2.61-.68,11,11,0,0,1-3.79.59C282.28,61.33,279.64,61.68,277,61.93Zm26.07,35.45c-3-1-4.32-.67-5.81,2.28C299.54,99.82,301.12,98.39,303.08,97.38ZM211,93.92c2.24-1.37,4.39-2.8,5.72-5.13C213.93,89.57,213.05,92.45,211,93.92Zm51.23-28.31c2.16-.81,4.78-.17,6.53-2.1C266.61,64.48,264.22,64.52,262.19,65.61ZM163.64,98A9.88,9.88,0,0,0,161,100.4a.76.76,0,0,0,.19,1.07.58.58,0,0,0,1-.15A8.53,8.53,0,0,0,163.64,98Zm151.27,34.51c.06.5.22.94.81,1a.53.53,0,0,0,.54-.62.9.9,0,0,0-.72-.81C315.18,131.91,315,132.09,314.91,132.48ZM156.72,241.15c-.15-.71-.06-1.43-.94-1.68-.09,0-.35.14-.36.23C155.3,240.54,155.72,241,156.72,241.15ZM274.1,63c-1.38-.56-1.38-.56-2.23-.14C272.44,63.3,273.06,63.11,274.1,63ZM154.39,232.26c-.08.14-.24.27-.22.38.07.4-.1,1.23.56.93C155.18,233.37,155,232.6,154.39,232.26Z"/><path d="M109.27,473.94a10.16,10.16,0,0,1-7.91-.38c-2.2-1-4.31-2.23-6.51-3.24a16.17,16.17,0,0,0-4.1-1.45,21.13,21.13,0,0,1-6.89-2.93,78.29,78.29,0,0,1-15.58-11.85c-3.32-3.19-7-6.06-10.19-9.34-2-2.08-4.1-4.14-6.14-6.21a42.06,42.06,0,0,1-5.83-7.72c-4.74-7.76-7.28-16.34-9.45-25.05a146.19,146.19,0,0,1-3.14-19.87c-.62-5.79-1.21-11.59-2.15-17.35a136.44,136.44,0,0,1-1.45-14c-.34-6.06-.74-12.14-1.53-18.15-.56-4.23-1-8.5-2-12.68a12.57,12.57,0,0,1-.11-3.63c.08-1.37.86-1.86,2.14-1.42a3.08,3.08,0,0,1,2.26,2.61c1,7.94,2.71,15.78,3.12,23.8.22,4.12.83,8.21,1.12,12.33.61,8.72,2.1,17.33,3.19,26,.8,6.33,1.23,12.72,2.38,19,.84,4.59,2.5,9,4,13.5a74,74,0,0,0,7.14,14.78,13.7,13.7,0,0,0,1.72,2c3.09,3.42,6.36,6.65,9.71,9.83,3.16,3,6.49,5.82,9.53,9,2.54,2.6,5.65,4.55,8.55,6.74a36.14,36.14,0,0,0,12.36,6.54,22.43,22.43,0,0,1,4.87,2.13c1.07.58,1.49.28,1.52-.91.07-2.7-.39-3.15-3-4.07-4.12-1.43-8.28-2.84-11.36-6.2-1.45-1.6-3.53-2.23-5.28-3.37-4.73-3.07-9.6-6-13.79-9.77-3.35-3-6.76-6-9.16-10-1.4-2.33-3.26-4.37-4.6-6.79A93.27,93.27,0,0,1,45.11,407c-.28-.92-.63-1.82-1-2.73-1.88-5-2.33-10.41-3.51-15.61-.23-1-.58-2-.76-3.06s-.27-2.32.68-2.92c1.12-.72,2.5-1.32,3.88-.47a14.42,14.42,0,0,1,5.08,5.73c.07.14.19.35.13.44-1.16,2,.66,2.81,1.43,4.12,2.53,4.29,7,6.43,10.56,9.56A14.31,14.31,0,0,0,64,403.21c1.68,1,3.34,1.94,5,3a55.25,55.25,0,0,0,13.22,6.55c2.52.86,5,1.79,7.5,2.76a78,78,0,0,0,15.81,4.52c3.79.61,7.26,2.21,11,3,5.45,1.11,10.81,2.7,16.37,3.22a3.13,3.13,0,0,0,1.91-.2.9.9,0,0,1,1.28.22,2.64,2.64,0,0,0,2.23.73c8,0,15.75,1.75,23.59,2.86a14,14,0,0,0,2.66.24c7.36-.38,14.74-.3,22.1-.07,3.55.11,7.12.32,10.65.17a46.89,46.89,0,0,0,10-1.46c3.56-1,6,1.27,5.41,4.95a15.73,15.73,0,0,0-.29,2.89,2.28,2.28,0,0,0,2.18,2.17c1.17-.06,1.71-.65,1.69-2.14,0-1.9.47-3.81-.77-5.63-.69-1,.68-2.47,2.41-2.51,2.13-.05,4.17-.55,6.25-.8A147.55,147.55,0,0,0,243,423.93c4.52-1.17,8.74-3.35,13.06-5.17,6-2.55,11.6-6.05,17.62-8.65,3.16-1.37,6-3.49,9-5.24a87.44,87.44,0,0,0,8.6-5.42,53.57,53.57,0,0,0,6.61-6.06c2.34-2.45,4.72-4.87,6.89-7.45,1.33-1.59,2.26-3.5,3.7-5a34.77,34.77,0,0,1,4.11-4.12c1.84-1.4,3.88-.79,4.51,1.45a9.8,9.8,0,0,1,.09,4.57,206.69,206.69,0,0,1-5.7,22.08c-1.06,3.33-1.64,6.75-2.36,10.15-1,4.56-1.52,9.21-2.76,13.71a4.51,4.51,0,0,1-.82,1.74,15.1,15.1,0,0,0-2.46,4.72,6.87,6.87,0,0,1-1.85,3.08c-1.38,1.16-1.75,2.88-2.86,4.15a1.17,1.17,0,0,0-.26,1.35c.78,1.49-.06,2.4-1,3.38-2.88,2.94-5.64,6-9.2,8.21a18.72,18.72,0,0,1-3.67,1.82,17.74,17.74,0,0,0-5,2.38,17.21,17.21,0,0,1-7.59,3,5.58,5.58,0,0,0-1.6.53,29.17,29.17,0,0,1-12.13,3.16,3.85,3.85,0,0,0-2.08.59c-1.09.78-2.05.47-3.16-.05s-1.11-1.42-1.35-2.49c-1.08-4.93-.66-9.94-1.15-14.9-.27-2.72.17-5.5.24-8.25a22.43,22.43,0,0,0-.31-4.84c-.23-1.14-.7-1.46-1.86-1.05a71.16,71.16,0,0,0-8.42,3.74,37.23,37.23,0,0,1-12.44,3.57c-6.44.83-13-.11-19.36,1.36a15.94,15.94,0,0,1-5.51,0c-5.4-.73-10.82,0-16.18-.58-4.73-.52-9.54-.33-14.2-1.47a1,1,0,0,0-.24,0c-4.29.48-8.54-.43-12.82-.3a11.5,11.5,0,0,1-2.42,0c-4.6-.91-9.23-1.57-13.88-2.16a38.32,38.32,0,0,0-3.86-.28c-3.65-.06-6.88-1.74-10.31-2.6a30.8,30.8,0,0,0-8.86-1.2,28.75,28.75,0,0,1-6.52-.61c-.56-.1-1.11-.22-1.68-.27-2.43-.23-2.86.09-3.1,2.5A121.27,121.27,0,0,0,108,455a11.31,11.31,0,0,1,0,1.93,2.45,2.45,0,0,0,1,2.65c1.77,1.34,1.13,3.53,1.16,5.43a.73.73,0,0,1-.85.69.94.94,0,0,1-.92-1c0-.71.28-1.41.33-2.13,0-.54.16-1.29-.5-1.48-.84-.26-.74.62-1,1.08-1.1,2.28-2.08,2.94-3.83,2.51-.3-.08-.57-.31-.88-.41-.78-.25-1.23.12-1.45.85a4.19,4.19,0,0,0,1.45,4.26,21.54,21.54,0,0,0,6,3.46A.94.94,0,0,1,109.27,473.94ZM91.4,424.67a2.49,2.49,0,0,0-.76,2.4c.2,2.32.5,4.67-.57,6.91a2.2,2.2,0,0,0-.1,1.2c.37,2.2-.23,4.32-.44,6.49-.28,3-.21,6-.29,8.95,0,.41,0,.88.51,1s.86-.33,1-.85.07-.81.1-1.21c.31-4.92.68-9.83.9-14.75.16-3.39.39-6.79-.35-10.15a3,3,0,0,0,.09-2.92,10.12,10.12,0,0,0-.13,1C91.32,423.38,91.37,424,91.4,424.67Zm191,17.37a1.86,1.86,0,0,1,.36,1.88,18.79,18.79,0,0,0,.11,5.8c.23,1.75.71,2,2.39,1.45a3.85,3.85,0,0,0,1.06-.56,56.5,56.5,0,0,0,5.27-4.27c1-1,1.64-1.89.91-3.37a5.38,5.38,0,0,1-.32-2.14c-.32-8-.24-16,0-24a46.29,46.29,0,0,0-.23-8c-.48-3.33-.4-3.33-3.31-1.58-.91.54-1.78,1-1.87,2.3-.32,4.43-1,8.85-1.06,13.29-.07,6.21,0,12.44.46,18.66a7.75,7.75,0,0,0,1.06,3.93,3,3,0,0,1,.43,2.09,1,1,0,0,1-.84,1c-.48.07-.72-.29-.94-.63a7.56,7.56,0,0,1-1.11-3.43,89.14,89.14,0,0,1-.74-9.66c.08-4.91-1.22-9.82,0-14.74.09-.4.07-.9-.46-.95s-.48.49-.63.84c-1.11,2.61-.88,5.38-1.05,8.11-.18,3-.14,5.92-.58,8.9-.3,2.1-.87,4.47.1,6.75C282,443.35,281.6,442.48,282.38,442Zm17.73-29.67h.33c0-3.4.06-6.8,0-10.2,0-1.3.8-3.19-.6-3.76-1-.42-2,1.37-3,2.13a6.68,6.68,0,0,0-3,6.71c.56,3.63.12,7.27.21,10.9a75.39,75.39,0,0,1-.69,12c-.56,4,.45,7.88.26,11.82a1,1,0,0,0,.75,1.13c.58.13.84-.42,1.08-.81a8.45,8.45,0,0,0,.74-1.51c.68-1.74,1.4-3.46,2-5.22.71-2.23,1.92-4.32,1.93-6.74Zm-22.67,34.21c.13-.28.19-.69.41-.82.38-.22.6.19.62.48.07,1,.06,1.93.11,2.9a4.6,4.6,0,0,0,1.19,3.36,1.19,1.19,0,0,0,.4-1.26,78,78,0,0,1-.36-16.45c.41-6.22.86-12.43,1.24-18.65a15,15,0,0,0-.27-3.12c-.14-.85-.71-1-1.43-.58a4.16,4.16,0,0,0-2.3,3.68c-.21,7.34-.23,14.68.06,22a14.64,14.64,0,0,1-.13,3.38A13.4,13.4,0,0,0,277.44,446.58ZM268,448.27c-.15,2.61.62,5.11.83,7.66.07.86.35,1.7,1.45,1.53s1-1.14.86-1.93c-.19-1.52-.49-3-.67-4.56a57.63,57.63,0,0,1-.44-13.06q1-9.39,2.07-18.8c.08-.78.33-1.72-.45-2.25s-1.51.27-2.26.46a1.25,1.25,0,0,0-.95,1.69,9.29,9.29,0,0,1,.21,2.41c.11,5.18-.44,10.33-.8,15.5-.07,1-.45,2.25.11,3.1,1.19,1.78.72,3.56.47,5.38C268.31,446.36,268.15,447.32,268,448.27ZM61.77,429.55a4.28,4.28,0,0,0,.89-3.07c.18-3.23.33-6.45.77-9.66.3-2.16.41-4.35.65-6.52a2.74,2.74,0,0,0-1.74-3.08c-2.15-1.06-2.27-1.06-2.59,1.42a83,83,0,0,0-.45,15.2A7.89,7.89,0,0,0,61.77,429.55Zm4.95,6.07a1.1,1.1,0,0,0,.51-1.19c-.06-3.47.33-6.91.58-10.36.27-3.77,1-7.53.65-11.33a3.12,3.12,0,0,0-.73-2.24,1.36,1.36,0,0,0-1.31-.46c-.47.15-.49.6-.49,1,0,2.66-1.35,5.15-1,7.86a1.72,1.72,0,0,1-.17,1c-.95,1.71-.8,3.59-.82,5.43a20.35,20.35,0,0,1-.18,4.35C63.12,432.53,65.08,434,66.72,435.62ZM274.12,424c-.79,2.14-.71,4.34-1,6.48-.32,2.29-.6,4.58-1.05,6.86-.57,2.95-.12,6.1-.1,9.16a1.87,1.87,0,0,0,.17.93c.95,1.44.9,3.07,1,4.68.06,1.05.15,2.1.25,3.15.06.62.36,1.12,1,1.14a1.35,1.35,0,0,0,1.44-1.07,5,5,0,0,0,0-1.44c-.62-6.42-.62-12.87-1-19.3C274.59,431,274.79,427.46,274.12,424Zm31.8-31.38c-1.84,1.38-3.05,2.47-3.16,4.63s-.42,4.49-.46,6.76.28,4.61-.25,6.75c-1,3.86-.25,7.71-.48,11.55,0,.06.25.14.38.21C305.26,412.9,305.79,403,305.92,392.58ZM262.36,421.5c-1.18.21-1.29,1.05-1.28,1.85.05,2.91-.31,5.8-.42,8.7-.05,1.33-.78,2.47-.66,3.78.34,3.45-.41,6.91.05,10.38a17.61,17.61,0,0,1,.36,4.32c-.33,2.84.38,5.63.16,8.45-.05.66-.11,1.8,1.28,1.47,1.13-.28,1.6-.75,1.18-2.05a16.38,16.38,0,0,1-.87-4.51c-.14-6-.51-11.93-.26-17.92a88,88,0,0,1,.67-10.39A12.22,12.22,0,0,0,262.36,421.5ZM89,425.39c0-.95,0-2.32,0-3.7,0-.6.12-1.54-.7-1.61-1-.1-.81,1-1,1.61a5.93,5.93,0,0,0-.21,1.19c-.1,1.78-.08,3.57-.29,5.33a159.39,159.39,0,0,0-1.3,17.18,19.23,19.23,0,0,0,.55,3.82,1.15,1.15,0,0,0,1.16,1.05c.6-.05.6-.67.64-1.15.07-.73.13-1.46.16-2.18C88.27,439.89,88.37,432.85,89,425.39Zm-31.52-1.51c.37-.65.51-.79.51-.92a121.78,121.78,0,0,1,0-14.55,14.41,14.41,0,0,0-.11-3.15,1.8,1.8,0,0,0-1.6-1.61c-1,0-.83,1-.88,1.68a72.63,72.63,0,0,0-.31,11.61A19.1,19.1,0,0,0,57.47,423.88Zm207.71,27.56c.29-3.91.67-7.56.61-11.27-.07-4.68.35-9.36.46-14.05a49.85,49.85,0,0,0-.28-5.31c-.06-.64-.48-1.05-1.2-.67-.57.3-.51.7-.18,1.18a4.25,4.25,0,0,1,.59,3.25c-.88,5.18-.76,10.45-1.17,15.67C263.71,444,264.64,447.56,265.18,451.44ZM83.17,424c.11,1.53.61,3.1.2,4.58-1.21,4.45.26,9-.77,13.46a.76.76,0,0,0,.76,1c.5,0,.61-.45.64-.87s0-.65,0-1c.51-4.83.29-9.69.83-14.52a65.87,65.87,0,0,0,.16-7c0-.68-.21-1.37-1.07-1.32s-.77.74-.78,1.3C83.15,421.13,83.17,422.58,83.17,424ZM69.82,438.18c.18-.31.33-.44.33-.58.12-4.85.33-9.69.86-14.51.26-2.42.4-4.84.6-7.25.07-.88.25-1.87-.88-2.69a19,19,0,0,0-.58,3.83,80.18,80.18,0,0,1-.77,9.9c-.45,2.94-1.25,5.88-.63,8.89C68.92,436.59,68.68,437.59,69.82,438.18Zm188.07-14a8.32,8.32,0,0,0-1.19,5.37c.16,4.44.42,8.89.52,13.34.06,2.61-.31,5.25.85,8.07,0-4.75.12-9.2,0-13.65S259.27,428.5,257.89,424.14ZM50.4,407.7c.29-.07.34-.31.37-.54a26.34,26.34,0,0,0-.41-8.41,6.74,6.74,0,0,0-3.51-4.4C46.43,396.82,47.89,402.18,50.4,407.7Zm28.45,12.16c-.73.57-.46,1.27-.52,1.86-.11,1-.07,2.11-.25,3.14a66.71,66.71,0,0,0-.86,15.9,15.78,15.78,0,0,0,.63,3.33c.43,1.44,1.68,2.1,3.58,1.81-2.64-1-2.81-3.13-2.93-5.24A84.68,84.68,0,0,1,79,423,6.4,6.4,0,0,0,78.85,419.86Zm15.82,2.94c-1.31,1.46-1,3.17-.82,4.82a31.42,31.42,0,0,1,.07,4.34c-.25,5.89-1.48,11.68-1.63,17.57a4.67,4.67,0,0,0,.43,2.78C92.92,442.44,96,432.79,94.67,422.8Zm115.77,14.29a15.47,15.47,0,0,0-.15-2.16c-.31-1.52-1.33-1.95-2.68-1.22s-1.59,4.8-.45,5.66a2.16,2.16,0,0,0,.67.25C209.85,440.16,210.56,439.47,210.44,437.09ZM52,400.59c-.09,2.58-.46,5,.25,7.28s-.15,4.7,1,7.26c.29-.66.45-.87.45-1.07,0-3.79,0-7.57,0-11.36C53.75,401.73,53.26,401.07,52,400.59Zm51.08,46.87c-.5.67-.74.85-.76,1.05-.28,2.95-.52,5.9-.77,8.86a3.47,3.47,0,0,0,0,.72,1.15,1.15,0,0,0,1.31,1.12c.73,0,.92-.69.84-1.24-.32-2.17,0-4.34-.09-6.51C103.55,450.3,103.31,449.13,103.08,447.46Zm-29.8-11.52c.62-4,.35-7.78.46-11.58,0-.31-.07-.68-.47-.72a.68.68,0,0,0-.78.72c0,3.14-.54,6.23-.64,9.35A2.22,2.22,0,0,0,73.28,435.94Zm28.13,4.37a22.35,22.35,0,0,0-1.88,8.57c-.13,2.87-.9,5.73-.21,8.59l.53,0Zm103.4-1.88c-.09-.72-.17-1.44-.26-2.16-.12-.91-.57-1.52-1.55-1.54s-2,0-2.59.94c-.3.47-.43,1.31.11,1.53.88.37,1.06,1,1.32,1.76.34,1.07,1.44.87,2.29.79S204.89,439,204.81,438.43Zm34.6-6c-.14-.69-.07-1.79-1.08-1.81a2.85,2.85,0,0,0-2.78,1.11c-.66,1.11-.15,3.15.77,3.4C237.57,435.5,239.45,433.9,239.41,432.46ZM81.14,429.84c-1.48,4.5-1.34,12.15,0,13.64Zm147.65,5.89c-.53-.79.42-2.86-1.23-3-1.28-.08-1.55,1.83-1.94,3-.19.59-.48,1.37.21,1.78s1.59.08,2.35-.16S228.9,436.62,228.79,435.73Zm80.87-47.58a43.25,43.25,0,0,0-2.38,11C310,395.67,309.63,391.87,309.66,388.15Zm-130.44,47c-2,0-2.5.39-2.21,1.61.23.92,1,1,1.68,1.09.92.08,1.93.36,2.73-.36a1.29,1.29,0,0,0,.16-.92C181.44,434.88,180.24,435,179.22,435.11Zm43.07,1.23c0-.43-.07-.83-.12-1.23-.1-.73-.2-1.56-1.18-1.52s-1.88,0-2.31,1c-.21.51-.72,1.41.67,1,.68-.19.81.32.79.85,0,1,.29,1.92,1.38,1.85C222.8,438.18,222,437,222.29,436.34Zm-65.9-2.41c-.75-.05-1.38-.23-1.65.47a1.24,1.24,0,0,0,.63,1.63,3.94,3.94,0,0,0,2.74.8c.51-.08,1.23.1,1.34-.72s0-1.53-.87-1.78A16.62,16.62,0,0,0,156.39,433.93Zm74.43.41c0,1-.08,2,.86,2.48a1,1,0,0,0,1.13-.13c.78-.63.35-1.48.34-2.25a1,1,0,0,0-.05-.24c-.34-.75-.1-2.11-1.25-2.05C230.45,432.22,231.12,433.66,230.82,434.34Zm-43.24,4.19c-.83-3-1.2-3.39-2.85-3.39-.79,0-1,.32-.81,1.05C184.35,438.14,184.42,438.2,187.58,438.53ZM97,437.44l-.49-.05c-.1.12-.24.22-.28.36-.73,2.48,0,5.17-1,7.62a.71.71,0,0,0,.29.59c.38.2.62-.1.68-.42A71,71,0,0,0,97,437.44Zm45.39-2.86c.77,0,1.52-.17,1.55-1.13s-.66-1.18-1.48-1.16c-.4,0-.81,0-1.21,0s-1.23-.37-1.45.42.39,1.16,1,1.5A3,3,0,0,0,142.35,434.58Zm-61-16.75c-1.21-1.13-2.48-1.24-3.5-1.84-.43-.25-1.09-.73-1.43,0s.29,1.12,1,1.27a2.17,2.17,0,0,1,1.22.72C79.46,419.06,80.23,418.44,81.33,417.83Zm69.5,17.88c.58,0,1.43.15,1.48-.72.06-1.08-.86-1.41-1.75-1.59-.72-.14-1.29,0-1.32.91C149.2,435.37,149.94,435.62,150.83,435.71Zm38.76,2.65a1.74,1.74,0,0,0,1.62.15c.95-.25.81-1.06.75-1.77,0-.49-.16-1.06-.7-1.13-.78-.11-1.15.45-1.26,1.16C189.91,437.31,189.42,437.75,189.59,438.36Zm-75.5-10c0-.78-.11-1.61-1.19-1.68a.89.89,0,0,0-1,1c.07.82.35,1.62,1.3,1.78C114,429.62,114.05,429,114.09,428.34ZM174,437.47a.93.93,0,0,0,.81-1.09,1,1,0,0,0-1-1c-.65,0-1.06.24-1.09.94S173.09,437.4,174,437.47Zm80.47-10.91c-.06-.47-.24-.92-.84-.89a1.23,1.23,0,0,0-1.17,1.25c-.06.58.32.84.87.84A1,1,0,0,0,254.43,426.56ZM167.78,437c.56-.25,1.57,0,1.53-1.09,0-.6-.64-.64-1.14-.62-.71,0-1.33.2-1.3,1.07C166.89,436.85,167.26,437,167.78,437Zm-64.33-11.83c-.28-.91-1.09-.68-1.75-.7a.72.72,0,0,0-.75.95c.24.83,1.07.83,1.74.82S103.39,425.72,103.45,425.18ZM284,410a5.52,5.52,0,0,0-.25,5.18C283.67,413.64,284.61,412.13,284,410ZM121.62,429.71a1.42,1.42,0,0,0-1.24-1.13c-.46-.08-1-.13-1.1.51s.47,1.12,1.15,1.22C120.9,430.39,121.4,430.41,121.62,429.71Zm12.25,2.44c0-.74-.54-.9-1.07-1s-1.29-.24-1.32.51.89.76,1.44,1A.67.67,0,0,0,133.87,432.15Zm109.66-.47c.38-.1.81-.28.83-.88,0-.44-.12-.85-.62-.84s-.74.55-.83,1S243,431.6,243.53,431.68Zm-133.44-3.75c-.09-.4,0-1-.64-1-.34,0-.45.38-.46.71,0,.48,0,1,.65,1C110,428.64,110.08,428.27,110.09,427.93Zm87.48,9.82c0-.25,0-.53-.29-.57-.57-.1-.85.33-1,.77a.4.4,0,0,0,.33.53C197.19,438.62,197.47,438.3,197.57,437.75Zm67.8,20.37c-.43,0-.77.17-.83.64s0,.8.53.87a.64.64,0,0,0,.8-.62C265.9,458.61,265.88,458.21,265.37,458.12ZM97.91,426.88c.09-1.06.62-2.09.07-3.51A5.06,5.06,0,0,0,97.91,426.88Zm64.82,8.41c-.33.06-.7.16-.63.56a.93.93,0,0,0,1,.78c.36,0,.66-.15.61-.56C163.68,435.49,163.27,435.29,162.73,435.29Zm86.4-7a1.06,1.06,0,0,0-.77.86c0,.42.34.55.68.42a.85.85,0,0,0,.61-.93A.42.42,0,0,0,249.13,428.33ZM95.43,455.84c.4,0,.53-.2.55-.46s-.11-.67-.48-.72a.5.5,0,0,0-.58.58A.62.62,0,0,0,95.43,455.84Zm41.72-22.36c.15-.4.26-.54.25-.67,0-.32.17-.94-.38-.77C136.72,432.13,136.82,432.83,137.15,433.48ZM73,440.73a2.59,2.59,0,0,0-.05-2.06C72.7,439.58,72.28,440.09,73,440.73Z"/><path d="M304.48,346c2.75-1.81,4.61-3.88,3.9-7.44a5.94,5.94,0,0,1,.12-4c.22-.41.3-1,.92-1a1.49,1.49,0,0,1,1.05.93c.3.58,0,1.31.52,2a1.82,1.82,0,0,0,.84-1.56c.17-2.57,1.67-5,1-7.64a.9.9,0,0,1,.11-.69c1.42-1.7,1.15-3.83,1.46-5.79.73-4.62,1.51-9.24,1.93-13.88.29-3.22.27-6.47.61-9.69.77-7.34.26-14.74.87-22.08.27-3.31.61-6.61.79-9.92.24-4.37.4-8.74.28-13.11a76.19,76.19,0,0,1,.71-13.32c.69-4.63.68-9.35,1.29-14,.51-3.85.9-7.72,1.28-11.59.11-1.11-.1-2.26,0-3.38.14-1.8,1.09-2.2,2.57-1.22a3.29,3.29,0,0,1,1.49,2.88,66.3,66.3,0,0,1-.66,12.11c-.75,4.88-.68,9.85-1.39,14.72-1.39,9.43-.72,18.92-1.12,28.37-.14,3.48-.41,6.95-.73,10.41-.5,5.33-.44,10.68-.66,16q-.46,11.4-1.6,22.76c-.47,4.81-1.52,9.57-2.3,14.36a54.52,54.52,0,0,1-1.36,6.63c-.59,2.05-1.72,3.8-2.4,5.77-1.89,5.48-6.85,7.93-11,11.12-3.92,3-8.44,5-12.5,7.85-2.71,1.88-5.47,3.71-8.22,5.52a24.2,24.2,0,0,1-5.73,2.47,90.72,90.72,0,0,0-10.37,4.08,31.84,31.84,0,0,1-9.06,2.65c-3.37.47-6.35,2-9.32,3.34a53.94,53.94,0,0,1-11.25,3.71c-3.48.74-6.92,1.58-10.36,2.5a58.24,58.24,0,0,1-11,1.72,29.93,29.93,0,0,0-7.38,1.3c-2.65.85-5.46.55-8.2.65-6.71.24-13.4.89-20.12.47a59.24,59.24,0,0,0-9.22-.33c-7,.68-13.89-.2-20.79-.93a60.82,60.82,0,0,1-13.94-3.1c-5.84-2.08-12-2.76-18-3.88a35.67,35.67,0,0,1-7.37-2.18,84.65,84.65,0,0,0-11.49-3.73,76,76,0,0,1-11.34-4.08c-.72.31-.11,1.54-1.33,1.65a41.26,41.26,0,0,1-2.17-3.57c-.73-1.48-.22-2.35,1.39-2.55a6.71,6.71,0,0,1,4.06.34c4,2.13,8.48,3.15,12.82,4.41,4.81,1.41,9.56,3,14.35,4.51a64.31,64.31,0,0,0,7.36,1.47c4.78.9,9.49,2,14.17,3.35a85.39,85.39,0,0,0,30.21,3.47,98.77,98.77,0,0,1,13.09.29c3.63.19,7.29.1,10.93,0,4.44-.14,8.81-1.16,13.28-1a1.91,1.91,0,0,0,.48,0c6.62-2,13.67-1.44,20.29-3.35,5.6-1.61,11.37-2.49,16.91-4.33a10.46,10.46,0,0,0,1.35-.52A58,58,0,0,1,261,370.2c2.23-.39,4-1.75,6.07-2.38,3-.91,5.85-2.34,8.82-3.41,1.95-.7,3.68-2,5.7-2.63a1.49,1.49,0,0,0,1-2.14c-1.32-3-.33-6.07-.13-9.1,0-.71.34-1.32,1.18-1.22s.79.73.77,1.32a42.87,42.87,0,0,0-.1,6.51c.17,1.49.88,2,2.22,1.24.57-.3,1.1-.69,1.65-1,1.93-1.19,3.65-2.37,2.52-5.17-.45-1.11.08-2.52-.38-4.28a8.2,8.2,0,0,0-.47,3.21c-.12,1.05-.24,2.09-.41,3.13a.79.79,0,0,1-.66.63.86.86,0,0,1-1-.56,1.32,1.32,0,0,1-.25-.67c.26-2.34-.32-4.69.05-7,.17-1.06.49-1.95,1.86-1.58.69.19,1-.17,1.38-.67s.54-1.2,1.31-1.59a2.74,2.74,0,0,1,.78,3,38.7,38.7,0,0,0-.5,6.27c0,.68-.1,1.68.92,1.66,1.18,0,1-1,.94-1.82-.08-1.29-.12-2.59-.14-3.89a6.26,6.26,0,0,1,.13-1.68,1.49,1.49,0,0,1,1.89-1.1c.89.16.74.92.67,1.57-.1,1-.28,2.09-.32,3.14,0,.59-.12,1.48.82,1.45a1.19,1.19,0,0,0,1.2-1.5,30.24,30.24,0,0,1-.06-4.36,14.09,14.09,0,0,1,.1-1.94c.08-1.05.7-1.76,1.71-1.63s1.43-.37,1.69-1.23c.13-.43.27-1,.94-.86a1.14,1.14,0,0,1,.87,1.05c.11,1,.14,1.94.2,2.91A3.37,3.37,0,0,0,304.48,346ZM301.32,344c-1.18,3.19-1.18,3.19.23,4.67C302.41,347,301.52,345.54,301.32,344Z"/><path d="M168,304.59c.76-.65.65-1.29.84-1.81a1.39,1.39,0,0,1,1.66-1.06,1.53,1.53,0,0,1,1.42,1.42c0,.4-.07.81,0,1.21.07.93.69,1.24,1.47.76a1.37,1.37,0,0,0,.53-.48c1.18-2.27,2.6-4.34,3.4-6.87,1.72-5.45,1.57-11.19,3-16.66a22.63,22.63,0,0,1,1-3c.49-1.22,1.17-1.35,2.32-.7s1.67,2,1.23,3.81c-.67,2.75-1.31,5.51-2,8.26-.11.46-.22.93.16,1.25.53,0,.74-.26.76-.58a29.35,29.35,0,0,1,2-7.71c1-2.76,1.58-5.61,2.52-8.36a27,27,0,0,0,.92-5c.19-1.26-.32-1.67-1.3-1-2.95,2-6.36,2.26-9.67,2.94-3.91.8-7.33-.48-10.57-2.52-.14-.08-.25-.22-.39-.29-2.81-1.48-3.87-3.94-4-7a13.36,13.36,0,0,0-1-4.49c-1.59-4-1-8-.22-12,.94-4.86,1.27-9.79,2.15-14.64a1.52,1.52,0,0,0-.71-1.82,5.05,5.05,0,0,1-2-3.48A112.26,112.26,0,0,1,160,212.34c0-.93-.48-2.49,1.09-2.46,1.22,0,1,1.44,1,2.37.31,4,.59,8,.92,12a1.67,1.67,0,0,0,1.71,1.72c1,0,1.21-.85,1.37-1.7.3-1.62.49-3.16-.57-4.65a6.52,6.52,0,0,1-1-3.45c-.11-1.78-.42-3.54-.58-5.32-.07-.78-.23-1.67.54-2.24.36-.27.76-.71,1.29-.42s.4.65.4,1.07a20.18,20.18,0,0,0,.42,5.24,3.13,3.13,0,0,0,.77-2.89,10.94,10.94,0,0,1,0-3.87c.11-.55.23-1.17,1-1.14a1.22,1.22,0,0,1,1.26,1.22,12.17,12.17,0,0,1,.08,1.7c-.06,1.42.26,2.55,1.81,3a1.52,1.52,0,0,1,1,2c-.59,3.26-1.06,6.54-2.79,9.49-.89,1.53-.93,3.4-1.23,5.12-.64,3.56-1,7.18-1.43,10.77q-.36,2.66-.84,5.28a20.29,20.29,0,0,0,.61,11,13,13,0,0,1,.66,4.31,5.1,5.1,0,0,0,3.25,4.73c4.17,2.08,8.39,1.82,12.68.1,4.44-1.78,8.5-4.3,12.83-6.28,2.51-1.16,5.24-1.6,7.69-2.92,4.06-2.17,8.18-4.24,12.32-6.27a84.9,84.9,0,0,0,8-4.54,5.66,5.66,0,0,1,3.53-.7,40.33,40.33,0,0,1,6.42,1.29c.94.23,1.64.75,1.49,1.87-.16,1.27-1.19,1.13-2.06,1.13-1.05,0-2.1-.08-3.15-.12-3.29-.14-6.11,1.14-8.84,2.82a103.33,103.33,0,0,1-11,5.54c-1.85.86-3.26,2.35-5.16,3.15a35.71,35.71,0,0,1-4.24,1.76c-2.82.79-5.29,2.37-7.95,3.53a2.45,2.45,0,0,0-1.6,2.17c-.84,6.11-2.93,11.89-4.94,17.68a36.38,36.38,0,0,1-2.67,6.68c-2.48,4.19-3.24,9-5.45,13.3-.8,1.56-1.44,3.26-2.83,4.46a2.92,2.92,0,0,0-.92,1.93,11.29,11.29,0,0,1-2,4.89c-.92,1.3-1.07,2.35-.19,4.11,3.26,6.55,7.82,12.22,11.67,18.37,4.18,6.66,9.36,12.6,13.71,19.13.94,1.41,1.85,3.3,4.14,3.3.6,0,.83.71.79,1.33a1,1,0,0,1-.59,1,1.4,1.4,0,0,1-1.75-.41,42.92,42.92,0,0,1-4.06-5.13,74.63,74.63,0,0,0-5.67-8.16c-5.31-6.74-10.07-13.88-14.86-21-1.72-2.55-3.31-5.19-4.91-7.82a2.22,2.22,0,0,0-2.37-1.26,19.68,19.68,0,0,1-2.43,0c-.63,0-1.38-.25-1.72.49s.28,1,.55,1.51a122.53,122.53,0,0,0,7.81,11.38c3.45,4.77,6.49,9.84,9.95,14.6a105.92,105.92,0,0,0,9.49,11,8.37,8.37,0,0,0,2.21,1.5c.84.44,2.09,1,1.34,2.06s-1.58-.06-2.22-.58a48.91,48.91,0,0,1-6.46-6.57,155.4,155.4,0,0,1-9.7-12.44c-2.68-3.92-5.72-7.6-8.49-11.47-2.11-3-4.07-6-6-9.11a2.44,2.44,0,0,0-3-1.26c-5.07,1-10.17,1.9-15.4,1.6-1.95-.12-2.06.26-1.54,2.15s1.93,3,2.94,4.39,2.43,2.39,3,4a.92.92,0,0,0,.32.36c2.8,2.21,4.86,5.28,8.15,6.91a5.19,5.19,0,0,1,1,.65c.38.31.83.75.41,1.21s-.77-.13-1.13-.4c-1.47-1.12-3.1-2-4.58-3.12a65.12,65.12,0,0,1-8.85-8.64,10,10,0,0,1-3-5.7,1.62,1.62,0,0,0-1.94-1.68c-1.15.12-1.57-.67-2-1.47a1.37,1.37,0,0,1,.79-2.15,11.24,11.24,0,0,1,3.77-.84c4.94,0,9.88.09,14.74-1,.47-.11,1.16,0,1.41-.25,1.95-2.13,4.47-1,6.73-1.23,1-.11,1.91.07,1.91-1.43,0-.83.79-1.11,1.4-.55,1.18,1.08,1.67.35,2.13-.63a6.66,6.66,0,0,0,.62-4c-.13-.76-.52-1.28-1.33-.79-1.58.95-2.79.26-3.91-.81a21.88,21.88,0,0,0-2.11-1.62,7.83,7.83,0,0,1-3.38-4.3,5.85,5.85,0,0,0-1.5-2.47,21.76,21.76,0,0,1-5-7.68,19.66,19.66,0,0,0-2.48-4.68,24.7,24.7,0,0,1-3-6.31c-1.08-3.33-3.1-6.21-4.59-9.34-.49-1-1.43-2.2-.06-3.25.61-.47,3,.49,3.6,1.48a24.69,24.69,0,0,1,2.79,4.83c1.66,4.67,4.32,8.87,6.13,13.44a35,35,0,0,0,6.43,9.86,4.56,4.56,0,0,1,1,1.37C164.32,301.62,166.49,302.74,168,304.59Z"/><path d="M343.23,194.11c-.47,7.12-.58,14.23-.58,21.36a69,69,0,0,1-.55,8,116,116,0,0,0-.28,14.56,56.77,56.77,0,0,1-.28,6.78c-.58,5.39-.81,10.81-1.72,16.16-.72,4.22-1.17,8.48-1.49,12.76-.58,7.74-1.16,15.49-1.68,23.23-.63,9.36-2,18.67-1.91,28.09a70.71,70.71,0,0,1-1,10.13c-.55,4-.62,8.07-1.08,12.08-.55,4.71-1.12,9.42-1.67,14.12-.43,3.75-.94,7.52-1.21,11.31-.32,4.51-1.11,9-1.78,13.45-.47,3.17-1.29,6.31-1.41,9.56a23.17,23.17,0,0,1-.95,5c-.78,3-1.27,6-1.94,9a29.15,29.15,0,0,1-3.68,8.1,1.52,1.52,0,0,1-1.92.63c-.85-.3-.59-1.1-.5-1.68.54-3.68,1.16-7.34,1.71-11a19.63,19.63,0,0,1,1.44-5.11,5.68,5.68,0,0,0,.57-2.35c0-5.15,1.61-10.05,2.29-15.09.29-2.16.77-4.3.86-6.49a102.07,102.07,0,0,1,1.36-11.56c.71-4.49,1-9,1.39-13.53.61-6.52.87-13.08,1.61-19.59,1.14-10.13,1.31-20.35,2.6-30.48.72-5.69.66-11.47,1.06-17.21.59-8.72,1.32-17.42,2.68-26.08a133.84,133.84,0,0,0,1.51-21.29,88,88,0,0,1,1-16.45,11.46,11.46,0,0,0,.18-1.93c.17-6.89.3-13.77.51-20.65a60.51,60.51,0,0,1,.49-6.3c.31-2.3,1.61-3.11,3.49-2.49a1.4,1.4,0,0,1,1.13,1.6C343.35,191.85,343.29,193,343.23,194.11Z"/><path d="M142.31,340.38a2,2,0,0,1-2.54-.27,53,53,0,0,1-5.63-5c-2.95-3.12-5.62-6.49-8.85-9.33a14.78,14.78,0,0,0-4.66-3,.69.69,0,0,0-.88.16.7.7,0,0,0,.18.88c2.95,2.91,4.92,6.57,7.38,9.85a28.36,28.36,0,0,0,4.84,5.36.72.72,0,0,1,.18,1c-.85.09-1.39-.56-2-1a42,42,0,0,1-7.77-9c-1.62-2.43-3.89-4.35-5.28-6.94a2.19,2.19,0,0,0-1.35-1c-2-.53-3.92-1-5.88-1.53-.46-.11-1-.28-1.34.2-.41.64.23,1,.58,1.41a70.82,70.82,0,0,0,8.73,8.76c1.66,1.41,3.39,2.75,5.07,4.14.43.35.95.67.85,1.35-.27.38-.58.25-.84,0-5.24-4.19-10.52-8.38-14.93-13.48-2.2-2.54-4.8-3-7.82-2.84q-1.57.09-3.15.21a20.88,20.88,0,0,1-10.86-1.93c-2.91-1.37-5.92-2.51-8.85-3.84-4.58-2.07-7.79-5.77-10.77-9.6s-5.65-7.88-8.49-11.81C56,290,54.49,286.41,52.62,283s-3.77-7-5.55-10.52c-1.12-2.22-2.5-4.35-2.93-6.88,0-.08,0-.17-.06-.23-2.42-3.27-2.55-7.39-4-11-1.25-3-.83-6,.17-9,.89-2.67,2.41-5.1,3-7.89a5.64,5.64,0,0,1,2.15-3.17A46.75,46.75,0,0,0,54,224.88a2,2,0,0,1,2.9-.66,1.21,1.21,0,0,1,.59,1.82A13.61,13.61,0,0,1,55.38,229c-2.77,2.72-5,5.93-8,8.51a6.41,6.41,0,0,0-1.56,2.7c-1,2.93-2.68,5.73-2.65,9a4.56,4.56,0,0,0,.12,1.44c1.43,3.7,2.09,7.62,3.42,11.37,1.75,4.93,4.36,9.4,6.76,14,2.21,4.22,4.23,8.54,6.69,12.64a41.77,41.77,0,0,0,4.14,5.95c2.81,3.25,4.93,7,7.81,10.19a27.68,27.68,0,0,0,7.72,6.2,83.66,83.66,0,0,0,9.2,4.32c2.73,1,5.75.66,8.65.84,4.92.32,9.87.2,14.78.91,1.38.2,2.64.74,4,1.06a42.71,42.71,0,0,0,10.56,1.36,8.45,8.45,0,0,1,3.12.38c1,.38,1.15,1.06.44,1.88a3.84,3.84,0,0,1-2,1.21c-1.86.49-2.08,1.06-.91,2.42,1.89,2.21,3.86,4.36,5.84,6.48a35.83,35.83,0,0,1,3.68,4.19C138.42,337.78,140.38,338.86,142.31,340.38Z"/><path d="M12.64,206.44c-.16-4.23-.75-7.82-1.1-11.44a103,103,0,0,0-1.88-12.66c-1.07-4.82-1.53-9.73-2.76-14.52-.79-3.09-.41-6.46-.89-9.65-.8-5.19-1.12-10.44-1.95-15.62a3.83,3.83,0,0,1-.18-1.43c.24-.93,0-2.29,1.44-2.45A2.77,2.77,0,0,1,8,141.1c.7,5.13,1.05,10.3,1.65,15.44.52,4.49,1,9,1.83,13.42.58,3.25,1.25,6.49,1.79,9.75.73,4.38,1.53,8.74,2,13.16.41,3.68.71,7.4,1.29,11.08a106.48,106.48,0,0,1,.75,10.88,13.56,13.56,0,0,0,.41,3.36c1.39,4.6,1.48,9.4,2.22,14.1.53,3.41.4,6.92.73,10.37.41,4.27,1,8.52,1.51,12.78.37,3.21.44,6.48,1.09,9.63,1,4.7,1.06,9.46,1.55,14.2q.86,8.44,1.46,16.92c.25,3.53.26,7.08.38,10.62,0,.66.15,1.45-.64,1.63-1,.24-1.14-.72-1.32-1.38a103.46,103.46,0,0,1-3.08-12.93c-1.21-8.34-1.76-16.73-2.41-25.12-.29-3.77-1.1-7.5-1.46-11.29-.63-6.6-1.42-13.19-1.87-19.8a122.9,122.9,0,0,0-1.49-14.48c-.75-4-1.15-8-1.55-12A30.53,30.53,0,0,1,12.64,206.44Z"/><path d="M70.66,223.43c-.52-1.17-.91-2-1.23-2.76s-.84-1.85.3-2.32,1.33.64,1.65,1.36c.63,1.4,1.27,2.8,1.8,4.24a8.24,8.24,0,0,0,1.41,2.24c.24.31.66.77.91.72,1.81-.36,3.61.66,5.39,0,.63-.21,1.27-.64,1.72.1s-.27,1-.7,1.35c-1,.77-.52,1.28.37,1.45a28.27,28.27,0,0,0,7.73.57c.41,0,.88-.06,1.1-.41.93-1.49,2.24-1.06,3.46-.65a7.06,7.06,0,0,0,3.32.41c1.17-.16,2.27-.86,3.58.16.81.62,1.78-.32,2.38-1.16.46-.63.75-.88,1.71-.33a4.92,4.92,0,0,0,4.44-.08c4.23-2.25,9-3.23,13.16-5.44a18.59,18.59,0,0,1,5.84-1.47,1.34,1.34,0,0,1,1.3,2.09c-.53.86-.66,1.31.46,1.47.57.08.92.26.87.88a1.31,1.31,0,0,1-1.21,1.32c-1.14.07-2.38,0-2.77-1.38s-.9-1.15-1.68-.44a5.49,5.49,0,0,1-.72.65c-1.15.73-2.17,1.24-2,3.13.12,1.34.1,2.49,1.09,3.48a2.57,2.57,0,0,1,.51.82,1,1,0,0,1,0,1.14c-.41.46-.93.27-1.33,0a5.82,5.82,0,0,1-2.57-3.67c-.47-1.55-1-1.73-2.42-1.16a1.67,1.67,0,0,0-1.11,2.12,15.6,15.6,0,0,0,1.78,4.75c.22.43.53.82.74,1.25a.79.79,0,0,1-.17.9c-.27.27-.58.18-.89,0a4.37,4.37,0,0,1-1.93-2.12,23.11,23.11,0,0,1-1.67-3.77c-.18-.65-.59-1.19-1.43-.83a1.3,1.3,0,0,0-.84,1.56,7.5,7.5,0,0,0,1.31,2.58c.31.52.54,1.11,0,1.51s-.88-.17-1.23-.49a10.53,10.53,0,0,1-1.88-2.82,2.44,2.44,0,0,0-2.83-1.33c-1.74.3-2,.69-1.69,2.42a9.9,9.9,0,0,0,1.58,4c.23.33.33.84-.13,1.06s-.75-.16-.88-.57c-.35-1.18-1.36-2-1.6-3.25a3,3,0,0,0-1.25-1.75,1.14,1.14,0,0,0-1.56,0,1,1,0,0,0,0,1.32c.38.52.86,1,1.26,1.48a.75.75,0,0,1,0,1.08,1,1,0,0,1-1.13.15c-.83-.34-1.11-1.18-1.49-1.86a4.6,4.6,0,0,0-4.6-2.47c-1.24,0-1.42.27-.87,1.45a7.35,7.35,0,0,0,.64,1,.8.8,0,0,1-.15,1.26.94.94,0,0,1-1.31-.21c-.66-.82-1.23-1.7-1.87-2.54a3.44,3.44,0,0,0-3.89-1c-1,.53-.76,1.33-.29,2.07s1.12,1.58,1.68,2.38a.88.88,0,0,1,0,1.12c-.36.45-.7.07-1.06,0-1.22-.39-1.63-1.53-2.23-2.45a25.25,25.25,0,0,1-1.28-2.61,1.4,1.4,0,0,0-1.82-.79c-1,.35-.39,1.07-.24,1.62a5.06,5.06,0,0,0,1.07,2.4,1.2,1.2,0,0,1-.36,1.88c-.64.42-.93-.34-1.28-.75a7,7,0,0,1-1.68-3.17,5.32,5.32,0,0,0-3.57-3.93c-.31-.13-.63-.25-.9,0a.75.75,0,0,0-.09.9,13.84,13.84,0,0,0,2.31,4.5c.34.37.63.83.23,1.29s-1,.19-1.49-.16a2.65,2.65,0,0,1-.84-.86c-.59-1.29-1.22-1.58-2.59-.76-1.13.68-2-.49-2.53-1.33a26.15,26.15,0,0,1-3-6.33c-.55-1.68-1.32-3.1-3.44-3.61a18.06,18.06,0,0,0,3,6.64,7.57,7.57,0,0,0,.93,1.12,1,1,0,0,1-.18,1.65c-.63.51-1.08.07-1.37-.43q-1.17-2-2.25-4-1.3-2.46-2.54-5c-.34-.69-.71-1.26-1.58-1.31a1.11,1.11,0,0,1-1.16-1.26c.15-3.3-1.9-5.59-3.65-8a22.12,22.12,0,0,1-4.22-9.94,14,14,0,0,0-1.4-4.36c-.26-.53-.47-1.07,0-1.58a1.47,1.47,0,0,1,1.6-.23c1.69.48,2.56,1.79,3.24,3.32s.6,3.15,1.06,4.72c.84,2.89,2.79,5.07,4.28,7.55C63.78,218.61,66.78,221.11,70.66,223.43Zm4.17,11.82.53-.28c-.57-1.38-1.14-2.77-1.73-4.14a.68.68,0,0,0-.74-.49.53.53,0,0,0-.42.73C72.89,232.68,73.24,234.34,74.83,235.25Z"/><path d="M223.66,483.29a46.8,46.8,0,0,1-7.65-.55c-1.18-.2-2.57-.31-2.75-1.87-.11-1,1.63-2.12,3.26-1.84a48.13,48.13,0,0,0,9.44.35c5.59-.19,11.11-1.08,16.65-1.74,5.13-.61,10.22-1.48,15.35-2.06A44.75,44.75,0,0,0,265.3,474c2.7-.78,5.42-1.52,8.08-2.41A37.56,37.56,0,0,0,285,465.54,73.32,73.32,0,0,0,296.1,454.4,100.48,100.48,0,0,0,305,441.13c1.43-2.46,2.36-5.08,3.55-7.6a56.87,56.87,0,0,0,3.38-8.49,15.26,15.26,0,0,0,.7-3.31c.09-1.58,1.25-2.24,2.31-2.87s2.63.53,2.56,2c-.2,4.19-.55,8.29-2.82,12.08-1.77,2.95-2.92,6.26-4.48,9.35a74.31,74.31,0,0,1-8.52,13.22q-3,3.76-6.26,7.39c-3.68,4.14-8.22,7.27-12.78,10.35a3.39,3.39,0,0,1-1.28.68c-4.78.66-8.91,3.26-13.58,4.38-8,1.92-16.07,2.68-24.19,3.4-1.85.16-3.67.56-5.51.81C233.13,483.22,228.19,483.08,223.66,483.29Z"/><path d="M24.22,121.26c-1-1.43-1.63-1.19-2.54-.12-3.46,4.09-3.1,10,.93,14.27.79.82,2.45,1.68,1.42,2.82-.84.93-1.85-.78-2.85-1.17-.66-.25-1.05-1.33-1.84-.91s-.39,1.45-.29,2.2c.37,2.56.9,5.09,1.39,7.63.86,4.48,1.2,9.06,1.77,13.6.63,5.06.32,10.19,1.41,15.2a1.54,1.54,0,0,1,0,.48c-.22,7.56,1.2,15,2.14,22.43.72,5.76,1.69,11.52,2.82,17.24s2.09,11.58,3.12,17.38a5.44,5.44,0,0,1,.09,1.21c-.15,3.89.71,7.68,1.14,11.51.25,2.15,1,4.24.82,6.46a2.45,2.45,0,0,1-.51,1.72,4.85,4.85,0,0,1-1.7-2.53c-1.3-5-2.16-10.11-3.08-15.21-.88-4.84-1.32-9.75-2.61-14.54a74.85,74.85,0,0,1-2-11.44c-.51-4.68-1.95-9.2-2.21-13.89-.35-6.22-1.57-12.33-1.85-18.57-.21-4.88-.26-9.83-1.24-14.69-.72-3.57-.43-7.27-1-10.88-.37-2.49-1-4.92-1.55-7.36s-.29-4.82-1.44-7.08a1.83,1.83,0,0,1,1.21-2.56c1.22-.37,1-.93.57-1.77a17.61,17.61,0,0,1-1.91-5.22c-.39-2.14.49-4.15.52-6.25a1.92,1.92,0,0,1,1-1.58c2.31-1.06,3.51-3.29,5.33-4.86,2.64-2.3,5.59-4.13,8.43-6.15a10.94,10.94,0,0,1,3.65-1.23,2.75,2.75,0,0,1,2.42.88c.75.59.79,1.31,0,1.8a30.64,30.64,0,0,1-3.2,2.19,26.52,26.52,0,0,0-6.94,4.78A4.76,4.76,0,0,0,24.22,121.26Z"/><path d="M270.8,273.52c.09,3.35-.73,6.41-.74,9.39,0,4.88-2.46,8.61-4.39,12.64-1.49,3.13-3.05,6.23-4.74,9.25a7.88,7.88,0,0,1-4.74,3.94,20.23,20.23,0,0,0-8,3.85c-2.21,1.89-4.93,2.29-7.59,2.88-2,.46-4.18.56-5.84,2.11a1.29,1.29,0,0,1-1.37.14,24.26,24.26,0,0,0-11.42-.9,47.74,47.74,0,0,1-7.27-.08,25.25,25.25,0,0,0-4.6.14c-4.16.56-8.23-.25-12.29-.93a4.67,4.67,0,0,1-3.3-6.92,1,1,0,0,1,1.62-.39,3.63,3.63,0,0,1,1.76,1.94c.39,1.51,1.47,1.93,2.87,2.15a42.8,42.8,0,0,0,7.76,0c7.43-.17,14.86-.91,22.3,0a10.86,10.86,0,0,0,3.84-.42c2.43-.57,5-.51,7.39-1.3a10.38,10.38,0,0,0,4.93-2.92,6.94,6.94,0,0,1,5.19-2.32,6.51,6.51,0,0,0,6.57-5.07c.78-2.74,2.46-5.07,3.2-7.82.66-2.48,1.25-5.06,3.65-6.65.57-.38.41-1.2.43-1.84.12-4.76.69-9.57.24-14.29-.79-8.35-.64-16.85-3.22-25-.6-1.9-.67-3.94-2.2-5.54a2,2,0,0,1,.28-2.87,2,2,0,0,1,2.48.26,5.55,5.55,0,0,1,2.53,3.44c.37,2.15,1.24,4.23,1.23,6.43,0,3.13,1.54,5.93,1.67,9a56.59,56.59,0,0,0,1.26,10.1A31.07,31.07,0,0,1,270.8,273.52Z"/><path d="M204.79,482.64c-2.27-.22-4.79-.8-7.4-.82-6.39,0-12.78-.34-19.17-.32-3.54,0-7.08.53-10.63.74a43.25,43.25,0,0,1-5.34,0c-5.25-.3-10.5-.25-15.75-.72a78.62,78.62,0,0,0-9.71-.08c-2.65.1-5.1-.72-7.57-1.39a69.61,69.61,0,0,0-10.16-2.17c-1.85-.2-3.64-.75-5.51-.87-1.48-.09-2.25-.91-2.29-2a3.18,3.18,0,0,1,3.52-2.77c3.3,1.27,6.86,1,10.24,1.82,3.61.88,7.25,1.63,10.89,2.4a8.15,8.15,0,0,0,2.4.26c7.62-.65,15.19.87,22.79.59,6.19-.23,12.43.21,18.58-.95a10.44,10.44,0,0,1,2.9-.12c7.74.65,15.5.69,23.26.88,3.16.07,4.1,1.58,2.68,4.37a1.42,1.42,0,0,1-1.24,1Z"/><path d="M120.56,176.22c2.3.55,2.22.53,1.76,2.81-.42,2.07-1.36,4-1.57,6.11a8.21,8.21,0,0,0-.15,2.66,2,2,0,0,1-.47,2.22,1.06,1.06,0,0,0-.26,1.32c.18.45.35,1,.94.94s.6-.53.6-.94a41.35,41.35,0,0,1,.93-5.74c.14-1,.43-2,.65-3.08a2.26,2.26,0,0,1,.61-1.29A1.21,1.21,0,0,1,125,181c.58.25.52.73.41,1.23-.42,1.81-.81,3.63-1.25,5.44-.54,2.19-1.12,4.37-1.67,6.57-.38,1.49.39,2.58,1.37,3.91a25,25,0,0,0,2.55-9.18,3.67,3.67,0,0,1,.37-1.88c.22-.35.46-.71.94-.61a.8.8,0,0,1,.68,1.08c-.7,2.64-.42,5.47-1.69,8a12.92,12.92,0,0,0-1.38,5.62,1.25,1.25,0,0,0,.62,1.21c.49-1.8.93-3.47,1.4-5.13.29-1,.6-2,1-3,.45-1.17,1.33-1.48,2.75-1.09-3.24,6.76-5.08,13.58-1.92,20.86,1.27-2,1.25-4.48,1.93-6.72.51-1.7.82-3.47,1.28-5.18a3.08,3.08,0,0,1,2.26-2.33.9.9,0,0,1,.91.11.63.63,0,0,1,0,.88c-2.84,4-3.12,8.9-4.94,13.26-.38.91-.66,1.83-1.63,2.3s-.92,1.26-1.23,2c-.61,1.42-1.37,1.83-2.6,1.51-1.52-.39-1.93-1-1.8-2.64a2,2,0,0,1,.17-.94c1.29-1.86.56-3.73.08-5.59-1.69-6.62-5.2-12.46-8-18.61-1.67-3.68-4-7-5.28-10.88a19.13,19.13,0,0,0-2-3.81c-2.43-3.84-3.54-8.32-6.08-12.07-.4-.6-.63-1.11-.14-1.75a1.67,1.67,0,0,1,1.76-.52,3.23,3.23,0,0,1,2.57,2q1.45,3.33,3,6.65c.62,1.37,1,2.88,2.24,3.89.83-.29.68-.94.77-1.46.34-2,.67-4,1-6a6.61,6.61,0,0,1,.53-1.61.9.9,0,0,1,1.2-.53c.46.18.43.63.33,1-.22,1-.47,1.89-.69,2.83a50.14,50.14,0,0,0-1.33,8.65c.7.18.88-.18.92-.46.31-2.75,1.56-5.28,1.78-8.05a6.05,6.05,0,0,1,.25-1.18c.21-.68.64-1.22,1.39-1.07s.57.88.49,1.41c-.31,2.05-.13,4.24-1.75,5.92-.44.45-.19,1.09-.21,1.64,0,1.46,0,3-1,4.17a1.27,1.27,0,0,0-.1,1.57c.3.52.4,1.41,1.23,1.27s.61-.88.65-1.42c.19-2.93,1.11-5.71,1.63-8.58.07-.39.19-.78.3-1.17.18-.69.55-1.23,1.34-1.15,1,.1.72.93.67,1.51C120.92,174,120.72,175.12,120.56,176.22Z"/><path d="M43.67,333.09c.63-.61.3-1.33.25-2a18,18,0,0,1-.05-1.94.85.85,0,0,1,1.66-.2,3.43,3.43,0,0,1,.17,1.68c-.13,1.45-.23,2.9-.34,4.35a4.65,4.65,0,0,0,.08,1.93c.14.39.4.75.88.63s.42-.45.4-.79c0-1.13-.07-2.26-.13-3.4,0-.68,0-1.37.86-1.45s1.23.58,1.3,1.38c0,.57,0,1.14.12,1.7.12.9.17,1.82,1.56,1.56.92-.17,1.3.55,1.4,1.33s.08,1.77.17,2.65-.15,2.09.88,3c.8-1.14.53-2.27.46-3.36-.05-.91.17-1.73,1.21-1.73.88,0,1.18.82,1.21,1.56.05,1.62,0,3.24,0,4.86a3.12,3.12,0,0,0,2.13,3.37,8.12,8.12,0,0,0,.35-3.74c0-.57-.11-1.13-.11-1.7a1,1,0,0,1,.84-1,1.14,1.14,0,0,1,1.23.58,3.94,3.94,0,0,1,.36,2.59,24.35,24.35,0,0,0,0,5.33c.1.55.19,1.24,1,1.1.6-.1.53-.75.54-1.21,0-.89-.06-1.77-.08-2.66a.91.91,0,0,1,.6-1,1,1,0,0,1,1.26.46,5.13,5.13,0,0,1,.69,2.79c0,1,0,1.94,0,2.91a2.25,2.25,0,0,0,.89,1.91,1.51,1.51,0,0,0,1.36.31c.58-.18.63-.69.64-1.18a9.8,9.8,0,0,0-.05-1.21c-.08-.84.17-1.48,1.08-1.6s1.26.57,1.28,1.36c0,1.05,0,2.1,0,3.15a2.46,2.46,0,0,0,.2,1.65c.24.33.53.66,1,.48a.67.67,0,0,0,.37-.8c-.08-.56-.21-1.12-.26-1.68a1.07,1.07,0,0,1,1-1.19,1,1,0,0,1,1.28.8A9.59,9.59,0,0,1,73.6,358a2.42,2.42,0,0,0,1.09,2.29c.61.45,1.17.85,2,.24,1-.82,1.62-.27,1.91.8a27.13,27.13,0,0,1,.75,3.05,14,14,0,0,0,1,3.23,1.25,1.25,0,0,1-.49,1.7c-.73.42-1.23,0-1.56-.65a9.32,9.32,0,0,0-1.92-2.49c-.35-.33-.71-.85-1.11-.9-2.8-.37-4.32-2.87-6.73-3.91a69.13,69.13,0,0,1-6.78-3.77,34.62,34.62,0,0,1-9-7.35,38,38,0,0,0-4.91-4.33,56.25,56.25,0,0,1-9.29-10.21,16.7,16.7,0,0,1-2.84-7.93c-.28-2,.53-2.66,2.54-2.4,2.64.34,2.79.47,3.48,3.16C42.61,331.87,42.61,331.87,43.67,333.09Zm5.59,5.27c-.21.72-.89,1.42-.13,2.05.08.07.37.06.42,0,.48-.65-.1-1.22-.16-1.83C49.39,338.49,49.31,338.43,49.26,338.36Z"/><path d="M232,307.71a11.8,11.8,0,0,1-2.34-.34,13.51,13.51,0,0,0-6.25-.38,32.84,32.84,0,0,1-8.69-.41,5.19,5.19,0,0,1-1.18-.27c-1.31-.49-2.42-2.13-2.21-3.18a2.62,2.62,0,0,1,3.41-1.55,29.94,29.94,0,0,0,11.54.66,1.16,1.16,0,0,1,.49,0c4.49,1.61,8.78-.3,13.15-.78a4.48,4.48,0,0,0,1.82-.62c4.54-2.78,9.29-5.23,12.7-9.55,1.85-2.34,4-4.41,6-6.66a1.42,1.42,0,0,1,1.9-.49,1.71,1.71,0,0,1,1,1.76,3.36,3.36,0,0,1-.73,1.77c-1.9,2.61-3.48,5.58-5.79,7.76-3,2.83-5.39,6.55-9.73,7.77a7.44,7.44,0,0,0-1.64,1c-1.53.91-3.07,1.91-4.89,1.93-2.24,0-4.21,1.12-6.37,1.36Z"/><path d="M39.72,315.54a8.78,8.78,0,0,1-.27,4.07,1.75,1.75,0,0,1-1.62,1.28c-.86,0-.83-.79-1-1.41a79.86,79.86,0,0,1-2.43-15.29c-.44-5.32-.9-10.63-1.3-16-.33-4.19-.49-8.39-.77-12.59-.33-4.85-1.44-9.61-1.5-14.48a16.09,16.09,0,0,0-.66-2.83c-.33-1.54.17-2.38,1.59-2.76a2,2,0,0,1,2.6,1.81c.41,2.64.71,5.3.89,8,.27,4,1.06,8,1.24,12.06.32,7,1,14,1.43,21.06.24,3.55.56,7.1.9,10.63C39,311.38,39.64,313.67,39.72,315.54Z"/><path d="M57.48,247.18c2.33.15,4.45-.86,6.73-.57a5.94,5.94,0,0,0,2.4-.25c3-.92,6.08-.91,9.14-1.09,6.31-.37,12.62-.65,18.94-.52,5.12.1,10.14-.95,15.21-1.43a12.68,12.68,0,0,1,2.89-.11c2.95.4,5.79-.31,8.62-1a10.34,10.34,0,0,1,1.4-.37c.79-.09,1.7-.35,2,.72a1.73,1.73,0,0,1-1,2.4c-3.09.93-6.18,2-9.5,1.64-.56-.06-1.2-.36-1.67-.19-3,1.06-6.21.79-9.3,1.37a46.72,46.72,0,0,1-8.94.74c-4,0-8.09-.18-12.1.11-3.39.25-6.79.42-10.18.71-2.17.18-4.32.62-6.49.88a9.92,9.92,0,0,1-7.54-1.86A1.46,1.46,0,0,1,57.48,247.18Z"/><path d="M44,156.73c-.09,1.13-.2,2.25-.25,3.37a21.78,21.78,0,0,0,2.07,10.11c1.14,2.52,1.25,5.32,2.28,7.9a103.77,103.77,0,0,0,4.76,11.37,6.36,6.36,0,0,1,.53,1.08A1.44,1.44,0,0,1,52,192.51c-1.52,0-4-1.72-4.4-3.26-1.16-4.21-2.93-8.2-4.1-12.41a92.67,92.67,0,0,0-2.74-9,17,17,0,0,1-.92-5.48c-.11-2.42,0-4.85,0-7.28,0-1.08.07-2.17,1.53-2.31A2.48,2.48,0,0,1,44,155a13.6,13.6,0,0,1,0,1.69Z"/><path d="M203.23,295a2.8,2.8,0,0,1,1.11,2.26,2.67,2.67,0,0,0,2.38,2.64c1.09.22,2.37.33,2.54,1.8.09.71-1.53,1.16-3.21.86a53.22,53.22,0,0,0-13.28-.64,6.18,6.18,0,0,1-3.08-.56c-1.69-.8-2-2.35-.54-3.4a3.54,3.54,0,0,0,1.52-3,72.7,72.7,0,0,0,.93-7.22,3.19,3.19,0,0,1,.92-2.19,1,1,0,0,1,1.31-.2.79.79,0,0,1,.28,1.06,20.69,20.69,0,0,0-1.11,8.11,3.09,3.09,0,0,1-.15,1c-.13.48-.94.91-.18,1.43a1.81,1.81,0,0,0,1.65,0,1.18,1.18,0,0,0,.83-1.53,10.51,10.51,0,0,1-.24-2.9c0-.56.08-1.13.14-1.69.09-.87.4-1.74,1.4-1.62s.9,1,.83,1.76c-.13,1.45-.31,2.9-.42,4.35a1.9,1.9,0,0,0,1.72,2.21C201.85,298.37,201.89,298.38,203.23,295Z"/><path d="M127.47,240.85c.67-2.74.76-5.61,1.79-8.29.39-1,.76-1.82,2-1.44,1.59.48,2.24,1.47,1.83,2.85-.47,1.63-.93,3.27-1.54,4.85a2.82,2.82,0,0,0,.65,3.52,3.26,3.26,0,0,1,1.08,1.86,17,17,0,0,0,3.37,6.65,14.89,14.89,0,0,1,1.72,4,1.34,1.34,0,0,1-.83,1.79c-.8.32-1.65.46-2.14-.45-1.72-3.18-4.31-5.89-5.12-9.57a7.42,7.42,0,0,0-1.81-3.39A2.86,2.86,0,0,1,127.47,240.85Z"/><path d="M175.46,248c-.61.14-.84,1.18-1.59.8s-.53-1.19-.5-1.93c.09-1.58,1-2.89,1.29-4.39.2-1,.51-1.93-.81-2.41-.68-.24-.74-.76-.44-1.37s.66-1.29.93-1.95c.42-1.05,1-2.1-.41-3-.71-.45-.54-1.29-.44-2a12.06,12.06,0,0,1,1.34-3.86,11.7,11.7,0,0,0,1.6-4.27l-.06.06c.43-.59.85-1.18,1.29-1.76s.82-.88,1.44-.57.31,1,.09,1.45c-.73,1.62-1.47,3.23-2.24,4.82a5.43,5.43,0,0,0-.84,2.48c.95.15,1.91-.61,3,.28-1.48,1.3-1.59,3.23-2.32,4.89-.32.73-.25,1.32.63,1.45,1.31.19,1.15,1,.68,1.73-1.45,2.3-1.41,5.14-2.78,7.47-.39.66,0,1.42.13,2.13Z"/><path d="M194.45,337.45c.66-.71-.55-1.41.2-2.15a9.14,9.14,0,0,1,2.71,4.66,1.25,1.25,0,0,1-.36,1.54c-.6.36-1.08-.05-1.48-.47a27,27,0,0,1-2.31-2.48,138.37,138.37,0,0,1-9.87-14.91c-1.32-2.38-3-4.57-4.51-6.85-.81-1.21-1.6-2.43-2.39-3.64-.28-.42-.57-.92-.11-1.3s1,.06,1.42.42a.74.74,0,0,1,.16.19c1.77,2.5,3.67,4.92,5.29,7.53,2.25,3.62,4.21,7.42,6.65,10.93,1.28,1.84,2.84,3.51,3.51,5.73A1.27,1.27,0,0,0,194.45,337.45Z"/><path d="M184.58,311.39a2.2,2.2,0,0,1,1.28,1.32c.81,1.67,1.54,3.38,2.32,5.06a68.86,68.86,0,0,0,8.51,14.07A7.77,7.77,0,0,0,199,334a4.82,4.82,0,0,1,.93.77c.86.87,1.14,2.15.51,2.56-.87.56-1.54-.08-2.15-.59a26.08,26.08,0,0,1-5.14-6.1c-2.42-3.82-5-7.58-6.64-11.84-.67-1.71-1.76-3.26-2.41-5a3.36,3.36,0,0,1-.36-1.64C183.8,311.68,184,311.33,184.58,311.39Z"/><path d="M91.08,134.34a3.37,3.37,0,0,1,2.66,2,31.86,31.86,0,0,1,3.43,11.27,14.06,14.06,0,0,0,1,3.22c.28.88,1,1.92-.32,2.48s-1.89-.64-2.2-1.59c-.48-1.54-1.24-3-1.68-4.52-.76-2.62-1.54-5.22-2.56-7.77-.45-1.14-1.16-2.11-1.6-3.23S89.88,134.37,91.08,134.34Z"/><path d="M193.45,316.24a3.07,3.07,0,0,1,2.89,2.42c1,3.85,3.77,6.51,6.1,9.47.51.64,1.29.6,1.94.9s1.51.64,1.55,1.64a1.9,1.9,0,0,1-.45,1.58c-.55.5-1,0-1.54-.19a7.69,7.69,0,0,1-2-1.38,50.22,50.22,0,0,1-4.64-4.93,10.65,10.65,0,0,1-2.66-5.6A9.36,9.36,0,0,0,193.45,316.24Z"/><path d="M215,330.14c.37-.77-.56-1.36,0-2,1.65.89,2.18,2.23,1.42,3.63a1.59,1.59,0,0,1-2.1.71,9.75,9.75,0,0,1-2.65-1.18,23.25,23.25,0,0,1-7.91-9.62c-.22-.52-.47-1-.66-1.55s-.85-1-.08-1.46c.61-.35,1.15.16,1.45.58a33.83,33.83,0,0,1,2.23,3.45c1.62,2.9,4.16,4.93,6.6,7A1.69,1.69,0,0,0,215,330.14Z"/><path d="M133.05,319.79c.68,0,1,.41,1.25.78,1,1.41,2.11,2.82,3.13,4.26,2.83,4,5.61,8.1,9.55,11.17.19.15.42.25.6.4.64.56,1.93,1.16,1.33,2-.76,1-1.47-.34-2.12-.76-4.42-2.87-7.44-7.07-10.49-11.23-1-1.37-2-2.71-3.06-4.05a3.27,3.27,0,0,1-.8-1.47A.9.9,0,0,1,133.05,319.79Z"/><path d="M142.85,94.79c.46.12.44.56.48.95.14,1.37.29,2.74.4,4.11a99,99,0,0,0,2.81,15.64,7.25,7.25,0,0,0,1.32,2.82.67.67,0,0,1,.08.88c-.36.43-.77.15-1-.12a8.24,8.24,0,0,1-2.24-4.24c-1.28-5.83-2.65-11.66-2.81-17.68a8.87,8.87,0,0,1,.21-1.91A.62.62,0,0,1,142.85,94.79Z"/><path d="M151.47,111a30.88,30.88,0,0,0,1.24,6.87c.2.68.93,1.72-.28,2-1,.24-1.15-.92-1.3-1.68-1-4.9-1.92-9.81-2.81-14.72a24.45,24.45,0,0,0-.92-4,5,5,0,0,1-.4-1.63,1.13,1.13,0,0,1,1-1.21c.59-.09.85.46.95.91.55,2.35,1.1,4.71,1.55,7.08C150.87,106.68,151.14,108.82,151.47,111Z"/><path d="M168.7,345.53c-1.48-.63-2.38-1.82-3.49-2.71a77.18,77.18,0,0,1-9.48-9.31c-1.93-2.18-3.81-4.38-5.54-6.72-1-1.39-1.15-2.56-.37-2.67,1.26-.17,1.54.92,1.88,1.81a3,3,0,0,0,.9,1.42c1.9,1.37,2.82,3.47,4.16,5.27a55.18,55.18,0,0,0,6.79,7.22,36.7,36.7,0,0,0,5,4.54C168.83,344.55,169,344.87,168.7,345.53Z"/><path d="M137.29,98.34a4,4,0,0,1,0-.53c.15-.7.14-1.71,1-1.71s.53,1,.63,1.56c1,5.47,2,10.94,3,16.41a9.21,9.21,0,0,0,1.1,2.93.92.92,0,0,1-.18,1.3c-.52.32-.85-.15-1.17-.53a6.21,6.21,0,0,1-1.2-2.88c-1.05-5-2.05-10.11-3.06-15.16C137.39,99.25,137.35,98.77,137.29,98.34Z"/><path d="M175.41,248.11a11,11,0,0,0,1.25-2.61,1.61,1.61,0,0,1,1.36-1.23,1.15,1.15,0,0,1,1.13.22c.35.36.21.74,0,1.1s-.61.95-.88,1.44c-.36.7-.55,1.39.33,1.87a1.5,1.5,0,0,1,.69,1.88,14.28,14.28,0,0,0-.42,4.56,1.05,1.05,0,0,1-.62,1.2c-.66.24-1.09-.19-1.38-.69a5.55,5.55,0,0,1-.44-1.36c-.11-.47,0-1.21-.28-1.39-2.2-1.47-1.26-3.28-.67-5.07Z"/><path d="M63.59,205.31c0-.55,0-1.12.11-1.68s.4-1.09,1.08-1.09,1,.43,1,1.09a9.82,9.82,0,0,1,.07,1.21,47,47,0,0,0,.81,11.83c.07.44.37,1-.27,1.25s-.93-.23-1.19-.63a6.15,6.15,0,0,1-.63-2.07C63.85,212,64,208.62,63.59,205.31Z"/><path d="M169,342.07a2.86,2.86,0,0,1-2.06-1.35c-3.69-4-6.19-8.86-9.36-13.24a3.23,3.23,0,0,1-.5-1.08.89.89,0,0,1,.43-1,.79.79,0,0,1,1.07.28,15.44,15.44,0,0,1,1.76,2.6,52.76,52.76,0,0,0,7.19,11.45A21.73,21.73,0,0,1,169,342.07Z"/><path d="M62.73,193.8c0,2.54.5,5.1-.6,7.6a5.49,5.49,0,0,0,.15,2.61c.06.48.31.92.4,1.39.14.68.6,1.61-.33,1.89s-1-.71-1.23-1.38a15.13,15.13,0,0,1-.43-5.52,64.18,64.18,0,0,0,.44-8.2,4.34,4.34,0,0,1,.22-1.42.75.75,0,0,1,.76-.49.63.63,0,0,1,.61.63C62.75,191.87,62.73,192.84,62.73,193.8Z"/><path d="M55.52,267.32a22,22,0,0,0,.6,5.22,10,10,0,0,1,.35,1.41,1,1,0,0,1-.54,1.23c-.68.23-.74-.44-.94-.83a18.23,18.23,0,0,1-1.56-7.06c-.09-1.21-.11-2.42-.12-3.63,0-.59.19-1.2.85-1.31s1,.49,1.11,1A11,11,0,0,1,55.52,267.32Z"/><path d="M63.35,284.37a18.23,18.23,0,0,0,.18,3.48c0,.48,0,1-.56,1.2s-.83-.33-1.07-.74a6.66,6.66,0,0,1-.62-2.32c-.37-2.24-.07-4.51-.24-6.76-.06-.72.16-1.3,1-1.41,1-.13,1.3.6,1.33,1.35C63.4,280.77,63.35,282.39,63.35,284.37Z"/><path d="M59.6,275a14.62,14.62,0,0,0,.6,5.73,6.22,6.22,0,0,1,.21,1.67.65.65,0,0,1-.56.68.6.6,0,0,1-.73-.46,22.7,22.7,0,0,1-1.26-3.9c-.31-2.14-.37-4.31-.5-6.47,0-.77.19-1.61,1.06-1.63,1,0,1.2.85,1.18,1.73S59.6,274.16,59.6,275Z"/><path d="M187.78,292.1a1.91,1.91,0,0,1-.45-2.13c.69-2.81,1.38-5.62,2.13-8.42a3.48,3.48,0,0,1,1.17-2.06,1.06,1.06,0,0,1,1.15,0c.35.18.33.5.17.82-1.44,2.92-1.71,6.15-2.43,9.26A3.13,3.13,0,0,1,187.78,292.1Z"/><path d="M68.89,290.58c.13-.89-.48-2.25.93-2.38s1.38,1.31,1.44,2.29c.16,2.74-.12,5.5.59,8.2a.7.7,0,0,1-.49,1c-.47.11-.73-.22-1-.54a4.48,4.48,0,0,1-.65-1.81A50.55,50.55,0,0,1,68.89,290.58Z"/><path d="M65.13,286.43c0-1,0-1.94,0-2.9a.89.89,0,0,1,.82-.77c.5-.06.75.3.87.68a13.75,13.75,0,0,1,.62,3.82c.06,1.76-.3,3.54.35,5.28.18.48.19,1.27-.47,1.47-.89.28-1-.64-1.23-1.16A15,15,0,0,1,65.13,286.43Z"/><path d="M156.72,118a3.6,3.6,0,0,1-1.67-2.18,78.77,78.77,0,0,1-2.42-9.83c-.13-.66-.21-1.39.61-1.58s.89.52,1.11,1.18a13.78,13.78,0,0,1,.85,4.21c0,2.35,1.21,4.44,1.62,6.71C156.9,117,157.18,117.45,156.72,118Z"/><path d="M76,298c.1,1.45.17,2.9.31,4.35.08.73.36,1.7-.56,1.82-1.11.15-1.07-1-1.15-1.74-.14-1.36-.25-2.73-.35-4.1a26.24,26.24,0,0,0-.44-3.85c-.18-.81-.17-1.8.88-1.93,1.21-.15,1.37.89,1.39,1.81,0,1.21,0,2.43,0,3.64Z"/><path d="M57.83,193.57V182c0-.56,0-1.13.05-1.69a.85.85,0,0,1,1.67-.1,4.78,4.78,0,0,1,0,2.16,63.48,63.48,0,0,0-1.18,14.36c0,.26,0,.51-.33.55a.51.51,0,0,1-.61-.56c0-1,.08-2.09.13-3.14Z"/><path d="M278.27,176.78a2,2,0,0,0-.44-2.21,3.12,3.12,0,0,1-.67-1.53c-.1-.82.14-1.47,1-1.65s1.23.36,1.24,1.08a2.24,2.24,0,0,0,1.41,2.05c1.21.65,1.28,1.52.36,2.53a3.12,3.12,0,0,0-.63,1c-.22.59-.24,1.39-1.18,1.11a1.58,1.58,0,0,1-1.16-1.65A6.58,6.58,0,0,1,278.27,176.78Z"/><path d="M313.79,285.1c.59-4.33-.35-8.68.18-13a7.5,7.5,0,0,1,.77-3,.8.8,0,0,1,1-.37c.36.13.59.46.48.74C314.4,274.49,315.78,280,313.79,285.1Z"/><path d="M60.39,131.58a2.15,2.15,0,0,1-.67,1.92,89.3,89.3,0,0,1-6.15,6.75c-.35.33-.71.83-1.21.51s-.26-.83.06-1.23c2.31-2.86,4.48-5.85,7.49-8.06C60,131.41,60.19,131.53,60.39,131.58Z"/><path d="M158.07,114.92a4.08,4.08,0,0,1,.3-.94c.36-.66.78-.7,1.29-.07s.46,2,1.68,2.18,1.73-.73,2.59-1.1l.45-.19c.39-.15.82-.24,1.07.17a.74.74,0,0,1-.29,1,26.41,26.41,0,0,1-3.08,1.88C160,118.89,158,117.49,158.07,114.92Z"/><path d="M50.28,257.22c.71.06.91.62,1,1.16.19,1.11.28,2.24.44,3.35.27,1.89-.09,3.87.81,5.68a.58.58,0,0,1-.3.8c-.38.17-.64-.11-.74-.41a26.37,26.37,0,0,1-1.14-3.42c-.4-1.88-.67-3.79-.94-5.7C49.32,258,49.38,257.35,50.28,257.22Z"/><path d="M133.09,212c.12-1,.18-2.13.42-3.22a1.12,1.12,0,0,1,1.42-1c.77.25.41.89.32,1.42a14.27,14.27,0,0,0,.08,4.79,3.76,3.76,0,0,1,.08,1.91c-.13.37-.27.77-.75.83s-.73-.28-.92-.64A8.42,8.42,0,0,1,133.09,212Z"/><path d="M258.92,31.56a2,2,0,0,1,1.52.62c1.2,1.31,2.41,2.6,3.61,3.9a.66.66,0,0,1,.07.88.7.7,0,0,1-.85.29c-.73-.34-1.43-.75-2.13-1.15-1.12-.64-1.83-1.82-3.09-2.31a1,1,0,0,1-.5-1.43A1.3,1.3,0,0,1,258.92,31.56Z"/><path d="M80.58,307.68a.86.86,0,0,1-.46.89c-.58.25-1-.18-1.14-.59a19.17,19.17,0,0,1-1.54-6.28.91.91,0,0,1,1.75-.46,8.45,8.45,0,0,1,.63,1.81C80.11,304.54,80.32,306.05,80.58,307.68Z"/><path d="M231.22,467.69a31.82,31.82,0,0,0-.52,4.71.93.93,0,0,1-.88,1c-.66.06-.74-.52-.8-1a29.14,29.14,0,0,1,.15-5.28,1.06,1.06,0,0,1,1.33-1.05C231.21,466.18,231.26,466.79,231.22,467.69Z"/><path d="M236.56,469.42c0,.67-.08,1.71-.17,2.76a.85.85,0,0,1-.41.53.42.42,0,0,1-.59-.24c-.64-1.82-1.42-3.61-1-5.62.15-.64.31-1.35,1.15-1.31s1.08.74,1,1.56C236.51,467.74,236.56,468.39,236.56,469.42Z"/><path d="M180.27,253.76c.07-1.65.32-3,1.65-4,.27-.19.55-.35.87-.16a.72.72,0,0,1,.29.85,13.3,13.3,0,0,0-.92,4.67.81.81,0,0,1-.91.88.87.87,0,0,1-.8-.77C180.35,254.7,180.31,254.14,180.27,253.76Z"/><path d="M141.88,209.71a4.19,4.19,0,0,1-.1.71c-.16.56.56,1.51-.33,1.65s-1.19-.83-1.37-1.63c-.27-1.24-.16-2.54-.75-3.73-.26-.52,0-.92.54-1.14a1,1,0,0,1,1.42.39A7.91,7.91,0,0,1,141.88,209.71Z"/><path d="M216.25,470c0,.88,0,1.77,0,2.66,0,.42-.13.83-.62.88a.73.73,0,0,1-.73-.53,10.67,10.67,0,0,1-.3-5.95,1,1,0,0,1,1.06-.84c.62.06.65.64.66,1.12,0,.88,0,1.77,0,2.66Z"/><path d="M261.75,194.61c-.31,1,.21,2.25.06,3.45-.07.49-.24,1-.85,1s-.61-.51-.64-.89c-.16-1.68-.53-3.37-.06-5,.18-.63.1-1.74,1.05-1.63s.64,1.1.57,1.79C261.85,193.65,261.8,194.05,261.75,194.61Z"/><path d="M299.14,27.5c0,.73-.25,1.52-1.46,1.49s-1.82-1.12-1.86-2.94c0-.93.35-1.59,1.33-1.66S299.18,25.76,299.14,27.5Z"/><path d="M336,35.71c-3.23,1.47-3.63,4.68-5.45,6.84C330.81,37.69,332.7,35.12,336,35.71Z"/><path d="M209.72,471.19c0,.65,0,1.29,0,1.94,0,.41,0,.85-.49.95a1,1,0,0,1-1-.48,1.9,1.9,0,0,1-.35-.88c-.06-1.37-.08-2.75-.08-4.12a.91.91,0,0,1,.85-1,.94.94,0,0,1,1.17.93c.06.88,0,1.77,0,2.66Z"/><path d="M203.17,469.48c0-.53-.18-1.48.64-2.13a1.07,1.07,0,0,1,1.12-.24c.34.15.56.43.45.76a13,13,0,0,0-.18,4.56c0,.53-.13,1-.71,1.1s-.81-.38-.93-.85A10.73,10.73,0,0,1,203.17,469.48Z"/><path d="M292.91,14.61c-.14-.9-.15-1.89,1.11-2.17.83-.18,1.93,1.16,2,2.31A2,2,0,0,1,294.37,17C293.46,17,292.93,16.16,292.91,14.61Z"/><path d="M245.94,140.58a19.12,19.12,0,0,1,.92-2.52,1.37,1.37,0,0,1,2-.54c.74.48-.06,1-.33,1.36a5.83,5.83,0,0,0-.76,3.21c0,.49-.08,1-.68,1.07s-.77-.52-.91-1A15.55,15.55,0,0,1,245.94,140.58Z"/><path d="M199.78,470.46a12,12,0,0,1-.12,1.9c-.13.64-.49,1.25-1.27,1.15s-.83-.71-.81-1.28c0-1.11.11-2.23.23-3.34.08-.71.53-1.26,1.25-1.18s.74.75.78,1.31,0,1,0,1.44Z"/><path d="M242.64,138.61a12.34,12.34,0,0,1,.81-3.51,1,1,0,0,1,1.36-.65c.6.24.59.77.38,1.23a11.59,11.59,0,0,0-.5,3.08c-.09.6-.36,1.36-1.18,1.33S242.67,139.28,242.64,138.61Z"/><path d="M250.86,144.87c.28-1.51.53-3,.85-4.5a1.11,1.11,0,0,1,1.64-.9c.94.4.43,1.1.09,1.59-.85,1.26-.75,2.77-1.18,4.14-.15.48-.34,1-.94.86S250.86,145.32,250.86,144.87Z"/><path d="M269.14,163.75c.07.52.14,1.32.29,2.11.11.61.15,1.18-.57,1.36s-1.23-.3-1.37-1a10.77,10.77,0,0,1,0-3.84c.09-.57.32-1.2,1-1.16s.77.7.75,1.28C269.22,162.82,269.19,163.14,269.14,163.75Z"/><path d="M188.26,469.78c-.11.74.49,2.36-1,2.29s-.86-1.73-1-2.74a11.79,11.79,0,0,1,0-1.68c0-.52.12-1,.72-1.09a1.09,1.09,0,0,1,1.26.87A4.46,4.46,0,0,1,188.26,469.78Z"/><path d="M308.14,11.29c0,1.24-.91,2.73-1.56,2.67s-1.83-1.58-1.79-2.57a1.69,1.69,0,0,1,1.94-1.64A1.33,1.33,0,0,1,308.14,11.29Z"/><path d="M193.21,469.85a3.6,3.6,0,0,1-.37,2.38c-.33.74-1.21.78-1.47,0a6.81,6.81,0,0,1-.06-4.5.74.74,0,0,1,.93-.57,1,1,0,0,1,.87.75A15.22,15.22,0,0,1,193.21,469.85Z"/><path d="M248.05,469.42c0,.84.75,1.88-.45,2.1s-1-1-1.29-1.68a11.53,11.53,0,0,1-.51-2.33,1.13,1.13,0,0,1,1-1.37c.7-.1.94.43,1.07,1A7,7,0,0,1,248.05,469.42Z"/><path d="M172.77,469.52c-.11.46.69,1.68-.79,2-.94.2-1.37-.64-1.3-2.33,0-.48.11-1,.09-1.44a1,1,0,1,1,2,0C172.76,468.18,172.77,468.66,172.77,469.52Z"/><path d="M221,468.15a1.66,1.66,0,0,1,1.35,1.53,32.87,32.87,0,0,1,.32,3.57c0,.2-.39.51-.66.62-.45.18-.78-.14-1-.5-.58-1-.4-2.19-.68-3.28A1.86,1.86,0,0,1,221,468.15Z"/><path d="M155.91,465.24c.58,0,.87.29.9.73a20.19,20.19,0,0,0,.42,4.31.67.67,0,0,1-.4.79c-.35.14-.61-.06-.87-.26a1.41,1.41,0,0,1-.6-1c-.09-1.12-.2-2.24-.24-3.36C155.09,465.85,155.31,465.34,155.91,465.24Z"/><path d="M309.59,20.12c.59.3,1.73,0,1.63,1.27a3.54,3.54,0,0,1-2.2,2.07c-.82,0-1.38-.89-1.31-2S308.47,20,309.59,20.12Z"/><path d="M145.26,466.78c0-.13-.06-.53-.09-.92s-.22-1,.39-1.24,1,.27,1.26.8c.49,1.22.25,2.52.33,3.79,0,.47-.54.79-1.05.8s-.66-.39-.7-.81C145.33,468.49,145.31,467.77,145.26,466.78Z"/><path d="M242.93,467.81c-.41,1,0,3.07-1.22,3.17s-.7-1.88-1-2.92a5.85,5.85,0,0,1-.12-.71,1.09,1.09,0,0,1,.9-1.43c1-.19,1.22.52,1.39,1.26C242.9,467.34,242.9,467.5,242.93,467.81Z"/><path d="M85.84,308.63a1.2,1.2,0,0,1-.67,1.09.72.72,0,0,1-.87-.21,7.31,7.31,0,0,1-2-2.94,1,1,0,0,1,.58-1.4.94.94,0,0,1,1.22.51C84.61,306.74,85.67,307.51,85.84,308.63Z"/><path d="M183.84,469.64a1.54,1.54,0,0,1,0,.43c-.1.85.1,2-1.21,1.94-1.07-.08-1-1.13-1-1.93a16.25,16.25,0,0,1,.08-1.7c.07-.75.49-1.23,1.26-1.17s1,.68,1,1.41C183.93,468.86,183.9,469.1,183.84,469.64Z"/><path d="M123.65,467.09a3.43,3.43,0,0,1,.06-.43c.26-.67-.43-2,.66-2s1.26,1.2,1.34,2.17c.15,1.8-.32,3-1.09,2.71C123.34,469.1,123.77,467.87,123.65,467.09Z"/><path d="M151.32,470.55a38.09,38.09,0,0,1-.06-5.54.61.61,0,0,1,.6-.63.91.91,0,0,1,.61.31,2.77,2.77,0,0,1,.39,2.3C152.55,469.56,152.57,469.57,151.32,470.55Z"/><path d="M134.84,467.05c-.2.72-.4,1.49-.64,2.26-.13.4-.39.78-.85.65a1,1,0,0,1-.71-.89c0-1,.08-1.92.18-2.87.05-.49.24-1,.85-1s1,.47,1.13,1.06A4.66,4.66,0,0,1,134.84,467.05Z"/><path d="M267.58,192.69c.07.49.13.81.15,1.13,0,.64.14,1.38-.75,1.49-.7.1-.92-.55-1.18-1a2.6,2.6,0,0,1-.23-.92c-.12-1.22.85-2.8,1.61-2.56C268.36,191.18,267.42,192.18,267.58,192.69Z"/><path d="M272.29,169.23c0-1.06,0-2.07,1.16-2.49a1.14,1.14,0,0,1,1.14.16.71.71,0,0,1,.19,1.06,5.72,5.72,0,0,0-.77,2c-.12.47-.32,1-.92,1s-.69-.58-.76-1.06C272.3,169.64,272.3,169.39,272.29,169.23Z"/><path d="M178.78,95.13c0,.55-.58,1.06-1.5,1.07s-1.59-.46-1.53-1.44.44-1.74,1.53-1.82C178.17,92.88,178.81,93.66,178.78,95.13Z"/><path d="M323.53,22.11c-.89-.09-1.26-.72-1.21-1.64s.13-1.68,1.19-1.81c.72-.1,1.69,1.09,1.73,2S324.57,22.12,323.53,22.11Z"/><path d="M159.76,467.42c0-.3.1-.69.18-1.08a.79.79,0,0,1,.62-.67.69.69,0,0,1,.73.5c.3.91.56,1.84.83,2.76a.88.88,0,0,1-.56,1.16,1.05,1.05,0,0,1-1.44-.47A3.88,3.88,0,0,1,159.76,467.42Z"/><path d="M166.46,469.49c0,.66,0,1,0,1.31a.89.89,0,0,1-1,.88.86.86,0,0,1-.88-.68,8.23,8.23,0,0,1-.25-2.88c0-.58.43-.83,1-.85a.8.8,0,0,1,.89.65C166.36,468.55,166.42,469.19,166.46,469.49Z"/><path d="M186.71,251.37a12.09,12.09,0,0,1,0,1.37c-.07.61,0,1.43-.91,1.38-.69,0-1.08-.63-1.23-1.3a2.94,2.94,0,0,1,.17-1.66c.3-.77.79-1.56,1.72-1.28S186.69,251,186.71,251.37Z"/><path d="M122.34,465.37a13,13,0,0,1,0,1.32c0,.49-.16,1-.77,1a.9.9,0,0,1-1-.8,7.28,7.28,0,0,1,0-2.83.88.88,0,0,1,.73-.83.87.87,0,0,1,1,.84A10.72,10.72,0,0,1,122.34,465.37Z"/><path d="M182.19,101.71a1.59,1.59,0,0,1-1.69,1.39,1.36,1.36,0,0,1-1.47-1.54c0-1,.75-1.38,1.64-1.39S182.07,100.81,182.19,101.71Z"/><path d="M115.82,464.91c.26-.57-.48-1.81.65-1.9s1.27,1.06,1.43,1.93a2.21,2.21,0,0,1-.48,2.22.71.71,0,0,1-.89,0A2,2,0,0,1,115.82,464.91Z"/><path d="M335.94,22.72a12.8,12.8,0,0,1-.31,1.66c-.15.46-.48.91-1,.85s-.46-.59-.55-1a7.51,7.51,0,0,1-.36-1.65,1.21,1.21,0,0,1,1.42-1.29C335.94,21.38,336.13,22,335.94,22.72Z"/><path d="M258.1,23.1c-.06.13-.1.32-.21.41a32.29,32.29,0,0,1-2.76,1.91.81.81,0,0,1-1.2-.91c.18-.94,2.88-2.34,3.81-2A.55.55,0,0,1,258.1,23.1Z"/><path d="M176.43,223.68c-1.14-.27-1.4-1-.93-2,.83-1.81,1.7-3.61,2.56-5.41.15-.31.43-.52.76-.3s.21.52,0,.82a16.49,16.49,0,0,0-2.46,6.93Z"/><path d="M113,461.17a12.33,12.33,0,0,1,.24,4.08c0,.68-.4,1.36-1.15,1.27s-.89-.92-.58-1.49C112.13,463.88,111.22,462.22,113,461.17Z"/><path d="M221.93,319.39c.86-.42,2.09.31,2.52-1,.07-.19.44-.17.62,0a1.88,1.88,0,0,1,.31,2.4c-.46.89-1.12.7-1.79.25S222.22,320.32,221.93,319.39Z"/><path d="M183.23,87.44c0,1-.63,1.26-1.45,1.28s-1.58-.36-1.61-1.37.65-1.45,1.56-1.44S183.12,86.6,183.23,87.44Z"/><path d="M288.43,26.05c0,1.55-.54,2.35-1.39,2.26a1.31,1.31,0,0,1-1.33-1.43c0-.95.22-1.9,1.31-2A1.25,1.25,0,0,1,288.43,26.05Z"/><path d="M191.67,249.48c.07.77-.07,1.21-.68,1.29a.75.75,0,0,1-.81-.73c-.1-1-.82-1.78-.71-2.79.05-.4.15-.83.62-.93a.81.81,0,0,1,.95.58C191.32,247.81,191.5,248.76,191.67,249.48Z"/><path d="M186.44,79.71c-.17.61.2,1.51-.75,1.77-.69.18-1.83-1-1.84-1.87a1.36,1.36,0,0,1,1.52-1.45C186.3,78.16,186.45,78.91,186.44,79.71Z"/><path d="M282.59,23.48a1.7,1.7,0,0,1,.26-1.39.91.91,0,0,1,1.47-.14c.67.6.17,3.09-.7,3.45a.64.64,0,0,1-.93-.48A9.77,9.77,0,0,1,282.59,23.48Z"/><path d="M140.36,468.48c.14-.82,0-1.79.87-2.34a.71.71,0,0,1,.66.09c.72.73.46,1.64.36,2.5a1.87,1.87,0,0,1-.22.68c-.17.36-.31.81-.79.8s-.75-.5-.84-1C140.36,469,140.38,468.75,140.36,468.48Z"/><path d="M176.72,468.81c.12-.76-.27-1.85,1-1.8s1.26,1,1.3,1.93-.34,1.91-1.34,1.89C176.35,470.8,177,469.5,176.72,468.81Z"/><path d="M200.34,63.05c-1.07-.11-2.22-1.46-2.07-2.24a1.1,1.1,0,0,1,1.43-.93,2.07,2.07,0,0,1,1.38,2.27A.92.92,0,0,1,200.34,63.05Z"/><path d="M212.07,297.31c0,.61-.29,1.27-.92,1.14a2.84,2.84,0,0,1-1.92-2.22c-.21-.69.26-1,.92-1.06S212,296.38,212.07,297.31Z"/><path d="M221.61,300.44c-.93,0-1.65-.33-1.62-1.17,0-1,.94-.9,1.63-.8s2.1-.1,2,1S222.3,300.31,221.61,300.44Z"/><path d="M282.17,8.52c1.07.17,1.41.9,1.43,1.88,0,.6,0,1.27-.82,1.13A2,2,0,0,1,281,9.79C280.92,9.05,281.42,8.63,282.17,8.52Z"/><path d="M175.6,110.68c.52.12,1.35.33,1.05.92-.39.76-.51,2-1.75,2-.63,0-1.08-.26-1.06-1A2,2,0,0,1,175.6,110.68Z"/><path d="M271.34,16.09a1.07,1.07,0,0,1-1.35-.71c-.16-.45-.31-1,.15-1.33a1.32,1.32,0,0,1,1.58,0c.14.08.29.14.43.23.45.3,1.15.45,1.05,1.15s-.86.53-1.38.63Z"/><path d="M279.76,34.42c-.88-.07-1.51-.49-1.48-1.45,0-.71.61-.84,1.2-.83,1,0,2,.78,1.83,1.45S280.43,34.38,279.76,34.42Z"/><path d="M138.74,468.46c-.11.59,0,1.34-.9,1.18-1.17-.21-1.13-1.2-1.12-2.1,0-.66.32-1.19,1-1A1.41,1.41,0,0,1,138.74,468.46Z"/><path d="M266.26,15.94a11.38,11.38,0,0,1-.19,1.59.84.84,0,0,1-.47.47.64.64,0,0,1-.79-.36,3.41,3.41,0,0,1-.28-1.14c0-.66-.55-1.42.33-1.93a.79.79,0,0,1,.89,0A1.41,1.41,0,0,1,266.26,15.94Z"/><path d="M252.21,28.09c-.27.9-1,.91-1.72.85a1.12,1.12,0,0,1-1.17-1.41,1,1,0,0,1,1.34-1C251.47,26.74,252.14,27.12,252.21,28.09Z"/><path d="M203.09,249c-.05.58-.14,1.24-.91,1.1a2,2,0,0,1-1.55-1.92c-.12-.74.54-.85,1.15-.8C202.8,247.42,203.17,248,203.09,249Z"/><path d="M210.88,60.86a1.51,1.51,0,0,1,1.6,1.39c.15.82-.41,1.13-1.1,1.21-1.11.13-1.25-.73-1.43-1.5S210.24,61,210.88,60.86Z"/><path d="M248.33,295.37a.72.72,0,0,1-.85.64c-1.06-.06-2.22-1.15-2.06-2s.69-.83,1.28-.78A2.37,2.37,0,0,1,248.33,295.37Z"/><path d="M228.77,42.74c0,.82-.56,1-1.14,1s-1.56.08-1.68-.9A1.18,1.18,0,0,1,227,41.47C227.94,41.35,228.37,42.1,228.77,42.74Z"/><path d="M188.88,91.29a1.16,1.16,0,0,1-1.32,1.12c-.79-.06-1.46-.4-1.36-1.33.07-.64.34-1.29,1.14-1.35A1.68,1.68,0,0,1,188.88,91.29Z"/><path d="M193.82,80.37c-.65-.32-1.39-.65-1.19-1.53s1.14-1,1.92-1c.59,0,.77.51.58,1S194.77,80.36,193.82,80.37Z"/><path d="M128.82,467.57c0-.74,0-1.48.86-1.51,1.13,0,1.16.95,1.24,1.72a1.09,1.09,0,0,1-1.1,1.31C128.78,469.09,128.91,468.19,128.82,467.57Z"/><path d="M234.85,35c-1.11,0-1.77-.28-1.83-1.28a.84.84,0,0,1,.86-.94c.89,0,1.85.35,2.08,1.25S235.27,34.88,234.85,35Z"/><path d="M232.37,297.79c.71.27,1.31.72,1.2,1.53a1.22,1.22,0,0,1-1.43,1,1.2,1.2,0,0,1-1.08-1.35C231.12,298.22,231.64,297.87,232.37,297.79Z"/><path d="M322.32,12.57a1.14,1.14,0,0,1-1.33,1,1.2,1.2,0,0,1-1.3-1.16,1.16,1.16,0,0,1,1.46-1.19A1.21,1.21,0,0,1,322.32,12.57Z"/><path d="M220.11,242.1a1.17,1.17,0,0,1-1.23,1.2,1.13,1.13,0,0,1-1.25-1.16c0-.81.54-1.15,1.21-1.2S219.94,241.43,220.11,242.1Z"/><path d="M245.49,47.63c0,.74-.56.81-1,.87-.81.1-1.7.15-1.85-1a.93.93,0,0,1,1-1.1A2.69,2.69,0,0,1,245.49,47.63Z"/><path d="M273.3,24.17c.83.15,1.26.56,1.24,1.31s0,1.42-.92,1.37a1.43,1.43,0,0,1-1.24-1.28C272.25,24.84,272.76,24.43,273.3,24.17Z"/><path d="M222.76,60.22a.86.86,0,0,1-1,.81c-.84-.07-1.61-.37-1.68-1.32-.05-.65.53-1,1.13-.92C222,58.87,222.4,59.61,222.76,60.22Z"/><path d="M91.49,309.8c-.28.72-.72,1.26-1.57,1.15A1,1,0,0,1,89,309.8a1.12,1.12,0,0,1,1.37-1A1.1,1.1,0,0,1,91.49,309.8Z"/><path d="M204.92,72.76A.92.92,0,0,1,204,72c-.17-.66-.24-1.29.46-1.7a1.22,1.22,0,0,1,1.38,0,.68.68,0,0,1,.19,1C205.69,71.84,205.56,72.58,204.92,72.76Z"/><path d="M217,51.38a1,1,0,0,1-1.08,1.06c-.68.06-1.34-.08-1.46-.92s.5-1.13,1.16-1.24C216.44,50.15,216.75,50.76,217,51.38Z"/><path d="M244.34,38.71a1,1,0,0,1-1.07,1.14c-.68,0-1.34-.14-1.45-.93s.48-1.15,1.18-1.2A1.3,1.3,0,0,1,244.34,38.71Z"/><path d="M99.83,311.73c.94.1,1.25.83,1.36,1.65.07.47-.27.75-.74.68-.83-.13-1.57-.44-1.57-1.45A.82.82,0,0,1,99.83,311.73Z"/><path d="M234.1,42.59c-.17.66-.52,1.17-1.28,1.18a1,1,0,0,1-1.18-1.17A1.14,1.14,0,0,1,233,41.55,1.09,1.09,0,0,1,234.1,42.59Z"/><path d="M136.63,224.54c.05.63-.21,1-.8,1-.93-.13-1-1-1.07-1.66s.28-1.21.92-1.16C136.89,222.77,136,224.08,136.63,224.54Z"/><path d="M209.41,246.61c-.2.64-.52,1.17-1.33,1.06-.61-.08-1.06-.41-1-1.1a1.15,1.15,0,0,1,1.34-1.07A.92.92,0,0,1,209.41,246.61Z"/><path d="M97,312c-.07.68-.29,1.16-.86,1.06a1.57,1.57,0,0,1-1.45-1.58,1,1,0,0,1,.9-.95C96.6,310.48,96.68,311.4,97,312Z"/><path d="M195.06,249.69c.71.17.85.68.79,1.28a1,1,0,0,1-2-.09A1.21,1.21,0,0,1,195.06,249.69Z"/><path d="M275.33,190.07a1.1,1.1,0,0,1-1,1.11,1,1,0,0,1-1.24-.81c-.17-.89.59-1,1.2-1.12S275.2,189.48,275.33,190.07Z"/><path d="M229.16,238.56c0,.53-.3.93-.85,1a1,1,0,0,1-1.18-1.15c0-.58.48-.8,1-.85C228.82,237.46,229,238,229.16,238.56Z"/><path d="M332.33,45.29a.8.8,0,0,1-.67.89,1,1,0,0,1-1.39-.92c-.07-.49.3-.73.75-.77A1.14,1.14,0,0,1,332.33,45.29Z"/><path d="M266.69,33.69c-.39,0-.64-.18-.66-.54a1.11,1.11,0,0,1,1.06-1.3c.47-.05,1,.13,1,.75S267.23,33.45,266.69,33.69Z"/><path d="M172.5,345.72a4.58,4.58,0,0,1-2.72-2.66c1.08.71,2.48,1.11,2.68,2.71Z"/><path d="M288.18,220.63a8.67,8.67,0,0,1-.8,4.63,9.09,9.09,0,0,1,.84-4.58Z"/><path d="M175.46,348.1a4.22,4.22,0,0,1-3-2.38l0,0a5.82,5.82,0,0,1,2.95,2.38Z"/><path d="M175.41,348.15A3.72,3.72,0,0,1,177.1,350a2.85,2.85,0,0,1-1.64-1.92Z"/></g></svg>