<svg xmlns="http://www.w3.org/2000/svg" viewBox="0 0 425.01 534.67"><defs><style>.cls-1{fill:azure;}.cls-2{fill:#ffe80d;}.cls-3{fill:#fff;}.cls-4{fill:#dc9a2b;}.cls-5{fill:#ebffff;}.cls-6{opacity:0.34;}.cls-7{opacity:0.44;}.cls-8{opacity:0.3;}</style></defs><title>boilermaker</title><g id="glass"><path class="cls-1" d="M2.17,28.56C8.5,22.67,44.53,12.73,44.53,12.73s23-6.27,27.13-5.17,22-.13,22-.13l30.51-5.34L144.63,4,167.44.55l38.62,2.29s10.46,0,19.31,0S254.07,11,254.07,11l26.79,7.64,1.64,6.9L267.55,38.28s-246.72,3.29-253,.18S2.17,28.56,2.17,28.56Z"/><path class="cls-1" d="M56,460.27,225.5,465l-1,31.54s-8.37,14.09-19.71,19.28-34.66,13.4-54,12.29-43.48-1.82-43.48-1.82-24.08-11.18-24.7-10.47-21.78-15.53-23.13-20.34S56,460.27,56,460.27Z"/></g><g id="beer"><path class="cls-2" d="M10.5,160l4.67-4.33s12.66,9.74,27.33,12.54,73.51,12,73.51,12l23.82,3.8,48.34-3.8,54.66-16,36-17.24s-2.33,19.66-4.66,25.17S263,197,259.1,204.67s-10.6,41.52-10.6,41.52L234.83,346.5l-6.33,51.31-5.3,70.09s-5.1-.1-19.73,7.67-36.7,12.78-55.33,13.11-51.95,3.23-69.21-11-23-17.4-23-17.4l-5-54.85-3.09-41.94s-5.39-21.59-5.72-33.2-6-58.61-6-58.61-6-19-5.65-26.32-2.11-28.68-2.11-28.68L18.17,192.55S9.61,166.58,10.5,160Z"/></g><g id="foam"><path class="cls-3" d="M3.83,38.46s12.44,53.18,13,59.75S8.5,128.68,8.17,136.84s.66,22.5.66,22.5,1.54-4.27,5.49-2.89S38.6,165.46,47,169s57.79,9.43,57.79,9.43,33.34,5.72,35.07,5.58l20.95-1.65c9.41-.74,22.05.9,22.05.9l43.47-11.11s44.53-14.39,48.53-19.78,4-21.59,4-21.59l-7.46-29.56s-1.54-15.69,2.13-21.64,7.32-38.93,7.32-38.93-1.67-13,0-15.14-50.14-12.73-60-12.69S201,13.5,201,13.5s-4-5.19-10.49-4.95-24.21-1-28.51,0S144.5,9.92,138.5,9.93s-14.35-.24-14.35-.24-.32,4.27-1.65,4.62-7.06-.47-9.64-1.77-11.84-2.22-18.13,0-27.19,7.39-28.54,6.14S56.13,23.24,53.78,21,49.34,23.9,46.59,24,46,21.46,35.19,22.5,9.68,28.21,7.32,28.84A6.13,6.13,0,0,0,3.83,32Z"/></g><g id="glass_front_rim" data-name="glass front rim"><path class="cls-1" d="M5,26.65V38.46s19.34,5.77,28.17,8,46,5,46,5l51.41,3L158.39,53s51.25-1.13,55.18-1.54,43.81-8.07,43.81-8.07,15.33-1.7,19.12-4.88,6-12.93,6-12.93l-6.33,1S273.4,31,259.45,34.67,238.07,42.34,230.12,42s-39.64.67-39.64.67-36.76,4-50.37,4S102.3,47,89.4,44.34s-25-3.07-39.46-4.37-30.77-2-34.44-4.3S5,26.65,5,26.65Z"/></g><g id="whisky"><path class="cls-4" d="M301.73,388.25s11.65,77.29,12.59,81,1.2,19.87,1.2,19.87l.6,9.37s10.39,3.74,18,5,38.69,1.5,45.65,0,12.73-5,15.09-8.93,6.49-28.32,6.49-28.32L409,433l5-32.5s1.69-9,1.1-12.25a14,14,0,0,0-2.85-5.85s-6.1-7.89-12.92-9-30.13-5.15-30.13-5.15l-10.28,1.6s-8.23-1.91-12.39-1.6-12.37-.64-12.37-.64-1.52.93-11.21,3.55S300.75,384,300.75,384Z"/></g><g id="shotglass"><path class="cls-5" d="M292,379.51l12.25,88.39s8.05,33.17,8.28,36.64,0,8.18,3,11.57,17.84,13.26,23.66,14.08,35.39,4.56,40.6,1.81,13-5.26,15.09-9.5,18.38-74.27,18.38-74.27l6.25-42.48,3.69-25.68s-4.43-4.82-5.43-4.82S396,368.51,396,368.51l2.53,3.26s7.7,5.06,12.06,8.77,4.59,11.35,4.59,11.35l-2.72,16.36-7.25,33.43-5.9,26.22-4.69,27s2.16,4-8.25,6.43-35.35,3-41.76,3-27.74-4-28.07-5.62,0-12.58-1.06-20.67-6.74-43.42-6.74-43.42l-7-41.58s-6.33-8.21-1-10.6,37.1-11.6,37.1-11.6l18.33-1,25.1,1.31,14.76,2.2s-5.46-8.44-6-8-24.61-6.83-29.2-7.08-19.44-2-28.8,3-27.29,11-31.29,13.25S292,379.51,292,379.51Z"/></g><g id="shade"><path class="cls-6" d="M205.45,485.54c-4.59.92-8.28,4.45-12.33,6.65a79,79,0,0,1-13.75,5.87,99,99,0,0,1-30.61,4.55A147.66,147.66,0,0,1,115,498.17c-11.53-2.76-22.74-7-34.35-9.3-1.11-.22-1.58,6.81-.69,10.32a5.83,5.83,0,0,0,.46,1.33l.08.05a1.36,1.36,0,0,0,.45.47l-.12-.25c.59.39,1.23.84,1.86,1.2a70.17,70.17,0,0,0,8.74,4c6.12,2.41,12.26,4.69,18.59,6.48a149,149,0,0,0,36.77,6.07,100.7,100.7,0,0,0,31.49-4c10-3,22-7.82,27.86-16.92C206.9,496.33,207.48,485.13,205.45,485.54Z"/><path class="cls-6" d="M269.52,162.25a26.26,26.26,0,0,1-10.66,3.26c-4.21.28-8.2,3-11.87,5a149,149,0,0,1-24.27,10.34c-8.57,2.7-17.64,2.44-26.52,3.31s-17.66,1.13-26.47,1.72c-20.11,1.35-39.84.14-59.87-1.87-18.31-1.83-37.07-4.48-54.82-9.47-3.94-1.11-7.84-2.41-11.68-3.82-3.28-1.19-6.92-1.76-10-3.28-2.87-1.39-5.55-4.67-8.72-5.17s-4.31,1.28-6-2.57c-.67-1.55-1.07.65-1.22,1.18a13,13,0,0,0,.22,5.81c1.89,8.41,3.62,19.31,9.43,25.94a56.91,56.91,0,0,0,18.42,13.84c6.7,3,14,4.73,21.23,6.23,10.43,2.16,20.94,4,31.5,5.41a284.23,284.23,0,0,0,61.71,1.24,140.38,140.38,0,0,0,28.54-5c4.5-1.34,9-2.94,13.42-4.62,4.91-1.87,9.24-4.79,14-7,9.44-4.42,19.22-8,28.51-12.81,4.3-2.22,8.71-4.51,12.41-7.69,2.45-2.12,4.06-4.92,6.21-7.31s4.51-4.65,6.81-7C270.57,167.17,269.88,162.07,269.52,162.25Z"/><path class="cls-6" d="M145.51,477.23a108.83,108.83,0,0,1-18.11-5.7,167.12,167.12,0,0,0-16.91-6c-10.37-2.77-20.45-6.49-28.62-13.71-7.23-6.39-13-15.21-14.22-24.9-.59-4.76-.71-9.56-1.43-14.31-.47-3.07-1-8.53-3.57-10.57-.55-.44-.41,3.14-.35,3.45,2.48,12.25,1.28,24.84,4.1,37,2.37,10.25,7.08,19.75,14.84,27s17.19,11.63,27.2,14.2c12.51,3.2,24.87-2.75,37.11-5C145.79,478.65,145.76,477.28,145.51,477.23Z"/><path class="cls-7" d="M397.38,508.8c-3.12.26-4.89,1.88-7.73,3.22a37.24,37.24,0,0,1-7.41,2.53c-7.12,1.67-14.61,1.72-21.88,1.9-6.87.16-13.72-.42-20.53-.65a46.17,46.17,0,0,1-18.65-4.72c-.12-.05-.52,2.53,0,2.88a99.84,99.84,0,0,0,18,9.82c6.82,2.87,14.11,2.74,21.44,2.57s14.75-.2,21.87-1.87a36.38,36.38,0,0,0,8.82-3.2c3.27-1.74,4.6-3.36,6.39-6.74C398,513.94,398.5,508.7,397.38,508.8Z"/><path class="cls-8" d="M403.31,432.7c-4.95,6.72-7.41,15.75-9,23.82-1.87,9.38-.81,20.38-8.09,27.63-6.73,6.71-16.64,8.34-25.75,8.22-5.44-.07-10.86-.68-16.28-1.16-5.63-.49-11.05-1.37-16.54.38-1.16.36-.85,5.8.16,6.28,5.29,2.58,10.85,2.79,16.63,3.3,5.41.47,10.84,1.07,16.27,1.15,9.18.12,18.84-1.63,25.78-8.09,6.46-6,7.48-14.85,8.36-23.17,1.25-11.79,5-22.3,9.08-33.34C404.22,436.84,403.56,432.36,403.31,432.7Z"/><path class="cls-8" d="M412.92,391.3h-.33c.17-.25.33-.5.48-.76,2.34-4.17,2.08-9.6,1.09-14.11-.77-3.5-1.43,4-1.27,5-.39-2.36-2.11,1.78-3.22,2.73a18.59,18.59,0,0,1-6.51,3.31,81.71,81.71,0,0,1-12.09,2.75,161.66,161.66,0,0,1-28.74,2c-9.36-.11-18.7-.79-28-1.36-4.49-.27-9-.45-13.48-1.05-2.81-.38-6.91-.8-10-2.17,3.38-3.81,8-6.11,12.34-9.06.74-.49.6-5.93-.32-5.9-5.54.21-12.15,5.56-14.84,10.23-1.58,2.75-2.17,8.09-.13,10.71,1.48,1.9,5.82,2.85,8,3.49a64.77,64.77,0,0,0,8.83,1.87q-5.67-.29-11.32-.82c-4.65-.45-10.28-2.21-14.79-.86-3.3,1-2.79,17.9-.1,19.51,4.13,2.47,8.84,2.58,13.57,3.07l1,.09c1.05,6.1,2.15,12.2,3.22,18.29,1.86,10.62,3.45,21.37,6.61,31.7,1,3.27,1.42-1.67,1.49-4.31a5.68,5.68,0,0,0,0-.59c-.46-11.85-2.48-23.76-3.94-35.53-.37-3-.77-6-1.15-9q3.82.28,7.65.44a245.9,245.9,0,0,0,29.86-.55A185.39,185.39,0,0,0,386.29,416c4.92-1.21,9.74-3.52,14.49-5.38,4.4-1.72,9.05-3.08,12.87-5.92C415.27,403.51,415.24,391.5,412.92,391.3Z"/></g><g id="outline"><path d="M313.76,424.38c-.15,2,.87,3.74,1,5.67.43,4.71,1.05,9.4,1.42,14.11.18,2.33,1.51,4.26,1.94,6.52-.58-2.06.08-4.13-.27-6.22a42.84,42.84,0,0,1-.3-6.52,115.54,115.54,0,0,0-.82-12.88c-.08-.61-.34-1.35.17-1.76,1.33-1.06,1-2.35.62-3.6-.78-2.78-.13-5.59-.34-8.39a28.76,28.76,0,0,0-.49-5.23c-.19-.7-.42-1.57.39-1.84,1.09-.38,1.11.8,1.46,1.41A4.86,4.86,0,0,1,319,408a56.8,56.8,0,0,1,0,7.38,14.41,14.41,0,0,0,.21,4.72c.34,1.46,1.32,2.88-.33,4.25-.33.28-.28,1.19-.2,1.77.72,5.51.24,11.05.41,16.57a43,43,0,0,1,.09,6.81,4.31,4.31,0,0,0,1.67,3.78c-.24.84-.7.7-1.12.6-1-.25-1.37.46-1.21,1.18.64,2.93,0,5.92.65,8.87.82,3.49.74,7.16,1.93,10.6.18.5,0,1.11-.72,1.09-.5,0-.67-.37-.72-.89a130.59,130.59,0,0,0-2.94-17.27c-.71-3.07-.76-6.22-1.24-9.31-1-6.49-2.15-13-3.23-19.44a5.43,5.43,0,0,0-1.22-2.83,10.39,10.39,0,0,0-.11,4.57c.44,2.33.47,4.74,1.44,7a1,1,0,0,1,.09.51c-.68,5.11,1.2,9.89,1.95,14.8.49,3.2,1.26,6.36,2,9.51a50.3,50.3,0,0,1,.65,6.81,1.66,1.66,0,0,1-1.4,1.95c-.91.06-1.2-.86-1.38-1.66-1.89-8-4.84-15.73-6-23.88-.53-3.63-.61-7.32-1.14-11-1.08-7.48-2.51-14.88-4.1-22.26C302,407.11,301.17,402,300,397a32.73,32.73,0,0,1-1.35-7.16,15.18,15.18,0,0,0-1.41-6.83c-.74-1.53,1.21-2.75,2.26-3.06,3.44-1,5.76-3.61,8.66-5.34,2.06-1.22,4.32-2.24,6.48-3.36a7,7,0,0,0,2.65-1.87c-.05-.57-.39-.66-.73-.75-2.66-.62-3.1-1.91-1.42-4a2.22,2.22,0,0,1,1.53-.92c3.61-.21,6.4-2.63,9.79-3.55a63.6,63.6,0,0,1,13.12-2.45c3-.17,5.89-.89,8.85-1.21,5-.56,10.14-1.18,15.1-.33,7.22,1.24,14.57,1.84,21.61,4,2.76.84,5.51,1.69,8.21,2.69a48.18,48.18,0,0,0,9.47,2.11,42.12,42.12,0,0,1,11.69,3.79,12.72,12.72,0,0,1,3.45,2.4,6.35,6.35,0,0,0,2,1.62c2.05.81,2.67,2.51,2.55,4.46-.08,1.4-.09,2.52,1.35,3.3,1.26.69,1.25,2,1.06,3.24-1,6.84-2.47,13.66-2.91,20.53-.47,7.17-2.56,13.93-4,20.87a14.41,14.41,0,0,1-.78,2.23.73.73,0,0,1-.87.42.79.79,0,0,1-.68-.7,2.6,2.6,0,0,1-.06-.78c.46-3.38.23-6.79.81-10.2a41.5,41.5,0,0,0,1-9.9,14.08,14.08,0,0,1,.25-2.88c1-6.59,1.92-13.18,2.87-19.77a2.36,2.36,0,0,0-.18-2c-.89.64-.88,1.6-1,2.48a7.54,7.54,0,0,1-1.81,4.29,2.4,2.4,0,0,0-.6,2.91c1.88,3.26.73,6.47-.35,9.51a143.94,143.94,0,0,0-3.8,14.47,4.93,4.93,0,0,1-.53,1.48,1.86,1.86,0,0,1-2.25.92c-1.13-.4-.59-1.24-.39-2,1.61-5.75,2.21-11.68,3.14-17.44a.66.66,0,0,0-1-.26c-1.94,1.38-4.41,1.58-6.39,2.88-.29.19-.6.49-.91.49-2.63.07-4.83,1.56-7.27,2.18a58.47,58.47,0,0,1-15.5,2.07,53.43,53.43,0,0,0-11.14,1.26,29,29,0,0,1-7,.35c-3-.14-5.93-1.2-9-.39-2.87.76-5.74-.19-8.6-.48-4.32-.46-8.65-.82-13-1.54A43.18,43.18,0,0,1,327,403.2c-.42-.13-.85-.3-.91-.83s.38-.94.83-1.22a3,3,0,0,1,2.54,0c6.14,1.85,12.46,2.45,18.82,3.09,5,.51,10.08-.5,15,.38,4.49.79,8.65-.45,12.91-1.26a8.08,8.08,0,0,1,2.35-.16,38.18,38.18,0,0,0,9.68-.47,59.38,59.38,0,0,0,13.57-3.59c3.12-1.32,6.12-3,9.45-3.81a4,4,0,0,0,2-1.46,13.9,13.9,0,0,0-5.52.87c-3.61,1.53-7.42,1.95-11.25,2.34a16,16,0,0,0-2.07.37,42.71,42.71,0,0,1-13.83,1.23c-2.59-.17-5,.59-7.56.87-3.05.34-6,1-9.14.17-2.83-.72-5.76-.07-8.64,0a32.83,32.83,0,0,1-7.34-.45,17.26,17.26,0,0,0-6.29-.22,13.83,13.83,0,0,1-7.9-1.53c-1.13-.53-2-1.49-1.57-2.67a2.34,2.34,0,0,1,2.82-1.38c5.76,1.46,11.73.41,17.52,1.51a6.29,6.29,0,0,0,1.84.08,66.46,66.46,0,0,1,12.84.35,33.39,33.39,0,0,0,8.86-.85,26.92,26.92,0,0,1,8.06-.62c3.11.37,6.1-.49,9.05-1.35a11.6,11.6,0,0,1,2.55-.63c3.74-.22,7.41-.56,10.89-2.28a22.18,22.18,0,0,1,3.49-.89c.17,0,.35,0,.52-.08a3.16,3.16,0,0,0,2.65-2.58c.09-1.31-1.23-2.45-2.49-2.7a9.88,9.88,0,0,1-4.55-2.44,9.75,9.75,0,0,0-5-2.67,2.28,2.28,0,0,1-1.19-.53c-2.55-2.44-5.76-3.3-9.08-3.67-2.6-.29-5.2-.59-7.83-.74s-5.1-1.16-7.66-1.73c-5.07-1.14-10.15-1.94-15.29-.34a2.53,2.53,0,0,1-1,.24c-8.89-1.12-11.2-1.62-18.78.14a5.66,5.66,0,0,1-3.34.19c-.76-.28-1.46.24-2.16.69a12,12,0,0,1-5.4,1.67c-4.77.53-9.53,1.42-13.81,3.84a13.22,13.22,0,0,1-2.2.8c-1,.37-2.13.75-2.33,2a.94.94,0,0,0,1.33,0c1.9-1.53,4.48-1.43,6.45-2.76.51-.34,1.21-.58,1.61.14s-.28.91-.65,1.25a4.16,4.16,0,0,1-2.53,1.29c-1.92.13-3.46,1.15-5.24,2.27a3.45,3.45,0,0,0,2.8.23c1.12-.19,2.23-.46,3.35-.7.51-.12,1.08-.36,1.29.36a1,1,0,0,1-.81,1.41c-1,.26-2.07.43-3.1.63a20,20,0,0,0-4.56,1.29,1,1,0,0,0-.64.76c-.05.59.41.76.83.82a13.83,13.83,0,0,0,3.1.49c1.84-.15,3.69-.07,5.53-.11A2.22,2.22,0,0,1,322,389c1.32,2.1,3.55,2.35,5.63,2.94.24.08.53,0,.77.12.94.28,2.14.63,2.06,1.7s-1.16,1.52-2.37,1.55A49.26,49.26,0,0,1,311.45,393c-2.36-.79-4.77-1.56-7.1-2.52-1,3.09-.13,4.87,2.73,5.42a24.4,24.4,0,0,1,3.51,1c3.53,1.24,7.07,2.5,10.92,2.12a2.06,2.06,0,0,1,1.49.38,1.32,1.32,0,0,1,.48,1.64c-.31.82-1,.87-1.75.84a29.37,29.37,0,0,1-9.57-1.58c-1.38-.53-2.81-.92-4.18-1.54-2.26-1-2.88-.46-2.48,2a25.63,25.63,0,0,0,.86,4.39c.75,2.14.33,4.55,1.51,6.63,1-.31.67-1,.59-1.54-.38-2.51-.82-5-1.26-7.53-.09-.54-.18-1.11.49-1.28.52-.12.75.4.92.78,1,2.28,1.16,4.76,1.42,7.19s.31,5.08.47,7.62a3.5,3.5,0,0,0,.24,1.54c.61,1,.9,1.7-.36,2.59-1,.69-.6,1.86.65,2a7,7,0,0,1,2.81,1.3Zm78.41-53.24c-1.32-1.14-2.29-1.85-3.58-1.93-5.44-.35-10.6-2.24-16-3-3-.4-6-1.38-9.1-.68a31.44,31.44,0,0,1-8.1.49,6.23,6.23,0,0,0-2.58.17,15.56,15.56,0,0,1-4.38.82c-4.2.32-4.43.42-6.09,1.5a39.43,39.43,0,0,1,11-.07,23,23,0,0,0,8.11-.07c6-1.3,11.76-.07,17.39,1.27C383.19,370.7,387.4,370.82,392.17,371.14Zm-30.94-9.88a14.41,14.41,0,0,0-4.85-1c-5.7.13-11.24,1.68-17,1.76a25.39,25.39,0,0,0-6.48.95c-3.43,1-6.83,2.09-10.2,3.24-1,.34-2.18.64-2.7,2a3.4,3.4,0,0,0,3.14-.15,10.5,10.5,0,0,1,5.1-1,3.43,3.43,0,0,0,1.54-.25c3.07-1.52,6.53-1.88,9.65-3.19a9.41,9.41,0,0,1,3.33-.6c3-.16,5.95-.05,8.82-1a9.82,9.82,0,0,1,3.91-.41A32.06,32.06,0,0,0,361.23,361.26Zm53.43,21.14a4.63,4.63,0,0,0,.42-2.5,1.8,1.8,0,0,0-1.71-2.18c-3.21-.59-5.86-2.57-8.88-3.68a12,12,0,0,0-5.16-.66C404.83,375.71,409.1,380,414.66,382.4Zm-106.08-.54a7.34,7.34,0,0,0-3,2.17.85.85,0,0,0,.32,1.32,6.2,6.2,0,0,0,1.89.83c1,.14,1.24-1.07,2-1.42.59-.25,1.6-.66,1.11-1.39A2.68,2.68,0,0,0,308.58,381.86Zm21.33-10.59c1.86,1,2.95.6,4.25-1.44A12.5,12.5,0,0,0,329.91,371.27Z"/><path d="M178.17,489.19c.47.64.84.76,1.17.69,5.16-1.23,10.59-1.18,15.58-3.25a13.93,13.93,0,0,0,4-2c1.53-1.35,3.37-1.41,5.18-1.44,2.59,0,3.81,1.19,3.5,3.77-.42,3.5-.3,7-.54,10.52a16.46,16.46,0,0,1-1.51,6.3,10.79,10.79,0,0,1-1.22,2,8,8,0,0,0-1.86,2.82c-.32,1.43-.54,2.59-2.28,2.66-1.22,2.14-3.57,2.08-5.5,2.66a20.27,20.27,0,0,0-5.43,2.49,27.49,27.49,0,0,1-11.91,4.36c-5.29.63-10.53,1.72-15.86,2.15a22.38,22.38,0,0,1-6.27-.26c-3.47-.71-7-.16-10.51,0-4.51.14-8.94-.47-13.4-.74a148.14,148.14,0,0,1-18.26-2.4,15.74,15.74,0,0,1-2-.55c-2.91-1-5.73-2.13-8.83-2.5-3.55-.42-6.59-2.23-9.4-4.31-3.7-2.75-7.07-5.92-11.3-8a8.73,8.73,0,0,1-3.89-3.45A2.84,2.84,0,0,0,75.08,499c-1,0-1.51-.69-1.66-1.7a26.26,26.26,0,0,1-.32-7.61c.31-2.08.75-4.14,1-6.23.35-2.59,1.42-3,3.87-2a9.76,9.76,0,0,1,2.36,1.66,5,5,0,0,0,3.49,1.6,2.29,2.29,0,0,1,2.06,1,7.1,7.1,0,0,0,3.66,2.42,26.69,26.69,0,0,1,3.91,2.09c3,1.64,6,3.33,9.49,3.46,1.37,0,2.42.87,3.72,1.1a25.63,25.63,0,0,0,6.78.31c2.57-.24,5.37-.68,7.27,2,.68,1,2.13.42,2.82,1,1.13.93,1.68.11,2.53-.22a11.37,11.37,0,0,0,3.67-1.94c.63,2.6,2.44,2.47,4.44,2.49,4.22,0,8.39-.5,12.59-.77a5.64,5.64,0,0,0,1.23-.43c1.81-.6,3.54-1.48,5.58-1.13a5.27,5.27,0,0,0,2-.43,23.78,23.78,0,0,1,6-.79A21.73,21.73,0,0,0,172.65,492a16.78,16.78,0,0,0,1.69-1.38,8.71,8.71,0,0,0-3.38-.32,14.71,14.71,0,0,1-4.43-.59c-.94-.29-2-.65-1.86-1.86s1.19-1.64,2.3-1.75c1.31-.12,2.63-.13,3.93-.3a32.45,32.45,0,0,0,9.07-2.41,30.44,30.44,0,0,1,3.75-1.23,71.77,71.77,0,0,0,15.65-6c3.52-2,7.19-3.56,10.74-5.43a6.88,6.88,0,0,0,3.31-3.23,29.36,29.36,0,0,0,2.7-8.28c.72-5.05.67-10.16,1.66-15.17a10.75,10.75,0,0,0-.08-4.19,3.34,3.34,0,0,1-.08-1.8,1.67,1.67,0,0,1,1-1.12c.62-.2,1,.3,1.27.71s.66.73.67,1.11c0,2.53,1.2,4.9,1,7.49a69.32,69.32,0,0,0-.29,8.41A33.57,33.57,0,0,1,218,469.47a37.57,37.57,0,0,1-2.28,3.78A4.2,4.2,0,0,1,213.2,475c-3.44,1-6.8,2.21-9.67,4.56-1.11.9-2.71,1.19-4.06,1.77-4,1.7-8.26,2.87-12.26,4.63C184.32,487.21,181.24,487.92,178.17,489.19Zm-33.82,24a8.55,8.55,0,0,0-2,3.16c-.18.37-.49.79-1,.7a1,1,0,0,1-.85-1.17c.1-1.92.17-3.85.43-5.76.12-.9,1-1.46,1.72-.66a2.29,2.29,0,0,0,2.9.74c.87-.34,1,.72,1,1.44,0,1.48-.1,3-.09,4.46,0,.89.11,1.81,1.2,2.09a2.1,2.1,0,0,0,2-.17c.83-.78.23-1.57-.06-2.4a9.5,9.5,0,0,1-.66-4.65c.1-.61.51-1.21,1.26-1s.62.81.45,1.31c-.6,1.79.08,3.45.46,5.15a2.58,2.58,0,0,0,2.08,2.11,14.35,14.35,0,0,0,6.77.06c1.83-.44,2.21-1.46,1.23-3.09a5.85,5.85,0,0,0-1-1.2c-.95-.94-.95-1.93.07-2.7a2.13,2.13,0,0,0,.74-2.31c-.16-1.31-.11-2.63-.26-3.94a11.7,11.7,0,0,0-1.13-4.82c-.37-.64-.78-1.33-1.59-1.07-2.14.67-4.42,0-6.5.73-4.7,1.74-9.59,1.89-14.5,1.88-1.28,0-2.15.59-2.24,1.74-.17,2.35-.11,4.72-.12,7.08,0,.57.24,1,.91,1.06s.88-.48,1-1a16.09,16.09,0,0,0,.68-4.67,11.18,11.18,0,0,1,.1-2.09.84.84,0,0,1,.91-.77c.38.05.54.41.57.77.15,1.66.44,3.33-.19,4.95a10.81,10.81,0,0,0-.83,3.84c-.07,5.95.77,6.1,5.43,5.26.25,0,.52,0,.78-.07a.77.77,0,0,0,.75-.89C144.57,516,145.31,514.67,144.35,513.2Zm53.9-10.72c1.05-.79,1-2.77,2.76-2.82,2.05-.05,2.37-1.5,2.41-3a31.64,31.64,0,0,0-.15-5.51c-.35-2.45-1.49-3-3.67-1.84a37.59,37.59,0,0,1-5.87,2.3c-2.23.76-2.51,1-2.52,3.34,0,3.76.23,7.53-.38,11.27a2.43,2.43,0,0,0,.06,1c.32,1.19.54,2.49,2.2,2.49,2,0,3.08-.88,3.13-2.73a20.28,20.28,0,0,0-.42-6.54c-.17-.56-.37-1.14.32-1.56C197.41,499.81,196.65,501.77,198.25,502.48ZM118,516.21c2.79,0,2.94-.09,2.49-2.82a16.22,16.22,0,0,1,.24-4.72c.34-2.61.78-5.21,1.11-7.82.08-.66.19-1.61-.56-1.88s-1.32.62-1.8,1.2a1.44,1.44,0,0,0-.3.72c-.27,2.44-1.39,4.73-1.38,7.21,0,1.28-.3,2.61.68,3.78a1.11,1.11,0,0,1-.5,1.76c-.83.37-1-.46-1.16-1a9.61,9.61,0,0,1-.38-2.59,32.27,32.27,0,0,1,.59-6.28,13.38,13.38,0,0,0,.27-2.88,1.19,1.19,0,0,0-1.05-1.3,1.25,1.25,0,0,0-1.59,1,3.31,3.31,0,0,0-.21,1c.12,2.84-1.13,5.77.58,8.5a1.24,1.24,0,0,1,.09.52c.12.87,0,1.71-1,1.77s-1-.77-1.07-1.51c-.06-2-.09-4-.17-6.06,0-1.31-.15-2.62-.25-3.93,0-.46-.2-.91-.7-1s-1,.29-1.13.84a7,7,0,0,0-.16.77c-.8,3.6-.51,7.3-1.11,10.91a1.53,1.53,0,0,0,1.08,1.65C113,514.93,115.32,516.3,118,516.21Zm66.57-14.59a15.64,15.64,0,0,1-.27-5.78c.1-.52.24-1.08,1-1a.93.93,0,0,1,.77.93c0,.35,0,.71,0,1.05.43,4.24-.46,8.47,0,12.7.12,1.06,0,2.21,1.4,2.48.78.14,2.34-1.36,2.52-2.37a4.11,4.11,0,0,0,0-1.31c-.6-3.66-.13-7.35-.43-11-.42-5.13-.27-5.07-5.29-3.55a2.48,2.48,0,0,0-2,2.34,28.07,28.07,0,0,0-.1,7.09c.17,1.58-.57,3.43.22,4.6a5.77,5.77,0,0,1,.75,4.19,4.36,4.36,0,0,0,.07,1.3.7.7,0,0,0,.8.52.57.57,0,0,0,.54-.49,11.56,11.56,0,0,0,.06-1.56Zm-60.1-2c-.77.52-.79,1.26-1,1.91a43.76,43.76,0,0,0-1,5.68c-.41,2.22-1,4.42.13,6.6.24.45,0,.81-.16,1.22-.78,1.76-.44,2.28,1.43,2.15a14,14,0,0,1,1.55-.21c1.13,0,1.55-.41,1.58-1.54.11-3.16.26-6.31.48-9.47C127.63,503.34,127,501.11,124.43,499.63Zm9.13,17.76a6.76,6.76,0,0,1-.62-4.16c.15-3.15.1-6.3-.05-9.44,0-1-.34-1.65-1.47-1.76a1.83,1.83,0,0,0-2.18,1.41,6,6,0,0,0-.21,1c-.19,2-.28,4-.58,6a18.82,18.82,0,0,0,.39,5.46,1.78,1.78,0,0,0,2.11,1.8C131.72,517.64,132.51,518,133.56,517.39Zm36-.88c-.1-2.08-.19-4-.29-5.89s-.11-4.05-.37-6.05c-.23-1.8.34-3.8-1-5.54a3.71,3.71,0,0,0-1,2.29,75.93,75.93,0,0,0-.9,10.21C165.85,514.1,166.39,515.82,169.56,516.51Zm5.54-9.22c-.09,1.39-.17,2.43-.24,3.48,0,.61.23,1.08.86,1.06s1.5.23,1.75-.72a8.87,8.87,0,0,0,.18-1.56c.28-4.4-.73-8.7-1.05-13.05,0-.45-.15-.93-.66-1s-1,.39-1.09.91a3.3,3.3,0,0,0-.07,1.29C175.26,501,174.66,504.32,175.1,507.29Zm-1.76,1.24h0c0-.43,0-.87,0-1.31.12-2.82-.54-5.57-.72-8.36,0-.5-.15-1.14-.8-1.21s-1,.61-1.2,1.17a5.68,5.68,0,0,0-.21,3.38,29.65,29.65,0,0,1,.66,8.34,2.58,2.58,0,0,0,.22,1.53,1.5,1.5,0,0,0,1.29.79c.75,0,.69-.67.7-1.17C173.36,510.64,173.34,509.59,173.34,508.53Zm-71.62-4a28.08,28.08,0,0,0,0-3.67c-.15-1.08.36-3-1.41-2.83-1.47.14-1.52,1.91-1.42,3.2.24,2.88-.58,5.89,1,8.62.19.32-.06.93.57,1s.74-.39.87-.82A20.08,20.08,0,0,0,101.72,504.54Zm-7-.5c.14-2.59-1.17-5.49-.53-8.51.15-.71-.34-1.14-.94-1.41s-1.13-.34-1.16.45a69.13,69.13,0,0,1-.62,10.16c-.19,1,1.45,2.27,2.58,2.09,1.45-.22.47-1.4.67-2.12A5.84,5.84,0,0,0,94.7,504Zm14-1.88c0,.35,0,.08,0-.17-.2-1.05.25-2.71-1.27-2.76s-1.19,1.61-1.27,2.63c-.13,1.74-.1,3.49-.15,5.23a2.37,2.37,0,0,0,.27,1.52,2.47,2.47,0,0,1,.31,3.12.57.57,0,0,0,.3.86.77.77,0,0,0,1.07-.44,2.15,2.15,0,0,0,.13-.77Zm54.95,6.42c.51-2.38,1.12-4.75.68-7.22-.24-1.31-1-2.19-1.88-1.88-1.16.41-.79,1.48-.66,2.25A22.38,22.38,0,0,0,163.64,508.58Zm-85-22.91c-2.74,2.42-2.44,8.65.3,10.43C79,492.63,78.1,489.33,78.62,485.67Zm19,23.24c-.15-4,.37-8.09-.61-12.35C95.92,499.15,96.22,506.9,97.58,508.91Zm6.59-4.32a10.57,10.57,0,0,0-.78,6.53c0,.26,0,.58.31.63a.63.63,0,0,0,.68-.65A24.53,24.53,0,0,0,104.17,504.59Zm76-5.89c-.71,1.9-.44,6.55.39,8C180.4,503.73,180.27,501.22,180.15,498.7ZM90,501.42c.09-1.34.43-2.7-.37-4.43C89,498.85,89,500.18,90,501.42Zm45.42,16.38c.76,0,1.06-.49,1.09-1.19,0-.36-.06-.81-.46-.79-.81,0-1.16.7-1.31,1.38C134.64,517.58,135.05,517.75,135.41,517.8ZM82.4,497a3.54,3.54,0,0,0-.2-3C81.8,495.34,81.67,496.21,82.4,497Zm94.75,16.83a.94.94,0,0,0-.32.94c0,.28.21.55.51.42s.34-.58.3-.93S177.51,513.78,177.15,513.86Zm-3.25,2.37c0-.35,0-.72-.45-.81s-.61.19-.65.57,0,.7.44.79S173.87,516.64,173.9,516.23Z"/><path d="M277.88,38.71l-7.67,3.37c-.16.07-.41.17-.42.28-.31,2.85-2.24,1.4-3.76,1.7-3.87.78-7.89.27-11.67,1.54-2,.66-2.81,1.9-2.38,3.9.17.8.38,1.45-.6,1.61s-1.24-.61-1.34-1.49c-.26-2.34-.63-2.69-2.94-2.16-2.82.64-5.59,1.52-8.38,2.28-.85.24-1.3.59-1.18,1.67.14,1.31-.81,2.69.37,4,.41.44.13,1.06-.48,1.22s-1-.33-1.07-.88a20,20,0,0,1-.7-3.86c0-1.13-.47-1.39-1.4-1.33-.61,0-1.21.17-1.83.22a2.12,2.12,0,0,1-2.55-2c-.22-1.49.79-1.75,1.92-1.91A71,71,0,0,0,243.27,44c2.42-.76,4.94-1.2,7.42-1.74A22,22,0,0,0,255,41a5.23,5.23,0,0,1,2.27-.6c5.77.34,10.66-2.46,15.8-4.34,2.86-1,4.46-3.56,6.18-5.88a.91.91,0,0,0,.06-1.21c-.43-.39-.91-.93-1.61-.67a3.17,3.17,0,0,0-1.11.68c-3.64,3.8-8.34,5.78-13.16,7.42a177.37,177.37,0,0,1-19.93,5.8,54.16,54.16,0,0,1-16.76,1,51.24,51.24,0,0,0-13.37.7,7.16,7.16,0,0,1-1.3.13c-6.49-.16-12.92.78-19.38,1.12-2.65.14-5.25-.33-7.89-.23-4.4.16-8.67,1.29-13,1.61a25,25,0,0,1-5.26,0c-1.38-.19-1.86-.92-1.91-2.56,0-1.42.8-1.85,2-1.93a20.59,20.59,0,0,1,3.68,0,29,29,0,0,0,9.66-.87,33.54,33.54,0,0,1,8.37-.53,67.66,67.66,0,0,0,13.64-.55c3-.5,6-.23,8.94-.31a41.39,41.39,0,0,0,5.5-.4c5.25-.86,10.52-.21,15.77-.48a107,107,0,0,0,15-2.27c3.33-.66,6.33-2.57,9.71-3.27.83-.17,1.07-.68.94-1.55a8.39,8.39,0,0,1,0-2.87c.27-1.31.42-2.31-1.41-2.23a.69.69,0,0,1-.72-.64c-.05-.53.34-.73.77-.9,2-.77,2.05-.84.81-2.4-2.06-2.57-3.61-5.54-6.3-8,1.22.21,2.2.31,2.8,1.14,1.75,2.39,3.43,4.84,5.15,7.26a2.94,2.94,0,0,1,.47,2.27c-.36,2,.47,4.05-.39,6.12-.53,1.25.81,1.07,1.5.88a31.32,31.32,0,0,0,8.39-3.7c2.11-1.33,4.51-2.19,6.19-4.21a1.47,1.47,0,0,1,2.15,0c1.25,1.1,1.84.35,2.33-.78,1-2.19.76-2.71-1.17-4.14a10.94,10.94,0,0,0-5.78-2,60.28,60.28,0,0,1-14.12-2.84C254.2,13.32,249.74,12.3,246,10s-8.19-2.26-12.38-2.68c-3.66-.37-7.37-.15-11.06-.23a25.14,25.14,0,0,1-3.68-.31c-1.49-.26-1.82-1-1.76-2.66.05-1.45.61-2.1,2.07-2a23.87,23.87,0,0,1,4.45.37,11.79,11.79,0,0,0,4.7.32c3.35-.45,6.66.11,10,.44,1.66.17,3.32.34,5,.48a3.94,3.94,0,0,1,2,.46c3.36,2.33,7.34,3.23,11.06,4.72a50.72,50.72,0,0,0,15.25,3.6c4.2.27,7.43,2.32,10.83,4.23.9.5.87,1.93,1.58,2.33,3.26,1.84,2.14,4.23,1.17,6.74a19.66,19.66,0,0,0-.49,2.83c-1.28,5.7-2.26,11.47-3.37,17.19-1.25,6.43-2.8,12.8-3.15,19.43a51.92,51.92,0,0,1-3.29,16.4,10.52,10.52,0,0,0-.34,2.07c-.53,2.93-.26,6-1.17,8.86a3.68,3.68,0,0,0,0,2.08,8.71,8.71,0,0,1,.1,4.18,11,11,0,0,0,.32,4.94,23,23,0,0,1,.47,5,1.39,1.39,0,0,1-1.09,1.59,1.58,1.58,0,0,1-2-.84c-1.6-3.33-3-6.7-2.62-10.52a7.77,7.77,0,0,0,0-2.1c-.61-3.58.2-7,.57-10.56.43-4.12,2-8,2.06-12.15a2.17,2.17,0,0,1,.15-1C273.3,69.8,273,66,273.65,62.4a134.11,134.11,0,0,1,3.21-16A36.91,36.91,0,0,0,277.88,38.71Z"/><path d="M23.71,171.49l-3.14-6.28c-.79,1.14-.27,2-.11,2.89s1.08,1.68,0,2.76c-1.91-3.16-2.31-6.8-4.12-9.91a35.56,35.56,0,0,0,.5,13.28c-1.7-2.76-2-5.88-2.37-9.15a1.59,1.59,0,0,0-1.11,2.14c.62,2-.17,4.26,1.3,6.07a.91.91,0,0,1-.29,1.37.76.76,0,0,1-1.16-.13c-.27-.37-.55-.79-1-.59-2.18.87-2.38-.68-2.53-2.12-.31-3.08-2.25-5.76-2.31-8.85C7.25,158.24,6,153.62,6,148.9a3.08,3.08,0,0,0,0-.53c-1-5.45.78-10.76.85-16.16,0-1.86,1.05-3.52,1.56-5.28,1-3.54,2-7.08,2.78-10.68a34.88,34.88,0,0,1,2-6.52,15.23,15.23,0,0,0,.8-3.28c.7-3.59,1.47-7.21.08-10.83a2,2,0,0,1,.53-2.4c1.05-.87,1.92-.15,2.9.25a1.5,1.5,0,0,1,1,2.08c-.31.84.06,1.44.25,2.18.6,2.27.57,4.5-1.1,6.41-.18.2-.46.48-.27.64,1,.92-.08,1.68-.08,2.46,0,3.2-1.6,5.84-2.44,8.74-.42,1.49-.26,3.22-.67,4.84-.93,3.65-2.5,7.1-3.21,10.81a13.46,13.46,0,0,0-.45,2.31c0,4.14-1.14,8.16-1,12.32a53.25,53.25,0,0,0,.84,6c.22,1.54,1.05,1.61,2.1.4s1.8-1.21,3.2-.28c3.39,2.26,6.61,4.83,10.64,6a7.73,7.73,0,0,1,2.1,1c3.86,2.56,8.5,3.19,12.62,5a41.09,41.09,0,0,0,13.37,3.6,112.23,112.23,0,0,1,15.49,2.86,77.15,77.15,0,0,0,12.91,2.06,15.58,15.58,0,0,1,4.61.95,48.14,48.14,0,0,0,12.8,2.32c2.45.21,4.82.88,7.26,1.19A172.26,172.26,0,0,0,126,179a1.84,1.84,0,0,0,.52,0c4.28-1.16,8.27.15,12.29,1.37a6.38,6.38,0,0,0,2.61.17,21.61,21.61,0,0,1,9.06,1.07c2.72.79,5.4-.17,8.08-.4,4.09-.37,8.13-1.12,12.19-1.73.75-.12,1.42-.14,1.82.62a1.93,1.93,0,0,1-.24,2,2.9,2.9,0,0,1-2,1.17c-4.1.91-8.18,2-12.32,2.59a29.23,29.23,0,0,1-12.54-.73c-.59-.18-1.23-.56-1.76-.45-3.72.81-7.13-.54-10.59-1.42a15.68,15.68,0,0,0-5.22-.49c-6.86.59-13.59-.52-20.36-1.32-2.44-.28-4.84-.64-7.24-1.12-2.19-.44-2.81.13-3.17,2.36a17.45,17.45,0,0,0,.66,7.29c.11.41.47.75.38,1.23s-.21.71-.59.79a.69.69,0,0,1-.92-.66c-.24-3.21-1.85-6.23-1.16-9.6.34-1.69-.35-2.14-2.08-2C91.88,179.87,91.8,181,92,182c.54,3.1.7,6.27,1.67,9.3.15.48.61,1.05-.24,1.22-.55.11-.63-.44-.69-.89-.51-4-2.31-7.73-2.5-11.79-.06-1.14-1-1.06-1.71-1.25a1.3,1.3,0,0,0-1.7.81,5,5,0,0,0-.22,2.59c.24,2.94.45,5.88.47,8.86-.84-.78-.56-1.85-.7-2.77-.49-3.18-1.45-6.31-1.24-9.59a1.14,1.14,0,0,0-1.2-1.37c-.82-.07-1.37.22-1.48,1.1a4.25,4.25,0,0,0-.16,2.07c1,2.83.68,5.9,1.55,8.77,0,.09-.18.26-.27.39a26,26,0,0,1-2.3-6.89c0-1.33-.49-2.57-.45-3.91a2,2,0,0,0-2-1.93c-1.17.23-1.12,1.22-1.07,2.1.08,1.31.27,2.62.38,3.93a6.46,6.46,0,0,1-.54,3.55c-.4-2.22-.73-4-1-5.84-.18-1-.34-2.08-.51-3.12s-.93-1.39-1.92-1.3a1.41,1.41,0,0,0-1.41,1.58c.08,2.63-.23,5.27.3,7.89a9.42,9.42,0,0,1-.3,5.38c0-3.93-1.1-7.72-1.36-11.6-.06-.79-.1-1.58-.22-2.36a2.21,2.21,0,0,0-2.46-2.12c-3.66-.12-3.66-.21-2.85,3.34.28,1.2.6,2.38.93,3.57a2.11,2.11,0,0,0,.74,1.17v-4.68c1,.28.91,1,.88,1.52a49.53,49.53,0,0,0,.93,10.46,8.17,8.17,0,0,1,.18,1.29.68.68,0,0,1-.65.69.45.45,0,0,1-.49-.49c.25-3.29-1.9-5.85-2.64-8.84a26.75,26.75,0,0,0-2.16-6.19c-.12-.24-.15-.51-.27-.75-.62-1.21-1.53-2.61-2.89-2.23s-.67,2-.5,3.06c.34,2.06.93,4.09,1.47,6.12a5.83,5.83,0,0,1,.2,3.31c-1-2.5-2.24-4.85-2.78-7.5a47.83,47.83,0,0,0-1.37-4.81,1.65,1.65,0,0,0-2-1.29c-1,.25-.9,1.15-.75,1.95.75,4.15,1.13,8.35,2.1,12.46.1.42.33.83-.12,1.21-1-.09-.86-1-1-1.58-.94-4.1-1.84-8.21-2.75-12.32a3.68,3.68,0,0,0-.59-1.72,2.47,2.47,0,0,0-2.63-.81c-1.09.34-.43,1.29-.31,2a58.51,58.51,0,0,0,1.57,6.91,15.9,15.9,0,0,0,1.6,3,1,1,0,0,1-.58,1.49c-.6.16-.94-.31-1.09-.87-.91-3.28-2.69-6.28-3-9.76a12.88,12.88,0,0,0-1.31-3.43A2,2,0,0,0,44,170.06c-1.11.19-.95,1.18-.77,1.91,1.06,4.4,1.6,9,3.8,13,.2.38.58.81,0,1.13a.9.9,0,0,1-1.4-.68c-.38-2-1.54-3.73-2.07-5.68a36.66,36.66,0,0,1-1.51-6.39c-.14-1.47-1.39-2.61-1.29-4.22,0-.58-3-2-3.56-1.74-.82.38-.74,1.14-.62,1.83a39.21,39.21,0,0,0,1.27,6.42c1,2.68.63,5.85,2.94,8a.66.66,0,0,1,.05,1c-.43.47-.85.13-1.1-.19a12,12,0,0,1-2.35-5.22c-.7-3.79-2.23-7.38-2.64-11.24-.1-1-3-2.81-3.92-2.72-.71.08-.8.63-.7,1.17.93,4.69,1.62,9.48,5,13.26a.76.76,0,0,1,.19.85c-.85.38-1.41-.19-1.85-.83-2.27-3.29-5.12-6.14-6.74-9.94A14,14,0,0,1,25.19,164a3.76,3.76,0,0,0-3.35-3.29,1.31,1.31,0,0,0-1.06,2.11c1.23,2.06,1.38,4.54,2.8,6.5A1.68,1.68,0,0,1,23.71,171.49Zm6,.68c-.45-2.69-.63-5.47-2.81-7.93C26.16,167.73,28.08,169.9,29.73,172.17Z"/><path d="M188.58,190.3c-.44-2.12-.92-4.24-1.32-6.37-.22-1.21-.7-1.64-2-1.22a6.46,6.46,0,0,1-3.61.47c-1.17-.28-2.33-.75-2.26-2.15a2.16,2.16,0,0,1,2.21-2.2c2.63,0,4.93-1.22,7.41-1.74,1-.21,2-.71,3.06-.18a1.36,1.36,0,0,0,1,0c4.72-2.11,9.9-2.18,14.84-3.31a41.94,41.94,0,0,0,8.09-2.21,5.66,5.66,0,0,1,2.56-.47,5.31,5.31,0,0,0,2.33-.37,28.15,28.15,0,0,1,7.32-2c3.63-.52,6.78-2.35,10.07-3.76a53.32,53.32,0,0,1,5.63-2.14c5.72-1.73,11-4.55,16.32-7.12.54-.26,1.12-.53,1.08-1.32a.54.54,0,0,1,.67-.59c.71.06,1.49.27,1.73-.69s.95-2.17.06-3.26c-.77-.93-.56-1.63.49-2.05s.9-1.37,1-2.22-.11-1.4-1.15-1.17c-.77.17-1.71.48-1.83-.73-.14-1.45,1.07-1.09,1.86-1.16a7.31,7.31,0,0,1,4.81,1c.31.21.55.47.42.87a.59.59,0,0,1-.85.37c-2-.93-2.16.37-2.34,1.81-.26,2-.12,2.23,1.75,2.81a4,4,0,0,0,4.37-.87c.25-.24.52-.57.82-.64,2.6-.61,2.82-2.75,2.72-4.72-.24-4.72.6-9.48-.43-14.13-.86-3.9-1-8-2.88-11.65a2.09,2.09,0,0,1,.48-2.84c1-.83,1.89-.52,2.86.16a4.09,4.09,0,0,1,2,3.26,13,13,0,0,0,1,4c1.36,3.84,1.53,7.86,1.8,11.88a133.42,133.42,0,0,1-.26,19.18,35.69,35.69,0,0,1-2.06,10.45,40.26,40.26,0,0,0-2.43,9.36c-.48,3.8-2.1,7.15-3.48,10.64-1.25,3.14-3.25,5.85-4.42,9.05a31.53,31.53,0,0,1-3.94,6.79,12.29,12.29,0,0,0-1.63,3,50.5,50.5,0,0,1-3.24,7.06c-1.92,3.64-4.09,7.3-4.61,11.58a5.69,5.69,0,0,1-1.48,3.59,1.6,1.6,0,0,1-1.89.51c-.74-.36-.41-1.08-.37-1.65a8.47,8.47,0,0,0,.27-2.07,15.08,15.08,0,0,1,1.26-9.21c.41-1,.52-2,1.34-2.8a3.4,3.4,0,0,0,.75-1.37c2.37-7.23,6.64-13.45,10.45-19.92A54.73,54.73,0,0,0,271,173.15a39.64,39.64,0,0,0,1.34-7.7c.06-1.68,1-3.17,1.55-4.72a14.82,14.82,0,0,0,.85-6.21c-.1-1.71-.77-2-2.15-1.09-.79.54-1.51,1.2-2.27,1.8-2,1.54-2,1.53-1.55,3.76-.73.25-1.36-.17-2-.3-1.78-.35-2.37-.05-2.5,1.65-.19,2.71-.62,5.4-.69,8.13a24.34,24.34,0,0,1-1.12,7.22,5.75,5.75,0,0,1-.82,1.62,1.06,1.06,0,0,1-1.22.23,1,1,0,0,1-.64-1,.74.74,0,0,1,0-.26c1-2.78,1.1-5.76,1.88-8.54.67-2.35.54-4.68.86-7,.14-1-.53-1-1.17-.81-1,.24-1.27,1-1.52,1.94-1.36,4.89-2.78,9.77-4.19,14.65a5.28,5.28,0,0,1-.59.94c0-5.36,2.18-10,2.77-14.93-.85-.6-1.33.37-2,.31-1.59-.14-2.11.94-2.5,2.19-1.08,3.41-2.13,6.82-3.28,10.21a90.84,90.84,0,0,1-4.55,10.06,6,6,0,0,1-.7,1.1c-.22.27-.57.51-.87.15a.77.77,0,0,1-.06-.72c3-4.54,4.28-9.75,5.94-14.82.63-1.91,1.13-3.86,1.69-5.82-2.49,0-4.06.81-4.69,2.87a114.85,114.85,0,0,1-5.09,13.22,8.62,8.62,0,0,1-1.58,2.4c-.12.13-.5.11-.71,0s-.3-.41-.18-.66a5.74,5.74,0,0,1,.43-.66c2.49-3.69,3.75-7.86,4.82-12.11.22-.86.86-1.94-.46-2.45a2.67,2.67,0,0,0-3,1.59c-.45,1.24-.79,2.51-1.14,3.78-1.31,4.74-3.56,9.17-4.71,14-.16.67-.49,1.21-1.28.76-.55-.32-.43-.72-.17-1.31A89.94,89.94,0,0,0,238,173.91c.38-1.39,1.25-2.68,1.15-4.25a6,6,0,0,0-2.63.65,2.11,2.11,0,0,0-1.68,2.19c-.34,3.5-2.1,6.66-3.17,10a23.15,23.15,0,0,0-.75,2.22,2.19,2.19,0,0,1-2.11,1.86c-.58-.71,0-1,.28-1.4a6.4,6.4,0,0,0,1.48-3.59c0-2.3.69-4.51.83-6.78.05-.81.63-2-.6-2.21A2.1,2.1,0,0,0,228.2,174c-.57,1.75-1.28,3.47-1,5.38A9.17,9.17,0,0,1,227,183a.92.92,0,0,1-1.21.72c-.54-.19-.4-.68-.27-1.11.8-2.49.05-5.07.37-7.59.14-1.07-.54-1.38-1.51-1.08s-2.19.67-3.26,1.06c-1.36.49-1.69,1.65-1.82,2.94-.24,2.53-.52,5.06-.8,7.58,0,.42,0,1-.63,1s-.56-.57-.54-1c.11-2.28.29-4.56.37-6.84,0-.93.9-2.19-.71-2.64a3.09,3.09,0,0,0-3.39,2.15c-.42,2.06-.77,4.13-1,6.22a7.17,7.17,0,0,1-.79,2.75,1,1,0,0,1-1.39.27.76.76,0,0,1-.18-1.14,13.48,13.48,0,0,0,1.47-6.56c0-.84.64-2-1-2.16s-2.75.45-3.05,1.79c-.46,2.06-.9,4.12-1.17,6.21a14.17,14.17,0,0,1-1.23,3.45.71.71,0,0,1-1,.46c-.38-.22-.28-.65,0-.92,2-2.3,1-5.2,1.59-7.78.16-.68.31-1.72-.8-1.93s-2.19-.26-2.82.85a6.73,6.73,0,0,0-1.14,3.17c-.07,1.92-.43,3.83-.68,5.74-.07.47-.31.9-.82.85s-.52-.6-.41-1c.77-2.8.29-5.7.69-8.52-3.14-.65-4.2.11-4.41,3q-.22,3-.53,6a1.69,1.69,0,0,1-1.64,1.76c1.32-2.5.78-4.92.83-7.3s-.3-2.34-2.59-2.34c-2.49,0-3.42.15-2.73,3.84.33,1.77.93,3.49.51,5.3ZM266,152.39a2,2,0,0,0,1.58-1.13c.11-.57-.32-.78-.74-.84-.9-.15-1.19.47-1.31,1.21C265.43,152,265.52,152.31,266,152.39Z"/><path d="M225.15,452.68a6,6,0,0,1-1.34-3.55,90.15,90.15,0,0,1-.46-14.42,157,157,0,0,0,.76-17.35,31.41,31.41,0,0,1,.56-3.89c.67-6.71,1.69-13.39,2-20.12.24-5.19,1.11-10.28,1.67-15.42.7-6.42,2.4-12.7,2.77-19.12.31-5.51,1.13-10.95,1.67-16.42a126.16,126.16,0,0,1,1.78-14.55c.89-4.09.85-8.37,1.61-12.49,1.34-7.33,1.47-14.8,2.91-22.1q1.77-9,3.22-18.08a78.76,78.76,0,0,0,1-9.69,55.81,55.81,0,0,1,1.31-8.56c1.21-6.46,2.41-12.93,3.5-19.42a17.86,17.86,0,0,1,1-3.23c.47-1.29,1.61-1.46,2.76-.64,1.75,1.24,1.87,1.63,1.22,3.7-1,3.1-1.2,6.36-1.83,9.53-.57,2.81-1.19,5.64-1.59,8.49-.76,5.43-2.12,10.75-2.3,16.3a30,30,0,0,1-1.55,9.53c-1.1,3-.94,6.22-1.45,9.33s-1.1,6.17-1.64,9.25c-.63,3.61-.86,7.28-1.33,10.91a61.25,61.25,0,0,1-1.19,8c-.55,2.07-.46,4.33-.79,6.5-.44,3-.79,6.05-1.39,9.06s-.36,5.95-.82,8.9c-.54,3.38-.84,6.81-1.1,10.2-.72,9.53-2.58,18.91-3.76,28.38-.51,4.06-.94,8.15-1.45,12.22-.48,3.82-.73,7.67-1,11.51a45.81,45.81,0,0,1-.8,4.66,24.79,24.79,0,0,0-.25,6.82,24.72,24.72,0,0,1-.41,7.82,3.88,3.88,0,0,0-.19,1.29c.48,3.43-.42,6.77-.7,10.14-.31,3.77.11,7.53,0,11.29A6.07,6.07,0,0,1,225.15,452.68Z"/><path d="M365.53,519.81a5.34,5.34,0,0,1-1.8-3.93c-.05-.89.22-1.89,1.58-1.14a2.62,2.62,0,0,0,3.57-.44,1.2,1.2,0,0,1,.66-.31c1.14,1.59,2.49.21,3.72.25s2.21-.47,2.64,1.2c.22.88,1.07.67,1.75.3s1.07-1.42,2-1.67c.46,0,.57.38.8.63,1.1,1.15,1.69,1.23,2.35-.06s1.37-1.24,2.09-.25,1.27.51,2,.12c1.83-1,2.65-2.74,3.57-4.43.4-.75.56-1.68,1.58-1.87.73.66.25,1.36.22,2-.07,1.46.24,1.71,1.65,1.34a3.15,3.15,0,0,0,2.59-2.62c.85-4.29,1.85-8.54,3.05-12.76,1-3.6,1.5-7.38,2.42-11,.73-2.89,1.72-5.7,2.38-8.62,1.62-7.16,3.73-14.23,5.13-21.44.88-4.56,2.26-9,3.08-13.55.32-1.74.35-3.49.65-5.21A29.17,29.17,0,0,1,414,433c.27-.88.32-2.11,1.69-1.94s1.88,1.17,2,2.41A20.63,20.63,0,0,1,417,440c-1.31,5.7-2.46,11.45-3.86,17.12-1.64,6.59-3.11,13.23-4.7,19.83s-3.76,13.31-5.05,20.13-2.65,13.76-4.54,20.52a24.48,24.48,0,0,1-5.45,10.1,22.48,22.48,0,0,1-12.1,6.43c-5.34,1.14-10.66.09-16,.3-4.11.17-8.15-.8-12.3-.79a41.26,41.26,0,0,1-18.89-4.06c-1.08-.55-1.76-1.21-1.49-2.42s1.22-1.37,2.27-1.32,2.29,0,3.16,1a3.35,3.35,0,0,0,1.08.74c2,.9,2.85.38,3-1.78.05-.5,0-1,.51-1.45.77.54.53,1.39.63,2.12s-.09,1.78,1,1.79c1.29,0,1.11-1.14,1.16-2s0-1.92,0-2.89c0-.43.05-1,.61-1s.69.45.81.9a19.57,19.57,0,0,1,.6,3.89c.05.75.32,1.48,1.26,1.33s.65-.88.67-1.49c0-1,.09-2.11.16-3.16,0-.52,0-1.14.75-1.17.88,0,.92.68.92,1.29,0,.79-.09,1.58-.13,2.37a3,3,0,0,0,1.46,2.89c1.28.74,2.26.24,2.31-1.21,0-1.14-.13-2.29-.08-3.43,0-.58.21-1.35,1-1.26.63.06.68.74.71,1.25.06,1,.05,1.93.08,2.9,0,.6-.07,1.4.71,1.5s.76-.73.85-1.3c.05-.26.05-.52.08-.79,0-.5-.05-1.19.67-1.19s.87.56,1,1.07c.2.67.1,1.41.58,2a1.73,1.73,0,0,0,2.1.64c.8-.32.57-1,.43-1.56a4.12,4.12,0,0,1-.13-1c0-.57.28-1.06.91-1.09s.72.44.85.86c.23.75.37,1.54.66,2.27s.75,1.22,1.62.95,1-.8.75-1.63-.6-2.27.48-2.55c1.41-.35,1.3,1.3,1.77,2.15a4.18,4.18,0,0,1,.36,1,1.19,1.19,0,0,0,1.57,1c.73-.21.77-.81.69-1.49-.24-2-.44-3.82,1.11-5.65,1.18-1.4,0-2.9-1.94-3.07-.84-.07-1.67.13-2.44-.62C367.18,516.82,366.7,517,365.53,519.81Zm18.51,8.3c2.22-1.47,3.07-4,4.7-5.92.17-.2,0-.68,0-1,0-.79,0-1.57-.08-2.35-.13-2.1-.8-2.43-2.57-1.3a3.2,3.2,0,0,0-1.65,2.23,14.44,14.44,0,0,0-.34,5.18A7.62,7.62,0,0,1,384,528.11Zm-6-6.57a11.64,11.64,0,0,0,.08-1.45c-.07-.63.38-1.59-.58-1.77s-1,.77-1.18,1.42c-.38,1.7-.77,3.41-1,5.13a10.85,10.85,0,0,0,.17,4.17c.16.63.3,1.24,1.14,1.14s1.15-.59,1.06-1.46A38.43,38.43,0,0,1,378.06,521.54Zm12-2c0,.75-.28,1.48.51,1.74s1.07-.42,1.5-.82c1.59-1.52,2-3.64,2.69-5.58.3-.8-.23-1.14-1-1a4,4,0,0,0-3.51,3.74C390.18,518.26,390.14,519,390.09,519.49Zm-7.52,2.73c.05-.64.14-1.78.2-2.91a.9.9,0,0,0-.61-1,1,1,0,0,0-1.08.58,10.49,10.49,0,0,0-1.28,6.08,4.13,4.13,0,0,0,.8,1.63,1.23,1.23,0,0,0,1.37.59c.67-.15.61-.74.6-1.27C382.56,524.83,382.57,523.77,382.57,522.22Z"/><path d="M221,481.82c-.33-3.73.43-7.56.34-11.43-.05-2.48,1.28-4.7,1.43-7.19.08-1.39,1.62-1.93,3.12-1.51a2.14,2.14,0,0,1,1.79,2.74c-.33,1.71-.92,3.37-1.24,5.09-1,5.21-.76,10.48-.42,15.72.4,6.1-.74,11.65-4.42,16.64-1.45,2-2.55,4.18-3.89,6.23-.95,1.46-2,2.88-3.9,3.24a3.6,3.6,0,0,0-2.16,1.42,23.14,23.14,0,0,1-8.59,6.32,70.51,70.51,0,0,1-17.17,5.68c-3.27.58-6.44,1.73-9.65,2.62a61,61,0,0,1-11.35,2.1c-5,.4-10.09,1-15.15,1.36a13.47,13.47,0,0,1-2.1.09c-7.78-.68-15.58-1.19-23.32-2.2-3.53-.46-7.1-.92-10.63-1.55a68.89,68.89,0,0,0-7.81-.68,28.66,28.66,0,0,1-12.22-3.66c-5-2.74-10-5.41-15-8.14a5.24,5.24,0,0,1-1.36-1.22c-.7-.8-2-1.46-.83-2.82,1-1.11,3.38-1.61,4.29-.61,4.11,4.5,9.91,6.12,15,8.94a41.29,41.29,0,0,0,4.88,2.47c3.46,1.38,7.06,1.11,10.59,1.38,4.89.38,9.76.94,14.64,1.46,5.29.56,10.58,1.18,15.88,1.7,7.41.74,14.68-.34,22-.6,6.66-.24,12.69-2.93,19-4.65,3-.84,6.13-1.51,9.18-2.3,6.24-1.6,11.89-4.19,15.81-9.59,1.14-1.57,3-2.47,3.9-4.26a.68.68,0,0,1,.42-.29c4.73-.95,5.34-5.31,7.07-8.68C221.36,491.34,220.58,486.55,221,481.82Z"/><path d="M209.36,7.18c-4-.82-8.54-.46-12.88-1.77a6.19,6.19,0,0,0-2.87-.15,14.19,14.19,0,0,1-5.74-.34c-6.53-1.38-13.1-.81-19.66-.59-3.5.12-7,.53-10.49.69a26.16,26.16,0,0,0-4.41.62,52.6,52.6,0,0,1-15.69.56,56,56,0,0,0-5.79-.06,14.06,14.06,0,0,1-5.42-.71c-2.18-.82-4.51,0-6.74.45-3.87.75-7.75,1.45-11.67,2a5.6,5.6,0,0,1-1.56.14,24.07,24.07,0,0,0-9.42.4c-6,1.27-12,1-18,2a14.55,14.55,0,0,1-5-.23c-2.54-.49-4.89.11-7.28.61-8.23,1.71-16.34,3.92-24.6,5.49-1.89.35-3.67,1.23-5.54,1.66-3.25.74-6.53,1.33-9.8,1.94a2.48,2.48,0,0,1-2.86-1.7,2.2,2.2,0,0,1,1.81-2.93c2.93-.54,5.88-.92,8.84-1.26a8.49,8.49,0,0,0,2.32-.31c4-1.68,8.31-2.14,12.44-3.31,5.7-1.61,11.43-3.42,17.48-3.42a7,7,0,0,0,1.83-.21,16,16,0,0,1,8-.45c2.42.53,4.9,0,7.36,0A171.13,171.13,0,0,0,102.79,3.9c.17,0,.35-.13.51-.1,3.62.67,7.09-.23,10.64-.76,2.23-.34,4.49-.57,6.73-1,2.89-.56,5.8-1.39,8.73-.1a3,3,0,0,0,1,.1l20.76.11a4.74,4.74,0,0,0,1.31-.09c6.67-2,13.61-1.16,20.4-1.74a61.14,61.14,0,0,1,16.78.58c4.77.92,9.77.85,14.62,1.63,2.67.43,5.3,1.16,7.95,1.75A1.56,1.56,0,0,1,213.57,6c0,1.11-.92,1.13-1.71,1.18S210.46,7.18,209.36,7.18Z"/><path d="M227.1,48.55c-1.44,1.18-3.3,1-4.84,1.84-1,.53-1.76.67-1.26,2.23.41,1.33,0,2.93-.09,4.41a1.08,1.08,0,0,1-1,1c-.65,0-.8-.68-.83-1.14-.07-1.47,0-2.95,0-4.37a.72.72,0,0,0-.77-.17c-3.31.58-3.56.81-3,4.09.31,1.66-.23,2.48-1.95,3-.12-1.53.6-2.93-.19-4.36-.54-1-1-1.57-2.11-1.51a53.17,53.17,0,0,0-6,.3c-3.22.56-6.52-.13-9.72.38a117,117,0,0,1-15.06,1.24c-1.83.06-3.65.53-5.49.66s-3.87.34-5.7-.52a8.87,8.87,0,0,0-6.69-.28,8.24,8.24,0,0,1-5.65-.24,3.54,3.54,0,0,0-3.51.33,6.29,6.29,0,0,1-6,.73c-3.14-1.15-6.1-.52-9,.45a21,21,0,0,1-9.86.59,53.3,53.3,0,0,0-7.58-.47,22.72,22.72,0,0,1-6.46-.86,8.85,8.85,0,0,0-4.68,0,8.31,8.31,0,0,1-4.4-.06,18.84,18.84,0,0,0-8.81-.38,14.79,14.79,0,0,1-8.77-.93,12.79,12.79,0,0,0-5.41-.85,35.53,35.53,0,0,1-9.92-1c-2.27-.55-4.69-.29-6.88-1.44-1-.51-1.58.19-1.36,1.37a7.18,7.18,0,0,1,.29,2.6c-.07.36-.26.71-.65.74a.76.76,0,0,1-.77-.58c-.34-1.18-.67-2.35-1-3.54a1.83,1.83,0,0,0-2.46-1.5c-1.24.31-1.42,1.17-1.1,2.25s.69,2.17,1,3.27a.64.64,0,1,1-1.24.33c-.23-1.6-1.6-2.73-1.7-4.39a1,1,0,0,0-1.05-1c-.9.09-.74.83-.66,1.43.14,1,.34,1.9.48,2.85a1.77,1.77,0,0,1-.26,1.51A.9.9,0,0,1,54,57c-.4-.09-.65-.42-.51-.76.77-1.87-.08-3.63-.29-5.43a13.82,13.82,0,0,1-.08-1.58c0-2.12.35-2.35,2.42-2.57a27.73,27.73,0,0,1,12.82,1.42c2.33.87,5,.55,7.53,1s5.12.94,7.8.31c1.21-.29,2.57.43,3.76,1a13,13,0,0,0,8.7,1.2c3-.73,5.78-.27,8.59.23s5.58-.15,8.36-.06c.61,0,1.33-.34,1.81-.11,4.25,2.06,8.93.91,13.36,1.85,2.64.56,5.64.07,8.35-.51,4-.87,8-1.83,12.18-.8a5.37,5.37,0,0,0,4-.72,6.05,6.05,0,0,1,4.58-.57,12.22,12.22,0,0,0,6.24,0,9.12,9.12,0,0,1,5.41.31c2.62.94,5.41.47,8.1.27a48.7,48.7,0,0,1,5.77-.43c5.44.26,10.72-1.43,16.15-1.32a17.33,17.33,0,0,1,2.88.08,2.91,2.91,0,0,0,1.55,0c3.24-1.45,6.53-.94,9.84-.43a6.56,6.56,0,0,0,2.61-.08,14.62,14.62,0,0,1,5.5-.39C223.38,49.2,225.16,48.14,227.1,48.55Z"/><path d="M71.4,469.41c.53-2.84-.34-5.64.17-8.42.09-.51.07-1.05.17-1.57s.32-.86.85-.8a.7.7,0,0,1,.56.78,4.21,4.21,0,0,0,1.48,2.94A4,4,0,0,1,75.75,465c0,1.23-.14,2.66,1.92,2.13.18-.05.58.58.81.95.43.67.91,1.11,1.71.59,1.4-.93,1.66.11,1.87,1.1.12.58-.25,1.2,0,1.7a.88.88,0,0,0,1.07.12c1-.37,1.38-.07,1.51,1,.26,2.14.43,4.36,2.14,6,.32.3.58.75,1.09.44s.39-.75.28-1.17c-.2-.76-.47-1.5-.68-2.26s-.24-1.53.63-1.75c1.14-.29,1,.77,1,1.35a6.83,6.83,0,0,0,1.65,4.06c.26.36.58.74,1.06.61s.36-.68.38-1.1c0-.8-.8-2.09.37-2.27s1,1.31,1.21,2.15c.41,1.57.86,3,2.72,3.52,1.68.5,2.48-.11,2.84-1.7.37.19.72.25.79.42.84,2.33,2.66,2.85,4.92,3.54,8.44,2.58,17,3.19,25.74,3a88,88,0,0,1,9.46.39c2.8.23,5.56-.61,8.37-.69a11.48,11.48,0,0,1,2.62,0,12.72,12.72,0,0,0,5.46,0c1.13-.28,2.36-.2,2.82,1.21.36,1.12-.49,2.06-2,2.55a13.28,13.28,0,0,1-6.41.65c-2.64-.42-5.24.38-7.85.58s-5.26-.25-7.89-.25c-4.21,0-8.42-.35-12.62-.29a33.87,33.87,0,0,1-7.8-1.07,31.45,31.45,0,0,0-6.49-1,20.45,20.45,0,0,1-8.07-2.06c-2.07-.9-4.34-.66-6.4-1.4-6.16-2.19-12.71-3.42-18.16-7.4-1.25-.91-2.94-1.15-4.1-2.3-.18-.17-.61-.12-.71-.3-.92-1.51-3.25,1.4-3.63-1-.25-1.65-1.54-2.28-2.39-3.31a32.93,32.93,0,0,1-2.55-3.67c-.88-1.43-.54-3.08-.74-4.62a17.78,17.78,0,0,0-.54-3.88c-.56-1.59.16-2.43,1.82-2.15,1.22.2,2.43.23,3.64.31.43,0,.84.28,1.28,0s.84-1.11,1.55-.51a3.16,3.16,0,0,1,1,1.8,8.1,8.1,0,0,1-.11,4.18C69.5,465.53,70.1,467.47,71.4,469.41Zm5.23,0a2,2,0,0,0-.46,2.09c.1.35.32.68.69.67.63,0,.61-.56.52-1A2.66,2.66,0,0,0,76.63,469.45Z"/><path d="M153.24,47.36c-4.28-.84-8.34.71-12.5,1.18a60.32,60.32,0,0,1-13.63,0,71.83,71.83,0,0,0-10.78,0,95.13,95.13,0,0,1-14.44-.24c-6.55-.74-13.35-.51-19.58-3.4C79,43.33,75.38,44,71.9,44c-4.13,0-8.21-.58-12.32-.84a74.59,74.59,0,0,1-11.75-1.25C43.67,41,39.48,41.1,35.27,41a32.66,32.66,0,0,1-9.55-1.68,15.3,15.3,0,0,0-4.62-.92c-5.76,0-9.93-3-13.4-7.25-.58-.7-1.11-1.51-.38-2.35A2.23,2.23,0,0,1,10,28.19a5,5,0,0,1,2.4,2,7.68,7.68,0,0,0,6.85,3.69,27.51,27.51,0,0,1,6.68,1.28,49.21,49.21,0,0,0,11.94,1.74A41.54,41.54,0,0,1,48.2,38c3.69.94,7.65.75,11.49,1.1A177.87,177.87,0,0,0,79.94,40c1.93,0,3.34,1.41,5.2,1.71,4,.64,7.9,1.35,11.86,2,5.34.83,10.69,0,16,.76a29.06,29.06,0,0,0,6.83-.26c4-.4,8,.27,12,.58a57.28,57.28,0,0,0,17-1.32c3.65-.8,6.45,1,9.52,2.13.57.21,1.31.76.92,1.64s-1.06.71-1.82.6C156.05,47.58,154.64,47.5,153.24,47.36Z"/><path d="M50.17,57.81c-1.51,1.06-2.18,1-2.17-.72a20.75,20.75,0,0,0-.28-5.5c-.27-1.05-.63-1.8-1.84-1.82-2.28,0-4.15-1.79-6.62-1.41s-3,.85-2.47,3.39c.3,1.58,1.57,2.65,2.2,4.26-2.77-1-4.13-3.81-3.67-7.28-.94-.58-2-.27-3-.37-1.5-.15-1.93.34-1.56,1.83s.94,3,1.44,4.5c.18.55.28,1.09-.44,1.25a.83.83,0,0,1-1.1-.8c-.19-2.5-2.22-4.4-2.25-7a1.1,1.1,0,0,0-1.22-1.12c-.95,0-1,.81-1,1.54a4.13,4.13,0,0,0,1,2.67c.48.6.55,1.14-.12,1.55-.85.51-1-.21-1.24-.8-.45-1.32-.9-2.65-1.32-4a2.29,2.29,0,0,0-2.05-1.76c-1.44-.17-1.85.25-1.61,1.75.21,1.21.44,2.41.62,3.63a1,1,0,0,1-.76,1.2c-.76.06-.68-.66-.66-1.15.09-2-.92-3.73-1.41-5.58a2.07,2.07,0,0,0-.93-1.23c-.31-.19-.64-.34-1-.12s-.25.62-.25,1c0,.68.51,1.09.82,1.61a3.56,3.56,0,0,1,.64,2.24c0,.36-.11.72-.48.85-.56.19-.85-.21-.93-.65-.25-1.41-1.27-2.47-1.61-3.87-.49-2-1-2.27-3-1.62-.55.18-.89.55-1.15-.23-.39-1.14-1.34-1-2.2-.86-1.06.13-1.49.68-1.22,1.83,1,4.16,2,8.32,2.8,12.52.87,4.73,2.23,9.35,2.81,14.15.24,2,.73,4.06,1.12,6,.3,1.52,1.36,3.11,2.07,4.68,1,2.21.47,4.26-.58,6.25-.32.62-.85,1.37-1.59,1.13A1.79,1.79,0,0,1,12.68,88c.32-2.1-.63-4-.9-6C11.06,77,9.43,72,8.52,67c-1.1-6.13-3.24-12-4.23-18.16-.72-4.48-2.14-8.87-2.69-13.34C1.26,32.7-.06,30.2,0,27.36c0-1.31.34-2.4,1.39-2.88,2.2-1,3.73-2.82,5.82-4,3.67-2,7.49-1.48,11.3-1.46A1.53,1.53,0,0,1,20,20.63a1.81,1.81,0,0,1-1.31,2,8.27,8.27,0,0,1-3.11.39,16.54,16.54,0,0,0-9.65,3.71,2.62,2.62,0,0,0-1,2.74c.26,2.19.81,4.3,1.23,6.44.29,1.49,1,2,2.45,2.17,4,.6,7.93,1.41,11.49,3.47a3.33,3.33,0,0,0,1.74.55c5.44-.29,10.4,2.23,15.72,2.65,1.72.13,3.59-1,4.88-.22a17.59,17.59,0,0,0,4.4,2.1c.84.23,1.75.2,2.6.37a1.35,1.35,0,0,1,1.15,1c.14.68-.37.91-.88,1.1-1.38.51-1.65,1.33-1.36,2.85C48.77,53.93,48.17,56.15,50.17,57.81Z"/><path d="M32.67,234.92c-.22,4.75.79,9.4,1.08,14.11a22.05,22.05,0,0,0,1,6.91,29.18,29.18,0,0,1,1.48,7.87c.17,1.87.87,3.7,1.1,5.63.55,4.78,1.18,9.54,2.14,14.26a48.06,48.06,0,0,1,.41,7.32c0,.52-.18,1.14,0,1.55,1.27,2.55,1,5.31,1.15,8a4,4,0,0,0,.07,1.05c2,5.91,1.16,12.16,2.2,18.18,1,5.78,1,11.65,2,17.44,1.48,8.18,2.6,16.45,3.45,24.72.36,3.56.89,7.13,1.05,10.72a3.83,3.83,0,0,1-.5,2.53c-.7,1-1.3,1-1.92-.12a2.17,2.17,0,0,1-.33-.71c-.47-5.22-2.16-10.2-2.54-15.48-.47-6.52-2-12.95-2.84-19.44-.48-3.62-1.42-7.2-1.14-10.92.22-3-.47-6-.8-8.91-.43-3.92-.86-7.83-1.09-11.75s-1.15-7.82-1.52-11.76-.92-8-1.52-12c-.91-6.05-2.12-12.06-2.85-18.14-.65-5.4-2.47-10.57-2.85-16-.19-2.62.08-5.22-.23-7.85-.35-2.93,0-5.94-1.18-8.78a1.88,1.88,0,0,1,1.5-2.76,2.42,2.42,0,0,1,2.66,2A15.72,15.72,0,0,1,32.67,234.92Z"/><path d="M313.94,506.19c-.62,4.1,1.42,6.94,4.77,9.29,1.91,1.34,3.3,3.3,5.19,4.76a41.35,41.35,0,0,1,4.75,3.69c.35.36,1.07.52.87,1.16a1.77,1.77,0,0,1-1.59,1.19,2.72,2.72,0,0,1-1.51-.38,6.47,6.47,0,0,0-1.66-.79c-5.39-1-8.58-5-12.1-8.63a2,2,0,0,1-.6-1.93,4.81,4.81,0,0,0-.93-4,2.28,2.28,0,0,1-.34-1.75c.54-3.69-.66-7.17-1.66-10.56a165.4,165.4,0,0,1-5.34-28.39c-.35-3.1-1.34-6.08-1.69-9.19-.53-4.78-1.46-9.5-2.17-14.25-.8-5.36-.95-10.84-2.59-16.07-.84-2.68-.44-5.59-1.65-8.23a2.08,2.08,0,0,1,.93-2.74c.81-.41,2.79.64,3.17,1.77a23.91,23.91,0,0,1,1,4.08c.61,4,1.47,7.93,2.21,11.89a105.32,105.32,0,0,1,1.53,12.5A103.07,103.07,0,0,0,306.45,461c.83,4.74,1.82,9.44,2.57,14.2,1.06,6.83,1.92,13.71,3.68,20.41A50.12,50.12,0,0,1,313.94,506.19Z"/><path d="M374.25,506.22a24.21,24.21,0,0,0-4.1,0c-5.51,1-11,.51-16.53.29-4-.16-8.06-.53-12.09,0-2,.27-4-.44-5.9-.83s-3.91-.77-5.83-1.23c-4.39-1-8.32-3.15-12.48-4.71a2.2,2.2,0,0,1-1.35-2.34,42,42,0,0,0-2.39-12.89,2.48,2.48,0,0,1-.15-1.54c.29-1.05.71-2.18,1.92-2.24a2.37,2.37,0,0,1,2.54,1.87,32.78,32.78,0,0,1,1.32,10.92c-.2,2.63-.24,2.72,2.36,3.5a56.18,56.18,0,0,1,6,2.58c3,1.29,6.17,1,9.24,1.54,6.15,1.17,12.34.64,18.53.32a4.28,4.28,0,0,1,1.56,0c2.82,1,5.69.75,8.59.49,3.91-.35,7.82-.8,11.72-1.13a52.11,52.11,0,0,0,8.75-1.49,7.94,7.94,0,0,0,5.54-5.08c.43-1.06.81-2.13,1.18-3.21a5.77,5.77,0,0,1,1.23-2c.77-.84,1.67-1.92,2.85-1.33s.65,1.85.46,2.88a23.17,23.17,0,0,1-2,6.51c-2.08,4-5,7-9.76,7.48-3.23.3-6.32,1.48-9.59,1.52C375.3,506.16,374.7,506.44,374.25,506.22Z"/><path d="M403,445.31h-3.44c-.11.79,1,1.06.65,1.9-.21.55-.38,1-1.06.81-1.09-.34-2.17-.7-3.23-1.13-.58-.23-1.15-.67-1-1.37.17-.95.9-.9,1.65-.7.14,0,.32-.07.47-.11.11-.33-.11-.47-.34-.57-.64-.27-1.11-.64-.71-1.39a1.23,1.23,0,0,1,1.59-.57c1.17.34,2.27.89,3.5,1.14,1.45.29,2.46-.11,2.86-1.53s1.2-2.93,1.22-4.55c-.35-.65-1-.17-1.43-.33-1.12-.38-1.38-.87-.6-1.9,1-1.38,2-2.74,3.77-3.27a3.73,3.73,0,0,0,2.81-3c1.13.44,1,1.19.93,1.87a77,77,0,0,1-2.77,14.07,191.2,191.2,0,0,0-4.42,18.64,108.13,108.13,0,0,1-3.64,12.34,23.71,23.71,0,0,0-1.18,4.29c-.15,1.1-.38,2.25-1.83,2s-1.83-1.21-1.49-2.56c.06-.24.09-.49.21-1.2a15.77,15.77,0,0,0-2.17,5.51c-.17.59-.16,1.43-.86,1.46-2,.09-2,1.55-2.31,2.89s-.78,2.7-1.19,4c-.14.44-.37.83-.91.76a1.06,1.06,0,0,1-.93-1.09,1.8,1.8,0,0,1,.1-.77c1.38-3.52,2.11-7.23,3.31-10.8.11-.32.29-.77.54-.86,3.17-1.15,2.05-4.21,2.86-6.39.26-.72-.21-1.35-1-1.59s-1.36-.36-2-.62-1.75-.13-1.57-1,1.15-.36,1.73-.2a5.35,5.35,0,0,0,3.33-.11,22,22,0,0,1-5-2.57c-.93-.57-1.44-.84-.15-2,1.5-1.36,2.55-1.86,4.19-.61a2,2,0,0,0,1,.32c.53.05,1.11,0,1.36-.55.32-.72-.31-.85-.77-1.08-.94-.48-1.85-1-2.79-1.47-.61-.29-1.18-.56-.8-1.34s.92-.73,1.57-.47l2.69,1.05a9.16,9.16,0,0,0,1.46.6c2.38.52,3,.16,3.26-2.26.45-3.68,1.64-7.18,2.33-10.8A12.74,12.74,0,0,0,403,445.31Zm-6.74,26.58c.54-2.73,2.78-4.89,2.76-8-1.16.52-.36,1.65-1.14,2.13C395.58,467.44,396,469.7,396.23,471.89Z"/><path d="M52.65,389.27c-.38,1.91.18,4.2.79,6.5a8.61,8.61,0,0,1,.39,3.37,66.64,66.64,0,0,0,.09,14.94c.26,3.05.95,6.05.52,9.15a7.19,7.19,0,0,0,.32,2.86,6.56,6.56,0,0,1,.4,2.58c-.68,3.9.41,7.67.71,11.48.14,1.75-.09,3.61.3,5.23.79,3.26.21,6.61,1.07,9.84a35.43,35.43,0,0,1,.94,10.92c0,.65-.17,1.31-.94,1.36s-1-.59-1.1-1.22c-1.08-6.31-3.28-12.4-3.8-18.79q-.45-5.64-1-11.26c-.49-5.4-.23-10.83-.66-16.22a106,106,0,0,1-.66-11.81c.2-6.07-.47-12.09-1-18.12a12.52,12.52,0,0,0-1-3.53,2.45,2.45,0,0,1,.59-2.91c.91-.78,1.85,0,2.75.17,1.07.2,1.21,1.11,1.19,2.06S52.65,387.8,52.65,389.27Z"/><path d="M291.29,384c-.23-5,2.45-7.66,5.16-10.17a31.58,31.58,0,0,1,7.79-4.84c1.64-.79,3.55-.74,5.3-1.34,1-.35,2.08.56,2.51,1.53s-.3,1.78-1.12,2.4a14.22,14.22,0,0,1-2.86,1.32c-4,1.9-8.15,3.68-11.05,7.35a4.67,4.67,0,0,0-1.32,3.79c.19,1.3.25,2.62.54,3.91a136.72,136.72,0,0,1,2.29,15.84c.27,2.69.54,5.37,1,8,.23,1.28-.46,2.37-.38,3.61,0,.77-.89.66-1.48.73s-1.1-.22-1.09-.85c.05-2.52-1.05-4.79-1.5-7.2-1.12-5.95-1.73-12-2.71-17.94A52.25,52.25,0,0,1,291.29,384Z"/><path d="M142.68,19.9c1.33-3.11-.12-5.6-.54-8.53a2.37,2.37,0,0,0-.6,2.61c.57,2.19-.09,4.36.12,6.54.08.82.05,2.18-.92,2.12-1.28-.07-.61-1.28-.54-2.1a15.21,15.21,0,0,0-1.67-9.18c-1.13,4.41-.13,8.65-1.1,12.59l-.56,0c-.09-2.58-.17-5.17-.28-7.75,0-.87-.14-1.74-.24-2.61s-.44-1.44-1.52-1.3c-2.46.31-4.89-.45-7.35-.3a6.48,6.48,0,0,1-2.55-.6,1.14,1.14,0,0,1-.78-1.66c.29-.74.77-1.17,1.63-.8,2.15.93,4.48.71,6.72,1,1.09.16,2.3.46,3-.91a.79.79,0,0,1,1.13-.34c.16.08.33.22.48.2A27,27,0,0,1,149.17,10c.46.14,1.31.08,1.51-.21,1-1.47,2.63-.94,3.94-1.35,2.64-.83,5.58-.52,8.06-2.12a1.28,1.28,0,0,1,1.62.13c0,.67-.51.75-.88.93a2.5,2.5,0,0,0-1.65,3.13c.31,1.42-.33,2.93.11,4.42.19.62-.33.92-1,.8a2.14,2.14,0,0,1-1.66-2.58,6.23,6.23,0,0,1,.57-1.46c.26-.63.77-1.28.12-1.93s-1.48-.36-2.25-.22-1,.81-1,1.58c.05,1.1-.33,2.24.71,3.19.68.63.43,1.46-.14,2.13s-1.09.85-1.68,0a5.63,5.63,0,0,1-.75-4.78c.12-.49.46-1.09-.34-1.26a1,1,0,0,0-1.25.75c-.44,2.09-2.09,4.17.15,6.29.83.78,0,1.68-.71,2.15-.9.58-1.32-.23-1.48-.9-.41-1.69-1-3.38-.65-5.17.12-.57.49-1.26-.35-1.58a2.94,2.94,0,0,0-2.06.17,1.11,1.11,0,0,0-.63,1.54c.91,1.69-.1,3.68.94,5.36a.93.93,0,0,1-.81,1.36c-.91.13-1-.59-.92-1.22a10.07,10.07,0,0,0-.95-4.78,5.39,5.39,0,0,1-.36-2.06c0-.55.3-1.45-.7-1.33-.73.09-.41.81-.38,1.31.11,1.66.24,3.32.3,5C144.65,18.38,144.71,19.59,142.68,19.9Z"/><path d="M59.66,480c-.4,4.62,0,9.13,2.26,13.27a42.15,42.15,0,0,0,8.77,11.4c.32.29.7.53,1,.81s.82.71.4,1.31a1.13,1.13,0,0,1-1.39.42,14.24,14.24,0,0,1-4.27-2c-2.44-1.86-5-3.66-6.71-6.24-2.49-3.74-4.39-7.77-4.41-12.39a57.85,57.85,0,0,0-.35-7.09,14,14,0,0,1,0-2.89,17.37,17.37,0,0,0-.16-5.75c-.37-1.47.26-1.93,1.72-1.57a3.7,3.7,0,0,1,2.77,3.19c.33,1.68.9,3.37.42,5.16A9.28,9.28,0,0,0,59.66,480Z"/><path d="M30.52,220.59c-.11,1.11-.19,2.07-.29,3-.09.78-.47,1.36-1.32,1.34s-1-.72-.92-1.33c.14-1.31-.56-2.36-.93-3.51a99.87,99.87,0,0,0-7-17.47,37.51,37.51,0,0,1-3.8-9.57,29.47,29.47,0,0,0-3.89-9.66,1.86,1.86,0,0,1,.3-2.76c1-.81,2-.37,2.82.41a3.48,3.48,0,0,1,.9,1.58c1.47,4.85,3.69,9.42,5,14.35a18.61,18.61,0,0,0,3.19,6c2.17,3,2.91,6.51,4.16,9.85.15.4.05,1,.3,1.25C30.9,216,29.89,218.55,30.52,220.59Z"/><path d="M68.52,17.35c5.5-.9,11.26,0,16.52-2.49a1.59,1.59,0,0,1,.77-.16c3.26.42,6-1.06,8.92-2.21,4.78-1.92,9.81-1.46,14.78-1.42a1.25,1.25,0,0,1,.76.17c3,2.58,7,1,10.33,2.32.64.26,1.15-.25,1.66-.61a.87.87,0,0,1,1.35.27,1,1,0,0,1-.25,1.4,3.1,3.1,0,0,1-2.87,1c-3.18-.88-6.62-.69-9.59-2.44a5,5,0,0,0-3.07-.57c-3,.31-6.17.25-9.08,1.05-2.15.6-4.71.57-6.41,2.57-.76.89-2,.76-3,.6a9.24,9.24,0,0,0-5.35.92c-2.86,1.28-5.8,1.94-8.87.69a2.28,2.28,0,0,0-2,.1c-2.37,1.32-5,.62-7.49,1.08a2.3,2.3,0,0,1-.78-.07c-.63-.13-1.26-.39-1.26-1.12s.63-1,1.28-1.06C66.06,17.32,67.29,17.35,68.52,17.35Z"/><path d="M182.83,9.08c1-.38,2.11-.25,2.82-1.2a1.31,1.31,0,0,1,1.49-.17c3.06,1.28,6.42.81,9.55,1.68,1.93.53,3.94.73,5.47,2.28a2.74,2.74,0,0,0,1.89.78c3.79-.26,7.46.54,11.16,1.1a3,3,0,0,0,1.5-.4,5.65,5.65,0,0,1,4.1-.31,5.8,5.8,0,0,0,2.59-.11,5.89,5.89,0,0,1,5.64,2.1.79.79,0,0,1,.12,1,.73.73,0,0,1-.93.24c-2.21-1-4.67-.63-6.92-1.42a4.34,4.34,0,0,0-2.85-.16c-3.94,1.33-7.91,1-11.89.26a10.43,10.43,0,0,0-2.62-.06c-1.21.09-2.27,0-3-1.16a2.94,2.94,0,0,0-2-1.18c-2.62-.66-5.18-1.68-8-1.49a12.58,12.58,0,0,1-3.11-.41c-1.71-.29-2.19.22-1.71,1.79.23.79.78,1.57-.43,1.85a1.14,1.14,0,0,1-1.52-1.3C184.42,11.29,183,10.51,182.83,9.08Z"/><path d="M52.68,270.17c-2-6.59-1.15-13.43-2.69-20s-3.7-13-5.46-19.73a2.15,2.15,0,0,1,2.09,2c1.15,5.83,3.73,11.27,4.6,17.17,0,.2.31.37.47.56.64-.41.42-1,.34-1.44-.9-5-1.27-10.09-2.65-15a5.73,5.73,0,0,1-.16-1.31,1,1,0,0,1,.88-1.14c.74-.18.83.4,1,.91,1.59,5,2,10.25,2.2,15.48.07,1.75.2,3.5.31,5.25.19,3.32.45,6.62-.54,9.92a7.45,7.45,0,0,0,0,4.16A3.32,3.32,0,0,1,52.68,270.17Zm-.18-15.44c-1,1.92-.45,3.64-.37,5.33,0,.16.34.4.54.43a.45.45,0,0,0,.47-.51C52.73,258.36,53.3,256.59,52.5,254.73Z"/><path d="M186.76,100c-1.55,0-3.13-.46-4.44.92a1.07,1.07,0,0,1-1.77-.34c-.36-.85.53-.9,1-1.26a26.29,26.29,0,0,1,2.9-1.79c1.06-.69-.19-2,.7-2.87.64-.65.61-1.79,1.37-2.49.94-.88.69-1.76-.32-2.38a20,20,0,0,0-5.33-2.18c-1.35-.36-2,.43-2,1.7-.12,1.91.07,3.86-.63,5.72-.12.32-.12.69-.25,1-.2.52-.56.9-1.19.72s-.55-.64-.5-1.08a21.54,21.54,0,0,1,.48-3.9,14.57,14.57,0,0,0,.43-3.11c.15-2,1.3-3.33,3.22-3.06a17.38,17.38,0,0,1,7.09,2.44c2.17,1.41,2.39,3.35.71,5.34-.76.91-1.26,1.48.07,2.19.68.37.76,1.16,1.1,1.75s1.48,1,1.06,1.93c-.51,1.12-1.65.72-2.58.73C187.46,100,187.11,100,186.76,100Z"/><path d="M324.88,453.94a14.2,14.2,0,0,1-1.94-6.23c-.86-7.29-1.55-14.6-1.7-22a57.83,57.83,0,0,0-.89-6.77c-.1-.7-.39-1.51.31-2,1.51-1,1.24-2.41,1.1-3.77-.3-2.79-.2-5.61-.81-8.37-.1-.46-.12-.86.42-1.06a1.08,1.08,0,0,1,1.21.27,3,3,0,0,1,.6,2.48c-.21,3.4-.3,6.82-.7,10.2a34.74,34.74,0,0,0,.14,7.07c.38,4.78.22,9.57.48,14.35A72.93,72.93,0,0,0,324.71,452,12.61,12.61,0,0,1,324.88,453.94Z"/><path d="M105,68c3.06,1.36,6.41.92,9.46,2s4.41,3.28,4.88,6.26a2.76,2.76,0,0,1-.06,1.54c-.85,1.68-1.78,3.3-1.67,5.29a1.29,1.29,0,0,1-.56.86,26.22,26.22,0,0,1-5.65,3.29,1.53,1.53,0,0,1-2.23-1.16c-.23-.91.1-1.55,1-1.13,1.63.74,2.82-.11,4.19-.69a2.28,2.28,0,0,0,1.51-3.12,3.5,3.5,0,0,1,.57-3,3.77,3.77,0,0,0-1.69-5.85,22.85,22.85,0,0,0-6.29-1.85A4.67,4.67,0,0,1,105,68Z"/><path d="M116.07,92.52a6.4,6.4,0,0,1,1.79-5.28c1.57-1.82,3.9-2,5.35-.12a23.12,23.12,0,0,1,2.48,4,3.46,3.46,0,0,1-.62,4.12,10.66,10.66,0,0,1-1.14,1.09,19.28,19.28,0,0,1-5.9,1.89c-1,0-1.16-.63-1.38-1.28a6.15,6.15,0,0,1-.26-1.29C116.27,94.61,116.17,93.56,116.07,92.52Zm1.89-.2a5.32,5.32,0,0,0,0,2.45c.39,2.18.74,2.31,2.53,1.1.86-.58,1.82-1,2.69-1.59A1.7,1.7,0,0,0,124,92a16.27,16.27,0,0,0-2.33-3.76,1.29,1.29,0,0,0-2-.16C118.28,89.24,117.39,90.55,118,92.32Z"/><path d="M119.72,127.72c.76,2.4-1.44,3.61-2.85,5.21a1.44,1.44,0,0,1-1.48.3c-1.6-.4-4-3.22-4.16-5a6.64,6.64,0,0,0-1.2-3.87c-1.07-1.35-.61-2,1.19-2.26a5.9,5.9,0,0,0,1-.23C116.68,120.37,119.69,122.58,119.72,127.72Zm-1.72-.63a3.87,3.87,0,0,0-1.73-3.51c-1.39-.86-3.75-.1-3.61,1.21s0,2.65.55,3.88c.69,1.47,2.52,2.11,3.43,1.07A4.67,4.67,0,0,0,118,127.09Z"/><path d="M318.42,508a57.9,57.9,0,0,0,9.46,3.75c2.82,1,5.52,2.29,8.54,2.54a.89.89,0,0,1,.9.81c.09,1.36.61,2.69.44,4.15-1.22-.21-1.16-1.08-1.3-1.82a2,2,0,0,0-2.33-1.84c-5.07.24-9.59-1.62-13.75-4.31C319.46,510.71,318,510,318.42,508Z"/><path d="M152.35,94.13c-1.61.07-2.53-.59-2.41-1.73.33-3.16-1.76-5.54-2.4-8.37a1,1,0,0,0-.67-.76c-2.28-.6-2.62-2.79-3.62-4.43a2.57,2.57,0,0,1-.3-1.78c.16-.85.29-1.85,1.51-1.78s.88,1,1,1.75c.19,1.65,0,3.34,2.32,4.11,1.14.38,1.93,2.11,2.68,3.36.49.81.88,1.7,1.41,2.5a1.82,1.82,0,0,1,.42,1.72A6.44,6.44,0,0,0,152.35,94.13Z"/><path d="M170.72,115.86a5.49,5.49,0,0,1-7.93,5.17,13.15,13.15,0,0,1-1.86-1,3,3,0,0,1-1.53-2.6c.08-.85-.07-1.92,1.14-2s1.37.81,1.38,1.75a1.81,1.81,0,0,0,.09.78,3,3,0,0,0,3.06,1.58c2.66-.13,3.83-.77,4.19-2.38a2.9,2.9,0,0,0-1.36-3.4,8.92,8.92,0,0,0-5.2-1.59c-.6,0-1.38,0-1.28-.88s.81-1,1.57-.84a20.8,20.8,0,0,1,5.48,1.78A4.42,4.42,0,0,1,170.72,115.86Z"/><path d="M139,107.91c-1.68,2.74-.31,4.87.18,7,.44,1.87,3,2.59,4.84,1.71a2.06,2.06,0,0,0,.75-3.4c-.73-.87-1.57-1.65-2.23-2.57a1,1,0,0,1,1.69-1.22,9.68,9.68,0,0,0,3.42,3.16,1.43,1.43,0,0,1,.35,2.1c-1.13,1-1.65,2.5-2.87,3.33a5.19,5.19,0,0,1-7.88-3.41c-.19-1.21-.3-2.43-.56-3.63C136.38,109.61,136.82,108.58,139,107.91Z"/><path d="M98.07,83.12A3.16,3.16,0,0,1,101,84a20.9,20.9,0,0,0,4,2.88c.66.34,1.23,1,.76,1.7a1.33,1.33,0,0,1-2.07,0c-.74-1.13-2.06-1.3-2.91-2.15a4.39,4.39,0,0,0-3.58-1.2c-2,.09-2.39-.27-2.82-2.27a17.32,17.32,0,0,0-1-3,8.23,8.23,0,0,1,1.91-8.84c.39-.38.77-.82,1.3-.31s0,.79-.25,1.11c-2.48,3-1.95,6.35-.93,9.7A1.94,1.94,0,0,0,98.07,83.12Z"/><path d="M152.11,73.68a2.16,2.16,0,0,1-.59,0c-.89-.14-2.34.44-2.51-.65-.22-1.41,1.42-.9,2.2-1.17,3.37-1.13,8.36.41,10.36,3.23,1.43,2,1,4.4.68,6.64a1,1,0,0,1-1.87.32c-.72-.89-1.45-1.89-.71-3.1.94-1.55.11-2.4-1-3.27C156.65,74.27,154.6,73.2,152.11,73.68Z"/><path d="M313.84,424.47c-.57-5.73-1.13-11.47-1.74-17.19a11,11,0,0,0-1-4,.79.79,0,0,1,.26-1.14,1,1,0,0,1,1.18.29,6.54,6.54,0,0,1,1.59,3.8,53.56,53.56,0,0,1,.71,8.09,55,55,0,0,0,.57,8.88c.29,1.55.08,1.66-1.65,1.23Z"/><path d="M151.68,97.94a7.2,7.2,0,0,0,8.69,2.16c1.13-.53,2.62-.61,2.82-2.35.08-.72.32-1.39-.42-1.88-.54-.36-1-.76-.72-1.48a1.16,1.16,0,0,1,1.26-.76c.8.15,1.76.51,1.78,1.33a20.77,20.77,0,0,1-.51,5.38.27.27,0,0,1-.16.2c-2.52.48-4.35,3.08-7.26,2.37-.42-.1-.85-.2-1.29-.26C152.73,102.23,152.34,101.84,151.68,97.94Z"/><path d="M96,106.38c0,1.45,0,2.89-1.75,3.45-1.41.47-2.91-.24-4-1.8-.35-.51-.63-1.07-1-1.54s-1.94-.47-1.53-1.76.25-2.82,1.53-3.82c1.59-1.24,3.78-.84,5.28,1.07A6.25,6.25,0,0,1,96,106.38Zm-1.45-.08A4.57,4.57,0,0,0,93,102.64a2.1,2.1,0,0,0-2.87-.24c-1,.69-.88,1.61-.41,2.57a9.87,9.87,0,0,0,1.81,2.57,2,2,0,0,0,2.21.38C94.61,107.62,94.46,106.82,94.53,106.3Z"/><path d="M79.13,261c0-3.2-.1-6.4,0-9.6.21-5.6.53-11.2.87-16.8a13.15,13.15,0,0,0-.38-2,1.09,1.09,0,0,1,1.14-1.19c.76-.08.79.56.76,1.08-.09,1.57-.23,3.15-.35,4.72Q80.3,249.09,79.41,261Z"/><path d="M60.45,262.61c-1-8-1.36-15.94-1.82-23.89-.06-1.15-.39-2.24-.48-3.37a.9.9,0,0,1,.66-1c.6-.14.64.4.73.82a4.56,4.56,0,0,1,.21.76C60.15,244.82,60.7,253.73,60.45,262.61Z"/><path d="M224.57,75.07c-.26,0-.52.09-.78.11-.57,0-1.08,0-1.19-.71a1.27,1.27,0,0,1,.73-1.28c1.58-1,4.83-.16,5.76,1.58a7.58,7.58,0,0,1,.9,4.31,3.33,3.33,0,0,1-4.42,3.13c-.34-.08-.69-.17-.74-.61a.75.75,0,0,1,.52-.79,1,1,0,0,1,.25-.08c.91-.2,2,0,2.58-1a2.8,2.8,0,0,0,.12-2C227.9,75.59,227.07,75,224.57,75.07Z"/><path d="M57.16,256.61c-1.24-.41-1.41-1.52-1.54-2.54-.64-5.12-1.27-10.24-1.81-15.38-.12-1.14-.45-2.22-.55-3.36,0-.55,0-1.14.63-1.26s.8.43.83,1c.2,3.93.66,7.83,1,11.74a51.28,51.28,0,0,0,1.39,9.84Z"/><path d="M64.35,444.86c1.54.63,3,1.88,4.86.6.51-.36,1,.13,1.17.69s-.41,1-.94,1c-1.47.06-2.94,0-4.74,0,.89,1.83,2.24,2,3.58,2.38,1.09.28,3.26-.48,3.09.71-.29,2.09-2.28.38-3.5.59a3.16,3.16,0,0,1-2.43-.81C62.83,448.11,62.83,448.12,64.35,444.86Z"/><path d="M71.34,267.44c-1-1.06-.74-2.34-.84-3.52-.35-4.19-1-8.36-.93-12.58,0-.53,0-1.06.06-1.58.06-.7.42-1.24,1.16-1.11s.43.78.37,1.27a37.67,37.67,0,0,0,.19,7.28A83.31,83.31,0,0,1,71.34,267.44Z"/><path d="M56.27,21.15a.89.89,0,0,1-.61.77,1.79,1.79,0,0,1-1.54.1c-1.92-1.22-3.42-.6-4.89.86-.54.52-1.45,1-2,0s.06-1.44.84-1.85a6.28,6.28,0,0,0,1.09-.73c2.72-2.23,4-2.24,6.71-.06A1.11,1.11,0,0,1,56.27,21.15Z"/><path d="M63.56,240.62c.4,2-.07,4.53,1.13,6.81.25.48.45,1.36-.28,1.6s-1.23-.48-1.29-1.22c-.35-4.52-1.12-9-1.7-13.48a3.28,3.28,0,0,1,.17-1.27.91.91,0,0,1,1-.62c.44.05.47.42.53.77a20.44,20.44,0,0,1,.42,4.68C63.52,238.67,63.56,239.46,63.56,240.62Z"/><path d="M66,260.72c.53,3.23,0,6.44-.1,9.66-.05,1.08.94,2.31-.29,3.28-1-1,0-2.13-.11-3.21-.58-5.48-.31-11-1.11-16.5-.07-.52-.17-1-.2-1.56s.19-.84.75-.84.93.33.85.78c-.26,1.51.23,3,.21,4.45C66,258.09,66,259.4,66,260.72Z"/><path d="M261.06,94.1c-2.29-.37-4.78-.75-7.27-1.18-.7-.12-1.48-.29-1.15-1.31.22-.69.69-.87,1.44-.72,2.13.42,4.29.73,6.44,1.12a3.79,3.79,0,0,1,1.21.46c.43.26,1,.56.68,1.21C262.19,94.16,261.71,94.12,261.06,94.1Z"/><path d="M86.11,252.91c-.25-6.27.69-12.52.51-18.79,0-.41.28-.81,1.07-1.07C88.31,239.81,86.77,246.33,86.11,252.91Z"/><path d="M270.76,124.22a.69.69,0,0,1-.93.69c-2.64-.92-5.39-.38-8.07-.71-.82-.1-1.33-.45-1.2-1.36s.67-1,1.35-.9c2.33.33,4.66.65,7,1.06A2.33,2.33,0,0,1,270.76,124.22Z"/><path d="M259.73,117.69a13.89,13.89,0,0,1,6.5,2.34c.37.26.73.58.42,1.06a.69.69,0,0,1-.95.16c-2.09-1.57-4.48-1.14-6.83-1.07-.83,0-1.94.4-2-1s.93-1.53,2-1.53Z"/><path d="M346.53,514.65c0-.57.05-1,.52-1.24a.85.85,0,0,1,1.13.4,1.84,1.84,0,0,0,1.83,1.1c.94,0,2.09,2.45,1.8,3.38-.11.36-.53.77-.72.58-1.07-1.06-2.73.07-3.57-.86S346.7,515.74,346.53,514.65Z"/><path d="M57.1,256.65c.29,4.1.61,8.2.87,12.3a5.77,5.77,0,0,0,.93,3.48c.81,1,.72,2.26.32,3.71a3.23,3.23,0,0,1-1.58-2.91c-.38-4.11-.8-8.21-1.11-12.31-.12-1.46-.36-3,.63-4.31Z"/><path d="M75,268.47c-.39-4.66-.77-9-1.11-13.29-.06-.7-.6-1.8.55-1.94s1,1.08.93,1.76C75.1,259.34,76.33,263.7,75,268.47Z"/><path d="M357.3,519.28c-.24-.08-.49-.16-.74-.26-.77-.3-1.87.77-2.36-.36a12.22,12.22,0,0,1-.76-3.29c-.08-.58.6-1.19,1-.82,1.22,1.22,3.58.83,4.1,3,.12.47.7.87.24,1.4A1.32,1.32,0,0,1,357.3,519.28Z"/><path d="M61.87,439.24A12,12,0,0,0,70.2,441c.58-.06,1.08,0,1.21.65.2.95-.59.92-1.16,1a22.47,22.47,0,0,1-4.71.11C63.42,442.59,62.51,441.08,61.87,439.24Z"/><path d="M59.59,340.38a26.2,26.2,0,0,1-5.7-1.73,1.44,1.44,0,0,1-.78-2.16c.49-1,1.08-.29,1.73-.11,2,.56,3.38,2.48,5.58,2.66a.66.66,0,0,1,.51.8C60.73,340.5,60.13,340.38,59.59,340.38Z"/><path d="M67.28,249.13c-1-4.53-1.4-9.11-2.53-13.56a1.35,1.35,0,0,1,.73-1.55c.44-.28,1-.17,1,.38-.21,4.91,1.52,9.65,1.16,14.56C67.63,249,67.5,249,67.28,249.13Z"/><path d="M260.12,105.07c-1.77-.37-3.75-.19-5.59-.87-.61-.23-1.18-.67-1-1.33s1-.57,1.55-.49c2.33.35,4.58,1.18,7,1a.87.87,0,0,1,.94.75c.06.58-.48.62-.91.68Z"/><path d="M344.63,516.92c.09.84-.06,1.35-.93,1.32a1.85,1.85,0,0,0-1,.16c-.73.53-1.41,1.22-2.22.19a3.77,3.77,0,0,1-.71-3.47c.14-.52.63-.54,1-.09a2.87,2.87,0,0,1,.25.46c.33.61.12,1.85,1.3,1.51.81-.23.49-1.18.5-1.85a9.7,9.7,0,0,1,0-1.32c0-.34.19-.7.63-.72s.79.33.8.81A8.81,8.81,0,0,0,344.63,516.92Z"/><path d="M258.87,86.36a27.28,27.28,0,0,1-4.94-.65c-.56-.14-1-.46-.85-1.11a1,1,0,0,1,1.14-.86q3.24.41,6.46,1c.49.08,1.12.28,1,1s-.71.68-1.24.7S259.39,86.36,258.87,86.36Z"/><path d="M62.53,435.15a33.89,33.89,0,0,0,5.76,2.37,7,7,0,0,0,2.77.71c.49,0,1.18,0,1.08.74s-.8.71-1.26.59c-2.53-.63-5.16-.91-7.51-2.15A1.54,1.54,0,0,1,62.53,435.15Z"/><path d="M257.42,79.72c1.55.06,3.33,1.41,5.45,1.56a.82.82,0,0,1,.67,1.17,1,1,0,0,1-1.24.71c-2-.49-4-1-6-1.6-.64-.18-1.15-.57-.93-1.31S256.23,79.52,257.42,79.72Z"/><path d="M256.22,107.56c1.68.21,3.39.65,5.15.23a.8.8,0,0,1,1,.64.9.9,0,0,1-.61,1,6.45,6.45,0,0,1-2.82.43c-1.13-.09-2.25-.26-3.38-.33-.77,0-1.49-.25-1.48-1.11s.9-.86,1.58-.89C255.82,107.55,256,107.56,256.22,107.56Z"/><path d="M271.37,130.8a17.7,17.7,0,0,0-7-1.25c-.72,0-1.53-.12-1.52-1.05s.83-1,1.56-1a14.68,14.68,0,0,1,5.39,1C270.7,128.91,270.92,129.55,271.37,130.8Z"/><path d="M62.61,430A9.54,9.54,0,0,1,64,431a9,9,0,0,0,6.82,3.36c.42,0,1,0,.94.61s-.53.65-1,.64a13.84,13.84,0,0,1-7.24-2.66C62.72,432.37,62.79,431.29,62.61,430Z"/><path d="M260.29,69.59c-1.23-.08-2.36-.12-3.48-.25a1,1,0,0,1-.94-1.06.88.88,0,0,1,.86-.83,41.73,41.73,0,0,1,7,.55c.15,0,.36.37.4.58a.66.66,0,0,1-.54.78C262.44,69.48,261.32,69.52,260.29,69.59Z"/><path d="M261.1,75.65a21.61,21.61,0,0,0-4-.4c-.86,0-1.64-.31-1.48-1.36a1.18,1.18,0,0,1,1.74-1c1.4.47,3,.29,4.32,1,.54.29,1.19.52.93,1.32S261.72,75.64,261.1,75.65Z"/><path d="M71.2,245.48c-1.14-2.09-1.25-4.23-1.78-6.21a45,45,0,0,1-.78-4.94,2.46,2.46,0,0,1,.08-1.54.84.84,0,0,1,.8-.56c.46,0,.48.44.5.78s0,.88,0,1.32a38.25,38.25,0,0,0,1.33,8.83C71.49,243.8,72,244.43,71.2,245.48Z"/><path d="M258.06,99.59c-1.21-.08-2.43-.12-3.63-.27a1.08,1.08,0,0,1-1-1c0-.8.7-1,1.31-.92,2.15.22,4.29.53,6.43.82a.7.7,0,0,1,.66.68.82.82,0,0,1-.9.76c-1,0-1.9-.08-2.85-.13Z"/><path d="M324.08,457c.59,4.21,1.17,8.4,1.76,12.6a37.52,37.52,0,0,1-2.88-11.2C322.89,457.87,323,457.2,324.08,457Z"/><path d="M343.19,496c0-.45.08-1.24.16-2,.07-.58.39-1,1-1,.79,0,1,.58,1,1.27,0,1.63-.59,3.26,0,4.92.12.33-.14.67-.48.85-.5.27-.85-.05-1.12-.39C343,498.64,343,497.49,343.19,496Z"/><path d="M339.29,496c0-1.11-.36-2.26.24-3.33a.85.85,0,0,1,.8-.55.74.74,0,0,1,.67.68,36.2,36.2,0,0,1,.24,5.7c0,.63-.45.9-1.05.88a.84.84,0,0,1-.89-.77C339.25,497.74,339.29,496.87,339.29,496Z"/><path d="M63.17,425.58c.78,0,.93.71,1.28,1.16,1.49,1.87,3.24,2.91,5.7,2,.5-.2,1.09-.37,1.2.4a1.16,1.16,0,0,1-.68,1.3c-2.85,1.2-7.26-1.29-7.7-4.36C63,425.91,63.1,425.75,63.17,425.58Z"/><path d="M332.39,495c-.13-1.34-.22-2.29-.3-3.25,0-.47.11-.93.61-1s.78.37.9.79a7.85,7.85,0,0,1,.24,1.54c.11,1.56.21,3.13.29,4.7,0,.55-.18,1.13-.78,1.19-.82.1-1-.54-1-1.21Z"/><path d="M399.1,456.12a.81.81,0,0,1-1.07.49c-1.91-.44-3.38-1.8-5.19-2.47-.43-.16-.46-.73-.3-1.17a.86.86,0,0,1,1.09-.5c2.12.48,3.68,1.93,5.38,3.15C399.11,455.69,399.07,456,399.1,456.12Z"/><path d="M337.78,495.91c.13.83.17,1.7-.92,1.78s-1.3-.82-1.34-1.58a10.34,10.34,0,0,1,.57-4.61c.14-.34.35-.65.72-.62a.78.78,0,0,1,.73.9A15.89,15.89,0,0,0,337.78,495.91Z"/><path d="M28.82,29.9c-1.32-.51-2-1.78-3-2.7a16,16,0,0,0-2.43-2.37c-.45-.27-.88-.74-.41-1.28a1,1,0,0,1,1.43,0,17.84,17.84,0,0,1,2.23,2.2c1,1.2,1.78,2.5,2.66,3.76Z"/><path d="M396.35,451.4c-1-.28-2-.5-3-.85-.74-.26-1.58-.66-1.17-1.68.34-.83,1.12-.68,1.82-.46a11.93,11.93,0,0,0,3.53,1c.42,0,1,0,1,.58s-.41.95-.9,1.15A6.93,6.93,0,0,1,396.35,451.4Z"/><path d="M381,492.92c-.28,1.2-.56,2.48-.91,3.73a1.16,1.16,0,0,1-1.35,1c-.71-.14-.86-.79-1-1.4a2.07,2.07,0,0,1,.52-1.7,5.24,5.24,0,0,0,1.18-2c.12-.5.33-1.15,1-1S381.06,492.3,381,492.92Z"/><path d="M253.44,113c1.07-1,2.23-.63,3.32-.66,1.92-.06,3.81.59,5.76.29a.78.78,0,0,1,.92.72.5.5,0,0,1-.48.53C259.76,113.85,256.53,114.1,253.44,113Z"/><path d="M399.06,459.32c-.05.85-.48,1.08-1.08.88a32,32,0,0,1-4.9-2.45.7.7,0,0,1-.32-.9c.13-.37.46-.7.76-.6a15.48,15.48,0,0,1,5.13,2.28C398.89,458.72,399,459.13,399.06,459.32Z"/><path d="M59.63,344.43c-2.44.15-4.68-.62-7-1.25-.32-.09-.43-.51-.35-.89s.39-.86.88-.72C55.48,342.2,57.78,342.78,59.63,344.43Z"/><path d="M385.71,489.25c-.32,1.44-.67,3-1,4.64-.13.57-.42,1-1.07.84a.87.87,0,0,1-.72-1,13.45,13.45,0,0,1,1.5-5.44.79.79,0,0,1,1.12-.35C386,488.24,386,488.66,385.71,489.25Z"/><path d="M265.13,133.56l3.54.88a2.34,2.34,0,0,1,1.49,1.37.67.67,0,0,1-.17.93.75.75,0,0,1-.71,0,4.29,4.29,0,0,0-4.15-.95c-.85.21-1.36-.16-1.35-1.08S264.31,133.45,265.13,133.56Z"/><path d="M105.59,184c.56,3.59-.06,7.25.64,10.84C104.93,191.34,104,187.78,105.59,184Z"/><path d="M265.53,62c0,1.31-.61,1.76-1.62,1.76a29.62,29.62,0,0,1-3.12-.15c-.66-.06-1.62-.09-1.52-1a1.37,1.37,0,0,1,2-1.13A29.38,29.38,0,0,0,265.53,62Z"/><path d="M70.22,414.76c-2.47.5-4.75-.43-7-1.08a.88.88,0,0,1-.68-1.21c.28-.65.84-.49,1.32-.24a11.38,11.38,0,0,0,5.52,1.34C69.9,413.56,70.27,414,70.22,414.76Z"/><path d="M69.06,408.85c-2.54,0-5.11.38-7.62-.31-.55-.15-1.28-.49-1-1.28s1-.49,1.55-.25C64.24,408,66.78,407.65,69.06,408.85Z"/><path d="M225.71,55.66a3.9,3.9,0,0,1,.15-1.33c.38-.84.77-2.24,1.66-2.07,1.36.27,0,1.42.16,2.19a15.29,15.29,0,0,1,0,2.35c0,.6.15,1.38-.68,1.44a1.28,1.28,0,0,1-1.34-1.32C225.68,56.58,225.71,56.22,225.71,55.66Z"/><path d="M261.77,56.54c-.67.06-1.2,0-1.43-.58a1.06,1.06,0,0,1,.72-1.45,9.63,9.63,0,0,1,3.81-.5.86.86,0,0,1,.83.84c0,.53-.34.77-.78.89C263.84,56,262.75,56.29,261.77,56.54Z"/><path d="M76.38,237.89c.08.91,0,1.25-.39,1.34s-.78-.09-.74-.5c.17-2-.94-3.64-1.53-5.42-.2-.63-.29-1.29.46-1.54s.95.48,1.08,1.06C75.68,234.69,76.09,236.55,76.38,237.89Z"/><path d="M352,496.24a9.17,9.17,0,0,1,0-1.05c.05-.45.21-.86.76-.89a.86.86,0,0,1,.86.49c.44,1.11.52,2.33,1.08,3.44.22.44-.41.9-.94,1.07a1.06,1.06,0,0,1-1.33-.52A4.64,4.64,0,0,1,352,496.24Z"/><path d="M61.37,354.83c-1.54-.26-3.08-.52-4.62-.8-.51-.09-1.13-.16-.87-.93.17-.52.55-1.08,1.14-.72a7.32,7.32,0,0,0,4,.77,2.07,2.07,0,0,1,.74.24.91.91,0,0,1,.57,1.05C62.25,355.06,61.81,355,61.37,354.83Z"/><path d="M33.13,29.39c-.14.49-.46.66-.8.49a2.52,2.52,0,0,1-.68-.73c-1.13-1.41-1.66-3.25-3.22-4.36a.75.75,0,0,1,0-1.15.87.87,0,0,1,1.18-.1,2.84,2.84,0,0,1,1,1.16,26.72,26.72,0,0,0,2.33,4.05A1.58,1.58,0,0,1,33.13,29.39Z"/><path d="M347.14,495.86c-.08-.82.16-1.58,1.18-1.57.64,0,.85.73.7,1.19-.44,1.37,1.79,2.43.46,3.77-.63.64-1.34.15-1.69-.54A6.39,6.39,0,0,1,347.14,495.86Z"/><path d="M60.06,369.24c-.58-.06-1.54-.14-2.49-.27-.44-.05-.88-.23-.77-.81.06-.36.32-.72.68-.7,1.81.1,3.62.24,5.42.41.15,0,.36.42.34.61a.86.86,0,0,1-.49.52A6.46,6.46,0,0,1,60.06,369.24Z"/><path d="M60,349.6c-1.45-.35-2.9-.65-4.31-1.05a1.06,1.06,0,0,1-.76-1.62c.48-.9.94-.12,1.46.08a10,10,0,0,0,3.69,1.16c.61,0,1.36.05,1.2.94C61.18,349.82,60.51,349.59,60,349.6Z"/><path d="M64.84,361c-2.28.21-4.46-.4-6.66-.57-.6,0-1.28-.44-1-1.21s.85-.31,1.31-.1c1.39.64,2.89.43,4.35.59C63.67,359.76,64.69,359.54,64.84,361Z"/><path d="M372.94,496.38a3.18,3.18,0,0,1,.5-1.95,1,1,0,0,1,.89-.45c.39,0,.56.33.64.7.14.77.33,1.53.45,2.31s-.15,1.38-1,1.51-1.05-.49-1.25-1.07A6,6,0,0,1,372.94,496.38Z"/><path d="M57.64,318.05a.63.63,0,0,1-.81.49c-1.51-.28-3-.55-4.51-.92a1.08,1.08,0,0,1-.88-1.13c.11-.71.86-.66,1.24-.45,1.33.72,2.9.46,4.21,1.14C57.28,317.37,57.69,317.52,57.64,318.05Z"/><path d="M362.24,516.2c0,.5.06.84.07,1.19,0,.66.26,1.61-.7,1.65s-.69-.9-.76-1.56c-.09-1-.35-2-.47-3.05-.06-.54.15-1.06.8-1.11a.85.85,0,0,1,.94,1A5.55,5.55,0,0,0,362.24,516.2Z"/><path d="M58.28,324.52a12.13,12.13,0,0,1-5.68-1c-.52-.22-.89-.68-.63-1.25s.82-.3,1.31-.12c1.72.63,3.45,1.22,5.18,1.83Z"/><path d="M53.31,327.65c1.47,1.94,3.84.29,5.52,1.94-1.78,1.19-3.46.55-5.08.2C53,329.62,52.74,328.91,53.31,327.65Z"/><path d="M63.63,363.83a8.59,8.59,0,0,1-5.89.21.84.84,0,0,1-.56-1.05.8.8,0,0,1,1.1-.42C60,363.24,61.86,363,63.63,363.83Z"/><path d="M45,51.42c0,1.79-.17,3.63,1.38,5a.58.58,0,0,1-.08.91c-.36.27-.63,0-.86-.27a6.63,6.63,0,0,1-1.89-4.15C43.52,52,43.83,51.37,45,51.42Z"/><path d="M167,10.09c1.84,1.15.86,3,1.59,4.34.22.4-.27.76-.73.89a1,1,0,0,1-1.18-.32,1.74,1.74,0,0,1-.34-1.95C166.93,12.19,166.67,11.2,167,10.09Z"/><path d="M370.12,494.3c.83-.05,1.75,1.08,1.75,2.05a1.39,1.39,0,0,1-1.48,1.5c-1.06,0-1.15-.92-1.18-1.73S369.13,494.49,370.12,494.3Z"/><path d="M358.3,498c-.15.89-.62,1-1.32.74-.07,0-.13-.12-.19-.17-.86-.78-1.3-2.56-.82-3.34.21-.33.59-.53.88-.35C358,495.59,357.86,497,358.3,498Z"/><path d="M68.64,405.26c-2,.52-3.64-.34-5.32-.95a.61.61,0,0,1-.35-.86c.1-.19.49-.43.58-.38,1.45.9,3.25.61,4.71,1.41C68.44,404.57,68.48,404.9,68.64,405.26Z"/><path d="M64.82,453c.88-.34,1.46.24,2.13.6s1.5-.15,2.24-.36a.86.86,0,0,1,1,.6c.28.59-.21.74-.6.92C67.8,455.56,66.47,455.07,64.82,453Z"/><path d="M173.91,10.77c.77.27.9,1.06,1.39,1.54s.94.92.38,1.56-1.27.46-2,.33c-.9-.17-.79-.86-.61-1.42S172.91,11.13,173.91,10.77Z"/><path d="M401.73,441.62c-.68-.18-1.67.15-2.24-.75a.85.85,0,0,1,.05-1c.76-.78,1.65-.17,2.47-.11s1.53.17,1.32,1.17C403.18,441.68,402.53,441.77,401.73,441.62Z"/><path d="M55.17,334.14,60,335.69a.49.49,0,0,1,.37.6c-.06.27-.29.51-.55.43-1.48-.5-3.1-.56-4.43-1.47C55.1,335.05,54.94,334.72,55.17,334.14Z"/><path d="M366,496.06c0-.43,0-.9.44-1.1.65-.28.95.26,1.18.68a5.49,5.49,0,0,1,.48,1.45c.16.69.27,1.48-.72,1.58s-1.15-.58-1.22-1.33C366.15,496.91,366.1,496.49,366,496.06Z"/><path d="M64.9,423.34c1.56.86,3.51.73,5.12,2C67.3,426,65.83,425.42,64.9,423.34Z"/><path d="M363.27,498.12c0,.72-.16,1.29-.84,1.14a1.86,1.86,0,0,1-1.59-2c0-.56,0-1.45.79-1.33C362.86,496.08,362.92,497.32,363.27,498.12Z"/><path d="M51.63,279.72a3.22,3.22,0,0,1-.37-3.34c.49-1.18,1.84.16,2.34-1.45C54,277.47,51.71,277.81,51.63,279.72Z"/><path d="M66.92,397.81c-2.31-.21-3.63-1.39-5.15-2a.64.64,0,0,1-.19-1.07c.29-.26.63-.15.94.06Z"/><path d="M36.69,28.56c-1-1.69-2.9-3.19-1.5-6.06C35.92,24.79,36.14,26.72,36.69,28.56Z"/><path d="M263.25,48.05c.17-.89.6-1.41,1.43-1.39s1.56.07,1.52,1-.77,1.07-1.54,1.07S263.42,48.75,263.25,48.05Z"/><path d="M69.78,420.78c-2.87.34-3.22.09-3.91-3C67,419.32,68.55,419.63,69.78,420.78Z"/><path d="M48.84,303c1.6-.79,2.84.75,4.27.34C51.77,304.51,50.45,304.37,48.84,303Z"/><path d="M53.76,292a3.88,3.88,0,0,1-2.21,2.14.83.83,0,0,1-1.09-.46.73.73,0,0,1,.4-1.08A5.45,5.45,0,0,1,53.76,292Z"/><path d="M56.51,312.24a1,1,0,0,1-1,.31,1.7,1.7,0,0,1-1.6-1.43.51.51,0,0,1,.19-.43c.78-.33,1.28.24,1.82.64A1.2,1.2,0,0,1,56.51,312.24Z"/></g></svg>