<svg xmlns="http://www.w3.org/2000/svg" viewBox="0 0 365.98 548.23"><defs><style>.cls-1,.cls-14{fill:#eff;}.cls-2{fill:gray;opacity:0.46;}.cls-3{fill:#ffffa1;}.cls-4{fill:#ffffdb;}.cls-5{opacity:0.21;}.cls-6{opacity:0.15;}.cls-7{fill:#fff;}.cls-8{fill:#ff7fd3;}.cls-9{fill:#009245;}.cls-10{fill:#ff0;}.cls-11{fill:#006837;}.cls-12{fill:#5c4829;}.cls-13{fill:#c1272d;}.cls-14{opacity:0.66;}</style></defs><title>pinaColada</title><g id="glass"><path class="cls-1" d="M26.56,148.21s4-8.58,7.47-9.89,27.16-6.15,27.16-6.15l31.79-5,16.35-.85,24,.85,23.6,7.23,5.41,11,29.94-8.79s.24,8.52-1.38,8.52-8.89,7.13-15,11.15-34.25,6-34.25,6l-14.31-.38-16.19,8.89s-51.63-6.68-52.4-6.34S26.56,148.21,26.56,148.21Z"/><path class="cls-1" d="M95.46,427.36l8.82-9.81s20.55.49,21.35.58,3.29,8.28,3.29,8.28a76.75,76.75,0,0,0-3.29,18.09c-.49,9.67-1.54,25.83,1.32,33.5s5.52,10.83,5.52,10.83,1.34-.83,8,.67,14.5-1.23,21.66,5,12,14.34,12.5,16.68.84,12.55.84,12.55-5.59,8.34-10.22,11.15-20.85,6.48-23.23,7.32a134.61,134.61,0,0,1-28.2,4.33c-11.69.33-40.19-2.67-40.19-2.67s-15.2-4.32-17.6-5.41-7.89-4.31-7.89-4.31S46,518.88,45.31,516.69s3.5-11.37,3.5-11.37,12.33-9.58,16.75-10.7,21.25-3.79,21.25-3.79l9.79-17.66Z"/><path class="cls-2" d="M134.12,490.52c-1.21,1.73-7.07,3.05-9,3.42a68.7,68.7,0,0,1-13.42,1.18c-4.2-.07-8.41-1.09-12.59-1.5-2-.21-4.23-.91-6.26-.92-2.32,0-4.39.78-6.74.83-.13,0-.09.7,0,.77,4.31,3.52,6.53,5.6,12.23,6.23,4.75.53,9.73,1.54,14.51,1.42a43.94,43.94,0,0,0,14-2.6c4.67-1.74,5.11-3.78,7.45-7.87A1.91,1.91,0,0,0,134.12,490.52Z"/><path class="cls-2" d="M154.46,503.83c-.68-3.14-4.45-4.81-7.07-6.25-.12-.07-.64,3.33,0,3.86,1.23,1.05,3.51,2.25,5,3.69-4,3.38-15,3.63-18.79,4.08-8,.93-16,1.9-24,2.41-7.66.5-15,.76-22.37-1.51-3.38-1-6.9-2-10.19-3.3-2.43-.93-4.46-3.47-7.08-3.68v.31c-.27.53-.56,2.64,0,3.26,2.69,3.17,4.65,6.37,8.55,8.14a59.3,59.3,0,0,0,15,4.61c11.07,1.7,23.52-.83,34.56-2.08,5.05-.57,10.18-1,15.15-2,3.24-.69,8.45-1.64,10.4-4.71C154.81,508.8,154.92,505.89,154.46,503.83Z"/><path class="cls-2" d="M77.09,537c-4.39-3.53-10.06-3.05-15.37-4.34a33,33,0,0,1-6.27-2.1c-1.91-.89-3.72-3-5.83-2.74-.8.09-.34,3.45-.14,3.91,2,4.27,5.89,6.4,10.28,7.77,5,1.55,12.4,3.6,17.31,1.67C77.81,540.83,77.64,537.39,77.09,537Z"/><path class="cls-2" d="M172.52,517c-1.42,1.28-2.28,3.33-3.62,4.77a32.24,32.24,0,0,1-6.8,5.45c-4,2.48-9.41,3.91-12.8,7.09-.55.52-.46,3.33.1,3.83,4.22,3.8,11.14-1.68,15-4.33,5-3.39,8.06-7.75,8.68-13.77C173.14,519.69,173,516.57,172.52,517Z"/><path class="cls-2" d="M160,501.47c-.41-1.06-.66,2.16-.63,2.43,1.05,9.73-8.5,13.17-15.88,15.89a83.59,83.59,0,0,1-11.69,3.61c-4.21.89-8.57,1.09-12.72,2.24-.28.08-.23,1.52,0,1.66,5.74,3.54,12.08,2.49,18.32.88,5.58-1.44,12.25-3,17-6.4C160.34,517.6,162.61,508.18,160,501.47Z"/><path class="cls-2" d="M100.25,525.39c-7.15-3.37-14.75-4.21-22.38-6-5-1.17-20.17-5-13.1-13.51.12-.14,0-.71,0-.69-3.92,4.46-2.15,11.76,1.73,15.67,3.56,3.57,8.73,5,13.47,6.15,6.68,1.62,13.54,3.18,20.44,2.63C101.09,529.61,100.92,525.71,100.25,525.39Z"/><path class="cls-2" d="M113.11,526.68a10.87,10.87,0,0,0-1.71-.79,10.09,10.09,0,0,0-2,.1,32.08,32.08,0,0,0-3.67.14c-.66.1-.59,3.91.1,4.06a18,18,0,0,0,3.67.19,10.71,10.71,0,0,0,1.7,0,6.78,6.78,0,0,0,2-1C113.63,529.12,113.6,526.88,113.11,526.68Z"/><path class="cls-2" d="M122.64,458.06c-.2-.86-.39.54-.38.77.19,4.84,1.21,9.7,1.2,14.53,0,6.56-4.79,9-9.35,12.77-.23.19-.25,1.85.11,1.93C130.64,491.8,124.48,465.85,122.64,458.06Z"/><path class="cls-2" d="M97.68,428.34l-.15-.08-.75.4c-.29.16-.14,1-.09,1.26.66,3.27,2,6.2,2.81,9.44,1.09,4.42.7,9,.24,13.46-.68,6.57-2.37,13-3,19.54,0,.53.46,4.33.75,3.86,2.06-3.37,2.3-8.15,2.89-12a141.37,141.37,0,0,0,1.5-14.09C102.23,443,102.05,434.38,97.68,428.34Z"/></g><g id="liquid"><path class="cls-3" d="M26.56,150.07c5.08,6.65,13.53,25.93,15.93,34.77s5.56,24,4.52,33.33a64.24,64.24,0,0,1-7,22.75c-2.88,5.25-15.13,21.5-18.38,41.25s-4.18,27.28-2.12,39.74,7.84,31.57,18.62,44.76,41.7,34,44.25,36.5,8.5,11.8,9.75,16.4,1.78,8,1.78,8,2.24.34,5-2.4,10.24-6.19,14.74-5.59,13.72,6.49,13.72,6.49-.22,3.16,4-6.49,4.66-18.39,10.81-19.9,19.86-17.16,23.53-21.83,16.72-23.52,18.94-26.67,7-22.16,7.72-31.71,2.8-30.16-.72-37.23-15.32-33.31-15.32-33.31l-6.23-19.75s-.65-20.07,1.91-25.46,2.9-15.74,2.9-15.74l6-18,8.71-25.78s-9.81,11.23-19.9,13.09-30.59,6.11-30.59,6.11-16.59-2.82-20.67-1.16S108,167.88,104,166.52,91.46,164,91.46,164h-21s.69-2.94-3.33-2.91-9.65-3.08-9.65-3.08-6.45,1.13-7.53,0S40,150.71,40,150.71Z"/><path class="cls-4" d="M184.7,148.36c-1.26-.33-1.21,2.73-1.25,3.51-.28,4.81-13.09,8.15-16.58,9.41-6.1,2.18-12.46,3.94-19,3.85-6.94-.1-13.38-2.48-20.37-1.37-6.4,1-12.51,3.63-19.07,3.58-6.77-.05-13.25-2.07-20.09-1.9-6.53.15-12.84.15-19.27-1.19S57,160.34,50.94,158.43a89.55,89.55,0,0,1-19.87-8.82c-.45-.27-1.09,4.12-.17,4.72,6.68,4.37,13.18,9,20,13.2,5.51,3.36,12.17,5.29,18.44,6.61,7.37,1.54,14.51,1.13,22,1.16,7.66,0,15,2.76,22.65,1.5,7-1.14,13.64-4,20.86-3.45,8,.6,14.82,2.43,22.92.67a93.26,93.26,0,0,0,19.73-6.88c5.64-2.67,7.8-6.61,8.16-12.68C185.66,153.57,185.83,148.65,184.7,148.36Z"/><path class="cls-4" d="M135.89,402.67c-3.71.47-6.81,1.43-10.7,1.35q-6.47-.13-12.94-.23c-4.5-.06-9-.33-13.52,0-5.16.37-9.43,1.12-14.11-1.66-.09-.06-.17,0-.22.18l-.09,0c-.13,0-.17.42-.18.8l.14-.12a9.78,9.78,0,0,0,0,1.54c1.53,8.64,17,3.78,22.3,3.14a53.52,53.52,0,0,1,17.38,1.24c4.14.87,9.24,2.06,12.21-1.7C136.5,406.71,136.66,402.57,135.89,402.67Z"/><path class="cls-4" d="M84.13,403.08c-.44.41-.8,1.12.36,2.6a2.76,2.76,0,0,1-.25-1.18,9.06,9.06,0,0,1-.11-1S84.12,403.32,84.13,403.08Z"/><path class="cls-5" d="M90.35,412.42l3.57,15.14s2.73-3.21,9.69-5.55,18.59-.59,18.59-.59l6.29,6.16,5.58-15.16A123.32,123.32,0,0,0,113.83,409C103.2,408.22,92.55,408.67,90.35,412.42Z"/><path class="cls-6" d="M54.29,225.15c-1.15,2-1,16.35-8.81,23.93s-20.84,31.09-21.34,48.34.43,46.55,14.46,61.9,51.15,51.53,46,42.81c-1.93-3.27-16.88-29.79-22.72-48.43-8.78-28-9.95-56.64-7.61-79.59S54.29,225.15,54.29,225.15Z"/></g><g id="straw"><path class="cls-7" d="M15.62,56.92c.15.37-4.6,21.87-4.6,21.87l3.5,9.51S18.27,76.67,19,73.92s1.62-9.44,1.62-9.44Z"/><path class="cls-7" d="M24.14,108.92s4.43-11.75,5-15.25,1.53-8.38,1.53-8.38L38,101.54l-5.88,21.88Z"/><path class="cls-7" d="M43.14,138.54s3.5-3.5,4.38-6.5,1.62-7.53,1.62-7.53,6.38,8.77,7.38,9.9-3.4,8.57-3.4,8.57l-1.5,2.46A26.89,26.89,0,0,1,43.14,138.54Z"/><path class="cls-8" d="M1.89,58.54l11.6-6.37s1,12.22,0,16S11,78,11,78Z"/><path class="cls-8" d="M14.3,87.7s3-7.45,4.08-11.63,2.26-11,2.26-11l10.44,21-6.56,21.78a32.74,32.74,0,0,1-6.14-9.13C16.52,94,14.3,87.7,14.3,87.7Z"/><path class="cls-8" d="M31.77,121.13l5.42-18.71S48.79,121.65,49.53,125s-6.39,14.75-6.39,14.75Z"/><path class="cls-8" d="M52.39,145.44l3.31-12.06,10.57,14S57,149,52.39,145.44Z"/></g><g id="pineapple"><path class="cls-9" d="M225.76,63.57l21.55-33.08s17-4.16,19.76-6.16S285,12.5,285,12.5s1.88,3.5-.22,6-7.1,11.07-7.1,11.07L309,19.5s20-7.52,21.16-8.17,4.17-3.66,8.17-1.5,13.33,8.34,13.33,8.34l7,11.4,3.17,15.1S353.64,35,350.64,32.4s-14.83-7.84-14.83-7.84L283.3,49s-.76,1.54,2,.87,17.22-5.16,21.38-6.16,22.17-2,22.17-2a46.59,46.59,0,0,1-10,4.83c-5.83,2-25,9.37-25,9.37L315.64,60s13.34,1.53,17.09,7.35,6.75,16.87,6.25,17.84-3.66,3.17-6.25,2.41a17.11,17.11,0,0,1-5.42-3.43s5.39.26,7.11-3a7.33,7.33,0,0,0,0-6.46L319.64,68.5l-22-1.15L276.31,72.5l-.83,6.24L289.11,77l-8,17.17s5.8,7.35,8,11.76,9.53,13.74,9.53,13.74-5,8.29-5.5,7.73-13.51,3.24-13.51,3.24l-12.56,1.55,6.19-5.7s6.05.14,9.13-1.67,6.23-6,4.24-8.17-10.32-11.39-10.32-11.39-7.58-7.62-10.7-7.85-15.17,0-15.17,0h-4.31a113.26,113.26,0,0,1,9.51,6.19c3.84,2.9,8.81,6.2,7.65,13.05s-2.81,19.27-6,21.48-8.79,7-11.31,6,5.15-11.08,5.15-11.08v-4.23s4-3.52,4.66-6.6-.44-12-1.55-12.28-7.67-5.9-12.56-5.94-8.23,0-8.23,0l12.66,13.61,1.07,8.55.11,4.61L238,141.5l-4.53-1.13,9.37-14.17-4.16-10s-14.53-5.19-14.87-5.1-4.25-.06-5.21-.06-8.36,4.34-8.36,4.34l-4.42,1.3-3.45-3.81Z"/><path class="cls-10" d="M155,131.43s7.5-16.3,11.66-19.36,26.48-19.71,26.48-19.71l26-23s4.27-5.86,6.66-5.77,11.75-6.74,12.92-5.57,5.74-4.94,5.74-4.94S272.81,51.5,291,43.67c0,0-35.77,27.11-36.72,29.56s-8.13,11.1-8.13,11.1,28.93-22,36.9-23.47a22.64,22.64,0,0,1-7.72,10.47c-5.67,4-43.17,22.35-43.17,22.35S210.7,104,211.7,104s40.11-13.61,45.78-16.49c0,0-33,20.44-52.58,24.44,0,0-2.18-.35-.76,2.08s9.6,7.43,9.6,7.43l2.4,5.9s3.66-.73,4.9,3.79,5.58,13.19,8.09,14.25a34.92,34.92,0,0,0,6.38,1.7l7.64,15.62-14,2.57L208.53,174l-14.22,7.32-4.5-2.5-1.33,5.34s-10.35,11.33-12.59,11.5-.58-10.83-.58-10.83l17-48.19-30.78,8.79s-1.88-7.44-3.38-9.27A43,43,0,0,1,155,131.43Z"/><path class="cls-9" d="M275,46.86c-7.59,6.26-15.17,12.52-22.82,18.7-8.19,6.61-17.64,10.35-26.37,16-.46.29-.22,2.79.06,2.7,19.85-5.85,34.57-23.17,49.19-36.77C275.12,47.39,275,46.82,275,46.86Z"/><path class="cls-9" d="M291.09,28.88a28.2,28.2,0,0,0-6.34,4.26c-3.6,2.07-6.63,5.07-9.88,7.67l-1.14.75a35.15,35.15,0,0,0,2.46-2.85c.17-.21.08-1.89-.1-1.81C268,40.53,260.67,46.15,252.57,50l-1.61.76c-2.25.59-4.5,1.21-6.7,1.95-4.94,1.67-11,3.57-15,7.28-.48.29-1,.6-1.42.92a1.39,1.39,0,0,0,0,.88c0,.18,0,.37.1.39a6.26,6.26,0,0,0,.87.1c-.88.36-1.75.74-2.59,1.16-.21.11-.2,1.34,0,1.36,5.83.46,12.14-1.67,17.66-3.39A98.75,98.75,0,0,0,259.74,55a114,114,0,0,0,12.9-7.57c7.3-4.23,14.29-9.87,18.56-16.54C291.35,30.65,291.32,28.78,291.09,28.88Z"/><path class="cls-10" d="M260.06,39c-5.2,7-12,12-19.45,16.34-3.69,2.13-7.36,4.3-11.08,6.38-3.89,2.17-8.16,4-11.47,7-.47.43-.42,4.39.23,4.3,4.55-.61,9.07-4,13-6.31,3.53-2.09,7-4.25,10.4-6.58a59.14,59.14,0,0,0,10.14-8.31c3.32-3.6,5.57-8,8.32-12C260.26,39.68,260.08,39,260.06,39Z"/><path class="cls-10" d="M249.83,61c-6,3.29-11.24,8.57-16.44,13-5.63,4.78-11.34,9.42-17,14.13-.17.14-.15,1.5.08,1.47,2.71-.27,4.58-2.08,6.69-3.69,3-2.29,6.08-4.48,9.08-6.77C238.34,74.47,245,69.58,250,63.71A4.81,4.81,0,0,0,249.83,61Z"/><path class="cls-10" d="M283.69,54.07a98.26,98.26,0,0,0-27,14.49c-9.86,7.44-20.41,15-29.09,23.84-.39.39.05,2.72.14,2.67,19.47-11.89,34.15-32.65,55.93-40.7C283.76,54.35,283.71,54.06,283.69,54.07Z"/><path class="cls-11" d="M243.64,155.6c-1.78-4.22-3.14-9.61-6.18-13.15a10.09,10.09,0,0,0-4-2.63,12.85,12.85,0,0,1-6.07-4.58c-2.94-4.06-5.2-8.5-8.48-12.35a25.21,25.21,0,0,0-5.77-5.43c-2.11-1.26-4.46-1.93-6.53-3.32-.06,0-.17.66,0,.77,4.26,3.2,7.47,8,11,12a78.29,78.29,0,0,1,6.52,8.56,7.24,7.24,0,0,0,.22,1.74,51.79,51.79,0,0,0,4.22,7c1.66,2.13,4,3.11,6.11,4.78,4.45,3.62,5.19,9.1,8.59,13.25.15.18.26-.48.32-1.27a7.27,7.27,0,0,0,.36-1.29A7.65,7.65,0,0,0,243.64,155.6Z"/><path class="cls-12" d="M237.07,160c-3.31-2.83-7-5.07-10.46-7.67-.25-.65-.66-1.07-1.33-1-.5.05-.54,2.19-.3,3.3l-.4,0c-.61.06-.53,3.72.09,3.75.21,0,.43,0,.66.07-.09.34-.18.68-.29,1l-.17.29c-.3.45-.57.92-.84,1.41a2.82,2.82,0,0,0-.29,1.06c-.15.39-.29.78-.42,1.19a3.46,3.46,0,0,0-.06.47c-.11.22-.21.44-.33.65-.36.72.24,3.21.27,3.16l.23-.38c.06.12.13.18.23.16a11.62,11.62,0,0,0,2.73-1.21c.08.15.18.22.29.09,2.72-3.34,6.77-2.16,10.37-1.28C237.66,165.21,237.68,160.48,237.07,160Z"/><path class="cls-3" d="M224.2,65.88a34.83,34.83,0,0,0-8.31,6.23c-3.13,3.19-5.86,6.7-9.08,9.82-6.5,6.3-14.44,10.8-21.4,16.52a73.2,73.2,0,0,0-6.94,6.81,10.82,10.82,0,0,0-.64-2.33c-2.85,1.73-4.05,4.58-5.2,7.52a43.78,43.78,0,0,0-5.45,3.83c-5.81,5.17-8.44,13.21-9.73,20.65-.14.77-.24,8.95,1,8.48,2.69-1,3.13-3.51,4.14-5.95,1.55-3.76,3.85-6.6,6.43-9.66,2-2.42,3.21-5.58,4.57-8.54a45.77,45.77,0,0,0,5.56-5,66.86,66.86,0,0,1,9-8.14c6.64-5,13.82-9.32,19.41-15.56,6.18-6.88,10.49-15.38,16.8-22.13A4.7,4.7,0,0,0,224.2,65.88Z"/><path class="cls-3" d="M240,165c-.55-4.58-1.41-9.14-3.58-13.26-3-5.66-8.52-7.51-12.76-11.88-4-4.12-6.54-9.67-10-14.24-2.77-3.65-6.95-9.67-11.78-10.37-.31,0-.15,1.64,0,1.82,3.43,4.53,7.78,8.24,11.13,12.89,3.15,4.37,5.65,9.23,8.94,13.48,3.14,4.08,8,5.93,11.42,9.62s4.62,9,6.3,13.77C239.91,167.42,240.07,165.2,240,165Z"/><path class="cls-3" d="M190.62,158.08c-1.85,2.94-2.13,7.23-3.46,10.51-1.64,4-4.2,7.66-5.09,11.92,0,.14,0,1.52.16,1.44,2.81-1.57,4.67-7.06,5.82-10a38.51,38.51,0,0,0,3-12.19C191,159.65,190.81,157.78,190.62,158.08Z"/><path class="cls-3" d="M194.27,162c-.13-2.26.24-8.25-2.13-9.44-.27-.14-.21,2.08-.15,2.28,1.93,6.55,1.57,13.29,1.14,20,0,.26.29,2.36.5,1.24A58.47,58.47,0,0,0,194.27,162Z"/><path class="cls-3" d="M204.94,161c-.22-1.27-.69-1.28-.83,0-.38,3.4.35,6.89-.07,10.27-.16,1.31-1.24,3.27-.44,4.64,1.05,1.76,1.45-.88,1.52-1.36a31.71,31.71,0,0,0,.16-4.47A52.18,52.18,0,0,0,204.94,161Z"/><path class="cls-3" d="M209,151c-.43.43-.22,2.05.07,2.51,1.61,2.62,3.35,4.76,4.28,7.76a53,53,0,0,1,1.73,9.26c.36,2.88,1.11-.22,1.08-1.4C216.12,166.69,213.11,147,209,151Z"/></g><g id="cherry"><path class="cls-13" d="M120,146.42c.37-6.5,1.68-13.29,5.71-16.09s13.61-5.66,17.45-4.16S158,136.09,158,136.09l3.51,11s-1.51,7-3.51,10.53-8.49,4.65-8.49,4.65L139,164l-10.46-3.62-7.72-8.74Z"/><polygon class="cls-7" points="142.39 135.89 147.53 134.41 152.64 136.65 152.64 141.05 147.53 142.6 142.39 138.51 142.39 135.89"/><path class="cls-7" d="M133,129s-.2.85-.07,1.1c1.23,2.35-2.94,6.52-4.49,8.06-2.3,2.31-5.18,3.7-7.68,5.74-.43.36-.45,3.79.21,3.82,4.87.24,9.74-5.09,11.76-9.08C134.36,135.47,134.78,132,133,129Z"/></g><g id="glass_front_rim" data-name="glass front rim"><path class="cls-14" d="M166,147.32c-4.05-.74-9,.94-13.1,1.48s-8.18.94-12.27,1.33c-7.9.77-16.95.28-23.54,5.2-.08.06-.07.54,0,.58,7.38,2.91,16.89.17,24.58-.63,3.78-.39,7.56-.8,11.33-1.31,4.25-.57,9.39-.74,13.06-3C166.61,150.64,166.66,147.44,166,147.32Z"/></g><g id="outline"><path d="M114.69,154.46c.43.06.58.4.69.69.27.69,1.47,1,1.15,1.73a4.33,4.33,0,0,1-2.14,1.7,2.33,2.33,0,0,1-1,.25c-4-.05-8,.49-11.92-1-.88-.33-1.89-.94-2.7.23-.17.24-.44.22-.71.06-1.21-.73-2.47-.38-3.65,0a17.52,17.52,0,0,1-5.91.42c-4-.11-7.72-1.59-11.69-1.35-1,.06-1.78-.65-2.72-.65-5.18,0-10.19-1.1-15.2-2.26-2.73-.63-5.53-1-8.29-1.46a20.49,20.49,0,0,0-4.63,0c1.72,1.74,3.25,3.66,6,3.48,2.14-.13,4.28-.33,6.3.7,1.43.72,2.65,1.78,4.09,2.5a4.19,4.19,0,0,0,1.87.53,33.53,33.53,0,0,1,7.52,1.14c.45.13,1.07.2,1.28.51.84,1.21,1.81.92,2.94.58a9.56,9.56,0,0,1,5.17,0,15.11,15.11,0,0,0,9.58-.38,4.61,4.61,0,0,1,3,.19c1.78.54,3.51,1.27,5.36,1.64a6.89,6.89,0,0,0,2.34.27,5.3,5.3,0,0,1,2.16.35c.55.16,1.33.33,1.22,1.1a1.41,1.41,0,0,1-1.43,1.2c-2.82-.43-5.86.36-8.45-1.23-2-1.22-4-.91-6-.33a10.43,10.43,0,0,1-5.68.12c-2.11-.53-4.33-1-6.52-.15-.32.13-.7.25-1,0-1.08-.92-2.32-.67-3.56-.63a3.62,3.62,0,0,1-1.93-.44,11.22,11.22,0,0,0-4.41-1.21,15.21,15.21,0,0,1-8-2.85,5.79,5.79,0,0,0-4.59-1,9.34,9.34,0,0,1-8.6-2.76,9.86,9.86,0,0,0-5.13-2.56A15.34,15.34,0,0,1,33,150.85a2.51,2.51,0,0,0-1.68-.52c-1.3,0-1.76.53-1.26,1.77,1,2.39,1.44,5,3,7.19a16,16,0,0,1,2.06,5.2,11.46,11.46,0,0,0,1.48,3.72,1.11,1.11,0,0,1-.28,1.74c-.79.46-1.29-.17-1.66-.69A12.26,12.26,0,0,1,33.36,167c-1.35-3.22-3.33-6.12-4.72-9.28-1.47-3.35-3.17-6.78-2.8-10.67.05-.59-.08-1.29.45-1.69,1.7-1.3,2.47-3.3,3.8-4.88s3.28-1.95,5-2.79c.59-.29,1,.3.73,1a2,2,0,0,1-1.15,1,12.27,12.27,0,0,0-3.08,2.22c-1.37,1.39-1.22,1.86.83,2.65,0-3.88,1.52-3.23,3.69-2a4.62,4.62,0,0,0,1.86.66,23.93,23.93,0,0,1,6.35,1.48,15.26,15.26,0,0,0,5.13.63,1.81,1.81,0,0,0,2-1.64,54.68,54.68,0,0,1,2.18-8.55,4.76,4.76,0,0,0-.14-2.56c-.26-1.63.54-2.26,2.08-1.71a1.77,1.77,0,0,1,1.1.83,42.77,42.77,0,0,0,2.74,4.42c1.64,2.78,3.09,5.71,5.44,8a1,1,0,0,1,.13.15,4.59,4.59,0,0,0,2.94,1.77c5.49.76,11,1.29,16.43,2.53,2,.47,4,.79,6.07,1.18a4.57,4.57,0,0,1,1.31.51,1.21,1.21,0,0,1,.5,1.57,1,1,0,0,1-1.36.82,2.11,2.11,0,0,0-.59-.11c-.72,0-1.72-.62-2,.65-.21,1.11.8,2.73,1.73,2.85.77.1,1.52.06,1.55-1,0-.42.08-.86.56-.95s.73.27.89.65c.49,1.15,1.43,1,2.38.89s.32-1.54,1.32-1.49c.71,0,.89,1,1.66,1a2.65,2.65,0,0,0,2.18-2c0-.43-.36-.51-.66-.63-.75-.29-1.51-.55-2.24-.88a.91.91,0,0,1-.65-.92c0-.46.41-.66.83-.74,2.3-.43,4.58-1.09,6.94-.83a25.37,25.37,0,0,0,3.79.17,10.63,10.63,0,0,1,4.16.4c1.47.55,2.9-.19,4.35-.18,1,0,1-.9,1-1.67,0-1-.23-2-.3-3-.22-2.78.65-5.41.85-8.12.14-1.88,1.55-2.91,2.74-4a22.28,22.28,0,0,0,2.52-2.79,10.31,10.31,0,0,1,5.71-3.68,52.07,52.07,0,0,1,8.8-1.52,24.59,24.59,0,0,1,8.69.9,9.7,9.7,0,0,1,3.2,1.63,8.24,8.24,0,0,0,1,.69c1.93,1,2.26.9,3.23-1a23.91,23.91,0,0,1,3.54-4.8,33.85,33.85,0,0,0,4.33-6.23,18.54,18.54,0,0,1,4-5.22c1.91-1.68,4.18-2.88,5.9-4.8.74-.83,2-1,2.93-1.64a57.24,57.24,0,0,0,7-6c1.51-1.46,3.43-2,5.19-2.92.42-.21.91-.24,1.07-.78.44-1.46,1.66-2,2.93-2.52a11.46,11.46,0,0,0,3.27-2.24c2.56-2.15,4.53-5,7.31-6.81a48.21,48.21,0,0,0,9.83-8.91c1.23-1.44,2.9-2.56,3.44-4.59a2.56,2.56,0,0,1,1.76-1.54c2.34-.74,3.88-2.47,5.24-4.4a3.09,3.09,0,0,1,.33-.5c3.68-3.34,6.07-7.79,9.62-11.25A15.13,15.13,0,0,0,234,49q4.44-7,8.9-14a3.24,3.24,0,0,0,.4-.69c.86-2.92,3.14-4.64,5.47-6.19a14.39,14.39,0,0,1,4.8-1.92,11.73,11.73,0,0,0,4-1.34,4.37,4.37,0,0,1,2.33-.55,10.41,10.41,0,0,0,5.27-1.72c1.57-.93,3.45-1,5.07-1.79a6,6,0,0,0,1.85-1.14,21.39,21.39,0,0,1,7.2-4.94,29.25,29.25,0,0,0,10-7.92,24,24,0,0,0,3.24-5.52,1.72,1.72,0,0,1,2.3-1,2.15,2.15,0,0,1,1.33,2.43,3.39,3.39,0,0,1-.25.76,4.05,4.05,0,0,1-.51,1.09c-2.2,2.43-2.81,5.78-4.74,8.33-2.16,2.87-3.94,6-6.5,8.61A41.14,41.14,0,0,0,280.54,26c-.43.57-.37,1,.49,1a12.7,12.7,0,0,0,5-1.27,7.24,7.24,0,0,1,2.63-.84,17.6,17.6,0,0,0,5.93-1.75A43.52,43.52,0,0,1,302,20.6a47.19,47.19,0,0,0,7.65-2.94c2.14-1,4.55-1.07,6.7-2.06,3.36-1.55,7.06-2.32,10.21-4.41a6.75,6.75,0,0,1,3.35-1.29c1.42-.06,2.31-1.22,3.62-1.62,3.68-1.11,6.91-.09,9.89,1.86,1.79,1.17,3.54,2.38,5.35,3.51A11.89,11.89,0,0,1,354,19.24a21.26,21.26,0,0,0,2.79,4.39,13.64,13.64,0,0,1,2.64,6,12.15,12.15,0,0,0,1.45,4.13,13.05,13.05,0,0,1,1.73,5.91c0,.8.08,1.6.2,2.4.09.64-.05,1.34.43,1.92s1.12.28,1.68.41a1.25,1.25,0,0,1,.66,2.14A18.89,18.89,0,0,0,364,48.34a1.36,1.36,0,0,1-2.23.11,6.7,6.7,0,0,1-1.58-2.54c-1.29-3-3.51-5.33-5.79-7.59a13.1,13.1,0,0,0-3.59-2.85A3.72,3.72,0,0,1,349.45,34c-.54-.76-.7-1.48.42-1.89.92-.33,1.27-.89.88-1.86-.95-2.35-1.87-4.71-2.8-7.07-.2-.5-.55-.78-1.09-.58s-.52.74-.36,1.19a9.79,9.79,0,0,0,1.57,3.23c.52.61,1.28,1.21.47,2a2.17,2.17,0,0,1-2.56.57,4.73,4.73,0,0,1-.71-.36c-3.55-2.37-7.59-2.38-11.57-2.07a15.09,15.09,0,0,0-5.42,1.87,33.55,33.55,0,0,1-7.37,3.09c-2.92.7-5.38,2.22-8.12,3.19a5.86,5.86,0,0,0-1.74.94,3.76,3.76,0,0,1-1.56.9c-3.47.75-6.09,3.18-9.16,4.71a40.58,40.58,0,0,0-5.25,2.48c-.27.19-.59.31-.84.51a.62.62,0,0,0-.24.71c.12.31.4.33.67.26a21.54,21.54,0,0,0,4.8-1.34c3-1.63,6.38-2,9.66-2.55,4.74-.77,9.54-1.32,14.33-1.63,3.29-.21,6.66-.49,9.88.87,1.2.51,2.66.24,3.85,1,.31.19.67,0,.94-.2a2.41,2.41,0,0,1,1.93-.21c.75.1,1.37.42,1.38,1.18s-.63,1-1.24,1.08a3.59,3.59,0,0,0-1.48.58,3,3,0,0,1-3,.34,5.09,5.09,0,0,0-4.62.35,5.42,5.42,0,0,1-3.73.39,6.76,6.76,0,0,0-3.88.59,44,44,0,0,1-10.07,3.22c-2.39.34-4.4,1.88-6.65,2.72-1.87.69-3.56,1.85-5.6,2.13-.53.07-1.11.37-1,1s.74.46,1.17.53c4.4.78,8.79,1.57,13.24,2.1a32.71,32.71,0,0,1,13.05,4.23c2.7,1.61,5.5,3.08,7.45,5.61s4.07,5,4.09,8.61a31.42,31.42,0,0,0,.92,8.35,2.51,2.51,0,0,1-2.16,3c-1.24.28-2.49.5-3.74.71-3.61.62-6.31-1.23-8.81-3.42-.94-.82-.5-1.93.74-2.2a4.4,4.4,0,0,1,1.2-.11,4.49,4.49,0,0,0,3.54-1,11.44,11.44,0,0,0,3-4c.42-1-.29-1.4-1-1.65a13.34,13.34,0,0,0-4-1.13,5.62,5.62,0,0,1-3.76-1.65c-2.1-1.93-4.69-2.46-7.3-2.92a40.13,40.13,0,0,0-5.6-.41,7.4,7.4,0,0,1-1.76-.33,10.84,10.84,0,0,0-4.15-.57c-2.21.19-4.41-.17-6.62-.16-3.12,0-6.08.87-9.11,1.29-3.34.46-6.31,2.14-9.68,2.44a3.65,3.65,0,0,0-3.21,3.12c-.1.68,0,1,.82.93a45.4,45.4,0,0,0,8-.94c.38-.1.79-.13,1.18-.21a2.65,2.65,0,0,1,2.85,1,2.27,2.27,0,0,1-.46,2.78,8.5,8.5,0,0,0-1.85,4.11c-.09.57-.51,1.09-.25,1.73a.72.72,0,0,1-.25.89c-2,1.34-2.5,3.71-3.93,5.44a2.38,2.38,0,0,0,0,3.44c.41.43.65,1,1.05,1.47a32.42,32.42,0,0,1,6.06,9.55,7.4,7.4,0,0,0,2.34,3.44,5,5,0,0,1,1.49,2.35,18.23,18.23,0,0,0,3.41,5.16,10.37,10.37,0,0,1,.83,1.14c1.43,2.34,1.31,3.08-.27,5.31-1.16,1.62-3,2.76-3.54,4.81-.18.63-.8.63-1.34.65a33,33,0,0,0-11.65,2.77c-2.4,1-5,.47-7.49,1-1,.19-2.08-.14-3,.36-3.46,2-7.38,1.57-11.09,2.24a2.2,2.2,0,0,0-1.85,1.79c-.57,2-1.85,3-3.54,4-3.41,2.16-7.09,3.76-10.58,5.73a1.8,1.8,0,0,1-2.49-.36c-.74-.79-.09-1.47.42-2.1a29.44,29.44,0,0,0,5.5-10.7,1.75,1.75,0,0,0-1.9.8c-2,2.29-4,4.64-6,7a2.28,2.28,0,0,0-.38,2c.4,2.52,2.21,4.23,3.39,6.29a17.23,17.23,0,0,0,1.75,2.2,7.29,7.29,0,0,1,1.86,4.73,7,7,0,0,0,1.16,4.17,2.58,2.58,0,0,1-.13,3,1.91,1.91,0,0,1-2.46.69c-2.61-.74-5,.22-7.43.91a3.54,3.54,0,0,1-1.33.26,17,17,0,0,0-10,2.23,27.59,27.59,0,0,1-5,2,29.75,29.75,0,0,0-7,2.88c-2.23,1.4-4.81,1.95-7.23,2.87a33,33,0,0,0-6.3,3.5c-2,1.32-4.28,2.15-6.12,3.75-.9.78-2,.22-3-.44-1.4-1-1.71-1-2,.52-.64,3.32-2.92,5.22-5.4,7.09-2.29,1.73-4.47,3.6-6.7,5.41-.25.21-.48.54-.77.62-2,.53-2.56,2.06-3,3.83-.8,3-1.62,6.06-2.21,9.14a13.44,13.44,0,0,0-.31,4c.12,1.05-.23,1.54-1.26,1.53-.68,0-1.54-.09-1.45.86s-.69,2.15.72,2.84a3.37,3.37,0,0,1,1.72,2.53c.55,2.38.21,4.81.63,7.2.54,3,1.3,6,2.08,8.95,1.17,4.43,3.26,8.46,5,12.64.87,2.1,2.24,3.95,3.06,6.09.45,1.17,1,2.31,1.42,3.52a27.45,27.45,0,0,0,3.1,6.23,15,15,0,0,1,2.24,5.92,25.79,25.79,0,0,0,2,6.69c.08.18.27.34.29.52.48,3.58,1.74,7,2.47,10.51.14.68,0,1.46-.82,1.6s-1.27-.24-1.51-1.17a89.14,89.14,0,0,0-2.69-9.43c-2.58-6.93-4.66-14.08-8.12-20.64-1.36-2.6-2.77-5.16-4-7.81-1.86-3.92-3.94-7.74-5.1-12-.57-2-1.6-3.92-2.06-6,.21,2.35-.41,4.7.49,7a19.56,19.56,0,0,1,.81,3.5,82.08,82.08,0,0,0,3.44,10.83,38.91,38.91,0,0,1,1.82,6.33,6,6,0,0,0,.41,1.75c2.26,4.31,2.3,9.34,4.47,13.68.16.31.37.85-.2,1s-.63-.37-.75-.77c-.7-2.5-1.86-4.85-2.46-7.39a19,19,0,0,0-1.59-4.11,39.85,39.85,0,0,1-2.76-9.14,2.13,2.13,0,0,0-.12-.58c-1.38-2.33-1.86-5-2.9-7.44a9.49,9.49,0,0,1-.75-2.07c-1-6.05-2.29-12.08-2.37-18.24a79.28,79.28,0,0,1,.83-14.75,63,63,0,0,0,.45-7.17,59.8,59.8,0,0,1,.9-6.56,54.24,54.24,0,0,1,3.5-11,84.24,84.24,0,0,0,3.58-10.83,37.51,37.51,0,0,1,4.1-9.53,23.75,23.75,0,0,0,2.12-5.83,8.24,8.24,0,0,1,.71-2.08c1.49-2.59,1.93-5.54,2.89-8.31.07-.19.1-.38-.21-.76-1.73,1.92-4.67,1.9-6.28,4.16a5.21,5.21,0,0,1-2.51,1.61,26.46,26.46,0,0,0-5.67,2.86,8.33,8.33,0,0,1-4.2,1.19,5.35,5.35,0,0,0-3,1,2.66,2.66,0,0,1-2.8.35c-1.32-.51-2.72.28-4.09.41a30,30,0,0,1-5,.29,36,36,0,0,0-10.13,1.09c-1.55.34-3.19.21-4.69.85a.55.55,0,0,1-.4,0c-2.33-1-4.86-.62-7.26-1.07a11.39,11.39,0,0,0-5.16-.19c-1.46.39-2.92-.16-4.4,0-1.19.11-2.38.2-3.57.37a3,3,0,0,0-1.61.68,15.16,15.16,0,0,1-5.23,2.47,4.25,4.25,0,0,1-1.58.2,1.34,1.34,0,0,1-1-.86c-.24-.56.18-.87.55-1.16a3,3,0,0,1,.69-.41c3.08-1.23,6-2.89,9.3-3.55a15.54,15.54,0,0,1,4.19-.23,12.21,12.21,0,0,0,1.81.1c.67-.05,1.58.2,1.78-.79.11-.54-1.29-1.75-2-1.75s-1.2.19-1.79.16c-1.5-.1-2-.91-1.38-2.27.34-.74.2-1.62.77-2.25a1.1,1.1,0,0,1,.34-.18c.73.11.53,1.08,1.16,1.26a.93.93,0,0,0,.57,0c.21-.09.19-.31.12-.51a4.7,4.7,0,0,0-3.41-2.35c-2.66-.1-5.32.43-8,.08-1.06-.14-1.44.38-1.2,1.47a2.88,2.88,0,0,0,2.45,2.06,1,1,0,0,0,1-.57C114.14,155.32,114.24,154.76,114.69,154.46ZM295.94,40.06c.33-.12.69-.27,1.05-.38a37.58,37.58,0,0,0,6.28-3.06c2.86-1.53,5.88-2.72,8.73-4.28a20.6,20.6,0,0,1,6.05-2.63c2.49-.45,4.58-1.81,6.86-2.73,3-1.19,5.88-2.64,8.93-3.57,2.05-.63,4.14-1,5.89-2.34a4.11,4.11,0,0,1,1.69-.55c2-.41,3.93-.82,5.84-1.41,1.37-.42,1.57-1.72.33-2.35-2.25-1.14-4.38-2.5-6.56-3.74s-4.52-.2-6.45-1.63c-.29-.22-.73.18-1.08.38a9,9,0,0,1-3.73,1.39,10,10,0,0,0-4.77,2A25,25,0,0,1,315.4,19a38.54,38.54,0,0,0-8,2.87,33.24,33.24,0,0,1-5.18,2.06,44,44,0,0,0-7.61,2.31c-2.73,1.17-5.73,1.37-8.47,2.48A18.85,18.85,0,0,1,282,30.29a16.15,16.15,0,0,0-4.86,1.8,78.77,78.77,0,0,1-13.56,5.38,6,6,0,0,0-1.43.72,11.69,11.69,0,0,0-4.93,6.13c-.49,1.3-1.37,1.33-2.2.25a2.16,2.16,0,0,1-.33-2.07,11,11,0,0,1,3.71-5.61c2.86-2.24,3.52-5.79,5.54-8.5.29-.39.21-1-.53-.93-1.68.27-3.49-.18-5,1.06a5.86,5.86,0,0,1-2.85.87,29.1,29.1,0,0,0-3,.54c-2.47.63-4.72,1.54-5.38,4.42a3.17,3.17,0,0,1-.74,1.18,10.51,10.51,0,0,0-2,3.92,7.6,7.6,0,0,1-1.39,2.87,59,59,0,0,0-5.45,8.11,40.72,40.72,0,0,1-6.37,7.68c-1.26,1.3-1.77,3-3.22,4.64a5.76,5.76,0,0,0,3.14-1.33A18.72,18.72,0,0,1,237,57.83a8,8,0,0,0,5.22-5.11,5.28,5.28,0,0,1,.27-.53,42.35,42.35,0,0,1,4.37-6.7c.16-.21.36-.43.66-.27a.57.57,0,0,1,.27.68,2.2,2.2,0,0,1-.25.54q-1.16,1.88-2.33,3.74a5.53,5.53,0,0,0-1.13,3.1c1.66-1.1,3.4-1.73,3.18-4a1.25,1.25,0,0,1,.29-.73,30.79,30.79,0,0,0,3.63-8c.14-.41.12-1,1-.76-.27,2.53-1.59,4.85-1.72,7.53,1-.48,1.1-1.33,1.33-2.08.29-1,.49-1.95.81-2.9a62.87,62.87,0,0,1,3-6.79c.18-.37.41-.81.87-.55s.22.69.07,1.07a15.46,15.46,0,0,1-.63,1.69c-1.82,3.28-1.54,7.36-4.21,10.36-1.42,1.59-2.7,3.29-4.28,4.75C245,55.06,242,56.52,240.57,60c-.86-1.43-1.91-1.07-3-.57a9.1,9.1,0,0,0-1.4.78c-2.55,1.87-5.38,3.25-8.06,4.87-1.16.7-2.47.75-3.57,1.58a97.94,97.94,0,0,0-10.52,9.73,91,91,0,0,1-8.94,7.74,64.6,64.6,0,0,0-8.69,8c-1.86,2.07-3.85,3.93-6.87,4-.27,0-.61,0-.71.28-.85,2-2.93,2.68-4.39,4-4.85,4.48-10,8.61-15.15,12.76-.87.7-1.95,1.2-2.5,2.28a23.31,23.31,0,0,1-3.3,4.54,2.76,2.76,0,0,0-.75,1.16c-.25,1.87-1.54,3.08-2.62,4.42-.93,1.15-1.9,2.23-1.87,3.88a3.23,3.23,0,0,1-.92,2.18,1.19,1.19,0,0,0,0,1.77,16.47,16.47,0,0,0,1.36,2,10.31,10.31,0,0,1,2.53,4.72c.19.64.45,1.26.63,1.9s.49.71,1.16.71a24.76,24.76,0,0,0,9.81-2.15c3.82-1.62,7.86-2.38,11.82-3.45a14.74,14.74,0,0,0,2.42-.9c1.79-.81,3.39-2.13,5.56-2,1.68.11,3.34,1.79,3,3.47-.5,2.75-.56,5.59-1.47,8.28-.17.51-.35,1.21.11,1.51,1.51,1,.89,2.41.68,3.64-.37,2.11-.94,4.18-1.4,6.27-1.28,5.78-3.83,11.11-6.15,16.49-.59,1.36-1,2.77-1.48,4.13-.17.45-.28.95.37,1.13s1,.3,1.41-.54a2.34,2.34,0,0,1,3.69-.66,7.21,7.21,0,0,1,1,1,1.89,1.89,0,0,0,2.64.55c2.59-1.38,5.25-2.65,7.83-4.05a26.54,26.54,0,0,1,4.83-2.33,27.65,27.65,0,0,0,4.61-1.94c2.18-1.15,4.38-2.29,6.66-3.22a2.65,2.65,0,0,0,1.82-2.08,67.47,67.47,0,0,1,2.18-7.69c.72-1.93,1-3.68,0-5.56a1.65,1.65,0,0,1,.18-2.05,1.89,1.89,0,0,1,2-.46,15,15,0,0,1,3.27,1.47c2.57,1.4,5.2,2.72,6.69,5.51a27.58,27.58,0,0,0,2.6,3.55c.24.31.59.55.82.87.54.76,1.19.51,1.76.17s.44-.93.22-1.45c-1.47-3.42-2.91-6.86-4.45-10.26-1-2.24-2-2.73-4.5-2.59a4.17,4.17,0,0,1-3-1c-.47-.37-.7-1-1.38-1.22l-1,1.16a.61.61,0,0,1-.87.19.61.61,0,0,1-.19-.72c.12-.45.28-.89.39-1.35a3,3,0,0,0-.74-2.85c-.66.11-.64.59-.79.94-.45,1.11-.89,2.24-1.34,3.35-.22.54-.62,1-1.21.78-.78-.3-.32-.87-.06-1.3.95-1.55.78-3.55,2-5a1.18,1.18,0,0,0,.05-1.17,24.07,24.07,0,0,0-2.52-5.86c-1.09-1.53-1.92-3.27-3.73-4.33a4.76,4.76,0,0,1-2.45-2.79,6.49,6.49,0,0,0-2.85-3.94c-.95-.74-1.54-2-3-2-.23-1.52-1.87-1.79-2.59-2.9-.44-.68-1.18-1.65-1.71,0a.57.57,0,0,1-.58.46c-.39,0-.56-.33-.71-.62a.88.88,0,0,1,.16-1.11c1-1,.15-1.69-.39-2.4s-1.31-.34-2,0a5.89,5.89,0,0,0-1.89,1.09c-1.92,2-4.53,3.2-6.46,5.51a1.65,1.65,0,0,1,.61-1.27,60.12,60.12,0,0,1,6-5.57,13.24,13.24,0,0,1,7.51-3.55,30.11,30.11,0,0,0,9.14-2c3.42-1.38,7.24-1.27,10.63-2.84,2.9-1.34,6-2.19,8.64-4.14a8.31,8.31,0,0,1,2.4-1.43c2.8-.92,5.5-2.06,8.2-3.23a35.94,35.94,0,0,0,6.81-3.78c.54-.39,1.13-.62.4-1.52a1.17,1.17,0,0,1,.85-2c1.73-.24,3.4-.73,5.1-1.06,1.4-.27,3,.07,3.72-1.65.06-.14.35-.17.52-.28a27.85,27.85,0,0,0,3-1.9c1.34-1.06,2.77-2.07,3.2-3.93a2.51,2.51,0,0,1,2-1.78A2.77,2.77,0,0,0,273.58,77c.2-.38.82-.71.36-1.19a.91.91,0,0,0-1.29.06c-.93,1-2.22,1.2-3.3,1.84-2,1.16-3.88,2.35-5.88,3.43-1,.53-2,1.51-3.26.4a1,1,0,0,0-1.31.14c-2.21,1.67-5,2.1-7.32,3.66-1,.67-2.32,1.28-3.32.17s-1.79-.73-2.73-.06-1.9,1.26-2.82,1.92a52.49,52.49,0,0,1-10.57,6.33c-3.53,1.48-7.27,2.19-10.83,3.51-3,1.13-6.27,1.28-9.46,1.62a2.49,2.49,0,0,1-2.06-.29c.4-.9,1.14-.71,1.77-.76A36.64,36.64,0,0,0,222.3,95.5a26.17,26.17,0,0,1,3.26-1,49.88,49.88,0,0,0,9.74-4.1c3.18-1.57,5.91-3.86,8.95-5.67a46.21,46.21,0,0,0,8.46-6.33,43.87,43.87,0,0,1,8.11-6.15c4.8-2.77,9.77-5.24,14.7-7.77a4,4,0,0,1,2.76-.71c-.07.68-.27,1.14-.75,1.28-1.37.41-2.4,1.46-3.68,2-2.65,1.12-5,2.77-7.65,3.93a44.46,44.46,0,0,0-11.57,7.9c-.25.22-.52.43-.75.67s-.66.59-.29,1,.63.14.93,0a29.41,29.41,0,0,1,2.66-1.4,47.78,47.78,0,0,0,11-6c1.92-1.43,4.17-2.37,6-4a21.94,21.94,0,0,1,3-2.3c1.09-.69,2.25,0,3.19-.63.13-1-1.37-1.2-1-2.3s1.45-.89,2-1.59a1.53,1.53,0,0,1,.31-.26c2.35-1.94,4.56-4.05,7.45-5.29,2.65-1.13,4.74-3.2,7.8-3.85,3.48-.74,6.72-2.55,10.12-3.75,2.39-.84,4.5-2.44,7.09-2.72a28,28,0,0,0,5.21-1.4c.5-.15,1.62-.19,1.32-1.13-.24-.71-1-.27-1.61-.18a27.39,27.39,0,0,1-3,.42c-3.75.19-7.46.73-11.16,1.27a8.61,8.61,0,0,0-2.53.62,27,27,0,0,1-7.24,2.17,9.09,9.09,0,0,0-3.05,1,16,16,0,0,1-6.48,2.58,1.66,1.66,0,0,0-.92.36c-1.94,1.73-4.41,2.79-6.05,4.89-.31.41-.8,1.06-1.29.65-1.44-1.22-2.65-.26-3.61.48a52.68,52.68,0,0,0-8.09,7.2c-2.66,3.13-6,5.48-9,8.3-.57.54-1.28.88-2,.28-1-.84-1.61-.38-2.38.37a29.36,29.36,0,0,1-4.62,3.81c-2.54,1.64-5.29,2.86-7.88,4.37a23,23,0,0,1-4.66,2.3c-.37.11-.77.46-1.05,0s.13-.75.41-1a2.5,2.5,0,0,1,.64-.48c2.39-1.18,4.58-2.7,7-3.88s5.2-2.26,7.31-4.17c1.91-1.74,3.86-3.48,5.67-5.31,3-3.1,5.94-6.35,9.09-9.35a162.13,162.13,0,0,1,13.53-11.29,21.35,21.35,0,0,1,7.27-3.72,7.28,7.28,0,0,0,2.45-.8c2.66-2.07,5.93-3.27,8.24-5.83a.46.46,0,0,1,.38-.16C296.42,39.32,295.6,39.49,295.94,40.06ZM253.54,100a32.59,32.59,0,0,0,2.93,2.16,25.92,25.92,0,0,1,6.18,5.35,4.82,4.82,0,0,1,1.23,3.29c.06,6.55,0,13.09-2.35,19.36a1,1,0,0,0,.2,1.31c2.58-1,5.55-1.31,7.63-3.7a4.76,4.76,0,0,1,2.94-2,45.44,45.44,0,0,1,4.77-.52c2.28,0,4.24-1,6.25-1.83.23-.11.58-.31.6-.49.24-1.8,1.3-3.47.58-5.43-1.47-4-4.5-6.77-7.57-9.33-1.88-1.56-3.75-3.19-5.72-4.66-3.37-2.52-6.83-4.62-11.31-4.18a50.29,50.29,0,0,1-5.21,0C254.3,99.35,253.87,99.27,253.54,100Zm17.88,30c.26.12.39.24.5.22,4-.47,8.14-.31,11.94-2a9.43,9.43,0,0,1,1.93-.49c3.73-.89,7.37-1.93,9.32-5.72a1.9,1.9,0,0,1,.22-.33c1-1.37,1-1.83-.12-3.1a15.22,15.22,0,0,1-2.39-3.45,22,22,0,0,0-3.62-4.74,12.64,12.64,0,0,1-3.31-7.1,4.79,4.79,0,0,0-.95-2.37c-.51-.69-1.1-1.34-1.63-2a54.38,54.38,0,0,1-3.19-4.59c-1.6-2.57-4.49-3.67-7.21-4.17-5-.94-10.1.21-15.13.91a1,1,0,0,0-.82.52c-.37.91-1.23,1.16-1.95,1.63-1.41.9-2.8,1.81-4.2,2.73-.24.15-.43.35-.36.65s.36.33.64.32l9.41-.48a15,15,0,0,1,11.06,3.71,61.84,61.84,0,0,0,6.87,5.51,6.36,6.36,0,0,1,2,1.6,14,14,0,0,0,3.31,3.44,5.73,5.73,0,0,1,2,2.47,9.55,9.55,0,0,0,1.26,2.28c2.07,2.61,1.24,5.42.65,8.22a.94.94,0,0,1-.36.46c-2.31,1.72-4.55,3.54-7.6,3.8-2.07.18-4.13.43-6.19.66A2,2,0,0,0,271.42,130Zm-118,3.83a20.22,20.22,0,0,0,.26,4.17c.27,1.64.52,3.41-1.09,4.57-2.94,2.1-6.94,2.35-9.13-1.48a7.06,7.06,0,0,0-1.49-1.87c-1.65-1.45-1.66-2.47-.47-4.32.69-1.07,1.8-1.32,2.76-1.87.55-.32,1.11-.57.73-1.35-1-2.09-2.72-3.85-4.77-4.18s-4.71-1-5.73,2c-.93,0-.53-1.26-1.29-1.16a7.13,7.13,0,0,0-2.89.72,31.42,31.42,0,0,0-7,6.2,7.37,7.37,0,0,0-1.64,3.59c-.23,1.18-.34,2.38-.63,3.55a9.08,9.08,0,0,0,.17,4.74c.62,2.2,1.23,2.65,3.45,2.08a37.31,37.31,0,0,1,7.14-.62c2-.11,4.13-.09,6.17-.33a95.25,95.25,0,0,0,10.58-2c1.5-.35,3-.63,4.51-1,2-.44,2.34-.86,2.31-2.83,0-1.53-.12-3.06-.2-4.59,0-.36-.05-.7.42-.75a.74.74,0,0,1,.79.49,5.79,5.79,0,0,1,.18,2.38,8.46,8.46,0,0,0,.53,4.1c2.23-1.37,2.23-1.37,1.33-3.48a1.86,1.86,0,0,1-.1-.39C157.76,137.43,155.79,135.75,153.43,133.79Zm87.37-7.57c-1-2.11-1.18-4.66-2.6-6.75a3,3,0,0,0-1.5-1.28,13.16,13.16,0,0,1-1.72-1c-1.73-.86-3.06-2.54-5-2.87-2.41-.42-4.61-1.9-7.19-1.44a1.6,1.6,0,0,1-1.13-.32c-1.06-.89-2-.38-2.94.16a23.87,23.87,0,0,1-3.23,2c-1,.4-.78.83-.09,1.39,1.62,1.29,3.42,2.46,4.4,4.33,1.15,2.18,2.67,4.13,3.77,6.33a57.43,57.43,0,0,0,7.49,11.49c.94,1.11,2,1.26,3.06.25a12.49,12.49,0,0,0,2.27-2.78c.85-1.58,1.76-3.14,2.72-4.65S240.26,128,240.8,126.22Zm93.62-52.47c-.5-3-1.32-3.3-4.3-6.15-3.62-3.45-8.23-5-13.06-5.95-2.69-.54-5.43-.73-8.1-1.2-3.89-.69-7.84-.88-11.7-1.68a3.71,3.71,0,0,0-3.1.4,1.67,1.67,0,0,1-1.54.23c-1.75-.55-2.69.72-3.85,1.58a3.65,3.65,0,0,0,3,0,18.74,18.74,0,0,1,3.7-.85c.45-.06,1-.3,1.33.13.58.75,1.32.5,2,.43.86-.08,1.73,0,2.58,0,1.73-.09,3.24.85,4.93.77.4,0,.93.07.91.56,0,.67-.64.53-1.09.51a2,2,0,0,1-.6-.1,16,16,0,0,0-8.12-.24,1.84,1.84,0,0,1-1.47-.19c-1.19-.72-2-.47-3.28.71.79.71,2.07-.73,2.83.66l-6.55,1.45c-.43.1-1.11,0-1.12.6s.7.69,1.2.81c.26.07.54,0,.8.07,1.83.35,3.57-.35,5.36-.42,1,0,1.72-.13,1.68-1.38,0-.49.34-1.08.87-.7,1.24.88,2.41.37,3.64.1a11.4,11.4,0,0,1,4.72.14c-2.88.85-6,.52-8.57,2.49a53.4,53.4,0,0,0,8.38.26c1.32-.13,2.64-.36,4-.39,2.53-.07,5,.58,7.5.78a7.54,7.54,0,0,1,3.67.92c2.18,1.48,4.75,2.13,7,3.44C330,72.7,332.28,72.85,334.42,73.75ZM248.66,132c.93-.33,1.41-.74,1.09-1.66a2.68,2.68,0,0,1,.49-2.66c.75-.8,1.12-1.84,1.86-2.58,2.73-2.71,2.16-6.12,2-9.38-.09-2-.24-4.16-2.13-5.57-.13-.1-.14-.37-.2-.56a1.3,1.3,0,0,0-.85-.8c-3.81-1.41-7.56-3.1-11.77-2.86-.39,0-.86-.13-1.07.31s.29.79.57,1.14c1.41,1.68,3,3.21,4.26,5a25.16,25.16,0,0,0,5.68,6.14,3.22,3.22,0,0,1,1.6,3.49,12.35,12.35,0,0,0-.23,1.79,3.24,3.24,0,0,1-1.42,3.11,1.62,1.62,0,0,0-.5,2.17A6.73,6.73,0,0,1,248.66,132ZM154.2,154.75c-2-.23-4,.51-5.95.66-6.2.48-12.26,2-18.46,2.59a1,1,0,0,0-.39.09c-.3.15-.6.31-.59.72a.67.67,0,0,0,.46.59c1,.42,2,1.24,3.11,1.35,1.4.14,2.82.05,3.77,1.41.13.18.63.12.95.14a6.61,6.61,0,0,0,2.77-.37,28.14,28.14,0,0,1,9.87-1.4,7.4,7.4,0,0,0,5.38-2.12c.82-.78,1.63-1.57,2.38-2.42.29-.33.61-.84.35-1.28s-.83-.27-1.27-.14A5.64,5.64,0,0,1,154.2,154.75Zm24.54,30.41c.46,1.64,0,2.83.06,4,0,.51.16,1,.76,1a1.12,1.12,0,0,0,1.2-.87,1.92,1.92,0,0,0,0-.79c-.28-1.51-.55-3-.88-4.52-.15-.64-.33-1.28.47-1.48,1-.25,1.08.55,1.16,1.22s.13,1.6.21,2.4a2.86,2.86,0,0,0,.61,2c1.89-1.22,1.94-1.32,1.55-2.65-.42,0-.39.71-1,.56a14.54,14.54,0,0,0,.9-5.46c0-.34,0-.75.28-.92.83-.47.79-1.34,1.05-2.07a67.46,67.46,0,0,1,2.49-6.77,59.47,59.47,0,0,0,4-11.93,9,9,0,0,0,.49-4,22.72,22.72,0,0,0-1.68,3.57c-1,2.75-1.75,5.63-3,8.26-1.82,3.78-4.37,7.19-5.22,11.41-.08.39-.44.87-.85.66-1.37-.7-1.35.41-1.65,1.16s-.51,1.36-.78,2a50.6,50.6,0,0,0-2.81,9.17c-.12.57-.51,1.56.41,1.7s1.07-.81,1.15-1.56c0-.2,0-.41,0-.6C178,189,177.92,187.2,178.74,185.16Zm4.78-36.75c-.59-.2-.93.2-1.32.4-2,1-4,1.89-6.33,1.41a3.63,3.63,0,0,0-2.35.26c-2.26,1.29-4.78,1.35-7.2,1.48-3.25.18-4.19,2.69-5.62,4.76a.68.68,0,0,0,.61,1.12c1.54,0,3,.5,4.58.42a12.14,12.14,0,0,0,5.8-2c1.36-.86,3.07-1,4.24-2.19a19.25,19.25,0,0,1,5.52-3.92A3.66,3.66,0,0,0,183.52,148.41ZM78.27,151.35c.67,1.08,1.2,2.08,1.87,3a2,2,0,0,0,1.94.81c.94-.21.27-1,.32-1.5,0-.13,0-.29,0-.39.75-1.41-.21-1.57-1.24-2-3.09-1.32-6.43-.93-9.63-1.52s-6.47,0-9.71.22a18.81,18.81,0,0,1-4.8-.1,25.77,25.77,0,0,1-4.51-.92.63.63,0,0,0-.86.24.75.75,0,0,0,.12.76c.21.33.39.78.83.81,1.06.07,2.08.71,3.14.35.66-.23,1.06.06,1.63.23,1.23.35,2.6,1.25,3.79.58.74-.43.94-.64,1.47.08a2.7,2.7,0,0,0,2.17.85c.81,0,.42-1,.75-1.44.15-.22.3-.45.62-.4s.33.36.4.6a9.88,9.88,0,0,0,.4,1.34c.22.46.47,1,1.13,1s.77-.61.88-1.14.11-1.06.7-1.27c.51.25.43.7.43,1.07,0,1.07.56,1.35,1.51,1.41s1.74,0,1.71-1.27a.7.7,0,0,1,.7-.8c.34,0,.41.31.45.57a2.63,2.63,0,0,0,2.57,2.13c.67.11,1.11-.22.77-.93A1.64,1.64,0,0,1,78.27,151.35Zm171.88-14.42c-.8,1.29-1.64,2.62-2.43,4-.22.37-.66.84-.21,1.26s1,.16,1.49-.11a7.75,7.75,0,0,1,2.28-1.23,5.09,5.09,0,0,0,3.22-2.5c.54-.77,1-1.59,1.51-2.37a9.35,9.35,0,0,0,1.5-7.06,29.66,29.66,0,0,0-.65-2.94,2,2,0,0,1,.66-2.35c1.56-1.1,1.5-2.54,1.08-4.11a2.25,2.25,0,0,1,.49-2.42c.59-.56.41-1.16.26-1.84-.58-2.8-2-5.42-2-8.36a.87.87,0,0,0-.25-.53c-.22-.26-.5-.5-.86-.31a.59.59,0,0,0-.23.7,16.47,16.47,0,0,0,.52,1.73c.23.63.55,1.22.79,1.85a.64.64,0,0,1-.44.94.61.61,0,0,1-.75-.5c-.43-1.81-1.81-3.28-1.87-5.25a1.72,1.72,0,0,0-.88-1.7c-.38-.16-1.11-.45-1.07.3.09,1.51-.3,3.25.88,4.42a21.14,21.14,0,0,1,3.1,4.37c1.75,2.88,1,6,.87,9,0,.86-.6,1.92-.63,2.87-.14,4.15-1.63,8-2.26,12.08a1.94,1.94,0,0,1-3.16,1.44C250.65,137.91,251,137.13,250.15,136.93Zm-6.85,23.85a3.25,3.25,0,0,0,.45-2.74,10.28,10.28,0,0,0-2.56-5.56,19.33,19.33,0,0,1-3.95-6.45c-.77-2.05-1.89-3.31-4.19-3.33-1.7,0-2.7-1-3.68-2.38-1.85-2.5-3.92-4.83-5.91-7.23l-.37.23c1.31,3.17,2.25,6.45,4.53,9.28,1.5,1.86,2.84,3,5.36,3.11,1.7.07,3.87.35,4.44,2.71.84,3.47,3.1,6.36,4,9.81A3.85,3.85,0,0,0,243.3,160.78Zm-60.92-15.25c-.16-.84-1.28-.8-1.18-1.64.16-1.48-.91-1.42-1.67-1.11-1.39.56-2.92.53-4.23,1.07a39.63,39.63,0,0,1-10.5,2.35c-1.36.17-2.31.37-2.19,2.08.07,1.06-1,1.1-1.72,1.31s-.92-.36-1.09-1-.35-1.16-1.07-.84a1.24,1.24,0,0,0-.66,1.52c.12.42.52.69.5,1.25-.06,1.24.09,1.28,1.2.93.77-.23,1.21-1.15,2.13-1s1.49,0,1.29-1.24c-.11-.66.36-1,1-.39.37.35.59,1,1.24.89,1.43-.29,3.19,0,3.83-1.91.26-.78,1-.94,1.29-.22.45.95.93.74,1.58.4a2.38,2.38,0,0,0,1.44-1.29c.37-1,1-1,1.58-.21s1.18.65,2.06.61C179.07,147.07,180.58,146.09,182.38,145.53Zm57.17-32a.77.77,0,0,0-.2,1c.6,2.19,1.78,4.16,2.49,6.31A9.88,9.88,0,0,0,244,124.6c.66.71.55,1.29.25,2.15a35.14,35.14,0,0,1-6,10.11,3.41,3.41,0,0,0-.65,3.24,18.81,18.81,0,0,0,7.22-7.13,8.58,8.58,0,0,0,.83-7.12c-.32-1.22-.79-2.59-.25-3.75.75-1.59-.36-2.34-1.06-3.33a.55.55,0,0,0-.7-.24c-.37.17-.39.5-.32.85A5.48,5.48,0,0,0,244,121c.24.4.54.94,0,1.2s-.65-.36-.79-.71c-.7-1.81-1.4-3.62-2-5.45A5.94,5.94,0,0,0,239.55,113.51ZM283,16.06a5.9,5.9,0,0,0-3.3,3.76c-.71,1.73-1.4,3.47-2.1,5.21-.11.26-.26.53-.55.5s-.53-.35-.56-.71c-.11-1.44.68-2.56,1.36-3.7a3.5,3.5,0,0,0,.81-2.22,4.58,4.58,0,0,0-3.58,3c-.4,1-.89,1.94-1.34,2.91-.84,1.77-1.47,3.64-2.26,5.68,2.66-.17,4.79-.92,6-2.89s2.54-4.24,3.86-6.33A11,11,0,0,0,283,16.06ZM157.8,151.63a2.7,2.7,0,0,1-1.1-2.39c.14-1-.49-1-1.24-1-3.08.26-6,1.32-9,1.92a3.86,3.86,0,0,0-1.27.55.76.76,0,0,0-.17,1.33,2.71,2.71,0,0,0,2.27,1c.94-.12,2,0,1.5-1.53a.74.74,0,0,1,.46-1c.48-.15.7.24.85.63.45,1.19,1.2,1.72,2.48,1.13.44-.2.92,0,1.38,0A8.28,8.28,0,0,0,157.8,151.63Zm114.9-69a4.55,4.55,0,0,0-2.95.72c-1.14.8-2.26,1.65-3.36,2.5-.33.26-1,.37-.72,1s.8.36,1.24.41c2.19.26,4.41-.06,6.6.33.47.08,1,.07,1.2-.46.29-.86,1-1.41,1.37-2.2.47-1,.22-1.68-.89-2A23.28,23.28,0,0,0,272.7,82.59ZM58.89,146.69l.71-.06c1.71-.12,2-.47,1.1-1.89-1.08-1.75-2.33-3.39-3.53-5.06-.31-.45-.75-.65-1.08,0a24.59,24.59,0,0,0-2.19,4.88c-.22.8-.07,1.25.77,1.48A35.4,35.4,0,0,0,58.89,146.69Zm162.62-16.05c.27-.82.09-1.1-.1-1.38a73.92,73.92,0,0,1-4-6.47,6.49,6.49,0,0,0-.85-1.57A22.93,22.93,0,0,0,211,117a3,3,0,0,0-.92-.34.74.74,0,0,0-.82.44c-.19.44.13.61.46.69,1.3.29,2,1.32,2.73,2.24a7.61,7.61,0,0,0,1.84,1.83,4.17,4.17,0,0,1,1.94,2.9,3.73,3.73,0,0,0,.68,1.62C218.16,128,220.15,128.82,221.51,130.64Zm60.75-49.83c.19-.76.25-1.27-.38-1.39s-1,.33-1.16.88a2,2,0,0,0,.09,1.17c.22,1,.44,2.09.64,3.13a.69.69,0,0,1-.27.71.43.43,0,0,1-.69-.09c-.64-1.25-1.16-.6-1.71.07-.43.51-.88,1-1.31,1.51-.88,1.08-.82,1.69.39,2.4a17,17,0,0,1,2.34,1.52c.65.56,1.13.14,1.42-.45a5.51,5.51,0,0,0,.22-1.17C282.43,86.27,281.74,83.36,282.26,80.81ZM128.65,152a6.82,6.82,0,0,0-2.77.18c-.42.18-.88.38-.87,1s.32.68.68.9a5.14,5.14,0,0,0,6.25-.36c.4-.3.76-.34,1.06,0,.93.95,2,.35,3,.33s1.06-.53,1-1.33c-.07-1-.71-1-1.4-1A40.46,40.46,0,0,0,128.65,152Zm227-117a7.94,7.94,0,0,0-1.17-3.61,13.17,13.17,0,0,1-1.4-4.14c-.17-1.43-1.77-2.39-1.11-4.11.27-.69-.83-1.47-1.61-1.33a.93.93,0,0,0-.8,1.33c1,2.37,1.29,5,2.62,7.27.2.34.53.7.19,1.08-.77.89-.14,1.28.52,1.7C353.73,33.72,354.55,34.27,355.66,35Zm-164,111.91c-1.95,3-2,6.27-3.19,9.19s-2.31,6.11-3.44,9.18c-1.07,2.92-2.94,5.53-3.32,8.73,1.46-2.36,2.56-4.89,3.83-7.32s1.83-5,2.79-7.46C189.8,155.39,191.43,151.56,191.66,146.91Zm-43.79-6.11c1.77.12,3.33-1.12,2.37-3a6.43,6.43,0,0,1-.37-1.15c-.25-.85-.71-1.57-1.68-1.31-1.32.36-2.75.57-3.64,1.82,0,.05,0,.13,0,.2A4,4,0,0,0,147.87,140.8Zm91.24-38.16c2.52,1.56,5.68.64,8.09,2.42-.22-1.33-.61-2.45-.88-3.59-.21-.89-.65-1.27-1.55-1.06A17.24,17.24,0,0,0,239.11,102.64Zm28-70.24a4.35,4.35,0,0,0,2.42-1c.41-.24.93-.43.9-1-.09-1.95,1.19-3.35,1.92-5,.38-.87,1.16-1.63,1.05-2.86a4.4,4.4,0,0,0-2.8,2.27c-.81,1.46-1.71,2.88-2.4,4.4A9.44,9.44,0,0,0,267.07,32.4Zm1.89-7c-1.36-.2-2.06.16-2.53,1.16a16.55,16.55,0,0,1-1.25,2A29.22,29.22,0,0,0,263,32.44c-.16.37-.33.87.08,1.08a3,3,0,0,0,2.68-.19,1,1,0,0,0,.52-1.5,2.12,2.12,0,0,1,.29-2.24C267.35,28.28,268.09,27,269,25.43ZM281.11,49c-3.24.22-4.58,3.08-6.86,4.6a4.65,4.65,0,0,0-2,2.31c2.22,0,3.52-1.69,5.3-2.3C279.52,52.9,279.85,50.48,281.11,49Zm-49.67,56.3c-.78,0-1.15.73-.8,1.81.47,1.45,1.1,2.85,1.49,4.32a3.76,3.76,0,0,0,2.17,2.43c.29.16.59.41.9.1s.09-.6,0-.9c-1-2.24-2.28-4.36-2.51-6.89C232.59,105.52,232,105.37,231.44,105.26Zm-1.07,6.21a11.59,11.59,0,0,0-1-4c-.5-1.39-1-1.46-2.84-.74-1.5.59-.45,1.06-.06,1.67a2,2,0,0,1,.18,1.16c0,1.12.62,1.56,1.56,1.72A5,5,0,0,0,230.37,111.47Zm57.49-43.59c-.38-.64-.81-.46-1.19-.49a22.2,22.2,0,0,0-6.33.78c-.77.14-1.76-.56-2.23.68-.3.82-1.46,1.1-1.63,2.48C280.27,69.61,284.14,69.24,287.86,67.88ZM48.44,149.94h.74c.35,0,.69-.07.77-.47a.7.7,0,0,0-.57-.9c-2.52-.53-5.05-1-7.58-1.53a.68.68,0,0,0-.72.2c-.22.34,0,.63.24.88.76.89,2.3,1.34,4.17,1.24a.44.44,0,0,1,.3.18C46.4,150.39,47.23,150,48.44,149.94Zm58.05,2.75a6,6,0,0,0-3.5-.76c-.65,0-1.37.06-1.56.91s.53,2.35,1.28,2.4c1,0,1.88.57,3,.56A3.5,3.5,0,0,1,106.49,152.69Zm108.92-41.24a1.71,1.71,0,0,0-1.69-.37,37.31,37.31,0,0,1-4.95.69,6.32,6.32,0,0,0-2.48.72c-.46.24-1.17.27-1.22.89a1.65,1.65,0,0,0,1.27,1.71c.26-1.33,1.14-1.49,2.29-1.75C210.85,112.85,213.21,112.71,215.41,111.45ZM186.08,141a13,13,0,0,0-1.76.34c-.68.23-1.54.34-1.9,1-.49.88.86.83,1,1.48,0,.07.06.13.07.19.12.93.71.95,1.45.79a3.55,3.55,0,0,0,2.21-3.13C187,141.06,186.63,140.9,186.08,141ZM335.91,80.2a9.89,9.89,0,0,1-1.86,3.18c-.49.66-1.66,1.31-1.22,2.08s1.52,0,2.32-.14a5.19,5.19,0,0,0,1-.18,1.26,1.26,0,0,0,.95-.94A3.94,3.94,0,0,0,335.91,80.2Zm-102.13,82c-.63-2-1.24-3.71-1.75-5.49a2.81,2.81,0,0,0-1.25-1.48c-.41-.29-.83-.84-1.37-.37s-.25,1,0,1.48c.88,1.63,1.79,3.25,2.75,4.84A1.81,1.81,0,0,0,233.78,162.21ZM283.41,86c.61.13.75-.13.87-.34,1.07-1.93,1.08-4.24,2.26-6.14.25-.4-.06-.75-.57-.79s-1.25,0-1.55.66A11.51,11.51,0,0,0,283.41,86Zm70.86-59.71c1.35,3.46,1.62,7.26,3.52,10.54.47-2.51-.74-4.74-1.24-7A4.73,4.73,0,0,0,354.27,26.31ZM248.18,101.13a10.46,10.46,0,0,0,1.86,5.44.64.64,0,0,0,.85.31c.26-.12.27-.41.26-.68a10.07,10.07,0,0,0-1-4A2,2,0,0,0,248.18,101.13ZM83.63,152.78a3.76,3.76,0,0,0,.52,1.66,2.91,2.91,0,0,0,2.23,1.13c.94,0,.82-1.08,1.09-1.69.36-.84,0-1.42-.94-1.53-.72-.09-1.44-.21-2.16-.29C83.88,152,83.62,152.24,83.63,152.78Zm155.05-36.61c-1.07-2.87-1.4-6.08-3.78-8.35A19.52,19.52,0,0,0,238.68,116.17Zm-97.8,35a7.47,7.47,0,0,0-1.44.13c-.47.1-1.22.09-1.24.75a1.22,1.22,0,0,0,1.16,1.18,25.32,25.32,0,0,0,3.37-.13c.41,0,.46-.39.45-.75C143.15,151.26,142.79,151,140.88,151.15Zm10.31-16.74a.54.54,0,0,0,.65-.39,3.12,3.12,0,0,0-.89-3.21c-.6-.42-1.36-1-2-.55-.81.54,0,1.33.18,1.94A3.58,3.58,0,0,0,151.19,134.41ZM228,157.79c0-1.09-.09-1.87-.12-2.65a2.32,2.32,0,0,0-2.2-2.54c-.36-.06-.67,0-.83.34a.68.68,0,0,0,.21.9C226.59,154.58,226.67,156.37,228,157.79Zm-121-4.54c.25,1,.06,2,.85,2.7a1.16,1.16,0,0,0,1.1.33c.52-.16.44-.6.35-1a8.87,8.87,0,0,1-.11-1.78c0-.92-.8-1-1.44-1S106.87,152.78,107,153.25Zm119.34,5.54a4.43,4.43,0,0,0,.85,3A9.59,9.59,0,0,0,229,163.6a.7.7,0,0,0,.92-.12c.29-.32.08-.65-.16-.86A37.43,37.43,0,0,1,226.3,158.79Zm-33-18c-.12-.62.34-1.57-.57-1.69-.68-.09-1.12.72-1.35,1.33a5,5,0,0,0-.17,1.77.92.92,0,0,0,.88.94.87.87,0,0,0,1-.77A14.25,14.25,0,0,0,193.34,140.79Zm-46.42-8.36.45-.18c.28-1.06-.27-2.06-.42-3.07-.11-.75-1.1-.84-1.79-.94-.43-.07-.53.41-.35.72C145.48,130.13,146.21,131.28,146.92,132.43Zm76.86,30.33a6.36,6.36,0,0,0-1,3,.58.58,0,0,0,.52.71c.77.15,1.81-.78,1.61-1.55A3.51,3.51,0,0,0,223.78,162.76ZM345.89,25.85a2.23,2.23,0,0,0-.41-2.05c-.21-.36-.5-.66-1-.47a1.53,1.53,0,0,0-.94,1c-.15.52.27.72.63.87C344.73,25.41,345.15,25.93,345.89,25.85ZM185.64,180.44a9.35,9.35,0,0,0,.26,4.4C187,183.27,186.92,182.11,185.64,180.44Zm31.52-71.13c1.3,1.19,2.35.49,3.38.21.27-.07.51-.24.5-.54,0-.46-.43-.46-.74-.48A6.12,6.12,0,0,0,217.16,109.31Zm35,22.88a.92.92,0,0,0,.57-.54c.16-.36.33-.72.47-1.1s.25-.81-.18-1.06-.6.16-.87.34C250.69,130.8,250.69,130.83,252.18,132.19Zm33.08-68.82a6.39,6.39,0,0,0,3.85-.2C287.8,63,286.47,62.26,285.26,63.37Zm-248.07,83a6.92,6.92,0,0,0,2,1.55.49.49,0,0,0,.71-.07.65.65,0,0,0,0-.9A2.54,2.54,0,0,0,37.19,146.39ZM235.68,163c.5,0,.69-.15.67-.34a2.47,2.47,0,0,0-1.1-1.78c-.16-.11-.4,0-.48.22a1.29,1.29,0,0,0,.18,1.32A1.64,1.64,0,0,0,235.68,163ZM260,109.31c-.48,2.12-.46,2.25.61,3.53C260.25,111.63,260.57,110.5,260,109.31ZM29.33,146.55a.89.89,0,0,0,0,1c.26.41.59.73,1.13.57a.65.65,0,0,0,.38-.38c.08-.5-.4-.6-.68-.85S29.8,146.39,29.33,146.55Zm248.31-66c0,.34.22.47.48.54a.63.63,0,0,0,.87-.56.47.47,0,0,0-.4-.59A1,1,0,0,0,277.64,80.56Zm-17.17,39.22c.28-.67.39-.9.47-1.14s.27-.89-.24-1c-.7-.11-.61.49-.55.94A10.39,10.39,0,0,0,260.47,119.78Zm-1.52,5c-.59.84-.59.84-.07,1.67A1.66,1.66,0,0,0,259,124.82ZM170,202.57c-.34,1-.53,1.58.22,2.28C170.75,204,170.43,203.47,170,202.57ZM281.71,65.73c0,.3.13.41.34.42a.54.54,0,0,0,.6-.39c.08-.31-.12-.48-.42-.45A.56.56,0,0,0,281.71,65.73ZM181.12,176.07c-.45.32-.72.66-.51,1.22a.35.35,0,0,0,.32,0A.86.86,0,0,0,181.12,176.07Zm11.72-23.56a1.32,1.32,0,0,0,.19-1.29A1.17,1.17,0,0,0,192.84,152.51Z"/><path d="M190.58,308.6a14,14,0,0,0,.23-4.18c.06-2.21,0-4.42,0-6.62,0-.77-.19-1.71,1-1.83,1-.1,1.57.46,1.85,1.65.43,1.78.1,3.6.24,5.4s.36,3.7.48,5.56c.4,6.24-.59,12.38-1.68,18.49A98.44,98.44,0,0,1,190,339a69.6,69.6,0,0,1-5,13.1c-2.16,4-4.25,8-6.74,11.8-1.28,1.93-2.86,3.67-4.31,5.48a13.85,13.85,0,0,0-1.5,2.36c-1.09,2.1-2.92,3.62-4.32,5.48a64.68,64.68,0,0,1-8.35,9.43c-3.15,2.81-6,6-8.84,9-3.28,3.43-7,6.43-10,10-2.85,3.4-5.53,7-7,11.35-.94,2.84-2.46,5.49-3.07,8.45a44.83,44.83,0,0,1-2.13,7.48c-.66,1.68-.48,3.68-.74,5.53-.39,2.82-.42,5.7-1.29,8.45a1.86,1.86,0,0,0,0,.78c.33,2.27,0,4.55,0,6.8s-.34,4.78.19,7.15a15.59,15.59,0,0,1,.12,4.58,18.45,18.45,0,0,0,.76,6.29,24.43,24.43,0,0,1,.45,3.17,20.6,20.6,0,0,0,2.4,8.14c1,1.66,2,3.26,3,4.9.4.65.84,1,1.43.44,2.55-2.26,5.37-1.64,8.15-.75a17.29,17.29,0,0,0,4.14.58c5.53.39,10.91,1.37,15.75,4.24a31.88,31.88,0,0,1,8.75,7.86c1.21,1.53,1.65,3.48,2.44,5.25a15.48,15.48,0,0,0,1.84,3.74c.13.15.35.38.31.49-.69,1.81.68,3.44.38,5.24-.39,2.3,0,4.67-.38,7a1.25,1.25,0,0,0,.44,1.26,2.1,2.1,0,0,1,.7,1.39c.23,1.57.11,1.74-1.44,1.43a1.4,1.4,0,0,0-1.42.43c-2.37,2.34-4.76,4.65-7.16,7a3.64,3.64,0,0,1-1.69,1,6,6,0,0,0-2.38,1.45,3.05,3.05,0,0,1-1.78.86,12.64,12.64,0,0,0-7.32,2.81,2.06,2.06,0,0,1-1.83.6,1.85,1.85,0,0,0-1.5.41,2.88,2.88,0,0,1-2,.66,1.94,1.94,0,0,0-1.33.38,7.1,7.1,0,0,1-3.65,1.09c-1.49.11-3,.69-4.63.94-4.08.64-8.24,1-12.13,2.57a2.34,2.34,0,0,1-1,.15c-3-.2-6,.69-8.92.71-3.12,0-6.23.5-9.38.26-3.52-.27-7.08-.14-10.62-.06-1.15,0-2.24-.25-3.39-.21-3.07.12-6.15.15-9-1.41a1.31,1.31,0,0,0-.78-.13c-3.6.53-7-1-10.5-1.16-1.35-.08-1.87-1.26-2.22-2.32-.56-1.64-.95-3.34-1.36-5a2.6,2.6,0,0,0-2.7-2.09c-.42,0-.63.27-.61.63a7.89,7.89,0,0,0,.62,3.72c.33.57,1,1.13.34,1.76a2.34,2.34,0,0,1-2.38.67c-1.87-.82-3.88-.85-5.81-1.25a6.64,6.64,0,0,1-2.07-.74c-1.84-1.06-3.51-2.46-5.7-2.84a1.93,1.93,0,0,1-1.2-1,6.59,6.59,0,0,0-2.47-2.58,1.22,1.22,0,0,1-.72-1.32c.25-1.74-.46-3.3-1-4.86a35.71,35.71,0,0,1-2-8.15,4.93,4.93,0,0,0-1.19-2.5c-1.14-1.39-1-2.07.75-2.41.72-.14.74-.5.9-1,.55-1.87.38-3.83.76-5.73a7,7,0,0,1,1.73-3.32,55.66,55.66,0,0,1,5.41-5.34,16.22,16.22,0,0,1,3.51-1.9c1.92-.95,3.9-1.76,5.73-2.9,2.31-1.44,5.09-1.58,7.53-2.62a32.18,32.18,0,0,1,8-1.85A18.51,18.51,0,0,0,83.94,488a2.4,2.4,0,0,1,1.29-.5c1.72.28,2.31-.92,3-2.07,1.35-2.15,2.55-4.39,3.74-6.63a4.68,4.68,0,0,1,1-1.51c.61-.51,1.17-.48,1.37.32.39,1.48.73,3-.11,4.47A18.2,18.2,0,0,0,93,484.82c-.48,1.33-.2,1.66,1.17,1.79,1.95.19,3.86.68,5.84.71a3.2,3.2,0,0,1,1.14.35,1.09,1.09,0,0,1,.75,1.09,1.19,1.19,0,0,1-1,1.11,13.25,13.25,0,0,1-8.46-.33c-.6-.23-1.19-1-1.78-.68a3,3,0,0,0-1.49,2.05c-.5,2.86-2.54,4.32-4.76,5.7a4.7,4.7,0,0,0-1.18,1.09,22.49,22.49,0,0,1-5.5,4.6c-1,.62-1,1,0,1.82A13.19,13.19,0,0,0,82.19,507a1.08,1.08,0,0,1-1.54.32A10.44,10.44,0,0,1,78,505.58,20.91,20.91,0,0,0,75.89,504a.71.71,0,0,0-1.07.11c-.22.33.09.58.3.85a6.33,6.33,0,0,0,2.32,1.85c.36.17.74.46.57.93a1.2,1.2,0,0,1-1.17.92c-2.45.07-5.67-2.5-6.16-4.94A2,2,0,0,1,72,501.19c1.06-.28,1.9-1,3-1.24a5.77,5.77,0,0,0,2.51-1.58c1.57-1.44,2.57-3.38,4.27-4.77-1.32,0-2.55.41-3.83.38-3.64-.09-6.78,1.75-10.15,2.69-4.55,1.26-8.51,3.85-12.75,5.82-1.67.77-2.55,2.51-3.85,3.75-1.83,1.77-2.58,4.15-3.13,6.56a6.31,6.31,0,0,1-.9,2c-.3.48-1.33.47-1,1.27s.25,1.71,1,2.14A3.88,3.88,0,0,1,49,521.87a1.23,1.23,0,0,0,.77,1.2c.38-.62.12-1.27.06-1.89,0-.4-.19-.79-.2-1.18,0-.83.39-1.55,1.22-1.56s1,.88.81,1.5c-.4,1.78.19,3.46.34,5.19.09,1.07.71,1.62,1.92,1.79a10.52,10.52,0,0,0-1.06-3.09c-.12-.35-.16-.7.15-.9a.67.67,0,0,1,1,.3,11.37,11.37,0,0,1,1.24,3.17c.1.45.14.93.28,1.37s.45,1.08,1.11.93.35-.76.35-1.19,0-.94-.06-1.4,0-1,.66-1,.79.44.83.95c.07.73.06,1.47.15,2.2a2.92,2.92,0,0,0,2.27,2.52c.9.18,1.23-.16,1-1,0-.13-.13-.24-.16-.37-.1-.62-.53-1.49.43-1.65s.95.74,1.09,1.4c.05.26.1.53.16.79a3.06,3.06,0,0,0,3.87,2.41.83.83,0,0,0,.73-1c-.07-.39-.2-.78-.26-1.17-.11-.64.15-1.09.81-1.13s.7.49.7,1a1.41,1.41,0,0,0,0,.2c.18,2.78.25,2.87,2.82,3.75,1.32.45,1.53.34,1.6-1a3.78,3.78,0,0,1,.25-1.57.89.89,0,0,1,1-.59c.55.11.47.59.4,1-.19,1.16-.34,2.3.79,3.09a6.11,6.11,0,0,0,4.19.86c.43,0,.47-.37.45-.74a4.83,4.83,0,0,0-.64-1.88.82.82,0,0,1,.53-1.27c.62-.21.8.29.93.76.25.91.81,1.86.67,2.7-.25,1.44.65,1.31,1.43,1.44,1.92.32,2,.23,1.87-1.61,0-.27-.09-.53-.09-.8a.69.69,0,0,1,.73-.76.62.62,0,0,1,.71.55c.06.26,0,.53.1.8.4,2.13,1.73,3,3.78,2.4.38-.1.6-.31.51-.71a1.27,1.27,0,0,1,.22-1.31c.37-.37.84-.65,1,.1s.21,1.83,1.23,2.12a12.16,12.16,0,0,0,4.38.11c.55,0,.52-.68.71-1.09.42-.91.88-1,1.39-.12a4.7,4.7,0,0,0,2.26,2.07c1.15.5,1.06,1.49-.05,2.12a2.91,2.91,0,0,1-1.88.57c-4-.55-8-.06-12-.46a46.83,46.83,0,0,1-9.1-1.28c-1.9-.58-3.88-.94-5.74-1.68a3.62,3.62,0,0,0-2.07,0c.19,1.34.36,2.65.55,4a.73.73,0,0,0,.82.7c2.37-.1,4.55,1,6.89,1.1.13,0,.26.07.39.08,3,.18,5.93.22,8.71,1.51.69.32,1.45-.17,2.18-.14a32.59,32.59,0,0,1,5.39.29,10.69,10.69,0,0,0,4,.08c2.73-.51,5.47-.1,8.19-.07,1.45,0,2.86.34,4.31-.16s2.8,0,4.2,0c2.8,0,5.5-.94,8.31-.76,1.16.08,2.12-.64,3.22-.88,4-.86,8.08-.93,12-1.93,2.13-.54,4.38-.71,6.41-1.9,1.27-.73,3-.65,4.59-.8,1.07-.1,1.85-.52,1.93-1.54s0-2.13,0-3.19-.61-1.22-1.46-.93a12,12,0,0,0-1.09.52,91,91,0,0,1-13.9,4.44c-3.61,1-7.35,1.35-10.89,2.56a6.16,6.16,0,0,1-2.8.16,72.92,72.92,0,0,0-9.23-.26,7.2,7.2,0,0,1-4-1,5.43,5.43,0,0,1-1.06-.91,1.16,1.16,0,0,1-.28-1.3c.2-.41.64-.44,1-.42s.65.17,1-.09a3.21,3.21,0,0,0,.09-.5c0-.51-.24-1.2.51-1.3.57-.07.63.58.82,1,.78,1.69.81,1.74,2.5,1.26a3.59,3.59,0,0,1,1.57-.24c2.44.4,4.93-.3,7.37.31a2,2,0,0,0,1.18,0c2.25-1,4.71-1,7.06-1.46,3.72-.81,7.33-2,11-3a51.22,51.22,0,0,0,7.9-3.2c2.55-1.12,5.24-2,7.87-2.91,2.46-.89,4.4-2.5,6.57-3.8,3.36-2,4.64-5.54,6.17-8.8a5.85,5.85,0,0,0-.37-6c-.94-1.47-1.52-3.24-2.35-4.84-1.68-3.26-4.56-5.18-7.54-7-3.69-2.23-7.88-2.84-12.05-3.36-3-.39-6.17-.22-9-1.61a1.87,1.87,0,0,0-.79-.11c-.35,0-.7.08-.79.46s.17.47.41.62c3.07,1.93,5.61,4.53,8.5,6.69,1.4,1,2.44,2.46,3.84,3.52.45.34,1.13,1,.5,1.69a1.65,1.65,0,0,1-2.31.53,11.77,11.77,0,0,1-2.84-2.52c-.26-.31-.42-.75-.74-.94-2.73-1.67-4.79-4.27-7.79-5.57-.29-.12-.48-.41-.88-.21-1.57.76-2,.76-2.82-.35a5.07,5.07,0,0,0-2.33-2,1.17,1.17,0,0,1-.67-1.91c.39-.57,0-1.16-.43-1.62a12.45,12.45,0,0,1-2.72-3.19c-.25-.56-.76-.42-1.21-.16-5.22,3-11.24,3.23-16.91,4.66a3.9,3.9,0,0,1-3.62-.68c-.27-.23-.53-.43-.38-.82A.63.63,0,0,1,107,489c2.71-.06,5.16-1.29,7.73-1.74,3.23-.58,6.31-1.6,9.49-2.25a7.5,7.5,0,0,0,2.16-1,1.15,1.15,0,0,0,.51-1.55c-.15-.44-.37-.9-.91-1s-.81.41-1,.81a9.63,9.63,0,0,0-.32.95c-.31.75-.82,1-1.57.58s-1.24-.82-.62-1.74,1.31-2.18,2-3.24a1.31,1.31,0,0,0,.06-1.75,23.56,23.56,0,0,0-2.77,3.91,3.67,3.67,0,0,1-1.37,1.92,1,1,0,0,1-1.29-.1c-.27-.36-.12-.75.24-1.06a3.79,3.79,0,0,0,1.26-1.92.48.48,0,0,0-.76.12c-1.09,1.94-3,3.26-4,5.25a1.88,1.88,0,0,1-1.77,1.13c-.28,0-.55-.06-.67-.33a.57.57,0,0,1,.2-.72c2.84-1.87,4.12-5,6.23-7.52a2.15,2.15,0,0,0,.72-1.59,26.09,26.09,0,0,1,.29-5,3.51,3.51,0,0,0-1.17-3c-.24-.23-.48-.46-.71-.7a.82.82,0,0,1-.14-1.1c.27-.42.63-.41,1-.24s.57.69,1,.35.25-.87.35-1.31c.22-1-1-1.45-.77-2.4.2-.77,1.48-.74,1.32-1.85-.08-.49.65-1.13.25-1.5-1.55-1.45-.38-2.82,0-4.21a5.67,5.67,0,0,0-.61-4.25c-.22-.42-.61-.76-.23-1.22s.72-.28,1.12-.13a.77.77,0,0,0,.82,0c.46-1.68,0-3.53.59-5.28.35-.95-1.29-1.23-1-2.21.2-.77,1.37-.58,1.54-1.64.26-1.53.23-1.73-1.38-1.71a1.65,1.65,0,0,1-.56-.17s-.08-.1-.21-.27a4.84,4.84,0,0,1,1.57-1c1.21-.72,1.34-1.12.85-2.46a3.78,3.78,0,0,1,1.31-4.48,2.55,2.55,0,0,0,.85-1.32,31.34,31.34,0,0,0,1-4.28,2.58,2.58,0,0,0-.31-1.74,13,13,0,0,1-.83-2.89,4.12,4.12,0,0,1,1.74-4.53c.43,1.87-1,3.76.34,5.43.84-.65.78-1.61,1.08-2.39a27,27,0,0,1,1.72-3.84c1-1.66.67-2.44-1.17-2.9-2.06-.52-4.15-.95-6.24-1.39-3.66-.76-7.41-.9-11.09-1.56a21.42,21.42,0,0,0-4.6.05c-.51,0-1.13.25-1.51-.25-.52-.68.49-1,.49-1.72-2.29-.35-4.92-.2-6-3.13.8-1,1.72-1,3.07-.73a19.75,19.75,0,0,0,7.39.14c2.38-.41,4.78-.51,7.17-.82a7.26,7.26,0,0,0,3.26-.82,2.09,2.09,0,0,1,1.93-.21,1.73,1.73,0,0,1,1.23,1.67c0,.72-.55,1-1.2,1.38-2.65,1.51-5.57,1.18-8.4,1.5-.75.09-1.94-.15-1.88.89.05.84,1.26.48,1.92.56,1.26.14,2.54.09,3.8.13a21.76,21.76,0,0,1,4.88.92,19.32,19.32,0,0,1,4.59,1.39c1,.53,2.12.27,3.14.58.5.15.76-.13,1-.47l4.21-6.49c-.5-.64-.91-.27-1.29-.07a11,11,0,0,1-3.25,1,1.78,1.78,0,0,1-1.53-.26c-.6-.49-1.15-1.17-1-1.85a2,2,0,0,1,1.74-1.47c3.41-.21,5.66-2.66,8.22-4.35,2-1.32,3.52-3.49,5.61-4.81a13.05,13.05,0,0,0,5.1-5.5c1.3-2.73,3.89-4,6-5.86s4.08-3.65,6-5.59a.87.87,0,0,0,.27-1.16c-1.18-.17-1.75,1.59-3,1.25a.66.66,0,0,1,.47-.86c2-.85,3.5-2.42,5.33-3.52a3.43,3.43,0,0,0,1-.95,108.9,108.9,0,0,0,6.29-9.24c.14-.23.28-.49.09-.73s-.59-.13-.9,0c-1,.42-2,.84-3,1.23a9,9,0,0,1-1.15.36.53.53,0,0,1-.67-.27c-.17-.41.12-.63.45-.73a28.69,28.69,0,0,0,5.43-2.57,3.92,3.92,0,0,0,1.95-2.18,35.46,35.46,0,0,1,2.87-7,1.46,1.46,0,0,0,.18-.58c.06-.43.46-.93-.07-1.27s-.75.09-1.09.28c-1.33.77-2.64,1.6-4,2.27a6.47,6.47,0,0,1-3.57,1.08l-.13-.44a18.5,18.5,0,0,0,2.66-1c2.21-1.25,4.37-2.58,6.53-3.93a3.87,3.87,0,0,0,1.07-1.17c1.09-1.72,1.19-3.72,1.7-5.67a49.28,49.28,0,0,1-10.87,6,8.06,8.06,0,0,1-2.16.34c-.2,0-.38-.1-.53-.54,3.22.05,5.46-2.09,8.05-3.46a34.4,34.4,0,0,0,5.67-4.11,3.87,3.87,0,0,0,1.14-1.86,48.68,48.68,0,0,0,1.38-6.14c-2.54,1.94-5.31,3.43-7.93,5.18A23.18,23.18,0,0,1,168,337c2.82-.89,5.14-2.64,7.52-4.27a60,60,0,0,0,8.95-7.1,2.87,2.87,0,0,0,1-3.05c-5.06,2.83-9.17,6.86-14.3,9.15-.39-.32-.13-.47,0-.54,5-2.58,9-6.5,13.41-9.81a4.18,4.18,0,0,0,1.72-3c.35-3.06.44-6.14.64-9.22.14-2.12-.63-4.08-.92-6.13-.43-3-.34-6-1.08-9a26.89,26.89,0,0,0-2.14-6.63,19.66,19.66,0,0,1-2.27-6.4,1,1,0,0,1,.14-.94.61.61,0,0,1,.77.45c.34,1.46,1.31,2.63,1.79,4,.64,1.82,1.68,3.44,2.39,5.22a41.74,41.74,0,0,1,1.9,7.57c.62,3.07,1.41,6.11,1.86,9.22A2.74,2.74,0,0,0,190.58,308.6Zm-12.2,44.25c0,.73.35,1,.88.76a4.55,4.55,0,0,0,2.26-2.17c.71-1.64,1.37-3.29,2.06-4.94.33-.79.65-1.59,1-2.39a.66.66,0,0,0,0-.74c-.21-.28-.47-.16-.7,0-1.47,1-3.12,1.72-3.45,3.83a13.33,13.33,0,0,1-1.41,3.93A11.89,11.89,0,0,0,178.38,352.85Zm4.26-10.73c3.87-1.72,4.22-5.09,4.91-8.54C183.92,335.23,184,336.49,182.64,342.12ZM151,388.76c1.59-.28,2.68-.61,3.4-1.58a26,26,0,0,1,4.68-4.33,3.52,3.52,0,0,0,1.34-2.09,5.94,5.94,0,0,0-4.22,2.59,4.93,4.93,0,0,1-2.34,2.1C152.33,386,151.87,387.24,151,388.76Zm11.65,140.83c-3.91.72-3.48,1.82-3.09,4.3.22,1.33.53,1.4,1.75.72,1.79-1,2-1.45,1.61-3.54C162.84,530.62,163.06,530.13,162.66,529.59ZM149.81,390.82a50.08,50.08,0,0,0-4.89,2.92,9.23,9.23,0,0,0-2.35,2.1c-.25.32-.56.65-.23,1.05s.61.09.91,0c2.9-1.11,4.83-3.37,6.68-5.71C150,391.12,149.89,391,149.81,390.82ZM155,534.67c.11.56-.39,1.32.43,1.58a2.48,2.48,0,0,0,2.83-2.38c0-.33-.17-.65-.18-1,0-.91-.44-1.28-1.38-1.29s-1.31.51-1.46,1.3C155.09,533.49,155,534.09,155,534.67Zm15.88-11.52a13.25,13.25,0,0,1-1.64,1.4,2.64,2.64,0,0,0-1.1,4c.05.1.2.15.38.27.77-.56,1.14-1.53,2-2.09C171.73,525.91,171.78,524.93,170.84,523.15ZM185.59,332.3c2.69-1.91,3-4.54,3.38-7.09a.62.62,0,0,0-.29-.69.57.57,0,0,0-.72.16,3,3,0,0,0-.74.93A49.67,49.67,0,0,0,185.59,332.3ZM54.07,531.87a16.71,16.71,0,0,1,.69,2.4,3.8,3.8,0,0,0,2,2.78c.35.23.65.49,1,.2s.2-.61.1-.91a13.87,13.87,0,0,1-.74-2.26C57,532.32,55.75,532.11,54.07,531.87Zm-4.21-1.68c0,2.24,1.9,3.38,2.9,5,.06.1.39.13.55.08s.29-.4.21-.67c-.34-1.08-.76-2.14-1-3.23a3,3,0,0,0-1.53-2c-.28-.16-.53-.48-.89-.3S49.8,529.81,49.86,530.19ZM65.51,538c-.06-1.78-.86-2.78-2.33-2.9-.37,0-.74,0-.7.48A6.55,6.55,0,0,0,63,538.3c.42.74,1.25.67,2,.58C65.46,538.83,65.66,538.5,65.51,538ZM59,534.67a25,25,0,0,1,.24,2.68c0,.67.57,1,1.24,1.07.34,0,.76,0,.73-.47a9.31,9.31,0,0,0-.69-3.69,1,1,0,0,0-1.2-.49C58.82,533.88,59,534.28,59,534.67Zm65-64.53a27.72,27.72,0,0,1-.1-3.61,1.42,1.42,0,0,0-.64-1.19c-.61-.44-1-.47-1.28.42C121.45,467.66,121.78,468.5,124,470.14Zm42.37,59.15a5.4,5.4,0,0,0-.06-.63c-.08-.43,0-1-.6-1.09s-.89.36-1,.94a11.46,11.46,0,0,0-.49,2.52c0,.4,0,.87.45,1a1.12,1.12,0,0,0,1.22-.49A4.37,4.37,0,0,0,166.36,529.29Zm12-172.52c-1.84.7-4.14,4.66-4,6.79A53.82,53.82,0,0,0,178.38,356.77ZM168.55,371a43.65,43.65,0,0,0-5.4,5.89c-.22.26-.39.61,0,.88s.57,0,.8-.27C165.39,375.44,167.15,373.63,168.55,371Zm20-59a12.19,12.19,0,0,0-.26,5.48C189.88,315.38,189.1,313.65,188.6,312Zm-15,207c-1,.83-1.18,1.86-1.71,2.68-.24.38-.5.91.22,1.11.52.15,1.22.18,1.33-.47C173.64,521.3,174.26,520.3,173.63,519Zm-51.78-44.91a3.5,3.5,0,0,0,1.17-2.3c.11-.46-.26-.73-.64-.89s-.69,0-.68.2C121.75,472.06,120.82,473.1,121.85,474.07ZM188,322.38a2.53,2.53,0,0,0,1.17-2.92C187.6,320.54,187.6,320.54,188,322.38ZM123,460.53c-.67.5-.54,1.15-.67,1.69a.5.5,0,0,0,.51.67c.4,0,.52-.35.52-.69A3.39,3.39,0,0,0,123,460.53ZM176.14,525c-.39.38-.78.59-.62,1.07,0,.06.25.12.32.08C176.22,525.87,176.37,525.53,176.14,525Z"/><path d="M32.76,355.08a3.56,3.56,0,0,1,.46-.89c.64-.67.5-1.22,0-1.93A31.35,31.35,0,0,1,28.76,343a71.3,71.3,0,0,0-3.63-10,14.5,14.5,0,0,1-.94-4.69c-.38-3.51-.53-7-1.06-10.52a48.45,48.45,0,0,1-.6-6c-.15-4.61-.09-9.23-.11-13.85a7.08,7.08,0,0,1,.36-2.57c.67-1.74-.07-3.6.38-5.37.54-2.12.58-4.37,1.51-6.4a20.41,20.41,0,0,0,.77-3.73A53.2,53.2,0,0,1,29,270.73c1.71-3.86,4.15-7.34,6-11.11.8-1.62,2.17-2.58,3.12-4s1.6-3.09,3-4.25a3.09,3.09,0,0,0,.78-1.15c1.11-2.44,3-4.35,4.39-6.6a24.62,24.62,0,0,0,3.81-10.06c.21-2,1.11-3.67,1.47-5.58a78.63,78.63,0,0,0,1.28-11.1,26.12,26.12,0,0,0-1.22-9.65c-1.27-3.73-2.23-7.57-3.33-11.36a9.7,9.7,0,0,0-.28-1,.55.55,0,0,0-.63-.38c-.33.07-.36.35-.32.63.22,1.72.35,3.47.68,5.17a49.16,49.16,0,0,1,.1,16.37c-.31,2.18-.62,4.37-1,6.54-.43,2.36-.95,4.71-1.44,7.06a1.63,1.63,0,0,1-.48,1.08,1.15,1.15,0,0,1-1.3.25c-.45-.25-.28-.67-.18-1.07a75.11,75.11,0,0,0,1.8-19.48,73.15,73.15,0,0,0-1.41-15c-1.32-5.94-2.52-11.91-5.23-17.41a35.4,35.4,0,0,1-1.84-5.49c-.25-.82-.51-1.78.9-1.92.73-.08.79-.59.61-1.19a25.74,25.74,0,0,0-.95-3.06c-1.05-2.44-1.56-5.09-2.92-7.41-.22-.38-.56-.92.14-1.15.49-.17.61.36.82.69A35.76,35.76,0,0,1,39,168.31a33.48,33.48,0,0,0,2.14,5.17,97.08,97.08,0,0,1,6.46,17.41,3,3,0,0,0,.34.94c2.09,3,2.46,6.61,3.58,9.94.72,2.14,1,4.43,1.59,6.62a24,24,0,0,1,.46,9.17c-.41,3.26,0,6.53-.46,9.85,1.28.38,2.67-.76,3.77.68a16.72,16.72,0,0,1-2.4,1.19c-2,.62-2.3,2.2-2.48,3.9,0,.46.07.94,0,1.4-.1.95.19,1.41,1.23,1.2.45-.1.93-.06,1.4-.12s.68.28.81.68a.76.76,0,0,1-.48,1,1.79,1.79,0,0,1-2.21-.2c-.46-.45-1-.7-1.55,0s-.66,2.25-.27,2.43c.64.3,1.62.81,2,.17.84-1.42,1.42-.33,2,0s1.31.7,1.05,1.52-1.07.65-1.71.6a21.64,21.64,0,0,1-3.38-.47c-1.26-.29-1.66.24-2.11,2-.34,1.31.42,1.46,1.36,1.64a19.7,19.7,0,0,1,4.07,1c.43.19,1,.38.86.94-.19.75-.8.48-1.32.34-1.81-.5-3.72-.42-5.52-1-.91-.31-2.8,1.07-3.08,2.09-.21.74.32.78.81.74,1.75-.12,3.48.3,5.22.26,1.35,0,2.58.58,3.91.68a.67.67,0,0,1,.58.8,5.48,5.48,0,0,1-2.1.16c-1.8-.05-3.6-.16-5.42-.06a5.37,5.37,0,0,1-2.92-.56,1,1,0,0,0-1.62.58c-.32.78-.27,1.28.69,1.42a37.55,37.55,0,0,1,5.33.9c2.18.65,4.31,1.45,6.48,2.13.4.13.83.33.67.81s-.66.33-1,.17c-4.25-1.94-8.82-2.08-13.35-2.46-1-.08-2.43,1.5-2.34,2.47,0,.51.43.64.84.7a15,15,0,0,1,3.17.43c3.78,1.4,7.82,1.66,11.63,2.83,1.12.35,2.68.33,3.46,2.15-4-1-7.71-1.41-11.36-2.43a38.72,38.72,0,0,0-8.08-1.47,3.77,3.77,0,0,0-3.58,3.12c-.06.85.62.75,1.12.74,1.88,0,3.71.35,5.56.49,3.5.26,6.83,1.27,10.26,1.86a49.44,49.44,0,0,1,5.16.63c.19.05.41,0,.6.06.65.13,1.63.27,1.48,1-.18,1-1.1.29-1.69.25-4.75-.26-9.37-1.46-14.11-1.88-2.2-.19-4.4-.39-6.6-.53-3.24-.2-3.9.2-5.23,3.15-.33.73-.73,1.42-1.06,2.15-.54,1.17-.36,1.5.86,1.31a28.85,28.85,0,0,1,7-.11c1.79.14,3.62,0,5.33.76a2,2,0,0,0,1,0,29.27,29.27,0,0,1,5.37.18c4.17.29,8.06,1.79,12.13,2.44a2.32,2.32,0,0,1,1.92,1c-.31.62-.81.29-1.2.2-4-.9-8-1.6-12-2.3a6.81,6.81,0,0,0-1.19-.16c-5.55.09-11.08-.61-16.63-.41-1.36,0-2.58.65-4,.63-.68,0-1.65,2.45-1.3,3.06s.83.34,1.27.37c2.87.15,5.75.17,8.6.45a59.14,59.14,0,0,1,10.74,2.26c1.53.45,3.14.62,4.71,1a8.14,8.14,0,0,1,3.13,1.3c.34.27.59.64.37,1s-.6.19-.9.07c-6.15-2.46-12.59-3.51-19.12-4.25-3-.34-6,.14-9,0a1,1,0,0,0-1,.75c0,.06,0,.13-.08.19-1.69,3.9-1.21,4.62,3,4.61,3.42,0,6.76.77,10.16,1,.47,0,.93.13,1.4.14,4.15.05,8.27.44,12.4.84a33.38,33.38,0,0,1,3.33.72,2.23,2.23,0,0,1,1.54,1.4c-1.39,0-2.53-.71-3.82-.83-2.8-.25-5.59-.48-8.39-.63-4.61-.26-9.22-.57-13.83-.81-2-.11-4,0-6-.15-1-.06-1.5.28-1.69,1.23-.77,3.83-1,3.31,2.35,3.54,5.25.38,10.5.88,15.73,1.55,2.15.27,4.22,1.17,6.36,1.67,2.66.63,5.21,1.61,7.8,2.44.6.19,1.33.25,1.56,1.21-2,.07-3.57-.82-5.27-1.28-5.49-1.51-10.95-3-16.7-3.2-3.74-.13-7.47-.45-11.21-.71-1-.07-1.53.13-1.61,1.38-.19,2.87-.43,5.73-.57,8.6s.14,2.92,2.74,3.22c3.36.39,6.74.75,10.07,1.47a73.18,73.18,0,0,0,14.71,1.3,53.15,53.15,0,0,1,11,1.81c.38.09.83.29.67.81s-.66.4-1,.29a37.66,37.66,0,0,0-10.48-1.6c-2.74-.08-5.48.19-8.22-.27-2.24-.38-4.49-.66-6.72-1.08-3.69-.69-7.47-.6-11.16-1.29-.89-.16-1.41.28-1.42,1.22,0,.61.05,1.21,0,1.81a1.59,1.59,0,0,0,1.07,1.69c1.81,1,3.81,1.19,5.74,1.69,3.41.9,6.83,1.79,10.26,2.61a38,38,0,0,0,12.88,1.09c2-.22,3.94.34,6,.63-.1.63-.48.77-1,.68-2.47-.44-4.93-.07-7.4.06a30,30,0,0,1-8.38-.72c-5.86-1.35-11.76-2.52-17.54-4.19-1.21-.34-1.43-.16-1.35,1.15.18,2.81-.14,2.51,2.46,3.35,2.79.9,5.52,2,8.34,2.86a67.41,67.41,0,0,0,9.74,2.14c3.37.47,6.75.94,10.11,1.45a9.87,9.87,0,0,0,3.79-.06,2.26,2.26,0,0,1,2.12.21,3.56,3.56,0,0,1-3,1.13c-1.67-.06-3.33-.29-5-.42-4.34-.34-8.63-1.08-12.92-1.69a35.65,35.65,0,0,1-6.39-1.7c-2.4-.83-4.86-1.45-7.27-2.2-1.19-.37-1.49-.08-1.47,1.09.06,2.73.62,3.29,3.12,4.49,4.47,2.15,9.29,3.33,13.87,5.17a21.39,21.39,0,0,0,3.9.79c7,1.38,14,2.4,21.11,2,1-.07,2,0,3,0,.27,0,.56.11.6.42s-.3.56-.64.58c-5.61.19-11.19.79-16.81-.26-4.87-.91-9.77-1.62-14.49-3.15a101.1,101.1,0,0,1-11.12-4c-1.58-.73-1.7-.59-1.57,1.16a15.85,15.85,0,0,0,.55,4.16c.25.73.56,1.37,1.38,1.58,4.8,1.2,9.35,3.18,14.19,4.31a47.6,47.6,0,0,0,13.35,1,15.44,15.44,0,0,0,3.77-.25.6.6,0,0,1,.8.42c.09.41-.21.59-.55.67a5,5,0,0,1-1,.21c-4.46.18-8.89.7-13.4-.11a65.29,65.29,0,0,1-11-2.79c-1.37-.5-2.89-.48-4.21-1.23a1.12,1.12,0,0,0-1.32.19c-.45.45-.23,1-.08,1.5.61,2.3,2.48,3.2,4.45,3.85,3.48,1.16,7,2.13,10.58,3a42.32,42.32,0,0,0,10,1.09,15.28,15.28,0,0,0,3.38-.45,2.46,2.46,0,0,1,1.17-.15c.42.11.77.31.76.8s-.34.54-.68.59c-1.52.22-3,.54-4.57.62a34.41,34.41,0,0,1-10.54-1.19c-3.8-1-7.74-1.52-11.3-3.35a1,1,0,0,0-1.13,0c-.36.33-.15.73-.09,1.12.42,2.87,2.61,3.87,5,4.59,3.25,1,6.53,1.92,9.81,2.81a15.45,15.45,0,0,0,3.56.51c2.81.09,5.58.63,8.41.57a17.39,17.39,0,0,0,5.73-.8c.39-.15,1-.46,1.14.26s-.45.69-.91.83a24.7,24.7,0,0,1-9.5.9,88.63,88.63,0,0,1-11.72-1.53c-2.74-.58-5.36-1.6-8.06-2.39-.49.59-.11,1.07.17,1.46a26.36,26.36,0,0,0,4.14,4.62,2.71,2.71,0,0,0,.86.52c6.87,2.45,13.74,4.94,21.23,4.46a5.06,5.06,0,0,0,2.9-.6c.27-.19.66-.34.88,0,.32.52-.18.73-.52.85a17.62,17.62,0,0,1-8.48,1.07,57.36,57.36,0,0,1-12.66-3c-.6-.21-1.32-.75-1.87-.13s0,1.31.32,1.85a7.09,7.09,0,0,0,3.39,3.27c6.28,2.64,12.74,3.93,19.55,2.83.39-.06.85-.2,1,.36s-.28.84-.79.94a24.05,24.05,0,0,1-4.16.55,43.72,43.72,0,0,1-13.24-2,.87.87,0,0,0-1,.1,12.45,12.45,0,0,0,3.08,4.41,5,5,0,0,0,4.53,1.44,43.15,43.15,0,0,1,7-.08A18.07,18.07,0,0,0,65,372c.48-.11,1-.07,1.1.53s-.5.45-.86.55a27.7,27.7,0,0,1-10.34.55c-1.07-.1-2-.69-3.4-.71a39.66,39.66,0,0,0,2.93,3.69,15.62,15.62,0,0,0,8.6,4.74,21,21,0,0,0,12.59-2.22,7.47,7.47,0,0,1,4.34-1c-4.56,1.13-8.28,4.61-13.2,4.7-.36,0-.68.16-.65.59s.32.55.67.65a18.44,18.44,0,0,0,6.58.32,9.65,9.65,0,0,1,3.86-.05c0,.76-.48.68-.84.75a35.47,35.47,0,0,1-8.15,1c-.44,0-1-.21-1.24.36s.31.8.55,1.18c2.32,3.71,6,4.39,9.92,4.48,1.41,0,2.82,0,4.22,0a1.53,1.53,0,0,1,1.42.49,12.24,12.24,0,0,1-3.78.64c-.67,0-1.34,0-2,0-.52,0-1.16-.09-1.36.58s.25,1,.65,1.37c1.4,1.22,2.66,2.68,4.73,2.77.52,0,.78.45,1.14.74A5.18,5.18,0,0,0,87,399.82c1.42-.34,3-.29,4.25-1.16-.72,1.16-2.29,1.08-3.06,2.13.35.75,1,.6,1.59.62a6.22,6.22,0,0,1,3.17,1.12,1.53,1.53,0,0,1,.88,1.46c-.07.72-.72.94-1.28,1.13-.88.29-1.92-.13-2.7.83-.32.38-1-.25-1.35-.61a7,7,0,0,0-3.57-1.69c-.31-.09-.66-.24-.88.14a.62.62,0,0,0,.08.75c1.27,1.27,1.76,3.4,4,3.56.81,0,1.17.84,1.52,1.49a1.39,1.39,0,0,0,2,.63,55.51,55.51,0,0,1,6-2.31,6.86,6.86,0,0,1,3.57,0c.4.1.81.28.82.75s-.42.64-.77.82a1.42,1.42,0,0,1-.76.2c-2.94-.52-5.41,1.25-8.16,1.69-.87.14-1.13.88-.79,1.72a9,9,0,0,0,.56,1.06,21.6,21.6,0,0,1,2.52,8.8c0,.47.08.93.13,1.4.1.85.56,1.13,1.4.92a.93.93,0,0,0,.74-1.35c-.26-.83-.61-1.64-.8-2.48-.54-2.28-1-4.57-1.53-6.85-.14-.61-.12-1.13.54-1.28s.72.37.82.87c.48,2.27,1,4.53,1.5,6.8.17.76.21,1.71,1.29,1.71.83,0,1.53-1.26,1.27-2.35-.33-1.42-.83-2.81-1.21-4.22a11,11,0,0,1-.34-2c0-.51.16-1,.75-1s.59.41.68.82c.38,1.9.79,3.8,1.18,5.69.11.51,0,1.17.86,1.09a1,1,0,0,0,1-1.22c-.17-1.33.11-2.7-.27-4-.53-1.78.19-3.24,1.14-5.13a31.23,31.23,0,0,1,.4,5.18c.09.94.1,1.88.11,2.81s0,1.48,1,1.94.91,1.12,0,1.87a6.42,6.42,0,0,1-1.85,1.19,5.12,5.12,0,0,0-3,2.83c-.91,2-2.85,1.92-4.42,2.59-.38.16-.77-.12-1.07-.41s-.59-.81-1.07-.88c-1.23-.17-1.36-1.07-1.52-2-.78-4.47-1.61-9-4.26-12.78a37.93,37.93,0,0,0-5.75-6.59c-.81-.72-1.45-1.58-2.18-2.35A43.13,43.13,0,0,0,74,398.61a94.8,94.8,0,0,1-8.73-6.7,5.33,5.33,0,0,0-1.08-.89c-4.3-2.11-7.9-5.25-11.73-8-2.55-1.84-4.5-4.36-6.8-6.48-2.76-2.55-4.93-5.65-7.87-8-1.15-.91-1.58-2.31-2.48-3.39a60.24,60.24,0,0,1-7.24-11,41.08,41.08,0,0,1-3.27-8.37c-.68-2.57-1.84-5-2.37-7.64a61.16,61.16,0,0,0-2.59-9.47,1.33,1.33,0,0,1-.13-.58c.08-.69-.58-1.62.25-2s1.56.46,2.19,1a2.56,2.56,0,0,1,.6,1.25c1.3,4.07,2.83,8.06,4,12.2.6,2.23,1.6,4.38,2.25,6.62s1.64,4.05,2.4,6.1A2.57,2.57,0,0,0,32.82,355c.11,1.94,1.62,3.14,2.5,4.65,2.62,4.53,6.38,8.19,9.9,12,3.66,3.93,7.38,7.91,12,10.85,1.56,1,2.57,2.76,4.52,3.18a24.11,24.11,0,0,0,4.88,3.19c-1.19-1.79-2.68-3.08-4.92-3.14-1.42-2.36-3.7-3.8-5.79-5.43a6.78,6.78,0,0,1-1.64-1.43,27.42,27.42,0,0,0-5.67-6.15A15.86,15.86,0,0,1,45.25,369a21.06,21.06,0,0,0-2.8-3.64,15.66,15.66,0,0,1-3.67-5.6A7.07,7.07,0,0,0,32.76,355.08Zm29.36,28.31a.77.77,0,0,0,.91.53c.32-.05.39-.32.32-.59s-.43-.46-.77-.44A.43.43,0,0,0,62.12,383.39Z"/><path d="M49.92,127.68c-1.1,3.49-2.69,6.65-4,9.91-.34.83-.5,1.56.53,2.24.79.52,1.21,1.56,1.95,2.25.38.36.81.93.54,1.4a1.51,1.51,0,0,1-1.74.67c-2.51-.85-4.82-2-5.92-4.66a2.34,2.34,0,0,0-.43-.88c-2.9-2.62-4.43-6.17-6.38-9.41s-4.49-6.47-6.72-9.72c-1.07-1.54-1.73-3.29-2.75-4.86a59.6,59.6,0,0,1-3.76-7.06c-1.81-3.8-3.51-7.65-5.22-11.5a6.73,6.73,0,0,0-.78-1.62,10.3,10.3,0,0,1-2-4.36C12.76,88,12,86,11.26,84a4.2,4.2,0,0,0-.49-1.1c-2.37-3.24-2.93-7.19-4.3-10.82a44.18,44.18,0,0,0-2.13-5.19C3.18,64.69,2,62.54.73,60.39a4.87,4.87,0,0,1-.62-1.68c-.3-1.68-.07-2,1.64-2.1A1.81,1.81,0,0,0,3,56.17c2-2,4.67-3,7.05-4.49.84-.51,1.86-.72,2.75-1.17a1.48,1.48,0,0,1,2.1.51,26.12,26.12,0,0,1,2.7,4.62c1.12,2.59,1.9,5.45,4.13,7.46a1.11,1.11,0,0,1,.45.86c-.19,2.5,1.68,4.13,2.58,6.17,2.2,5,5.08,9.7,7.13,14.78,1.82,4.5,3.87,8.9,6,13.27,1.84,3.75,4.09,7.3,5.62,11.23a39,39,0,0,0,3.24,6c2.1,3.45,4.23,6.91,5.24,10.9a2.5,2.5,0,0,0,.61,1.24c.28.27.66.55.35,1a1.22,1.22,0,0,1-1.44.37C50.93,128.77,50.87,127.93,49.92,127.68ZM21.41,70.8a48.11,48.11,0,0,0-3.19,11.25,8.5,8.5,0,0,1-1.53,4.45,2.71,2.71,0,0,0-.29,3.16c1.05,2.24,2,4.53,3,6.79q1.91,4.32,3.85,8.61c.16.33.34.82.84.71a1,1,0,0,0,.66-.91,11.29,11.29,0,0,1,.83-3.29,14.59,14.59,0,0,0,1.24-4.43c.45-4.31,1.29-8.58,1.23-12.94a4.77,4.77,0,0,0-.57-2.5c-1.73-2.93-3.12-6-4.69-9C22.45,72.07,22.36,71.35,21.41,70.8Zm16.91,35.57c-.58.19-.55.64-.69,1-.62,1.64-.58,3.42-1.09,5.09-.82,2.68-1.56,5.38-2.37,8.06a2.61,2.61,0,0,0,.38,2.45,62.67,62.67,0,0,1,6.34,10.82,5.36,5.36,0,0,0,1.13,1.4c1,1,1.55.95,2-.33,1.17-3.06,2.44-6.09,2.39-9.47a3,3,0,0,1,.29-1.55,1.91,1.91,0,0,0-.22-2.22,68.09,68.09,0,0,1-5.78-11A11.47,11.47,0,0,0,38.32,106.37Zm-12,2.4c-.28,1.37.65,2.78,1.24,4.24a18.92,18.92,0,0,0,3.08,5.11c.66.78,1.05.65,1.32-.32A26.23,26.23,0,0,0,33,114.37c.62-4.07,1.32-8.13,1.92-12.2a5.36,5.36,0,0,0-.25-3.35c-1.21-2.37-2.57-4.7-2.82-7.44,0-.34-.21-.65-.64-.62s-.41.3-.49.55a22.45,22.45,0,0,0-.87,3.9A46.7,46.7,0,0,1,28,103.15C27.44,104.89,26.24,106.46,26.34,108.77ZM13.49,58.29c-.05-1.19-.05-1.93-.12-2.66-.17-1.53-.43-1.62-1.93-1.16-2,.61-3.54,2.13-5.47,2.92s-2.4,1.9-1.28,4a47.67,47.67,0,0,1,3.57,7.83c.52,1.58,1.21,3.11,1.85,4.66.14.35.15.89.64.91.68,0,.56-.62.7-1C13.1,68.54,12.64,63.11,13.49,58.29Zm1.32,26.26a3.42,3.42,0,0,0,.54-2c-.07-2.81,1.08-5.34,1.85-7.94,1-3.27,1-6.61,1.18-9.94a2.54,2.54,0,0,0-.33-1.34c-.38-.68-.44-2-1.25-1.87-1,.1-.87,1.38-.9,2.17A22.65,22.65,0,0,1,15.14,69c-.75,2.7-1.3,5.45-2,8.15S13.29,82.06,14.81,84.55Z"/><path d="M16.82,319.5c-.08-2.46-.57-4.88-.51-7.37.11-4,0-8,.94-11.95a3.07,3.07,0,0,0,.09-.8c-.32-6.1,1.45-11.88,2.77-17.72a83,83,0,0,1,3-9.75c1.42-4,3.08-7.92,4.46-11.93,1-2.9,2.95-5.24,4.19-8,2.1-4.63,5.1-8.75,7.37-13.28a13,13,0,0,0,1.14-3.41c.19-1.05.73-1,1.43-.6,1.13.58,1.43,1.38,1,2.9a25.2,25.2,0,0,1-2.11,5.16c-2.91,5.46-6,10.84-8.83,16.34A55.72,55.72,0,0,0,28.41,267c-.9,2.71-1.65,5.48-2.81,8.11a51.21,51.21,0,0,0-2.93,11c-.56,3-1.16,5.9-1.76,8.85a16.68,16.68,0,0,0-.23,3.6,11.29,11.29,0,0,1-.51,4.36,1.78,1.78,0,0,0-.15.58c-.05,4.58-1.11,9.12-.5,13.74a32.24,32.24,0,0,1,0,4.61,1.11,1.11,0,0,1-.69,1.13,1.31,1.31,0,0,1-1.28-.38C16.48,321.81,16.74,320.63,16.82,319.5Z"/><path d="M101.85,464.34c.08,1.4-.9,1.88-1.6,2.51a5.9,5.9,0,0,0-1.45,5.7c.27.71.69.41,1.08.11.63-.49.57-1.51,1.53-1.94a3,3,0,0,1-.91,2.57,8.73,8.73,0,0,0-2.11,2.87.89.89,0,0,1-1.11.63c-.53-.17-.42-.61-.3-1s0-.73-.52-.88c-1.09-.33-1.26-1.27-1.35-2.22A73.38,73.38,0,0,1,95,462.31c.13-2.66-.07-5.34-.18-8-.11-2.48.56-4.91.42-7.41-.23-3.86,0-7.74-.42-11.6,0-.47-.06-.94-.09-1.41,0-.72-.28-1.63.82-1.69.87,0,1.89.15,2,1.23.24,2,1.28,3.82,1,5.89a3.35,3.35,0,0,0,0,1c.08.5-.11,1.18.54,1.38s.75-.42,1.07-.74a4.39,4.39,0,0,1,.57-.57.66.66,0,1,1,.77,1.06c-.69.54-1.36,1.09-2,1.61a2,2,0,0,0-.84,1.92c.11.92.36,1.62,1.52,1.14a1.05,1.05,0,0,1,.38-.12c.58,0,1.37-.24,1.52.55s-.64.72-1.12.9c-1.76.66-2.31,1.53-2.09,3.33.09.79.55,1,1.06.42s1.32-.64,1.88-1.11c.3-.25.56-.35.85,0s.19.72-.09,1.06a4.08,4.08,0,0,1-1.18.75,5.61,5.61,0,0,0-2.74,5.79c.11,1,.51,1.19,1.47,1a7,7,0,0,0,2.95-1.86,3.58,3.58,0,0,1-1.93,2.79c-2.38,1.44-2.94,2.83-2.31,5.51.2.85.7.92,1.33.54S101.21,464.84,101.85,464.34Z"/><path d="M124.18,126.75a4.91,4.91,0,0,1-3.11.65,3.83,3.83,0,0,0-1.78.18c-2.33,1-4.71.67-7.1.4-2.56-.29-5,.37-7.56.68-3.31.41-6.6,1-9.95.43a12,12,0,0,0-4.16.49,61.59,61.59,0,0,1-6.77.68c-2.21.16-4.51-.12-6.64.94a12.05,12.05,0,0,1-2.94.52,26.75,26.75,0,0,0-5,1.37,12.23,12.23,0,0,1-4.34.7,20.33,20.33,0,0,0-4,.57A1.61,1.61,0,0,1,58.77,133c-.16-.94.32-1.42,1.56-1.61,3.36-.51,6.76-.86,10.08-1.58,2.86-.62,5.67-1.5,8.58-1.93a10.94,10.94,0,0,1,2.17-.32,46.75,46.75,0,0,0,9.76-.72c3.86-.54,7.78.16,11.53-.76,2.81-.69,5.71-.67,8.47-1.46a2.75,2.75,0,0,1,1.77,0,9.53,9.53,0,0,0,4.56.32c.48,0,1-.17,1.32.2A6.34,6.34,0,0,0,124.18,126.75Z"/><path d="M136,514.57c-1.42.51-3.64.55-5.78,1a44.52,44.52,0,0,1-4.73.68c-3.32.34-6.66.26-10,.41-2.59.12-5.23-.18-7.11-2.43-.42-.51-1.07-1-.59-1.74s1.34-.28,2,0a6.34,6.34,0,0,1,1,.58,5.12,5.12,0,0,0,3.46.78c3.18-.44,6.39.06,9.59-.58,1.56-.32,3.31-.15,5-.4,1.84-.28,3.68-.56,5.49-1,1.62-.4,3.28-.47,4.91-.78,1.86-.35,3.56-1.07,5.36-1.53a2.84,2.84,0,0,0,1.36-.81,4.27,4.27,0,0,1,1.71-1,2.26,2.26,0,0,1,2.47.77,2.21,2.21,0,0,1-1.28,2.27,21.48,21.48,0,0,0-2.81,1.34A33.18,33.18,0,0,1,136,514.57Z"/><path d="M97.18,522.18c.24-.11.4-.24.46-.2,2.75,1.54,5.76,1.36,8.74,1.34,2.75,0,5.47-.32,8.2-.6a18.26,18.26,0,0,1,6.59.21,3.39,3.39,0,0,0,2.18-.06,11.19,11.19,0,0,1,5.41-1.13,9.86,9.86,0,0,0,3.65-.94c2.87-.91,5.92-1,8.8-2,1.53-.49,3.11-.77,4.67-1.17a2.94,2.94,0,0,0,.92-.36c2.63-1.69,5.4-3.18,7.48-5.61a6.8,6.8,0,0,0,1.22-2.05.63.63,0,0,1,.81-.43.61.61,0,0,1,.26,1c-.75,1.05-1.07,2.33-2.31,3.17-1.7,1.13-3.23,2.54-4.88,3.79a18.16,18.16,0,0,1-7.17,2.88c-2.9.7-5.71,1.88-8.77,1.83-.31,0-.61.25-.93.36-1.62.57-3.18,1.31-5,.94a5.36,5.36,0,0,0-2.9.71,7.14,7.14,0,0,1-4.87.25,15.83,15.83,0,0,0-7.18-.1,43.72,43.72,0,0,1-13.17,0C98.26,523.89,97.83,522.93,97.18,522.18Z"/><path d="M117.31,411.13a1.2,1.2,0,0,1,.09,1.39,6.66,6.66,0,0,0-.59,3.31c0,2.11,0,2.11,1.9,2.7,1.15.35,1.27.26,1.44-1,.28-2.16.32-2.24,1.56-3.75a7.53,7.53,0,0,1-.48,3.18c-.59,2.51-.43,2.92,1.91,3.74a7,7,0,0,1,2.67,1.71,1.54,1.54,0,0,1,.23,2.17,1.58,1.58,0,0,1-2.35.18c-1.22-1.43-3-1.71-4.51-2.42a7,7,0,0,0-5.07-.63,7.78,7.78,0,0,1-2,.3c-1.17,0-2.06-.91-1.69-1.9a11.87,11.87,0,0,0,.37-4.35,13.06,13.06,0,0,1,.4-4.57c.34-.86.34-.86,1.55-1.19a23.79,23.79,0,0,0-.72,7c.07,1,.11,1.75,1.37,1.71s2.19-.61,2.18-1.79a9.24,9.24,0,0,1,1-5.22A1,1,0,0,1,117.31,411.13Z"/><path d="M53.53,301.36c2.66-.06,5.12.84,7.58,1.68.4.14,1,.36.69,1s-.82.35-1.26.11a10.24,10.24,0,0,0-3-1,48.65,48.65,0,0,0-7.8-.63,91.88,91.88,0,0,1-17.48-2.28,18.35,18.35,0,0,0-4.95-.67,1.48,1.48,0,0,1-1.44-.49,1.08,1.08,0,0,1-.21-1.12.79.79,0,0,1,1-.43c2.27.58,4.65.55,6.9,1.28,2.8.91,5.72,1.33,8.57,2,2.57.57,5.33.22,8,.5C51.26,301.31,52.39,301.31,53.53,301.36Z"/><path d="M88,513.51c-2.32.48-4.35-.27-6.36-1.29A3.78,3.78,0,0,1,80,510.37a1.13,1.13,0,0,1,.34-1.45,1.09,1.09,0,0,1,1.29-.11,15.88,15.88,0,0,0,7.65,2,4.61,4.61,0,0,1,2.43.86c.89.59.72,1.26-.27,1.72S89.14,513.31,88,513.51Z"/><path d="M72.6,518.61c-2.53,1-4.35-.55-5.9-2a10.68,10.68,0,0,1-3.53-6.5c-.22-1.75,1.58-5,3.1-5.63-.56,1-1.15,2.05-1.7,3.09a3.91,3.91,0,0,0,.12,3.85c1.66,3.06,3.78,5.63,7.45,6.37C72.39,517.88,72.62,518.07,72.6,518.61Z"/><path d="M85.49,521.91c1.42-.16,2.68-.28,3.94-.43a2.65,2.65,0,0,1,1.37,0,.66.66,0,0,1,.41.37c0,.13-.17.45-.26.45-2.33-.08-4.51,1.38-6.89.62a32.05,32.05,0,0,0-4.4-1.27,1,1,0,0,1-.8-.53c-.18-.38-.77-.71-.31-1.2s.7-.09,1.08.07c1.59.65,3.33.9,4.85,1.78A2.53,2.53,0,0,0,85.49,521.91Z"/><path d="M90.41,495.87c-.78.08-.92.93-1.51,1.22-.37.17-.74.39-1.06,0a.64.64,0,0,1,.07-.91,14.53,14.53,0,0,0,2.31-2.7c.65-.86,1.1.18,1.66.28,1.31.23,1.43.77.58,1.68-.63.68-.43,1.65-.87,2.4-.19.34-.29.79-.84.59-.38-.15-.4-.47-.4-.82C90.34,497,90.88,496.46,90.41,495.87Z"/><path d="M133.28,504.73c0-.34.12-.52.3-.54,2.36-.25,3.71-1.93,5.11-3.55a4,4,0,0,1,1.7-1.35c.66-.24,1.24-.12,1.49.56s-.44.66-.82.85a15.76,15.76,0,0,0-3.25,2.62,5.29,5.29,0,0,1-3.51,1.7C133.91,505,133.5,505.06,133.28,504.73Z"/><path d="M131,501.23c1.68,1.8,2.84.49,4-.49a10.22,10.22,0,0,0,2.73-3.15c.19-.38.54-.68,1-.44s.34.67.1,1a14,14,0,0,1-4.44,4.53C132.49,503.83,131.51,503.39,131,501.23Z"/><path d="M108.32,409.85c-.07,3.18-.23,6.08-.1,9,0,.36,0,.7-.46.74a.44.44,0,0,1-.49-.5c.59-2.45-.82-4.78-.4-7.23A2.16,2.16,0,0,1,108.32,409.85Z"/><path d="M132.47,495.91c-.52,1.13-1.34,1.17-2,1.41s-1.68-.37-1.47-1.06c.36-1.17-.22-2.08-.45-3.1-.13-.57-.14-1.12.55-1.28s.94.32,1,.94a5.93,5.93,0,0,0,.07.59C130.33,494.73,130.58,496,132.47,495.91Z"/><path d="M149.56,529.51a1.58,1.58,0,0,1-1.08-.63c-.53-.67-1.09-1.34-1.58-2a1.23,1.23,0,0,1,.29-1.89c.78-.28,1.05.28,1.29.87a6.75,6.75,0,0,0,1.45,2.6.59.59,0,0,1,.08.88A1.25,1.25,0,0,1,149.56,529.51Z"/><path d="M155.64,525.79c-.84.65-1.48.76-2.16,0-.86-1-1.25-2.57-.68-3.29s.88-.13,1,.32A6.23,6.23,0,0,0,155.64,525.79Z"/><path d="M139.37,504.51a7.24,7.24,0,0,0,3.23-2.23,2.43,2.43,0,0,1,.81-.57c.43-.18,1-.34,1.22.22s-.23.75-.52,1a25.93,25.93,0,0,1-2.83,1.85A1.41,1.41,0,0,1,139.37,504.51Z"/><path d="M94.32,496.87c.23-.71.47-1.66.84-2.56a.81.81,0,0,1,1.18-.37c.46.27.22.68,0,1a6.56,6.56,0,0,0-.65,2.47c0,.4.33,1-.42,1.08s-1-.55-1-1.21Z"/><path d="M108.86,496.33c0-.54.07-1,.64-1.13s.63.37.78.76a10.85,10.85,0,0,0,.69,1.65c.25.43.56.81,0,1.18a1,1,0,0,1-1.41-.26A4.44,4.44,0,0,1,108.86,496.33Z"/><path d="M142.73,507.16a7.64,7.64,0,0,1,3.16-3.81c.23-.15.53-.22.71,0s.09.45,0,.53c-1.19,1.05-2,2.5-3.23,3.46C143.22,507.48,143,507.45,142.73,507.16Z"/><path d="M101.5,496.22c0-.59,0-1.22.76-1.24.58,0,.78.45.78,1a4.43,4.43,0,0,0,.47,2.31.66.66,0,0,1-.38,1,.79.79,0,0,1-1.12-.53C101.78,497.87,101.66,497,101.5,496.22Z"/><path d="M107.44,497.51c0,.33.06.6,0,.86a.76.76,0,0,1-.72.81c-.44.05-.47-.4-.56-.68a10.44,10.44,0,0,0-.67-2.49.61.61,0,0,1,.23-.86.84.84,0,0,1,1.09.2A2.48,2.48,0,0,1,107.44,497.51Z"/><path d="M103,535.6c.13-.58.51-1,1.1-.61a8.44,8.44,0,0,1,1.79,1.53c.39.44.13.89-.41,1S103,536.33,103,535.6Z"/><path d="M160.93,522.81c-.63.7-1.16,1.12-1.74.77a3.18,3.18,0,0,1-1.61-1.94.67.67,0,0,1,.17-.54c.24-.25.47-.07.68.1A8.3,8.3,0,0,0,160.93,522.81Z"/><path d="M97.91,496.93c0-.24.09-.63.19-1a.59.59,0,0,1,.54-.51.49.49,0,0,1,.5.52,4.1,4.1,0,0,0,.4,1.94c.33.63-.16,1.05-.66,1.23-.66.25-.77-.36-.87-.8A9.75,9.75,0,0,1,97.91,496.93Z"/><path d="M84.31,502.61a9,9,0,0,0,5,.82C88.09,505,86.11,504.66,84.31,502.61Z"/><path d="M119.76,495.49c.07-.46.16-.82.47-1s.49.09.68.27a3,3,0,0,1,1.1,2.07c0,.55-.33,1-.88.67A4.31,4.31,0,0,1,119.76,495.49Z"/><path d="M163.24,518.89c.85-.07,1.32.72,2.07.71.51,0,1,.16.76.81a1.07,1.07,0,0,1-1.28.73A1.94,1.94,0,0,1,163.24,518.89Z"/><path d="M135.08,396.54a14.94,14.94,0,0,1,3.82-1.49.7.7,0,0,1,.52.19.31.31,0,0,1-.11.49c-1.38.33-2.59,1.27-4.09,1.19C135.18,396.91,135.14,396.71,135.08,396.54Z"/><path d="M113,495.84a2.5,2.5,0,0,1,1.7,2.23.55.55,0,0,1-.49.53.82.82,0,0,1-.89-.29A4.07,4.07,0,0,1,113,495.84Z"/><path d="M124.54,495.5c.38-.55.79-.84,1.39-.53s1,.6.74,1.24-.66.6-1.15.32S124.51,496.14,124.54,495.5Z"/><path d="M54.3,224.77c0-.63.57-.78,1-1.1s.69-.64,1.21-.42c.19.09.33.35.22.47a3.65,3.65,0,0,1-2,1.42C54.47,225.18,54.34,225,54.3,224.77Z"/><path d="M117.82,495.7c.42,0,1,0,.85.52-.16.8-.94.83-1.6.86-.38,0-.93,0-.85-.55C116.35,495.62,117.2,495.83,117.82,495.7Z"/><path d="M158.85,498.5c1-.05,1.34.59,1.86.95a.54.54,0,0,1,.13.85c-.21.26-.48.14-.7,0A2.27,2.27,0,0,1,158.85,498.5Z"/><path d="M158.28,501c-.91-.41-1.31-.86-1-1.64a.37.37,0,0,1,.33-.15C158.49,499.45,158.2,500.19,158.28,501Z"/><path d="M167.8,516.76c.35,0,.68.1.78.47s-.21.59-.55.63a.61.61,0,0,1-.76-.44C167.18,517,167.46,516.85,167.8,516.76Z"/><path d="M242.84,73.08c3.88-2.35,6.7-5.39,9.83-8.06,3.6-3.09,7.15-6.25,10.92-9.15,1.85-1.42,3.43-3.17,5.24-4.66a160,160,0,0,1,12.76-9.71,43.13,43.13,0,0,0,3.54-2.62,22.1,22.1,0,0,1,5.52-3.24c5.33-2.3,10.49-5,16-6.89.95-.33,1.92-.56,2.89-.84.35-.1.72-.1.89.22.27.5-.17.68-.52.89a10.7,10.7,0,0,1-2.14,1.07,37.79,37.79,0,0,0-5.73,2.24,95.89,95.89,0,0,1-8.95,4A26.1,26.1,0,0,0,286.65,40,68,68,0,0,1,281,43.76a109.31,109.31,0,0,0-12.52,9.71c-3.61,3.06-7.09,6.34-10.73,9.37-4.06,3.36-7.83,7.1-12.3,10C244.71,73.28,244.47,73.33,242.84,73.08Z"/><path d="M202.91,105.9c.11-.68.65-.76,1.17-.89,2.85-.69,5.69-1.49,8.57-2,2.57-.49,5-1.42,7.48-2.12,3.8-1.06,7.38-2.77,11.17-3.83a61.93,61.93,0,0,0,14.82-6.48c1.13-.68,2.36-1.19,3.65-1.83a1.7,1.7,0,0,1-.92,2.1c-2.57,1.54-5,3.29-7.89,4.29-2.53.87-4.8,2.37-7.42,3-5.25,1.29-10.19,3.61-15.45,4.87-2.65.63-5.33,1.14-8,1.57-2.06.32-4,.93-6,1.39C203.64,106,203.27,106.27,202.91,105.9Z"/><path d="M177,117.65c-.44-.75-.27-1.14,0-1.43,2-2,3.55-4.52,5.77-6.38,1.75-1.46,2.87-3.54,4.83-4.79a52.91,52.91,0,0,0,8.76-7.25,20.22,20.22,0,0,1,3.49-2.68,32.41,32.41,0,0,0,5.23-4.63,8.76,8.76,0,0,1,1.66-1.44c.24-.15.5-.22.72,0a.46.46,0,0,1-.06.7,55.93,55.93,0,0,1-4.85,4.77c-2.17,1.69-4.19,3.53-6.22,5.36a83.66,83.66,0,0,1-8,6.66,35.68,35.68,0,0,0-5.82,5.46A56.33,56.33,0,0,1,177,117.65Z"/><path d="M162.56,141.72a4.75,4.75,0,0,1,.45-3.64,15.62,15.62,0,0,0,1.55-4.71,7.67,7.67,0,0,1,1.34-3.53c1.55-2.26,2.32-5,4-7.14a7.25,7.25,0,0,1,2.11-1.83c.34-.2.76-.36,1.09,0a.8.8,0,0,1-.15,1.24c-2.42,1.74-3,4.69-4.55,7-2,2.89-2.5,6.46-4,9.58A11,11,0,0,1,162.56,141.72Z"/><path d="M202,129.13c.63.12,1.22.22,1.81.35,2,.46,2.36,1.42,1,3-.12.13-.39.3-.48.25-1.28-.67-2.89-.57-3.93-1.84-.78-1-.75-1.29.44-1.59A9.92,9.92,0,0,1,202,129.13Zm1.46,2.32c.29,0,.6,0,.57-.36,0-.54-.49-.71-1-.75s-.74.1-.67.49S203,131.36,203.44,131.45Z"/><path d="M218.64,143.94c.41-2.21.78-4.31,1.21-6.4.09-.48.22-1.19.93-1,.52.13.45.74.37,1.21-.36,2.1-.73,4.2-1.06,6.31a.86.86,0,0,1-.94.82C218.43,144.86,218.62,144.28,218.64,143.94Z"/><path d="M214.05,129c-.64.66-1.51,1-1,1.92,0,.09-.12.42-.25.48a22.88,22.88,0,0,0-3.42,2.07.55.55,0,0,1-.73-.11.6.6,0,0,1,.19-.88,4.12,4.12,0,0,0,1.74-2.32C211.14,128.82,211.83,128.66,214.05,129Z"/><path d="M213.74,137.69a16.81,16.81,0,0,0-2.89,2.41.7.7,0,0,1-1.07,0c-.3-.34,0-.59.22-.85.54-.67,1.22-1.28.25-2.19-.27-.25-.07-.82.33-1,.58-.28,1.36-.3,1.62.25S213.34,137,213.74,137.69Z"/><path d="M205.08,128.59c-1-.31-2-.6-3-1a.66.66,0,0,1-.34-.85.67.67,0,0,1,.92-.53,12.94,12.94,0,0,0,3.41,1.09c.41.06.38.48.11.78A1.42,1.42,0,0,1,205.08,128.59Z"/><path d="M202.68,125.07c0-.51.28-.75.62-.74a8,8,0,0,0,2.91-.42.63.63,0,0,1,.9.5c.09.54-.26.63-.71.69a16.24,16.24,0,0,1-2.68.6A1.15,1.15,0,0,1,202.68,125.07Z"/><path d="M212.87,126.11a4.33,4.33,0,0,1-2.53,1.33.81.81,0,0,1-1-.56c-.12-.49.13-1.11.59-1.09C210.87,125.83,211.82,125.22,212.87,126.11Z"/><path d="M204.14,121.7a4.25,4.25,0,0,1,2.13-.94.62.62,0,0,1,.77.46.65.65,0,0,1-.51.9C205.79,122.2,205,122.54,204.14,121.7Z"/><path d="M263.29,91.84a.84.84,0,0,1-.68.48c-.45.06-.93.11-1.21-.37,0-.07,0-.26.09-.33.35-.32.73-.11,1.09,0Z"/><path d="M128.11,142.3c0,1.18-.17,2.17-1.74,2-.7-.07-1,1.51-2,.54-.58-.57-.37-1.39-.66-2-.13-.31-.27-.61-.37-.93-.19-.65,0-1,.76-1a2.26,2.26,0,0,0,1-.07c.75-.39,1.18-.18,1.23.62.08,1.41.91,1.2,1.8.92Z"/><path d="M124.8,137.13a8.36,8.36,0,0,1,2.57-3.44c.36-.31.89-.23,1.11.39.52,1.49-1.47,4.09-2.95,3.83C124.94,137.81,124.76,137.63,124.8,137.13Z"/><path d="M131.61,141.05c-1,.08-2.75-1.79-2.6-2.84.07-.49.46-.78.8-.36a6,6,0,0,0,2.34,2.05c.25.1.23.44.07.69A.84.84,0,0,1,131.61,141.05Z"/><path d="M128.15,142.35c-.39-.69-.84-1.36-1.17-2.08a.72.72,0,0,1,.43-1c.39-.17.63.08.79.4a3.2,3.2,0,0,0,1.22,1.54c.45.25.77.63.51,1.14s-.7.28-1.08.22a3.31,3.31,0,0,1-.74-.28Z"/><path d="M133.23,135.12c.32,0,.7-.06.77.4s-.78,1.14-1.62,1.13c-.44,0-.91-.15-.86-.61C131.64,135,132.56,135.25,133.23,135.12Z"/><path d="M133.91,133.05c-.36-.09-.59-.28-.56-.68a.5.5,0,0,1,.55-.46.56.56,0,0,1,.54.68C134.41,132.92,134.18,133,133.91,133.05Z"/></g></svg>