<svg xmlns="http://www.w3.org/2000/svg" viewBox="0 0 303.83 549.11"><defs><style>.cls-1{fill:#c1272d;}.cls-2{fill:#fff;}.cls-3{fill:#e8fdff;}.cls-4{opacity:0.15;}.cls-5{fill:#ffb9c7;}</style></defs><title>pinkLady</title><g id="cherry"><path class="cls-1" d="M237.81,101.36s1.73-13.38,17.94-11.1c0,0-8,.74-17.94-12.36s-18.5-21-22-30S204,19.65,205,13.4s1.25-9.7,1.25-9.7l4.32-1.3s2.75,1.6,3.21,3.5-1,8.25,1,14.25S221,46.9,221,46.9l9.54,15.75L248.64,78.4l7.11,6s-3.4-3.27,2.83-6,10.48-4.75,15.48-3.75,10.37,2.68,11.71,5,2.62,14.16,2.62,14.16l5.12,7.37,5,10.75s3.57,9.63,3.56,13.49-4.36,7.21-7.8,8-5,1.81-9.72,5-8.94,6.08-14.23,5.19a7.69,7.69,0,0,1-4,1.53c-2.62.31-12.62-7.92-13.43-10.46s-2.45-7.67-2.45-7.67Z"/><path class="cls-2" d="M258.58,129.53c1.73,2.62,4,5.5,5.73,6s2.63.32,2.75-.84a8.78,8.78,0,0,0-.75-5.16c-1.12-2.88-3.4-2.72-3.4-2.72s-.35-1.53-1.6-.66A14.12,14.12,0,0,0,258.58,129.53Z"/><path class="cls-2" d="M258.15,96.26c.16-3.36,1.66-9.9,3.66-11.19s5.88-1.92,6.88-1.17,4.37,4,4.37,4l-2.65,4.55a8.64,8.64,0,0,1,.15,2.89c-.25,1-4.25.88-4.25.88Z"/></g><g id="glass"><path class="cls-3" d="M2.56,100.36C7.69,92.52,38,89.55,38,89.55l35.17-2,20.93-4,45.5-3.18L188,78.59l55.35,7.53,9.24,3.64L245,91.53l-9.28,11.37,20-4,13.06-3.35s2.51,4.18-3.74,12.38-13.56,19-13.56,19l1.37,7.77L218,186.59,197,214.9,182,240.15l-15.4,32-5.27,5.46-2.28,7-4.24,23-2.88,19.25V459.4l1.51,19.37s12.14-1.14,21.52,0,29.73,3.88,36.93,10.13a55,55,0,0,1,11.44,14.57l-3.25,8.22.75,8.42s-.5,6.78-3.75,9.29-4.31,6.21-13.53,8.48-35.77,7.52-37.74,8-28.78,0-28.78,0l-12.21,2.34s-21-1.84-28.49-3.84-18.73-5.71-21.5-8.24-8.1-22.9-8.1-22.9-2.9-7.54,2.1-11.45,22-12.66,22-12.66l35.13-9,11.1-1.42s-1.72-14.37-1.71-21.87,0-48.5,0-48.5l.74-17.75-2.44-2,1.7-21.75s-1.3-31.5-3.14-37.5-3.1-26.61-6.85-36.18-14.16-33.41-14.16-33.41S99.81,234.9,98.06,232.65s-20.8-29-25.25-32.44-19.25-26.56-19.25-26.56L25,134.69S-.35,104.82,2.56,100.36Z"/></g><g id="glass_shade" data-name="glass shade"><path class="cls-4" d="M186.75,499.25c-1-3.22-5.56-4.49-9.45-4.73-.11-1.31-.39-2.27-.9-2.17a21.86,21.86,0,0,0-5.46,1.55,37.5,37.5,0,0,1-6.22,2,115.7,115.7,0,0,1-14.35,2.36,129.35,129.35,0,0,1-14.73.68c-2.45,0-4.9-.14-7.35-.16-3.49,0-3.43-.46-5.53,2.49-.56.79-.49,2.75-.09,3.84-2.8-.29-5.6-.64-8.39-1-1.28-.16-2.68-.24-4.08-.4a74.29,74.29,0,0,1,8.65-5.56c.42-.26.41-2.86-.07-2.85-3.81.1-11.91,2.56-13.79,6.41-1.36,2.78-.86,8.22.82,10.79,3.19,4.9,12.77,5.81,18,6.49a129.07,129.07,0,0,0,23.34.63c7.56-.38,15-1.32,22.51-2.38,5.2-.73,11.41-.89,15.09-5.24C187.44,508.78,187.93,503.19,186.75,499.25Zm-8.89,3.91c-1.07.2-2.15.38-3.24.53a16.92,16.92,0,0,0,1.64-2,20,20,0,0,0,2.42,1l.55.21Z"/><path class="cls-4" d="M148.43,465.59l-.26.16a1.11,1.11,0,0,0-1.3.12c-.43.12-1,.27-1.37.42-1,.38-2,1-3.05,1.38-1.33.44-2.5.53-3.55,1.55s-.72,3.82-.69,4.92c0,1.34-.07,3.83.93,4.88,1.68,1.77,4.81,1.28,6.68-.08,2.74-2,3.67-5,3.69-8.3C149.52,469.59,149.68,466.22,148.43,465.59Z"/><path class="cls-4" d="M119.89,540.57c-3.25-1.22-7.16-.74-10.63-1.25a62.24,62.24,0,0,1-10.91-2.74c-6.95-2.4-13.87-4.66-20.88-6.86l-.16.1-1.47,1.76a.39.39,0,0,0,0,.3c2,4.17,4.58,5.06,8.6,7.17a112,112,0,0,0,11.86,5.27c6.47,2.49,17.1,6.38,23.76,3.31C121.27,547.07,121.13,541,119.89,540.57Z"/><path class="cls-4" d="M220.92,515.16c-2.23.47-3.82,2.62-5.61,4a57.14,57.14,0,0,1-8.69,5.38c-5.6,2.8-11.94,4.16-17,8-.92.69-.93,7.46.41,7.62,6.27.73,13.53-2.72,19-5.54,5.1-2.62,10.1-6,12.52-11.32C222,522.41,222.25,514.87,220.92,515.16Z"/></g><g id="liquid"><path class="cls-5" d="M25,125.44s14.65,4.21,24,8,37.39,7.32,42.73,8.43,22.81,0,22.81,0l28.31-1.93,20.14-.25,19.47-1.22,34.34-4.29,12.88-.26,24.2-7.61L241,143.62l-39.71,57.1L188,220.15l-11.08,22s-28,4.5-32.92,5.25-18.65,0-18.65,0-13.57-4.75-14.16-5.25-11-17-11-17L61.85,173.4,39.08,145.16Z"/><path class="cls-5" d="M108.31,249.65c6.75,2.75,18.94,4,22,5.9s23,2.85,23.29,1.35,23.49-7.25,23.49-7.25-5.75,12.58-5,13-10.75,15-10.75,15-11.17.47-17.08,1.36-16.93.1-16.93.1l-8.76-2.68Z"/></g><g id="liquid_shade" data-name="liquid shade"><path class="cls-4" d="M250.3,126.7c-6.34,2.84-13.82,2.38-20.12,5.36a55.94,55.94,0,0,0-8.62,4.49c-3.8,2.7-8,5.9-13.09,4.89-1.87-.38-3.37-1.35-5.36-1.61s-3.88-.19-5.78-.53-3.83-1.3-5.84-1.7a34.19,34.19,0,0,0-6.79-.22c-8,.06-15.95.61-23.92,1.31-15.58,1.36-31.17,3.25-46.82,3.1a304.7,304.7,0,0,1-41.59-3.45c-7.62-1.12-15.21-1.86-22.74-3.51-3.41-.74-7-.88-10.34-1.63-1.61-.35-3.39-.38-5-.84-1.92-.54-3.58-1.63-5.55-2.1-.08,0-.05.47,0,.52a127.05,127.05,0,0,0,37,28.93c12.55,6.48,28.19,9.73,42.21,10.64,15.45,1,30.64-.39,45.94-2.5,7.93-1.09,15.84-2.27,23.79-3.23,4.13-.5,8.45-.73,12.53-1.59a23.5,23.5,0,0,0,5.74-2.4c2.14-1.07,4.46-1.67,6.68-2.56,4.44-1.78,7.49-5.32,12.14-6.78,4-1.27,7.7-.25,11.74-1.56,5-1.63,7.86-3.75,12.14-6.73,4.07-2.84,7.57-6.38,11.86-8.87C252,133.24,250.67,126.54,250.3,126.7Z"/><path class="cls-4" d="M171,251.15c.23-.24-1.82.66-1.94.73a12.74,12.74,0,0,1-3.33,1.77c-2.61.83-5.06,2-7.71,2.85-5.83,1.78-12.75.53-18.79.47-5.46-.06-10.92-.29-15.92-2.69-1.59-.77-3.71-3.06-5.45-3.32-2-.3-5,2.64-6.11,3.4-.21.15-.09,1,0,1.2,3.38,7.62,4.7,18.79,11.43,24.47,5,4.21,12,4.35,18.17,3.63a55.63,55.63,0,0,0,20.73-6.85c6.54-3.86,8.91-11.91,9.95-18.92C172.16,257.22,171.93,250.24,171,251.15Z"/></g><g id="foam"><path class="cls-2" d="M13.56,104c-1.28.6,9.5,20,9.5,20a96.59,96.59,0,0,0,11.73,4.47c8.72,2.92,32.71,9.53,42.22,11s46.62,1.76,46.62,1.76l29.16-1.43a194.57,194.57,0,0,0,25.9.12c13.9-.89,53.1-6.67,53.1-6.67l19.72-6.31s13.82-19.73,16.09-25.37S263.17,97,263.17,97l-26.36,5.64A12.1,12.1,0,0,1,241,95c4-3.5-.3-6.23-.3-6.23l-55.66-3S131.87,85,123.38,87s-22.23,2.38-22.23,2.38L81.67,92.46S59.53,98,57.92,97.82,41.5,99.05,41.5,99.05,16.56,102.57,13.56,104Z"/></g><g id="outline"><path d="M137.41,480.8c-1.89,1.92-2.6,4.5-3.81,6.81a30.5,30.5,0,0,1-4.5,6.2,8.69,8.69,0,0,0-.67.83c-.64.9-.57,1.29.51,1.46,2,.31,3.81,1.26,5.87,1.06.46-.05.89,0,.95.6a.93.93,0,0,1-.69,1,4.73,4.73,0,0,1-2.74.08c-1.69-.32-3.39-.53-5.06-.9a1.81,1.81,0,0,0-1.9.62c-.89.94-.8,1.41.39,1.77a42.18,42.18,0,0,0,12.38,2c3,0,6,.22,8.89-.89a9.13,9.13,0,0,1,3.61-.28,14.11,14.11,0,0,0,5.88-1c1.38-.55,2.87-.86,4.3-1.28a4.33,4.33,0,0,0,1.2-.46c.54-.37,1.57-.69,1-1.52s-1-1.7-2.2-1.3c-.47.16-.92.39-1.4.54-4.21,1.32-8.45,2.53-12.62,4-2.37.83-4.51-.19-6.75-.36-.47,0-.69-.47-.65-1s.39-.73.86-.77a8,8,0,0,1,2.34.16,7.61,7.61,0,0,0,4-.11c3.78-1.27,7.52-2.62,11.36-3.72,1.68-.48,1.61-.67.41-2.1s-2.19-2.82-3.2-4.28a1.08,1.08,0,0,1,.8-1.76,2.56,2.56,0,0,1,2.79,1.12c2.33,3.73,5.8,5,10.06,4.79a74.17,74.17,0,0,1,9.43-.08,14.47,14.47,0,0,1,9.56,4.74,11.23,11.23,0,0,1,2.39,5,4.39,4.39,0,0,1-.05,1.69.74.74,0,0,1-.71.68.6.6,0,0,1-.67-.43c-.16-1-1-1.13-1.76-1.27-3.23-.56-6.45-1.19-9.65-1.93-.44-.1-1-.49-1.37.09s-.06,1.1.15,1.64.5.87,1.12.68c2.18-.65,4.15.38,6,1.13a13.31,13.31,0,0,0,5.72,1.23c.12,0,.24.14.37.22,0,.75-.61.66-1.08.69a14.12,14.12,0,0,1-5.22-1,35.33,35.33,0,0,0-5.47-.93.45.45,0,0,0-.5.3.42.42,0,0,0,.23.53,4.54,4.54,0,0,0,1.63.49,63.94,63.94,0,0,0,8.28,1,17,17,0,0,1,2.55.27.6.6,0,0,1,.34.45.62.62,0,0,1-.38.45,4.23,4.23,0,0,1-1.28,0c-3.6-.44-7.28-.2-10.83-1.19-.27-.07-.66,0-.83-.15-1.7-1.67-3.44-.44-4.93.15a19.33,19.33,0,0,1-6.81,1.57,33,33,0,0,0-8.48,1.11,23.58,23.58,0,0,1-4.45.59,20.25,20.25,0,0,0-3.19.3,1.63,1.63,0,0,1-2.09-2,2.44,2.44,0,0,0-.28-1.62,1.49,1.49,0,0,1,1-2.31c.29.22.19.52.22.78.36,2.83,1.72,3.71,4.44,2.89.86-.27,1-.72.46-1.41a3.32,3.32,0,0,1-.83-1.48c-.24-1.53-1.23-1.92-2.61-1.9-2.25,0-4.32.92-6.5,1.27-.64.1-.66.61-.59,1.17a3.72,3.72,0,0,0,1.37,2.09c.6.62.39,1.34-.38,1.41-6.19.63-12.34.81-18.23-1.72a14.2,14.2,0,0,0-2.48-.67c-2.34-.53-4.31-1.52-5.1-4a1.33,1.33,0,0,0-1.49-1,9.56,9.56,0,0,1-5.66-1.64c-1.44-.88-2.52,0-3.48.8a28.36,28.36,0,0,1-2.28,1.85,1.07,1.07,0,0,0,1,.8c2.46.16,4.66,1.25,7,2,1.8.57,3.65.41,5.44.6.06.14.13.22.11.27-.65,1.6-1.79,1.66-3.35,1.39-4-.69-8-1.26-12-2.23A2.84,2.84,0,0,0,100,506c-.57.46-.61,1,0,1.37a9.53,9.53,0,0,0,2.39.92,94.49,94.49,0,0,0,11.84,1.79c.73.07,1.58-.18,2.2.91-2.59,0-5-.65-7.41-.29,2.78,1.36,5.44,3.06,8.81,2.58a2.39,2.39,0,0,1-2.55.55,12.89,12.89,0,0,1-3.26-1,38.28,38.28,0,0,0-10.53-2.68c-.55-.08-1,.18-1.75.51,2.17,1.34,4.47.83,6.48,1.5s4.11,1.16,6.14,1.81,4.3.53,6,2.12c-3.58-.82-7.18-1.55-10.74-2.47-3.29-.84-6.68-.72-10-1.32-.69-.12-1.08.25-1.13,1,0,.41.16.85-.16,1.24a5.91,5.91,0,0,1-.64-4.1A11,11,0,0,1,98,506c2.94-3.22,6.62-5.37,10-7.91,1.63-1.22,2.29-1.1,3.34.55a2.76,2.76,0,0,0,1.56,1.06c2.46.87,4.72.78,6.53-1.44-.78-.54-1.5,0-2.24.11a4.9,4.9,0,0,1-3.35-.26c-.47-.27-.84-.62-.66-1.2s.68-.25,1.06-.21.79.2,1.07-.36c1-1.91,1.76-2.25,4-1.85,0,1.19-1.3,1.15-1.89,1.91.54.49,1.23.08,1.8.36a1.6,1.6,0,0,0,2.47-.83,1.51,1.51,0,0,1,.4-.51,34.84,34.84,0,0,0,8.4-9.85,5.4,5.4,0,0,0,.36-.77c.51-1.36.28-1.83-1.1-1.7a29,29,0,0,0-5.94.68,5,5,0,0,1-1.47.29c-3.11,0-6,1.07-9.09,1.42-3.2.37-6.24,1.4-9.4,1.9-1.28.21-2.12,1.14-3.27,1.51-4.29,1.35-8.56,2.74-12.84,4.1a39.89,39.89,0,0,0-11.6,5.69,10.42,10.42,0,0,1-2,1.2,10.76,10.76,0,0,0-4.43,3.92c-1,1.39-2,2.64-1.76,4.6a7.45,7.45,0,0,1-.72,2.88c-.2.64-.67,1.11-.53,1.95a1.34,1.34,0,0,1-1.43,1.51c-.8,0-1.26-1-.8-2,.83-1.76.57-3.64.75-5.47a11.55,11.55,0,0,1,5.32-9c2.09-1.37,4-3,6.14-4.28,1.72-1.07,3.28-2.53,5.45-2.73a1.28,1.28,0,0,0,.61-.18c3.34-2.25,7.51-2.23,11-4,1-.52,2.23-.39,3.35-.65,3.84-.88,7.37-2.66,11.1-3.84a10.34,10.34,0,0,1,4-.65c1.8.14,3.48-.64,5.22-1,1.41-.28,2.83-.34,4.25-.48a32.4,32.4,0,0,0,9-1.83c2.14-.87,2.43-2.91,2.37-4.64-.22-5.94-.23-11.87-.13-17.8s-.24-12,.17-18c.5-7.34.15-14.7.49-22,.19-3.92.07-7.84.19-11.76.13-4.13.05-8.28.05-12.42,0-.64.05-1.32-.56-1.76a2.21,2.21,0,0,1-.64-2.71,21.34,21.34,0,0,0,.61-7.2,114.94,114.94,0,0,1-.15-17.11,43,43,0,0,0-.6-9.59,58.92,58.92,0,0,1-.43-9.18,64.41,64.41,0,0,0-1.61-14.2c-.7-3.49-1.09-7.05-1.93-10.5-1.19-4.86-2.11-9.77-2.93-14.68-.57-3.38-1.72-6.63-2-10.07a5.33,5.33,0,0,0-1.14-2.74c-1.71-2.3-1.8-5.25-3.1-7.71.62-3.18-1.43-5.55-2.48-8.23a17.5,17.5,0,0,1-1.08-3.43,5.24,5.24,0,0,0-1.52-3.22c-.85-.76-.78-1.82-1.1-2.73-1.5-4.27-4-8.07-5.61-12.28-1.11-2.94-3-5.5-3.86-8.56-.77-2.62-2.67-4.7-3.93-7.11-2.46-4.68-5.29-9.14-8.13-13.6A9,9,0,0,0,89.86,223a1.57,1.57,0,0,1-.29-2.29c.39-.58,1.9-.54,2.56,0a6.69,6.69,0,0,1,.74,1c3.69,5.26,7.2,10.63,10.41,16.21a10.67,10.67,0,0,0,.57.91c1.45,2,3.05,2.65,5.37,1.72a3.49,3.49,0,0,1,3.42.35,58.09,58.09,0,0,0,8.46,4.14c2,.85,4.07.56,6.13.38,1.71-.15,3.41-.39,5.12-.54a5.39,5.39,0,0,1,1.7.08c.8.2,1.81.29,1.82,1.45a2.52,2.52,0,0,1-2,2c-2.78-.07-5.52.51-8.3.35a7.57,7.57,0,0,0-2.13.05,9.28,9.28,0,0,1-6.41-1.16,28.89,28.89,0,0,1-5.79-3.23,6.32,6.32,0,0,0-3.59-1.24c-1-.09-1.32.44-.81,1.3A6.77,6.77,0,0,0,111,247.4a6.39,6.39,0,0,1,2.71,1.6,13.88,13.88,0,0,0,7.13,4.18c4.35.71,8.42,2.71,12.89,2.74a38.32,38.32,0,0,0,6.42-.2,46.44,46.44,0,0,1,8.34-.2A34.72,34.72,0,0,0,161,254c1.62-.57,3.1-1.41,4.67-2.08,2.22-1,4.13-2.88,6.86-2.47a3,3,0,0,0,1.62-.49c1.27-.56,1.95-1.81,3.11-2.52a1.31,1.31,0,0,0,.52-1.71c-.33-.58-1-.52-1.56-.4a34.71,34.71,0,0,1-3.94.95c-2.2.22-4.28,1.43-6.56.87-2.85-.71-5.61,0-8.42.36-2,.3-4.24-.06-6.1.82a17.81,17.81,0,0,1-5.74,1.47c-1.88.19-3.82.51-5.7-.29-.83-.35-1.39-.77-1.23-1.72a1.58,1.58,0,0,1,1.69-1.34c.72,0,1.43-.05,2.15,0a28,28,0,0,0,10.47-1.87,22.11,22.11,0,0,1,4.84-.84c2.47-.3,5-.2,7.41-.9a2.22,2.22,0,0,1,1.46-.06c2.23.85,4.35.32,6.45-.52a15.87,15.87,0,0,1,2.45-.78c4.4-1,7.05-3.93,8.81-7.85A7,7,0,0,1,186,230a21,21,0,0,0,3.22-4,104.1,104.1,0,0,0,5.78-9.47,19.8,19.8,0,0,0,.87-2.18,4.53,4.53,0,0,1,1.83-2.32,1.29,1.29,0,0,1,1.6.08,1.19,1.19,0,0,1,.36,1.55c-1.86,2.84-2.25,6.35-4.36,9.1-1.06,1.37-2.45,2.65-2.64,4.57a.56.56,0,0,1-.26.33c-1.74,1.14-2.57,3-3.8,4.58-1.83,2.3-3,5-4.5,7.46a4.29,4.29,0,0,0-.77,3.06,1.64,1.64,0,0,1-.48,1.38c-2.13,2.32-2.86,5.39-4.26,8.09-.71,1.38-1.15,2.93-2,4.24-1.78,2.89-3.19,6-5.13,8.8a30,30,0,0,0-3.71,6.45c-.14.4-.24,1-.53,1.13-3,1.21-2.57,4.28-3.49,6.55a41.17,41.17,0,0,1-2.38,5c-.24.43-.67.79-.72,1.3-.37,4.3-2.69,8.06-3.37,12.34-.64,4-.92,8.06-1.62,12.06-.39,2.25-.75,4.57-1.15,6.83-.3,1.7-1.07,3.33-1,5.14,0,5.65.12,11.29.07,16.94,0,4.07.22,8.14.28,12.2.06,3.48-.1,7-.13,10.48-.06,5.56-.34,11.12-.89,16.65a5.16,5.16,0,0,1-1.11,3.17.85.85,0,0,1-.94.32.83.83,0,0,1-.51-.86,3,3,0,0,1,.06-.85,18.78,18.78,0,0,0,.29-5.94c-.38-6.77-.22-13.56,0-20.33s.05-13.41,0-20.12c0-3.15.05-6.29.12-9.44.06-2.28,1.21-4.39,1.35-6.7.08-1.21.43-2.41.4-3.62-.08-3.73.69-7.39.76-11.11a13.81,13.81,0,0,1,.86-3.53,1.1,1.1,0,0,0-.45-1.46c-.72-.46-1.13-1.3-2-1.66a1.52,1.52,0,0,1-1-1.5c0-.86-.64-1-1.3-1.12-.87-.13-1.05.56-1.28,1.16s.14,1.43-.4,2c-.38-.12-.38-.34-.42-.55-.38-2.15-.7-2.52-2.9-2.42-2.72.13-5.42-.11-8.14-.11-1,0-2.31-.6-2.79,1.13-.18.63-1.14-.37-1.73.1-.1.78.76,1.23.58,2.17L131,296c-.7.33.07,1.33-.86,1.58-1.32-1.12-1.05-3.47-2.88-4.35a1.39,1.39,0,0,0-.08,1.7c.88,1.55.79,3.25.8,4.89a4.41,4.41,0,0,0,1,2.95c1.45,1.61,1.61,3.64,2.07,5.53s.8,3.57,2.09,5c.48.54,1,1.24.22,2.07-.35.37.07.8.27,1.16a6,6,0,0,1,.68,3.54c-.2,1.64.37,3.09.55,4.63a2.73,2.73,0,0,0,1.11,1.76c.41.35,1.2.5.78,1.26s-.44,1.65-1.47,1.63c-1.3,0-1.34.74-1.27,1.69.12,1.68.79,3.28.6,5a41.48,41.48,0,0,0-.38,4.46,3.11,3.11,0,0,0,3.17,3.48c.8.07,2.28-.37,2.21.56-.1,1.18-1.5.5-2.32.42-2.09-.18-2.42.09-2.41,2.12,0,1.72.27,3.18,2.42,3.32a.41.41,0,0,1,.39.43.58.58,0,0,1-.52.58c-.57.07-1.13.1-1.69.14-.45.65-.12,1.3-.11,1.91.06,1.78.28,2,2,2.46.43.12.92.1.81.71a.69.69,0,0,1-.82.53c-.87-.08-1.6,0-1.68,1.12-.09,1.28.71,2.82,1.67,3.06.35.09.77,0,.83.47s-.33.76-.78.85c-1.6.32-1.72,1.55-1.68,2.8,0,1.5.33,3,.28,4.49-.13,4.11.3,8.22-.24,12.33a46.2,46.2,0,0,1-1.07,4.58c-.26,1.11-.18,2,1,2.43.54.2,1.16.58,1.19,1.14.08,1.49,1.12,1.85,2.23,2.22.4.13.88.33.74.87s-.69.42-1.08.33c-1.24-.26-1.7.42-1.86,1.48a19.09,19.09,0,0,0-.23,4.06c.1,2.08.69,2.63,2.73,2.78.41,0,.86-.17,1.34.2-.4.81-1.2.55-1.82.65-2,.31-2,.45-2.2,2.41a3.77,3.77,0,0,0,2.35,4.3,20.74,20.74,0,0,1,2,1.21c.37.24.8.55.52,1s-.79.24-1.17.07-.84-.56-1.29-.75c-.66-.3-1.33-1.07-2.1-.25a2.52,2.52,0,0,0,.21,3,8.13,8.13,0,0,0,2.57,1.52,2.56,2.56,0,0,1,1.13.59.44.44,0,0,1,.09.58c-.12.15-.37.34-.5.31-.75-.2-1.49-.48-2.23-.7-1.12-.34-1.43-.13-1.54,1-.25,2.41.22,3.25,2.48,4.42.2.1.38.2.58.28.4.18.9.35.7.89s-.82.42-1.28.25a3,3,0,0,0-1.61-.49l-.83.13c0,2,.08,2.22,1.92,3,.44.18,1.06.19.84.94-.16.53-.45.92-1.1.68s-1.4-.48-1.65.59a2,2,0,0,0,.89,2.39,3.58,3.58,0,0,0,1.46.31.54.54,0,0,1,.52.56.6.6,0,0,1-.53.59,2.29,2.29,0,0,1-.64,0c-1.32-.21-1.76.53-2,1.68a1.64,1.64,0,0,0,1.51,2.13c.47.1,1,.19,1.17.8-.17.55-.65.47-1.06.5-.86,0-1.73-.08-1.71,1.29s.08,1.75,1.47,2.15c.48.13,1,.19,1.46.34a.56.56,0,0,1,.4.67.64.64,0,0,1-.6.53,6.81,6.81,0,0,1-1.27-.11c-.73-.11-1.33,0-1.51.82a1.44,1.44,0,0,0,1,1.87,9.12,9.12,0,0,0,1.48.23c.38.06.73.22.72.64a.68.68,0,0,1-.71.65c-.36,0-.72,0-1.08,0a1.29,1.29,0,0,0-1.39,1.07,1.52,1.52,0,0,0,.78,1.62,4.1,4.1,0,0,0,2.06.47.57.57,0,0,1,.53.57c0,.34-.24.49-.51.61-.69.28-1.42,0-2.12.13-.43.1-.88.25-1,.73s.41.85.85,1.08a2,2,0,0,0,.42.1c.51.12,1.35-.35,1.48.42.16,1-.83,1-1.48,1.16a1.14,1.14,0,0,0-1,1.19,15.83,15.83,0,0,0-.08,5.32,9.11,9.11,0,0,1,.09,2.56c0,.77,0,1.42.83,1.78s.89,1.17.76,2a35.54,35.54,0,0,0,.45,13,6.17,6.17,0,0,1,.15.84c0,.36,0,.77-.42.86s-.59-.29-.76-.61A.67.67,0,0,0,137.41,480.8ZM124.34,276.54c-2.11-2.74-3-6.16-4.83-9.16a1.14,1.14,0,0,0-.23,1.57,2.74,2.74,0,0,1,0,2.77,2.57,2.57,0,0,0,.76,2.93,5,5,0,0,0,4.34,1.84c1.17,1.94,1.11,2.21-.57,2.4-.7.08-1.6-.15-1.88.65s.36,1.5.83,2.1a4.48,4.48,0,0,0,1.86,1.39,8.74,8.74,0,0,0,3.53.75,4.45,4.45,0,0,1,3.19,1,1.4,1.4,0,0,1,.5,1.53c-.17.6-.69.64-1.21.67s-1,.08-1.49.16c-1.08.18-2.2-.24-3.36.1a6,6,0,0,0,4.84,2.91c3.2,0,6.4-.24,9.58.42a3.58,3.58,0,0,0,1.49-.07c3.49-.77,7.1-.64,10.61-1.32,1.68-.34,3.55-.36,4.78-1.95a2.5,2.5,0,0,0-2.24-.64c-4.92.12-9.78.82-14.66,1.41a12.62,12.62,0,0,1-3.63-.09c-.73-.12-1.41-.45-1.48-1.32s.58-1.4,1.38-1.67a6.11,6.11,0,0,1,1.91-.17,16.72,16.72,0,0,0,4.9-.24,30.63,30.63,0,0,1,8.86-1.33c1.21,0,2.42-.15,3.63-.21a3.88,3.88,0,0,0,2.53-1c.41-.4.88-.79.71-1.46s-.81-.73-1.37-.82a17.51,17.51,0,0,0-7.21.57c-2.74.7-5.36,1.86-8.28,1.11a3,3,0,0,0-1.07.06,44.46,44.46,0,0,1-10.69.11,3,3,0,0,1-3.08-2.43C126.93,277.63,126.09,276.52,124.34,276.54Zm39.38-4.15-.06-.54c-.95-.45-1.91-.88-2.85-1.36-.52-.26-1-.61-.94-1.29a1.57,1.57,0,0,1,1.23-1.33,2.63,2.63,0,0,1,2.25.23c2,1.23,2.81,1,3.73-1.15,1.28-3,3.37-5.57,4.93-8.42a29.51,29.51,0,0,0,2.58-5.67,5.17,5.17,0,0,0-.93-.27,7.74,7.74,0,0,0-5.26,2c-1.37,1.05-2.53,2.28-4.63,2.07a3.09,3.09,0,0,0-3.5,2.84c-1.27-1.78-3-1.73-4.05,0a6.7,6.7,0,0,0-.68,2.47c0,.4-.08.88-.75.82-.3-.65.1-1.24.21-1.84.36-1.92.11-2.39-1.83-2.42-3.85,0-7.71,0-11.56.1-2.28.07-2.45.42-2.2,2.8.18,1.68.31,3.37.46,5.06a1.82,1.82,0,0,1-.62-1.11c-.14-.7-.24-1.41-.31-2.12a11.42,11.42,0,0,0-.34-2.54,2.54,2.54,0,0,0-2.92-1.58c-1.35.2-.85,1.22-.81,2a.4.4,0,0,1-.37.44c-.07,0-.16,0-.2-.07s-.26-.22-.25-.32c0-1.63-1.12-2-2.36-2.24a5.74,5.74,0,0,0-1.92-.2,6.11,6.11,0,0,1-3.1-.59c-1.54-.56-3-1.53-4.66-1.51a13.33,13.33,0,0,1-5.68-1.6c-1.67-.75-3.11-2-5-2.4a1.78,1.78,0,0,0,0,1.74,24.31,24.31,0,0,0,2.81,5.43,10,10,0,0,1,1.73,2.93,4,4,0,0,0,2.35,2.58c-.44-3.1-2.58-5.21-3.09-7.92.83-.07,1,.42,1.23.87,1.67,3.54,3.41,7,5,10.63a13.13,13.13,0,0,0,2.58,3.59,5.8,5.8,0,0,0-.52-2.67c-1.5-3.25-2.1-6.82-3.61-10.07a2.83,2.83,0,0,1-.14-.41.56.56,0,0,1,.33-.69.72.72,0,0,1,.8.13,1.75,1.75,0,0,1,.52,1.36,10.62,10.62,0,0,0,.71,2.9c1,3.43,2.4,6.71,3.21,10.2a6.41,6.41,0,0,0,2.41,3.53c.65-.51.43-1,.27-1.47-1.64-4.51-2.15-9.32-3.77-13.83-.24-.66-.64-1.41.06-2.12a2.59,2.59,0,0,1,.86,1.78c1.19,4.61,2.35,9.23,3.45,13.87a4.19,4.19,0,0,0,1.84,2.76,1.2,1.2,0,0,0,1.21.22c.48-.26.28-.74.19-1.15a4.15,4.15,0,0,1,.06-2.69c.23,1,.42,1.66.56,2.35.45,2.14.57,2.3,2.83,2.34,1.71,0,3.43-.09,5.14-.15s3.19-1.25,4.94-.54a.47.47,0,0,0,.4-.13,1.41,1.41,0,0,1,1.84-.34c1.05.43,1.34-1.22,2.06-1.08s1.47.86,2.37.31a2.87,2.87,0,0,0,.69-.49c.68-.78,1.25-1.53,2.36-.43.41.42,1.22.18,1.86,0a4.33,4.33,0,0,1,1.65-.37,2.44,2.44,0,0,0,2.69-1.66C161.71,272.94,162.24,272.06,163.72,272.39Zm2.07,221.91c1.59,2,3,4,5.18,5.07.89.44,2,2,2.95,0a.44.44,0,0,1,.38-.07c1.16.42,2.37-.17,3.57.3,2.06.8,4.35.67,6.46,1.47a9.61,9.61,0,0,0,3.19.18c.38,0,.77-.23.63-.65a7.33,7.33,0,0,0-.9-1.92c-.38-.53-.9-.11-1.36.05s-1-.09-1.44-.21c-3.88-1-7.75-1.95-11.65-2.85a13.62,13.62,0,0,1-4.47-1.36A2.52,2.52,0,0,0,165.79,494.3Zm-.77,6.91c.65.39.5,1,.63,1.41.86,3,2.82,3.85,5.5,2.36.85-.46.89-.78.06-1.3a51.8,51.8,0,0,1-5.8-3.93,1.11,1.11,0,0,0-1.56-.07c-.7.7-2,.85-2,2.28,0,1.67,1.08,2.72,2,3.84a.75.75,0,0,0,1,.1c.39-.22.34-.56.2-.92-.22-.6-.44-1.19-.63-1.8A1.57,1.57,0,0,1,165,501.21Zm-8.75,4.51a1.89,1.89,0,0,1,0-.59c.15-.53.23-1.25.9-1.28s.42.73.56,1.15a2.08,2.08,0,0,0,3.39,1.1c.34-.24.52-.58.31-.9-.7-1.08-.54-2.72-1.58-3.41s-2.45.07-3.65.5l-.2.06c-2.94,1-2.91,1-2,3.81.26.87.61,1.47,1.6,1.28S156.43,506.51,156.27,505.72Zm29.26-8.42c-1.24-1.21-2.44-2.22-4.08-2.24a6.31,6.31,0,0,1-3.67-.84,4.33,4.33,0,0,0-2.3-.38.51.51,0,0,0-.54.53.75.75,0,0,0,.31.51,1.69,1.69,0,0,0,.59.23c3,.81,5.92,1.62,8.89,2.41C184.89,497.56,185.11,497.42,185.53,497.3Zm-50.48,6.81c-.37.17-1.07-.08-1.37.58s.09,1,.36,1.38.53,1.05,1.09,1.28,1.42.43,1.74-.2-.07-1.53-.31-2.26S135.83,504,135.05,504.11Zm4.94,3.06c1.25,0,1.51-.38,1-1.39a4.71,4.71,0,0,0-.69-1.06,1.26,1.26,0,0,0-1.71-.25c-.61.37-.39,1-.22,1.51A1.46,1.46,0,0,0,140,507.17Zm-16.83-5.36c.15,1,.51,1.66.61,2.43s1,1,1.69.84.4-.81.36-1.27C125.71,502.47,125.41,502.24,123.16,501.81Zm4.19,3.31a1.36,1.36,0,0,0,.91,1.31c.27.1.58.18.77-.09.38-.56-.08-1.06-.21-1.58,0-.06,0-.13-.06-.2-.14-.44-.15-1.09-.87-.87C127.32,503.87,127.35,504.44,127.35,505.12ZM154.28,296c.72-.75.49-1.59.41-2.38a.39.39,0,0,0-.44-.36.76.76,0,0,0-.5.33A2,2,0,0,0,154.28,296ZM131.33,504.62a.58.58,0,0,0-.49.75c.13.52.12,1.22.84,1.31.46.05.52-.4.45-.76C132,505.41,132.17,504.73,131.33,504.62Zm-31.92,5A.51.51,0,0,0,99,509a1,1,0,0,0-1.28.78.38.38,0,0,0,.35.44A1.23,1.23,0,0,0,99.41,509.61Z"/><path d="M267.6,101.55a2,2,0,0,1-.08-.63c.47-2,.22-2.41-1.76-2.53-.71,0-1.43,0-2.14-.11a2.68,2.68,0,0,0-3.09,1.31,1.7,1.7,0,0,1-2.56.69,2,2,0,0,0-.82-.22c-1.52-.19-2,.22-2.11,1.81,0,.43.11.91-.43,1.07s-.83-.26-1.1-.73c-.79-1.34-1.66-1.73-2.75-1.36a2.45,2.45,0,0,0-1.5,2.78c0,.21.09.42.12.63.08.52.52,1.27-.34,1.37-.63.07-.82-.71-.95-1.25a6,6,0,0,1-.1-1.28c0-.84-.49-1.1-1.25-1.1s-1.13.47-1.09,1.23c0,.57.1,1.14.09,1.71s-.08.9-.68.89a.85.85,0,0,1-.85-.8l0-.21c0-.94-.17-1.7-1.47-1.49-1.66.28-2.37.83-2.4,2.14s-.32,1.68-1.55,1c-.88-.51-1.43-.46-2,.34-.35.52-1,.46-1.46.86s-.64.74-1.15,1.32c-.61-2-2.54-1.78-3.83-2.65-.74-.51-1.5.18-1.46,1.14.1,2.44-.19,2.74-2.69,2.66a2.13,2.13,0,0,0-1.44.26c-1.35,1.08-2.92.88-4.48,1-3.6.28-7.27,0-10.77,1.21-.08,0-.22-.12-.47-.28a6.3,6.3,0,0,1,3-1.45,1.32,1.32,0,0,0,.73-2.36c-.77-.79-3.4-.9-4.22-.13a1.81,1.81,0,0,0-.73,1.69,16.37,16.37,0,0,0,.3,1.88c.19.64.27,1.19-.54,1.3s-1-.43-1.1-1a4.79,4.79,0,0,1,0-1.07c.12-1.28-.65-1.81-1.72-2.08A2.62,2.62,0,0,0,202,110.3c-.53,1,.08,1.79.53,2.58.24.43.72.38,1.16.35.68,0,1.4-.37,2,.22a3.23,3.23,0,0,1-5.16-1.24c-.19-.54-.21-1.14-.72-1.51a2.86,2.86,0,0,0-2.8-.59c-.92.37-1,1.29-1.16,2.16,0,.38.44.78,0,1.17-.82,0-1-.64-.94-1.2.13-1.22-.64-1.44-1.54-1.59-.5-.08-1-.19-1.49-.22-2.18-.14-2.53.26-2.22,2.5,0,.36.15.76-.22.95-.55.28-.84-.22-.93-.59a3,3,0,0,0-2.68-2.53.91.91,0,0,0-.32.86c.07.64.29,1.46-.38,1.75-.88.37-.9-.66-1.23-1.11a3.05,3.05,0,0,0-2-1.11,1.66,1.66,0,0,0-2,1.45c-.58,2.63-1.15,3-3.79,2.32a6.19,6.19,0,0,0-2.5,0c-2.32.36-4.68.46-7,.61a5.63,5.63,0,0,0-1.69.13c-2.06.76-4.23.53-6.35.77a7.73,7.73,0,0,0-2.51.38,3.43,3.43,0,0,1-2.52,0,3.76,3.76,0,0,0-4.12,1.1,4,4,0,0,0-4.89-1c-1.12.49-2.07-.33-3.12-.42a6.22,6.22,0,0,0,1.47-.85,1.51,1.51,0,0,0,.07-2,2.64,2.64,0,0,0-2.76-.5c-.74.34-.72.95-.58,1.63.22,1,.73,1.68,1.87,1.65,0,.29.06.63-.34.62a23.38,23.38,0,0,0-5.69,1,12.31,12.31,0,0,1-2.33.31c-2.11,0-3-.69-3.43-2.75a19.06,19.06,0,0,0-.83-3.73c-.49-1.12.3-2.1,1.59-2.17,1.13-.06,2.28.09,3.42.09q7.92,0,15.84,0a10.27,10.27,0,0,0,1.91-.23,33.39,33.39,0,0,1,10.22-.54c2.08.24,4.13-.31,6.18-.47,1.43-.11,2.83-.14,4.25-.13,4.65,0,9.29,0,13.93-.33.5,0,1-.1,1.5-.09,5.4.2,10.65-1,16-1.64,2.9-.37,5.77-1,8.66-1.33a81.9,81.9,0,0,1,13-.64,5.3,5.3,0,0,0,1.91-.2,11.7,11.7,0,0,1,4.42-.65,2.06,2.06,0,0,0,2.19-1.35,27.07,27.07,0,0,0,1.48-3.54,3.49,3.49,0,0,1,1.92-2.43c1.68-.75,2.43-2.36,3.48-3.68a1,1,0,0,0-.17-1.52,5.44,5.44,0,0,0-3.4-1.63,20.1,20.1,0,0,1-6.7-1,2.89,2.89,0,0,0-3.34,2c-.34,2.12-1.6,4.2-.51,6.45.3.62-.22,1-.64,1.15-.63.18-.89-.43-.88-.92a10.77,10.77,0,0,1,.29-2.33,15.45,15.45,0,0,0,.36-3.83c0-2.49-.05-2.52-2.56-3.08l0,0a1.16,1.16,0,0,1,1.78-.92,6.59,6.59,0,0,0,5.35.47,1.23,1.23,0,0,1,.84.09c2.26,1.12,4.75.73,7.13,1.13a2.48,2.48,0,0,0,1,0,1,1,0,0,0,.72-1c0-.43-.29-.64-.64-.76a8.2,8.2,0,0,0-2.23-.73c-2.71-.16-5.29-1.06-8-1.43a46.14,46.14,0,0,1-5.8-1.16,23.14,23.14,0,0,0-4.86-.56c-4-.19-8-.55-11.95-.85-1.77-.13-3.48-.63-5.24-.64-.29,0-.58-.16-.85-.12-4.71.59-9.36-1-14.06-.47a5.83,5.83,0,0,1-1.91-.17,4,4,0,0,0-1.69-.22c-3.16.83-6.38,0-9.59.43-1.84.27-3.85.13-5.69.41-4.2.63-8.42-.58-12.58.36a4.39,4.39,0,0,1-1.49,0,31.07,31.07,0,0,0-7.88-.14c-3.53.44-7.12-.87-10.57.54-1.54-.5-3,.23-4.56.16a48.8,48.8,0,0,0-7.25.5,24.25,24.25,0,0,1-2.56.06c-.43,0-.9-.2-1.28-.08-4.38,1.37-8.95.39-13.4,1.15a33.44,33.44,0,0,1-6.56.81,1.88,1.88,0,0,0-.63.07c-3.61,1.4-7.63.93-11.18,2.54a7.83,7.83,0,0,1-2.28.5c-3.17.39-6.25,1.33-9.43,1.73a1.12,1.12,0,0,1-1.43-.83c-.25-.67-.17-1.34.56-1.63A21.06,21.06,0,0,1,79,86a109.42,109.42,0,0,0,12.79-2.62,11.29,11.29,0,0,1,3.38-.44,29.87,29.87,0,0,0,6.57-.64c3-.62,6.11-1.47,9.3-1.15a26.24,26.24,0,0,0,6.61-.51c3.05-.47,6.15,0,9.19-.55a24.06,24.06,0,0,1,5.56-.23c3.15.15,6.26-.46,9.4-.57,2.63-.09,5.29-.51,7.9-.46,2.33,0,4.69.21,7,.26,3.5.07,7-.12,10.5.08,1.52.09,3.09-.41,4.67-.45,3.42-.08,6.88-.63,10.26-.31,4.63.45,9.28-.14,13.88.55a27,27,0,0,0,4.5.06,47.9,47.9,0,0,1,11.68,1.32,3.84,3.84,0,0,0,1.26.24c3.82-.54,7.52.66,11.3.73,3.45.07,6.73,1.24,10.11,1.76,1.77.28,3.54.08,5.45.62a3.29,3.29,0,0,0-1.49-2.25c-3.12-2.66-5.3-6.19-8.27-9-.78-.73-1.52-1.51-2.29-2.26a2.6,2.6,0,0,1-.94-1.39c-.16-1-1-1.48-1.57-2.2-2-2.74-4.93-4.75-6.48-7.85a56.51,56.51,0,0,0-2.83-5c-2.19-3.48-3.29-7.44-4.93-11.16a96.39,96.39,0,0,1-5.09-15.66A76.7,76.7,0,0,1,203.89,10c0-1.79-.09-3.58-.21-5.36A3.45,3.45,0,0,1,206,.91,9.87,9.87,0,0,1,210.6,0a3.47,3.47,0,0,1,3.54,3.9c-.16,2.87.41,5.68.66,8.52a42.27,42.27,0,0,0,1.86,9.42c1,3.11,1.56,6.33,2.47,9.47.56,1.92,1.08,4,1.54,5.93A59.54,59.54,0,0,0,223,44.55c2.24,6,5.85,11.27,9.2,16.65A32.14,32.14,0,0,0,239.8,69c3.43,2.72,6.38,5.93,9.65,8.8,1.24,1.09,2.62,2,3.86,3.06a1.2,1.2,0,0,0,1.87-.15A6.05,6.05,0,0,0,257,78.42a4.06,4.06,0,0,1,2.17-2.23,37.73,37.73,0,0,1,8.92-3.54,4.11,4.11,0,0,1,1.26-.06c1.71.06,3.45,0,5.12.19,4,.39,7.76,1.34,10.21,5.2,1.67,2.62,3.36,5.16,3.92,8.24.43,2.39,1.08,4.72,1.65,7.08a38.37,38.37,0,0,0,3.24,7.9,9.44,9.44,0,0,1,.74,1.78c.35,1.33-.48,2.1-1.79,1.66a4.67,4.67,0,0,1-2.33-2.14c-.72-1.14-1.35-2.35-2.08-3.49-.58-.91-1-.92-1.53,0s-1.6,2-1.64,3.43a.65.65,0,0,1-.91.61.72.72,0,0,1-.39-1.07c1.22-1.45,1.12-3.56,2.51-4.92.45-.44.9-.9.54-1.68-1.11-2.36-1-5-1.67-7.48a18.25,18.25,0,0,0-7-10.42,3.53,3.53,0,0,0-2.6-.66,8.22,8.22,0,0,1-5.19-.76,2.17,2.17,0,0,0-1.86-.18,31.13,31.13,0,0,0-7.07,2.84,9.31,9.31,0,0,0-3.37,3.72c-.24.45-.54,1-.3,1.42a12.43,12.43,0,0,1,1.13,4.45c1-2.41,3.11-3.74,4.92-5.25s3.7-.94,5.47-.06S272,85.54,273.26,87a1.93,1.93,0,0,1,.27,1.83A9,9,0,0,1,272,92.53a2.14,2.14,0,0,0-.67,1.94c.42,1.43-.24,2.65-.63,3.93a8.75,8.75,0,0,0-.48,1.17c-.29,2.39-.31,2.42-2.64,1.9ZM253.55,86.61c.2-.69-.26-1-.53-1.41-1-1.53-2.68-2.31-4.13-3.33a67.79,67.79,0,0,1-6.4-5.68c-3.79-3.47-7.51-7-11.22-10.56A11.89,11.89,0,0,1,229,62.57c-.77-1.45-1.67-2.82-2.53-4.21-1.31-2.12-2.7-4.19-3.92-6.37a74.19,74.19,0,0,1-4-9.42c-1.27-3.26-1.47-6.84-2.95-10a1.42,1.42,0,0,1-.07-.42c-.48-3.69-2-7.11-2.71-10.75a54.29,54.29,0,0,1-1.15-6.52c-.16-2.58-.64-5.1-.86-7.66a9.25,9.25,0,0,0-.56-2.5c-.43-1.17-1.23-1.28-2.13-.4a1.93,1.93,0,0,0-.67,1.51,89.44,89.44,0,0,0,.41,9.84c.68,4.55.93,9.18,2.62,13.6.85,2.22,1.43,4.63,2.32,6.87A147.4,147.4,0,0,0,221,54.22c1.43,2.56,2.65,5.24,4.75,7.3s2.36,5.43,5.56,6.36c.18.05.31.29.46.45,3.29,3.56,6.34,7.35,9.84,10.74A91.08,91.08,0,0,0,250,86,3.75,3.75,0,0,0,253.55,86.61Zm14.09,6.63c.82.1,1.15,1.29,2,1.09s.54-1.34.85-2c1.63-3.66,1.6-3.67-1.31-6.28-.21-.2-.41-.4-.63-.58a3.47,3.47,0,0,0-4.84-.09,14.07,14.07,0,0,0-5.08,9.08c-.13.72.16,1.29,1.08,1.09a6.82,6.82,0,0,1,1-.27c1.84-.12,3.54-1.12,5.43-.81C267.43,94.67,267.43,94.69,267.64,93.24Zm-26.92,7.08a2,2,0,0,0,1.81-.62,4.69,4.69,0,0,1,2.72-1.12c3.11-.36,6.12-1.35,9.27-1.42.64,0,1.35-.11,1.63-.8.39-1,.88-2.24.42-3s-1.82-.38-2.79-.42a.29.29,0,0,0-.2.07c-.59.77-1.09.17-1.64-.08s-1-.29-1.39-.53c-.62-.34-1.22-.31-1.37.38-.27,1.32-1.07,1-1.92.85-.63-.14-1.38-.32-1.74.37C244.29,96.32,241.67,97.58,240.72,100.32Zm-19.24,10.12a1.62,1.62,0,0,0,.32,0c.71,0,1.46,0,1.61-1a1.64,1.64,0,0,0-.92-1.93,4.2,4.2,0,0,0-2.64-.42c-1.16.18-1.33.86-1.35,1.77a1.25,1.25,0,0,0,1.4,1.46C220.32,110.35,220.74,110.4,221.48,110.44Zm-66.39,5c.89-.07,1.39-.09,1.89-.14,1.24-.13,1.68-.88,1.19-2a2.64,2.64,0,0,0-2.92-1.31c-1.17.13-1.32.92-1.28,1.85C154,115,154.43,115.44,155.09,115.45Zm11.15-1.16c.69,0,1,0,1.26,0,.65,0,1.31-.09,1.43-.94a1.23,1.23,0,0,0-1.13-1.51,17.9,17.9,0,0,0-2.53-.24c-.7,0-1,.54-1,1.14a1.1,1.1,0,0,0,.74,1.36A6.25,6.25,0,0,0,166.24,114.29Zm79.6-26.14c0-.61-1.72-2-2.53-2a1.55,1.55,0,0,0-1.5,1.47,2.3,2.3,0,0,0,1.72,2.17C244.27,89.81,245.82,88.73,245.84,88.15ZM138.1,115.05a2.12,2.12,0,0,0-2.29-2.2c-1.55.22-.7,1.36-.69,2.17,0,.14,0,.28,0,.42,0,.94.43,1.48,1.44,1.31A1.51,1.51,0,0,0,138.1,115.05Zm-3.5,1.66c-.66-1.11-1.27-2.21-2-3.24a1,1,0,0,0-1.32-.31.94.94,0,0,0-.47.88C130.78,116.06,132.35,117.25,134.6,116.71Zm42.87-3c.29-.08.92.28,1.11-.4s-.37-1-.88-1.23a9.44,9.44,0,0,0-1.36-.55.82.82,0,0,0-1.09.34,1.08,1.08,0,0,0,.16,1.19C175.9,113.64,176.61,113.66,177.47,113.67Zm-30.91-.44c-.52.16-1.46-.34-1.5.65s.7,1.32,1.6,1.27c.69,0,1.6,0,1.55-1S147.33,113.21,146.56,113.23Zm24.42-1.7c-.54,0-.75.26-.71.79a1.55,1.55,0,0,0,1.6,1.61c.59,0,1.18-.05,1.11-.89A1.91,1.91,0,0,0,171,111.53Zm-8.59,2.38a1.72,1.72,0,0,0-1.57-1.73.7.7,0,0,0-.84.73c-.08,1,.72,2,1.52,2A.86.86,0,0,0,162.39,113.91Zm52.43-5c.11.75.05,1.65,1.14,1.71.61,0,.89-.39.85-1a1.55,1.55,0,0,0-1.38-1.6C214.83,108,214.77,108.48,214.82,108.94Zm-62.55,5.34c0-.8-.55-1.1-1.24-1.14-.47,0-.87.17-.86.68,0,.67.26,1.27,1.06,1.28A1,1,0,0,0,152.27,114.28ZM226.45,108c-.42,0-.71.12-.76.53-.07.6.29.88.85.92.41,0,.91,0,.89-.56S226.92,108.08,226.45,108Z"/><path d="M164.32,533.87l15.46-1.42a4,4,0,0,0,1.25-.25c2.44-1.15,5.09-1.39,7.71-1.76a9.71,9.71,0,0,0,2.69-.65c3.31-1.46,6.8-2.52,10-4.32a14.08,14.08,0,0,0,3.27-2.39c1.77-1.84,3.79-3.46,5.46-5.41q2.13-2.49,4.18-5a7.4,7.4,0,0,0,1.69-4.75c0-1.56.12-1.68,1.57-1.44,1,.16,1.28-.19,1.61-.92a13.94,13.94,0,0,0,1.13-3.67,3.78,3.78,0,0,0-.7-3.06c-1.07-1.3-2-2.79-3.66-3.53a5.4,5.4,0,0,1-1.4-1,50.83,50.83,0,0,0-8.38-6.12,25.42,25.42,0,0,0-5.76-2.31c-2.88-.79-5.84-1.3-8.69-2.28a26.07,26.07,0,0,0-5.49-.87c-3.4-.4-6.71-1.29-10.14-1.63-2.66-.27-5.44.16-8-.89a3.43,3.43,0,0,0-1.91-.08,17.94,17.94,0,0,1-8.64-.61c-.69-.19-1,.14-1,.72a19.17,19.17,0,0,0,.26,2.12c.1.85.34,1.78-.6,2.31-.7.39-1.55-.2-2.21-1.53-1.37-2.76-2.9-5.44-3.49-8.57-.29-1.58-1.08-3.08-1.14-4.74,0-.95,0-1.9.87-2.5.73-.47.71-1.18.64-1.9-.52-5.57-.37-11.14-.41-16.72,0-3.5-.54-7-.42-10.49.17-5.07-.34-10.13,0-15.21.21-3.56.14-7.14.2-10.7s.15-7,.22-10.49a4.32,4.32,0,0,0,0-1.07c-1.07-4.08,0-8.26-.57-12.37a8.08,8.08,0,0,1,.18-2.34c.09-.59.36-1.13,1.07-1.14s1.68.21,1.64,1c-.1,2.49,1.3,4.84.58,7.36a7.65,7.65,0,0,0-.08,3.62,29.6,29.6,0,0,1,.28,9c-.18,1.94.25,3.86.23,5.78-.08,6.79.13,13.58-.11,20.37-.1,2.92,0,5.87.19,8.78.24,4.58.18,9.15.15,13.72a78.91,78.91,0,0,0,.74,9.59,6.91,6.91,0,0,1,.09,1.7,9.09,9.09,0,0,0,1.61,6.51c.41.58.73.95,0,1.55s-.53,1.44-.3,2.2c.17.59.65,1.07,1.3.68a3.57,3.57,0,0,1,2.5-.21c3.75.5,7.53.06,11.31.39,3.24.28,6.49.84,9.78.89,1.93,0,3.89.82,5.86,1,3.93.41,7.66,1.64,11.48,2.47a36.45,36.45,0,0,1,10.74,4.14c3.07,1.8,5.82,4.14,8.73,6.21a14,14,0,0,1,4.41,4.29,7.56,7.56,0,0,1,1.43,4,1.57,1.57,0,0,0,.22,1c1.17,1.63.85,3.41.48,5.17-.63,3-.86,6.08-2.09,8.93-.2.47.07.8.5,1,1.45.77,1.46,2.13,1.05,3.36-1.53,4.51-2.92,9.12-6.68,12.45-2.27,2-4.57,4-7.57,4.88-1.11.33-1.79,1.37-2.8,1.93a24,24,0,0,1-5.78,2.09c-2.61.67-5.14,1.59-7.79,2.15-5,1.05-10.1,1.75-15.07,3.06a34.2,34.2,0,0,1-6.82.59,4.75,4.75,0,0,0-2.25.53c-2.65,1.48-5.54,1.19-8.39,1.06a2.08,2.08,0,0,1-1.87-2c0-1.16.85-1.62,1.83-1.73,1.35-.16,2.71-.18,4.06-.25a5.62,5.62,0,0,0,2.12-.15c3.91-2,8.34-1.34,12.41-2.46a28,28,0,0,1,4.56-1.08c1.9-.19,3.76-.76,5.71-.79.77,0,1.88-.08,2.11-1.11a4.37,4.37,0,0,0-.6-3.69c-.33-.46-.93-.38-1.4-.28-2.78.6-5.66.59-8.4,1.47a25.74,25.74,0,0,1-7.41,1,108.47,108.47,0,0,0-14,1.35c-4.5.67-9,1.62-13.62,1.36-1.62-.1-2-.32-2.11-1.51s.29-1.79,1.8-2.15a2,2,0,0,1,.63-.1c3.83.25,7.53-.63,11.25-1.25C160.07,534.31,162.41,533.55,164.32,533.87Zm41-4.85c.07.29.16.78.28,1.26.64,2.67,2,3.25,4.31,1.81a11.37,11.37,0,0,1,1.86-1.05,11.24,11.24,0,0,0,5.16-4.62,7.37,7.37,0,0,0,1.51-4.17c-.09-1.81-.33-3.65-.57-5.48,0-.28-.08-.58-.38-.69a.71.71,0,0,0-.91.36,21.8,21.8,0,0,1-4.51,5.07c-.75.72-1.16,1.5-.06,2.3.46.33.72.71.25,1.23a.83.83,0,0,1-1.32-.07c-.9-1.05-1.65-.67-2.56,0a16.88,16.88,0,0,0-2.29,1.92A2.81,2.81,0,0,0,205.3,529Zm-4,2.35c.19,1.34.37,2.68.6,4,.08.45.41.84.92.66a6.14,6.14,0,0,0,2.62-1.38c.34-.36.5-.74.13-1.11a5.77,5.77,0,0,1-1.49-3.47c-.08-.62-.57-.78-1.13-.63C202,529.73,201.23,530.21,201.29,531.37Zm-2.14,0a.85.85,0,0,0-.9.75,9.4,9.4,0,0,0,.38,4.4.82.82,0,0,0,1.2.52c.45-.16,1-.29.93-1-.2-1.33-.41-2.66-.66-4A1,1,0,0,0,199.15,531.33Zm-4.48,5.44c-.1-.73-.2-1.51-.32-2.28-.1-.56-.42-.9-1-.79s-.74.57-.74,1.11c0,1.07.75,2,.64,3.09a.68.68,0,0,0,.61.75c.51,0,.76-.34.83-.79A6.56,6.56,0,0,0,194.67,536.77Zm2-3.5-.44.05a6.26,6.26,0,0,0,0,3.46c.13.33.36.67.78.57s.47-.54.41-.86C197.24,535.41,197,534.35,196.69,533.27Z"/><path d="M267.6,101.55l-.06-.08a2.47,2.47,0,0,0,.68,2.14,2.14,2.14,0,0,1-.05,2.93,33.75,33.75,0,0,1-4,4.71,12.06,12.06,0,0,0-2.91,3.93,6.15,6.15,0,0,1-1.87,2.81,1.62,1.62,0,0,0-.6,1.11,3.53,3.53,0,0,1-1.31,2.15c-.23.17-.58.36-.6.57-.22,2-1.69,3.13-3,4.45-1.67,1.72-1.68,2.89-.42,5,1.78,3,3.6,6,6.34,8.3.32.26.55.68,1.19.5.1-1.09-.64-1.78-1.27-2.5-.45-.51-.95-1-.2-1.61s1.21-.21,1.68.34a8.59,8.59,0,0,1,1.37,2.41,12.25,12.25,0,0,0,2.44,4c.32.33.61.62,1.1.36s.46-.8.29-1.3a6.94,6.94,0,0,0-1.32-1.94c-.38-.48-.55-1.06.09-1.48s1.13,0,1.46.46a9.87,9.87,0,0,1,.86,1.72,4,4,0,0,0,1,1.77c.24.06.34,0,.39-.18.15-.58-.33-1.42.49-1.7s1.1.5,1.54.93a3.83,3.83,0,0,0,1.72,1.23c.55.13,1.21.37,1.64-.05s-.14-1-.34-1.49c-.13-.33-.32-.64-.42-1a.8.8,0,0,1,.37-.93.81.81,0,0,1,1.16.14,12.29,12.29,0,0,1,1,1.61c.55,1,1.27.81,2,.26s1.33-1,.43-1.9a3.26,3.26,0,0,1-.67-.82,1.2,1.2,0,0,1,0-1.41c.52-.54.88.09,1.28.3a5.88,5.88,0,0,0,1.72.85c.44.07.85.06,1.1-.42a.85.85,0,0,0-.28-1.13,11.68,11.68,0,0,0-1.23-.85,1,1,0,0,1-.43-1.45c.4-.62,1-.38,1.52-.07s.78.63,1.19.91c1.62,1.12,1.61,1.08,3.07-.19,1-.82,1.22-1.54.15-2.42a1.1,1.1,0,0,1-.26-.34c-.3-.52-.5-1.11,0-1.55s1-.11,1.37.22.7.72,1.07,1.05a2.36,2.36,0,0,0,1.5.75c.29,0,.6,0,.79-.22s.06-.51-.14-.74c-.9-1.05-.49-1.61.69-2a2.82,2.82,0,0,0,1.47-1.21,2.81,2.81,0,0,1,2.07-1.3,2.24,2.24,0,0,0,1.64-2.94c-1.16-2.07.17-3.65.82-5.37a1.36,1.36,0,0,1,.4-.5c.54-.44.92-.91.51-1.65-.14-.25-.32-.53-.63-.49-.76.12-.91.84-1.2,1.38s-.19,1.15-.61,1.59a1.32,1.32,0,0,1-1.26.55c-.41-.75.06-1.32.26-1.89a12.93,12.93,0,0,0,.85-3.3c0-.35,0-.85.24-1,1.17-.8.48-1.6.08-2.41-.12-.25-.32-.47-.44-.73a1.48,1.48,0,0,1,1.29-2.29,2.25,2.25,0,0,1,2.48,1.32c1.24,2.77,2.94,5.33,3.5,8.44.37,2.1.86,4.19,1.16,6.31.06.42.34.81.13,1.24-1.36,2.81-2,6-5.44,7.49-2.11.95-4,2.37-6.28,3.14-1.14.39-2.31.57-3.46,1.05-1.9.81-3.29,2.21-4.87,3.4-2.53,1.9-4.85,4.16-8.11,4.85a4.92,4.92,0,0,1-2.12.11,10.74,10.74,0,0,0-6.72.44,2.51,2.51,0,0,1-2.67-.25c-2.15-1.82-4.83-2.76-7.07-4.43-.81-.61-1.47-1.34-2.2-2-1.13-1-1.79-1-2.54.32a18,18,0,0,1-2,2.47c-1.18,1.39-2.69,2.45-3.5,4.23a8.09,8.09,0,0,1-2.88,3.39c-.9.59-.86,1.75-1.49,2.54-1.25,1.56-2.33,3.24-3.49,4.86a53.31,53.31,0,0,0-3.27,5.49,4.56,4.56,0,0,1-1.27,1.7,9.41,9.41,0,0,0-2.69,3.29c-.86,1.51-2.55,2.29-3.35,3.86-1.44,2.87-3.9,5.11-5.23,8a48.62,48.62,0,0,1-5.05,8.56,30.39,30.39,0,0,0-3.63,5.54,14.47,14.47,0,0,1-2,2.5,113.13,113.13,0,0,0-6.35,9.85,2.78,2.78,0,0,1-2.74,1.64c-1.46-.27-2.06-1.43-1.06-2.46,3.58-3.67,5.37-8.55,8.52-12.49,1.83-2.29,3.24-4.85,5-7.17a58.22,58.22,0,0,0,3.42-5.92,103.78,103.78,0,0,1,6.38-9.87,47,47,0,0,1,5.06-6.27c1.64-1.54,2.47-3.65,3.86-5.38a14,14,0,0,0,2.93-4.64,3.51,3.51,0,0,1,1.16-1.52c3.18-2.85,5-6.73,7.62-10a.85.85,0,0,0,.11-1c-1.86,1.56-3.88,2.85-5.06,5a7.19,7.19,0,0,1-2,2.47A4.38,4.38,0,0,0,238,150c-1.77,3.83-4.83,6.65-7.49,9.81a28.17,28.17,0,0,0-3.78,4.83,4,4,0,0,1-1,1.38c-2.79,2-3.57,5.35-5.59,7.88s-3.52,5.09-5.48,7.5c-1.44,1.77-3.25,3.39-4.17,5.41-1.32,2.91-3.58,5.16-5,8-1,2.1-2.82,3.9-4.18,5.89-1.6,2.34-3.77,4.29-4.73,7.05a3,3,0,0,1-1.09,1.3,3,3,0,0,0-1.24,2c-.05,2.23-1.51,3.79-2.48,5.52-1.8,3.18-3.39,6.5-5.33,9.6a33.55,33.55,0,0,0-2.3,4.05c-.65,1.48-2.15,2.42-3.32,3.54a2,2,0,0,1-1.21.36c-.64,0-1-.34-.67-1a9.51,9.51,0,0,1,1-1.64c2.32-3.15,4.82-6.18,5.94-10.07.39-1.34,1.46-2.44,2.22-3.63,1.51-2.33,2.6-4.88,4-7.26s2.86-4.74,4.22-7.15c1-1.79,2.46-3.33,3.62-5,2.77-4,5.47-8.14,8.23-12.19,1-1.41,2.15-2.66,2.63-4.36a2,2,0,0,1,.59-.89,20.74,20.74,0,0,0,4.7-6.8,12.94,12.94,0,0,1,1.5-2.08c1.11-1.47,2.52-2.75,3.1-4.59a1.31,1.31,0,0,1,.34-.53c2.81-2.72,4.58-6.33,7.57-8.9a6.67,6.67,0,0,0,1-1.36,43.15,43.15,0,0,1,4-5.3c.81-.88,1.07-2.1,1.87-3.07,2.58-3.09,4.82-6.49,7.53-9.46,1.58-1.74,2.8-3.73,4.41-5.42a7,7,0,0,0,1.48-2.34c.42-1.09,0-1.82-1.11-1.7-1.38.14-2.8.12-3.95,1.29-1,1-2.63,1.1-3.91,1.35a27.26,27.26,0,0,0-4.92,1.84,16.24,16.24,0,0,1-9.11,1.26c-1.8-.34-3.55.26-5.28.63a76,76,0,0,1-12.85,2c-3.92.15-7.81.75-11.73.67-1.67,0-3.15.77-4.81.87-3,.19-5.86,1.12-8.88,1.14a15.77,15.77,0,0,0-3.17.52,7.91,7.91,0,0,1-4-.1c-1.74-.51-3.55.08-5.3.29-3.19.38-6.42.24-9.59.87a1.54,1.54,0,0,1-.63-.08c-3.45-.87-7-.59-10.45-.43-2.91.13-5.83.22-8.74.27a18.54,18.54,0,0,1-2.35-.15,1.25,1.25,0,0,1-1.21-1.47,1.32,1.32,0,0,1,1.52-1.4,12.63,12.63,0,0,1,1.5.12c5,.62,10,.38,15,.37a24.63,24.63,0,0,1,5.55.35,8.43,8.43,0,0,0,2.56.12c4.13-.3,8.26-1,12.38-.9,5.76.12,11.33-1.44,17.06-1.46a3,3,0,0,0,.85-.06c4.76-1.39,9.74-1.13,14.57-2a14.37,14.37,0,0,1,2.78-.15,5.41,5.41,0,0,0,3.12-.49,1,1,0,0,1,.42-.09c3.82-.43,7.54-1.41,11.31-2.13a2.84,2.84,0,0,0,1.89-.85,2.22,2.22,0,0,1,2.69-.8c2.24.95,4.27.12,6.17-.78A96,96,0,0,1,249.47,125c2-.63,3.38-2.32,4.61-4,1.72-2.36,2.92-5,4.73-7.38A25.47,25.47,0,0,1,261,111c2-1.9,2.85-4.61,4.82-6.5a.68.68,0,0,0,.21-.78.85.85,0,0,0-.92-.4,2.78,2.78,0,0,0-1,.25c-2.19,1.08-4.69,1.2-6.89,2.23a1.61,1.61,0,0,1-1.45-.1l.05,0a21.74,21.74,0,0,1,5.73-2.13c1.29-.27,2.26-1.19,3.46-1.66A3.46,3.46,0,0,1,267.6,101.55ZM291.93,132c1,.22,1.63-.42,2.34-.66s1-.94,1.85-1c1.34-.07,1.74-1,1.91-2.24C295.37,128.48,292.74,128.61,291.93,132Zm-40.42,3.09a1.25,1.25,0,0,0-.3-.43.5.5,0,0,0-.72.21,11.25,11.25,0,0,1-1.79,2.79c-.1.08-.06.41,0,.57s.34.2.55.11A5.28,5.28,0,0,0,251.51,135.12Zm47.82-10a.65.65,0,0,0,.42-.82c-.08-.4-.42-.52-.79-.5a.45.45,0,0,0-.45.55A.79.79,0,0,0,299.33,125.17Zm-.07-4.46c-.11-.3-.23-.68-.67-.63s-.54.39-.44.78.33.62.74.53S299.3,121.05,299.26,120.71Z"/><path d="M53.12,116.94a4.11,4.11,0,0,0,.79-3.33c0-.62-.25-1.21-.91-1.27-.82-.07-.76.67-.87,1.2s.19,1.46-.69,2c-.33-1-.67-1.9-.95-2.84a3,3,0,0,0-.59-1.36,1.75,1.75,0,0,0-1.9-.68c-.72.25-.87.9-.87,1.57a10.6,10.6,0,0,0,.15,1.48c.07.43.22,1-.27,1.12-.71.2-.76-.52-.87-1a12.54,12.54,0,0,1-.34-2.11,2.11,2.11,0,0,0-1-1.57c-1.32-.94-2.45-.49-2.51,1.11,0,1.17-.31,2.46.69,3.46a.74.74,0,0,1,0,1c-.36.51-.75.18-1.11,0s-1-.58-1.46-.88a5.39,5.39,0,0,0-3-1c-1.78.06-3.58,0-5.32.2-2.43.26-4.61.22-6.58-1.39a1.45,1.45,0,0,0-1-.33c-2.76.35-4.63-1.49-6.7-2.76-.79-.48-1.45-1.18-2.47-1.13a3.44,3.44,0,0,1-1.94-.81,3.37,3.37,0,0,0-2-.57c-1.65,0-2.37-.61-2.49-2.28A2.57,2.57,0,0,0,7.74,103c-.12.23-.23.34-.24.46,0,.65.78,1.38-.13,1.94-.73.45-1-.73-1.64-.62-.43.59,0,1,.24,1.4a49.12,49.12,0,0,0,4,6.28c1.66,2.19,3.32,4.43,4.79,6.78a16.33,16.33,0,0,0,1.86,2.06c3.75,4.25,6.52,9.17,9.38,14,.87,1.47,1.82,2.89,2.75,4.32.19.3.45.56.63.87a1,1,0,0,1,0,1.2c-.41.4-.8,0-1.12-.25a13.54,13.54,0,0,1-2.9-3.41c-2.32-3.62-5.4-6.65-7.81-10.19-1.93-2.85-4.46-5.22-6.4-8-2.38-3.46-5.16-6.64-7.32-10.25a9.69,9.69,0,0,0-3-3.55,1.34,1.34,0,0,1-.65-1.8,9.46,9.46,0,0,0,.52-4.42,2,2,0,0,1,1.21-1.88,18.7,18.7,0,0,1,6.82-3,4,4,0,0,0,2.54-1,4.23,4.23,0,0,1,3.11-1.18,13,13,0,0,0,3.36-.58c1.65-.6,2.7-.29,3.36,1.3a2.41,2.41,0,0,0,2.63,1.64,11.13,11.13,0,0,1,1.29.05c.37,0,.7.21.7.65s-.32.62-.66.75a1.49,1.49,0,0,1-.63.09c-2.7-.25-4.8,1-6.78,2.62a6.4,6.4,0,0,1-.51.4c-.32.2-.67.33-1,0s-.14-.68.1-1a7.07,7.07,0,0,1,2.22-1.65,3.71,3.71,0,0,0,2-2.23,5.52,5.52,0,0,0-3.44.08,51,51,0,0,0-7.63,2.54c-.78.3-.82.67-.25,1.23A9.74,9.74,0,0,0,14,101.59,30.83,30.83,0,0,1,20.82,104a12,12,0,0,0,3.07.9c3,.5,3.6.72,2.91,5-.81-.43-.76-1.83-2-1.68-.41.05-.87-.14-1.18.27a1.14,1.14,0,0,0,0,1.22,3,3,0,0,0,.47.71.87.87,0,0,0,.52.34c1.45,0,2.39,1.27,3.72,1.56a3,3,0,0,0,1.86-.09c-.45-1.55.07-3.15-.05-4.73a1.57,1.57,0,0,1,1.37-1.82,3.53,3.53,0,0,1,1.48-.11c2.69.48,5.39-.09,8.1.1,2.21.16,4.06,1.21,6.18,1.49,5.09.68,10,2.54,15.1,3a55,55,0,0,0,8.52.31c6.26-.38,12.54-.29,18.8-.1,5.66.17,11.28,0,16.92-.37,3.42-.2,6.84-.3,10.25-.49a22.7,22.7,0,0,1,7.31,1.32c1.41.4,2.28.71,1.9,2.4-.11.5.36,1.08.14,1.66,0,.12-.2.19-.31.27a.77.77,0,0,1-.77-.61c-.5-1.72-2.12-1.75-3.4-2.2s-.76,1-1.43,1.43a4.67,4.67,0,0,0-3-1.11c-1.51.12-1.44,1.51-1.85,2.5-.18-.11-.36-.15-.4-.25-.24-.68.32-1.65-.75-2a5,5,0,0,0-3.16,0,1.11,1.11,0,0,0-.73,1.21,2.25,2.25,0,0,0,1.44,2.19c1.21.43,2.46.77,3.68,1.16.62.19,1.23.38,1.83.61a1.78,1.78,0,0,1,1,1.1c-1.49-.28-2.81-.43-4.07-.78a13.25,13.25,0,0,0-9.08.32.55.55,0,0,1-.4,0c-2.44-1.14-5.11-.06-7.6-.76a.82.82,0,0,0-.62,0c-1.33.9-2.86.32-4.24.64a7.3,7.3,0,0,1-4.77-.72c-1.87-.86-3.88-.69-5.76-1.28a1.63,1.63,0,0,0-1.62.3,1.74,1.74,0,0,1-1.64.24,3.49,3.49,0,0,0-3.21.75c-.21.18-.54.48-.71.42-2.23-.81-4.48.49-6.7-.13a4.39,4.39,0,0,0-2.13,0,3.24,3.24,0,0,1-2.82-.59,1.49,1.49,0,0,0-1.17-.46c-1.76.4-3.45-.69-5.25-.11C55.65,117.33,54.71,116.18,53.12,116.94Zm53.42-1.66c-1-.24-1.12-1-1.59-1.37a3.05,3.05,0,0,0-2.78-.73c-1,.25-.67,1-.61,1.74a.68.68,0,0,1-.47.66c-.43.16-.65-.14-.82-.46a3.23,3.23,0,0,0-2.22-1.54c-1.21-.3-1.94.46-1.72,1.69a1.68,1.68,0,0,0,1.5,1.56,9.53,9.53,0,0,0,3.61.2,5,5,0,0,1,2.54-.12,9.94,9.94,0,0,0,4,0c.63-.07,1.41-.1,1.35-1s.27-1.91-.72-2.54-1.67-.26-2,.93A9.2,9.2,0,0,0,106.54,115.28Zm-48.09.34c.93.07,1.79.43,2-.77s-.67-1.46-1.47-1.69a13.78,13.78,0,0,0-2.49-.42.89.89,0,0,0-1.08.77,1.79,1.79,0,0,0,2,2.25C57.8,115.72,58.22,115.65,58.45,115.62Zm35.32,1.65c1.41,0,1.77-.55,1.26-1.92a3.31,3.31,0,0,0-3.35-1.74.79.79,0,0,0-.61.77A2.65,2.65,0,0,0,93.77,117.27ZM68.58,114c-.59.17-1.49-.07-1.69.84s.4,1.59,1.27,1.92a2.43,2.43,0,0,0,1.66.1,1.23,1.23,0,0,0,.88-1.29c0-.6-.12-1.13-.8-1.3C69.49,114.12,69.07,114.05,68.58,114ZM41,111.88c0-1.4-.91-2.65-2-2.66-.71,0-1,.44-1,1.09a2.59,2.59,0,0,0,2,2.63C40.8,113,41,112.53,41,111.88Zm48.7,3.8a2,2,0,0,0-2-2.24c-.68-.08-1.32,0-1.42.84s.93,2,2.22,2.13C89.09,116.49,89.64,116.48,89.71,115.68Zm-14.33-.23a1.74,1.74,0,0,0-1.83-1.65c-.79,0-1.13.46-1.16,1.2a1.59,1.59,0,0,0,1.69,1.73C74.92,116.73,75.41,116.35,75.38,115.45Zm-10.09,0a2,2,0,0,0-2-1.87c-.53,0-1,0-1.09.69-.1.87,1,2,2,2.1C65,116.51,65.21,116.05,65.29,115.5Zm-34.07-4.68c.05.64.05,1.42.93,1.34a1.24,1.24,0,0,0,1.12-1.5c0-.74-.18-1.52-1.11-1.45S31.28,110.13,31.22,110.82Zm46.42,2.66c-.31.06-.71.22-.62.76a1.44,1.44,0,0,0,1.65,1.26c.41,0,.89,0,.94-.56S78.58,113.5,77.64,113.48Zm-42.85-3c.09.65-.16,1.54.92,1.58.7,0,.76-.54.74-1.06,0-.74-.19-1.5-1.12-1.52C34.74,109.5,34.8,110.07,34.79,110.52Zm49.15,4.22c0-.59-.45-.7-.83-.8s-1.18-.38-1.42.36c-.15.47.31.75.75.83S83.56,115.3,83.94,114.74Zm-62.87-6.66c-.37-.07-.49.11-.53.31a.62.62,0,0,0,.47.79c.32.09.55-.06.55-.39A.74.74,0,0,0,21.07,108.08Z"/><path d="M54.68,152.59a9.37,9.37,0,0,1-4.11-.94,34.9,34.9,0,0,0-5.18-1.82c1,1.66,2,3.14,3.9,4,2.35,1,4.58,2.32,7,3.15a16.12,16.12,0,0,0,6.94,1.11,5.56,5.56,0,0,1,1.89.19,24.86,24.86,0,0,1-12-1.19c-.73-.24-1.68-1-2.15-.33-.59.79.53,1.43.94,2.11,2,3.28,5.44,4.24,8.71,5.44a24.92,24.92,0,0,0,4.31,1.28,3.53,3.53,0,0,1,2.19,1.19c-2.83-.87-5.79-1.11-8.62-2-.39-.12-.83-.48-1.18-.05s-.11,1,.26,1.34c1,1.07,1.89,2.16,3.71,2.15s3.29.93,4.85,1.61c.8.34,1.84.2,2.71,1.26a13.3,13.3,0,0,1-4.16-.75c-1-.39-2.54-1.35-3.16-.55-.87,1.13.8,2,1.4,3a6.62,6.62,0,0,0,4,3c2,.56,3.82,1.8,5.85,2.51-1.66.73-3-1-4.61-.49,1.08,2.91,2.5,4,5.4,4.11a10.15,10.15,0,0,1,3.55.75c1.07.43,2.06,1,3.28.33a4.22,4.22,0,0,1-3.44.61,21,21,0,0,1-2.07-.55c-.57-.17-1.11-.32-1.6.17a1.38,1.38,0,0,0,0,1.79c.94,1.66,2.07,3.05,4.25,3.14,1.57.07,3.12.35,4.68.56a3.13,3.13,0,0,1,1.19.46,6.39,6.39,0,0,1-2.91.35c-1.36-.18-3.3-1.14-4,.2s1.26,2.42,2.14,3.54a3.28,3.28,0,0,1,.94,1.63c0,.36.06.74-.29,1s-.71,0-.94-.28a13.27,13.27,0,0,1-1.91-2.29,19.25,19.25,0,0,0-3.13-4.07,87,87,0,0,1-7.15-8.78,4.64,4.64,0,0,0-1.5-1.49,5.37,5.37,0,0,1-1.82-1.79c-2.85-4-6.19-7.63-9.22-11.5-3.47-4.43-7.41-8.5-10.48-13.24-2.57-4-5.68-7.5-8.56-11.23-2.7-3.5-5.68-6.8-8-10.6a6.22,6.22,0,0,0-2.92-2.72,2.3,2.3,0,0,1-1.52-2.56c.14-1.19,1.11-1.55,2.16-1.74,2.37-.44,4.52.36,6.63,1.26a22.5,22.5,0,0,1,2.26,1.23,31.58,31.58,0,0,0,6.51,2.63c3.61,1.1,7.34,1.83,10.82,3.28a45.19,45.19,0,0,0,5.15,1.31c1.9.53,3.81,1.12,5.77,1.51a83.39,83.39,0,0,1,10.22,2.31c2.74.92,5.67.58,8.43,1.36a32,32,0,0,0,9.53,1.24c1.44,0,2.78.63,4.23.65,2.55,0,5.11.45,7.64-.23a8.58,8.58,0,0,1,3-.09c4.91.5,9.83.52,14.75.61,2.86,0,5.62,1,8.5,1a2.62,2.62,0,0,1,1.19.44.72.72,0,0,1,.31.51.54.54,0,0,1-.49.6,13.73,13.73,0,0,1-1.92.1c-5-.17-10-.18-14.91-.62a15.76,15.76,0,0,0-5.12.23,6.31,6.31,0,0,1-2.56,0,37.8,37.8,0,0,0-5.53,0c-2.06,0-4.22.6-6.24-.37a.49.49,0,0,0-.21,0c-1.9,0-3.78-.58-5.64-.65-4.23-.18-8.35-1.09-12.52-1.59-2.51-.3-5-1-7.51-1.47-2.8-.53-5.59-1.11-8.38-1.66a10.07,10.07,0,0,1-1.47-.3c-5-1.93-10.39-2.8-15.43-4.65a30.35,30.35,0,0,0-5.16-1.07c-1.92-.37-3.48-1.51-5.29-2.11-.38-.12-.75-.57-1.14-.11s-.09.78.18,1.15a4.49,4.49,0,0,0,3.21,2.2c1.95.2,3.59,1.36,5.28,2.27a30.44,30.44,0,0,0,13.08,3.6c3,.17,6.17,0,9.09,1.15.2.08.42.11.51.47-.43.32-.88,0-1.3-.09-3.31-.55-6.67-.59-10-.88a35.35,35.35,0,0,1-13-3.19c-.9-.45-1.79-1.2-3.23-.87a8.48,8.48,0,0,0,4.05,3.74c3.1,1.45,6.14,3,9.38,4.16a26.2,26.2,0,0,0,6.49,1.28,11.48,11.48,0,0,1,2.26.3c-2.95.88-5.83.27-8.64-.58-2.39-.72-4.7-1.68-7-2.53a.81.81,0,0,0-.9.16c1.19,2.66,3.45,3.94,6.09,4.8A79.17,79.17,0,0,0,57,148.88c-2.9.22-5.76-.73-8.79-.37a3.88,3.88,0,0,0,2.51,2c1.08.38,2.15.79,3.23,1.15a1.1,1.1,0,0,1,.74.95Z"/><path d="M133.72,540.51c-6.7-.47-13.4-.86-20.1-1.12-2.33-.09-4.63-.87-7-1.17a92.58,92.58,0,0,0-11.26-1.15c-1.45,0-1.59.15-1.61,1.58,0,2.68.54,3.3,3.29,3.73a30.39,30.39,0,0,1,5.25,1c1.44.5,3-.18,4.46.26,4.42,1.31,9,1.23,13.56,1.66a27,27,0,0,0,10.38-.56,9,9,0,0,1,5.06.09,13.05,13.05,0,0,0,4,.24,66.13,66.13,0,0,1,11.08.18,8.71,8.71,0,0,0,2.73-.48,1.88,1.88,0,0,1,2.31,1c.33.7-.24,1.74-1.35,2.14-1.59.56-3.14,1.21-5,.8a19.72,19.72,0,0,0-6.41.17,32.83,32.83,0,0,1-8.29-.46,12.84,12.84,0,0,0-4.24,0,34.78,34.78,0,0,1-10.63.42,30.33,30.33,0,0,0-5.13-.19,16.11,16.11,0,0,1-4.89-.58,32.35,32.35,0,0,0-8.25-1.11c-1.14,0-2.31-.46-3.4-.29-1.24.19-2.36.66-3.15-.75-2.89-.56-5.47-2.07-8.38-2.59-5.1-.92-9.43-3.53-13.55-6.52a2.2,2.2,0,0,1-.83-1.68,6.19,6.19,0,0,0-1.09-2.77,15.56,15.56,0,0,1-2-5.82,13.64,13.64,0,0,0-2.53-6,4.3,4.3,0,0,1-.73-1.3c-.51-1.5.34-2.47,1.89-2.29,1.73.2,3,.93,3.37,2.75a5.67,5.67,0,0,0,1.4,2.61c2.51,2.93,5.16,5.72,8.89,7.16a21.53,21.53,0,0,1,2.76,1.12c3.24,1.8,6.89,1.79,10.39,2.33,4.93.75,10,.94,14.89,1.73,5.52.89,11.07,1,16.62,1.39,3.91.24,7.8.78,11.69,1.21.81.09,1.56.34,1.65,1.36s-.58,1.59-1.5,1.75A18.65,18.65,0,0,1,133.72,540.51ZM92.86,538.8a2.07,2.07,0,0,0,.08-.42c0-1.64-2.39-3.08-3.84-2.29a1.21,1.21,0,0,0-.59.84,3.79,3.79,0,0,0,1.71,3.63,2.85,2.85,0,0,0,2.45.36c.87-.42.16-1.26.17-1.91A1.49,1.49,0,0,1,92.86,538.8Zm-8.34-4.46c-.59,0-1,.13-1,.69-.22,1.72,1.84,4.32,3.5,4.42.92,0,1.2-.32.67-1.12a2.59,2.59,0,0,1-.48-2c.06-.35.16-.77-.23-1C86.12,535,85.26,534.65,84.52,534.34Zm-1.67,2.74a13.57,13.57,0,0,1-1.26-3.75c-.07-.26-.45-.3-.74-.31a.46.46,0,0,0-.46.36,11.52,11.52,0,0,0,1.37,4.37,1,1,0,0,0,.6.13C82.7,537.84,82.77,537.55,82.85,537.08Zm-3.65-1.37a3.88,3.88,0,0,0-.78-2.47c-.33-.54-.41-1.67-1.28-1.34-.72.28-.3,1.26-.2,1.92C77.13,535,77.94,535.53,79.2,535.71Z"/><path d="M86.62,217.38c-1.43-.84-2.16-2.21-3.23-3.24a87.68,87.68,0,0,1-6.76-6.87c-1-1.16-1.51-2.56-2.5-3.72-3.25-3.79-6.49-7.6-9.54-11.56-1.88-2.43-4.2-4.53-5.74-7.16-1.42-2.41-3.14-4.59-4.75-6.82-2.28-3.18-4.51-6.42-6.93-9.52-2-2.58-4.36-4.91-6.11-7.7a72.55,72.55,0,0,0-6.79-9.3c-1.31-1.5-2.13-3.37-3.48-4.88A1.74,1.74,0,0,1,31,144a1.88,1.88,0,0,1,2.76.69c2.28,4.41,5.68,8,8.49,12.06,3.12,4.49,6.61,8.76,10.15,13A49.91,49.91,0,0,1,58,177.41a38.14,38.14,0,0,0,5.12,6.84,72.48,72.48,0,0,1,6.43,8.51A16.17,16.17,0,0,0,71,194.61c2,2.23,4,4.42,5.93,6.75,1.06,1.32,1.8,2.89,2.74,4.31a46.48,46.48,0,0,0,6.19,7.9C87.05,214.71,86.77,215.94,86.62,217.38Z"/><path d="M118.54,234a15.89,15.89,0,0,1-6.59-.29l-1.86-.48c-.35-.08-.74-.21-.94.2s.07.7.31.95c.69.73,1.39,1.45,2.11,2.13a1.06,1.06,0,0,1,.14,1.52c-.58,1-.8,1-1.78.32a13.59,13.59,0,0,1-2.66-3.06c-1.58-2.11-3.48-4-4.81-6.27a12.15,12.15,0,0,0-2.39-3c-1.58-1.41-2.17-3.5-3.5-5.11a56.69,56.69,0,0,1-5-7.68c-1.12-1.91-2.72-3.48-4-5.33a57.69,57.69,0,0,0-5.29-7.25c-.46-.51-1-1.2-.23-1.86a1.58,1.58,0,0,1,2.32-.1,33.52,33.52,0,0,1,3,3.58,15.91,15.91,0,0,0,6.27,5.05c2.25,1.07,4.5,2.13,6.72,3.32a36.94,36.94,0,0,1-7.87-2.38c.37,3.29,7.46,7.13,15,8.14a1.65,1.65,0,0,1-2.22.73c-2.52-.74-5.21-.93-7.55-2.27a4.37,4.37,0,0,0-.57-.29.61.61,0,0,0-.78.11.71.71,0,0,0,0,.8,6.76,6.76,0,0,0,2,2.19,68.2,68.2,0,0,0,5.94,3.82c2,1.18,4.25,1.13,6.35,1.79.41.13.86.11,1.18.45-1.76.47-2.56.35-5.49-.33-1.81-.42-3.36-1.51-5.43-2a6.57,6.57,0,0,0,3.49,4,46.23,46.23,0,0,1,5.38,3.09c1.58,1.18,3.58.82,5.27,1.55a6.24,6.24,0,0,1-4.57-.12c-1.51-.54-2.83-1.57-4.86-1.94,1.5,2.29,2.63,4.2,5.39,4.53C113.58,232.83,116,233.83,118.54,234Z"/><path d="M178.41,517.22a3,3,0,0,0-2.48-.71c-2.07,0-4.14,0-6.21,0-.38,0-.75,0-.85-.46s.19-.65.51-.83a2.67,2.67,0,0,1,1.24-.3c3.55-.15,7.09-.58,10.66.13,2.4.47,4.2-1.17,6.2-2.14-.39-.86-1-.67-1.41-.7a48,48,0,0,0-8.13.35c-1.06.12-2.14.11-3.21.14a.63.63,0,0,1-.73-.61c0-.41.3-.61.7-.66l.43,0c4.06.15,8.12-.61,12.2-.09,2.43.32,2.74,0,3.53-2.35a11.26,11.26,0,0,0,.95-3A5.89,5.89,0,0,0,191,502a.65.65,0,0,1,.28-1.07.73.73,0,0,1,1,.57c.59,2.67,1.49,5.21.26,8.11a11.93,11.93,0,0,1-4.06,5c-.3.22-.6.43-.45.85s.53.44.88.49c.74.1,1.55-.39,2.25.25-.13.74-.7.66-1.16.65-1.5,0-3-.13-4.49-.16a7.79,7.79,0,0,0-5.68,2,4.93,4.93,0,0,1-1.91.93c-.66.24-1.4.31-1.84,1.06.88,1.22,2.11-.37,3.26.42a10.06,10.06,0,0,1-5.16.7,68.56,68.56,0,0,0-14.74.47,33.47,33.47,0,0,1-7.48-.23,2.53,2.53,0,0,1-.82-.2.66.66,0,0,1-.45-.84c.11-.29.44-.29.73-.27a50.88,50.88,0,0,0,7.71,0,1.38,1.38,0,0,0,1.29-.46c-1.42-.9-3.13-.69-4.57-1.33-.77-.34-1.64-.44-2.43-.74a.73.73,0,0,1-.43-1c.19-.36.59-.33,1-.24,2.55.66,5.14,1.2,7.64,2,3.39,1.09,6.79.7,10.19.39a22.15,22.15,0,0,0,3.56-.76A6.47,6.47,0,0,0,178.41,517.22Z"/><path d="M62.3,89.49a22.55,22.55,0,0,0-4.89.54c-3.29.76-6.7.41-10,1.32a6,6,0,0,1-3,.12c-3.8-.91-7.36.28-10.94,1.1-2.24.51-4.54.59-6.75,1.19-1,.26-1.4-.27-1.67-1.18s.1-1.45,1-1.74A15.23,15.23,0,0,1,30.28,90c1.94,0,3.82-.53,5.75-.62.07,0,.15,0,.21,0,4.49-2.31,9.3-.22,13.9-1,2.39-.4,4.81-.42,7.21-.84s4.7-.34,7-.58A9,9,0,0,1,68.8,87a4.53,4.53,0,0,1,1.33.68c.64.52.32,1.18.28,1.79s-.61.68-1.11.75A6.53,6.53,0,0,1,67,90.14,24.43,24.43,0,0,0,62.3,89.49Z"/><path d="M175.35,97a29.22,29.22,0,0,1-.16-7.47c.15-1.86.2-1.86-1.65-2-.61,0-.61,0-1.77-1a3.71,3.71,0,0,0,3.15-.71,1,1,0,0,1,.81-.16c2.39.52,4.8.11,7.2.2a10.86,10.86,0,0,0,2.13-.1,5.78,5.78,0,0,1,4,.33,3.28,3.28,0,0,0,2.71,0,4.66,4.66,0,0,1,3.55.28c1.29.54,1.54,1.1,1,2.43a4.9,4.9,0,0,0-.29,1.67c-.19,2.9-1.23,5.68-1.11,8.65a2.46,2.46,0,0,1-.73-3,28.76,28.76,0,0,0,.8-7.2,1.64,1.64,0,0,0-1-1.69,2.56,2.56,0,0,0-2.45-.21.64.64,0,0,0-.38.89c.84,1.56.07,3.07-.07,4.6-.2,2.25-1.07,4.46-.26,6.81-1.34-.37-1.55-.71-1.35-1.84.33-1.89.66-3.77.93-5.67a7.8,7.8,0,0,0-.19-3.19,1.14,1.14,0,0,0-1.25-1,1.07,1.07,0,0,0-.91,1.05c-.09.64-.13,1.28-.22,1.92a.52.52,0,0,1-.6.47c-.35,0-.46-.31-.46-.61,0-.5,0-1,.07-1.5a1.63,1.63,0,0,0-1.5-2c-1.16-.25-1.72.12-1.56,1.29a16.17,16.17,0,0,1-.59,5.71,6.58,6.58,0,0,0,0,3.18c.14.47.11.92-.46,1s-.7-.4-.75-.87a6.92,6.92,0,0,1,.13-2.13,42.81,42.81,0,0,0,.81-6.38c.08-1.65-.54-2.3-2.1-1.86a5.12,5.12,0,0,1-3.11.35.52.52,0,0,0-.68.37c-.21.82-.92,1.45-.85,2.39C176.33,92.45,175.14,94.67,175.35,97Z"/><path d="M122.57,518.83c-.8.56-1.69.5-2.11,1.34a1.6,1.6,0,0,1-1.12.54c-3,.29-6.07,1-9.11,0a1.68,1.68,0,0,0-.63-.07c-3,.3-5.29-1.24-7.58-2.84-.71-.5-1.25-.93-.76-1.89a1.32,1.32,0,0,1,2-.57,31.23,31.23,0,0,0,6.66,2.23,28.53,28.53,0,0,0,10.35,1.07A4.39,4.39,0,0,1,122.57,518.83Z"/><path d="M65.22,101.63a6.61,6.61,0,0,1-1.52-2.56,6.77,6.77,0,0,0-.8-1.5,1.27,1.27,0,0,0-2.26.58c-.06.55.15,1.14-.21,1.64-.75.16-1-.44-1.4-.82s-.93-.73-1.54-.4-.43.82-.32,1.32a.82.82,0,0,1-.35.86c-.6-.11-.71-.71-1-1.18-.76-1.44-1.34-1.89-2.89-1.48-2.77.74-5.69.46-8.41,1.46a3.68,3.68,0,0,1-3.06-.5c4.88-.77,9.16-2,13.61-2.35a4.65,4.65,0,0,1,1.49,0A6.88,6.88,0,0,0,61,96.24a19.38,19.38,0,0,1,7.1-1.31c1,0,1.9-.21,2.88-.14A6,6,0,0,1,67,96a12.6,12.6,0,0,0-1.49-.11c-.89,0-1.37.54-1.11,1.4C64.78,98.67,64.55,100.23,65.22,101.63Z"/><path d="M267.67,134.51c0,1.77-.9,2.57-2.54,2a11,11,0,0,1-6.78-6.34c-.64-1.46.27-3,2-4a3.37,3.37,0,0,1,4.43.6C266.46,129.12,267.77,131.56,267.67,134.51Zm-1.37-1.19c-.25-2.6-1.95-4.52-4.22-6-.85-.57-1.46-.21-1.8.72a2.19,2.19,0,0,0,0,2.05,11.57,11.57,0,0,0,4.76,4.44C266,134.94,266.33,134.66,266.3,133.32Z"/><path d="M210.11,93.17a9.68,9.68,0,0,1,.85-4c.5-.88.11-1.41-.73-1.87-1.67-.9-3.31-1.77-5.24-.78-.13.06-.3,0-.42.08-.79.39-1.79-.72-2.38.15a7,7,0,0,0-.74,2.43c-.55,2.65-1.61,5.21-1.24,8,0,.34,0,.79-.5.75a.7.7,0,0,1-.61-.76,9.78,9.78,0,0,1,.13-1.71q.61-3.48,1.27-7c.4-2.1,0-2.56-2.2-2.27-.41.06-.79.43-1.36,0,1.31-1,2.53-1.57,4.22-1a10.87,10.87,0,0,0,4.26.21,13.67,13.67,0,0,1,6.12.78,5.75,5.75,0,0,0,2.09.23c.82,0,1.71-.23,2.44.4-.23,1-1,.77-1.57.84-2.21.26-2.29.4-2.92,2.66a4.1,4.1,0,0,1-1.51,2.72Z"/><path d="M85.76,122.44c4.4,0,8.49-.56,12.56.2,3-.82,5.93.74,8.92,0,1.14-.28,1.64.09,3.08,1.29-1.12.39-1.94-.56-2.92-.5-4.34.28-8.66-.22-13-.26a41.73,41.73,0,0,0-5.37.3A3.85,3.85,0,0,1,85.76,122.44Z"/><path d="M144.77,473.56a39.54,39.54,0,0,0,.32,6.46,3.22,3.22,0,0,1,0,1.48c-.14.34-.38.62-.8.55s-.37-.39-.35-.67c.34-4.44-.76-8.78-.89-13.18,0-.35-.11-.7-.13-1.06s.07-.92.58-1,.93.3,1,.87C144.56,469.15,144.66,471.28,144.77,473.56Z"/><path d="M112,122.87a2.37,2.37,0,0,1,3-.6,3.16,3.16,0,0,0,1.84.43c3.73-.72,7.44-.17,11.17,0a20,20,0,0,0,3.8-.48c.88-.13,1.77-.52,2.88.17-1,.55-2,.13-2.82.38-2.23.67-4.51.49-6.8.6-3,.14-6-.56-8.93-.09a3.12,3.12,0,0,1-1.46-.26A3.9,3.9,0,0,0,112,122.87Z"/><path d="M140,472.89v-3.46a8,8,0,0,1,0-.85c.09-.74.61-.94,1.23-.85s.53.56.45,1c-.44,2.24-.35,4.52-.57,6.78a10.68,10.68,0,0,0,.42,4.86c.2.54.34,1-.32,1.2s-.85-.35-.94-.85A26.54,26.54,0,0,1,140,472.89Z"/><path d="M189,509.33a1.1,1.1,0,0,1-1.33.6c-3.43-.7-6.93-.37-10.39-.65-.43,0-.86,0-1.28,0s-1-.15-1-.85a.79.79,0,0,1,1.07-.74c1.4.47,2.82.18,4.23.32A86.88,86.88,0,0,1,189,509.33Z"/><path d="M72.13,94.4c2.32-1.14,14.56-2.57,17.45-2.16.12.62-.32.75-.75.78a15.72,15.72,0,0,1-3,.12c-2.48-.3-4.78.44-7.1,1.07a1.81,1.81,0,0,1-.61.15A37.89,37.89,0,0,0,72.13,94.4Z"/><path d="M223.13,87.73c-1.53.37-1.83,1.71-2.16,2.92-.52,2-.8,4-1.51,6-.37,1,.36,2.12-.52,3.42a7.39,7.39,0,0,1-.09-3.15c.31-2,.71-4.06,1-6.09.41-2.59.94-2.4-1.9-4a2.46,2.46,0,0,1,2.63-.16l2.55,1.09Z"/><path d="M138.85,88.69a6.43,6.43,0,0,1-4-.54c-3.5-1.59-7.1-1-10.69-.37a8.91,8.91,0,0,1-3.59.27,4.17,4.17,0,0,1,2.8-1.08,52.94,52.94,0,0,1,7.64-.71c1.83,0,3.37,1,5,1.62A9.43,9.43,0,0,0,138.85,88.69Z"/><path d="M20.78,119.6c-1.32-1.52-3.32-2.1-3.8-4.21-.24-1.06-.08-1.49,1.19-1.92.89-.3,1.14.31,1.26,1a20.06,20.06,0,0,0,1.34,3.08A2,2,0,0,1,20.78,119.6Z"/><path d="M250.43,107.57a2.66,2.66,0,0,1-2.31,1.4c-2.85,0-5.69,0-8.27,1.49a.51.51,0,0,1-.4.08c-1.19-.65-2.49-.11-3.74-.44C240.43,109,245.21,108.31,250.43,107.57Z"/><path d="M124.8,520.48c3.74-.07,7.4-1,11.24.46a3.44,3.44,0,0,1-1.94.17,13.31,13.31,0,0,0-5.84.63C126.67,522.3,125.94,522,124.8,520.48Z"/><path d="M90.65,91.73A5.65,5.65,0,0,1,93.6,91a41.59,41.59,0,0,0,6.24-1.37,7.06,7.06,0,0,1,5.7.52,2.68,2.68,0,0,1-2.62.19,3,3,0,0,0-2.87.07c-2.24,1.27-4.72.9-7.09,1.26A4.94,4.94,0,0,1,90.65,91.73Z"/><path d="M106.53,89.85c2.4-1.41,4.62,0,6.8-.57a28.72,28.72,0,0,1,6.31-.53A22.51,22.51,0,0,1,106.53,89.85Z"/><path d="M203.8,95.19c.1-2.06,1.07-4.17,1.36-6.43a.64.64,0,0,1,.8-.53c.31.08.34.41.33.7a6.14,6.14,0,0,1-.48,2.49c-1,2.09-1.66,4.24-.62,6.54.15.34.23.76-.18.91-.57.21-.7-.3-.85-.7A9.66,9.66,0,0,1,203.8,95.19Z"/><path d="M84.58,123.14a1.92,1.92,0,0,1-2.56-.32,4.17,4.17,0,0,0-4.5-1,5,5,0,0,1-2.54,0,.67.67,0,0,1-.45-.38c-.08-.33.17-.51.48-.54,1.68-.2,3.38-.17,5.07-.37a3.13,3.13,0,0,1,2.54,1.39A3.5,3.5,0,0,0,84.58,123.14Z"/><path d="M279.18,95.38A10.83,10.83,0,0,0,280.59,89a4.52,4.52,0,0,1,.17-1.27c.12-.42.35-.83.89-.71s.46.5.5.87C282.58,91.56,282.14,92.74,279.18,95.38Z"/><path d="M146.66,477.41c-.12-.16-.36-.33-.34-.46.32-2.45-.64-4.76-.76-7.17a3.4,3.4,0,0,1,1-3.17A44.48,44.48,0,0,1,146.66,477.41Z"/><path d="M178.34,99.68a23.18,23.18,0,0,1,.22-3.6,26.9,26.9,0,0,0,.8-6.13,1.69,1.69,0,0,1,.2-.82c.24-.46.61-.91,1.17-.68s.14.7.08,1.09c-.53,3.07-1.76,6-1.7,9.2C179.12,99,179.07,99.31,178.34,99.68Z"/><path d="M214.25,97.82a20.72,20.72,0,0,1,1.43-8.47c.65,1,.7,1-.18,4.43C215.14,95.13,215.34,96.67,214.25,97.82Z"/><path d="M282.45,98.68a3.32,3.32,0,0,1-.37-3.06,14,14,0,0,0,.75-3.08,1.15,1.15,0,0,1,1.05-1.15c.38-.06.83.13.6.57A27.74,27.74,0,0,0,282.45,98.68Z"/><path d="M294.26,111.42a14.35,14.35,0,0,1-1.94,3.39.64.64,0,0,1-.58.07.52.52,0,0,1-.26-.7,21.46,21.46,0,0,0,1-3.21c.1-.39.24-.88.83-.72S294.09,110.84,294.26,111.42Z"/><path d="M155.33,86,149,87a.55.55,0,0,1-.67-.36.73.73,0,0,1,.26-.75,1,1,0,0,1,.78-.26h5.89Z"/><path d="M164.26,120.07c.76,1.14,1.21,5.26.87,6.85C164.3,124.47,163.79,122.34,164.26,120.07Z"/><path d="M40.47,123.41c-.6-1.77-1.72-3.41-1.3-5.64A5.62,5.62,0,0,1,40.47,123.41Z"/><path d="M87.21,195.51c-1.84.38-3.55-.4-5.32-.69a.58.58,0,0,1-.47-.62c0-.52.48-.46.8-.4A13.47,13.47,0,0,1,87.21,195.51Z"/><path d="M290.15,106.33c.83.8,1.16,1.45.76,2-.61.89-.9,1.92-1.47,2.81-.17.25-.36.46-.68.36a.56.56,0,0,1-.35-.7,4.27,4.27,0,0,1,.53-1.59A5.42,5.42,0,0,0,290.15,106.33Z"/><path d="M22.5,114.57a.86.86,0,0,1,.83.54c.41,1.11.78,2.23,1.11,3.37a.55.55,0,0,1-.43.63.46.46,0,0,1-.56-.16,10.92,10.92,0,0,1-1.33-4C22.08,114.78,22.25,114.6,22.5,114.57Z"/><path d="M286.28,106.61c-.36,0-.57-.29-.49-.58.4-1.43.84-2.85,1.3-4.26.09-.27.33-.51.65-.36s.4.36.37.47q-.69,2.33-1.46,4.63C286.63,106.58,286.4,106.58,286.28,106.61Z"/><path d="M186.39,99.21c-1.15-2.37.31-4.5.64-6.75C186.79,94.7,187.21,97,186.39,99.21Z"/><path d="M169.42,126.81a6.13,6.13,0,0,1-1.27-5.73C168.45,123,169.55,124.77,169.42,126.81Z"/><path d="M220.05,120.72a6,6,0,0,1-2-3.64c-.1-.6.13-1.21.88-1.15s.4.64.33,1C219.09,118.19,220.43,119.07,220.05,120.72Z"/><path d="M32.49,121c-1.85-1.17-1.66-2.76-2-4.12-.06-.27.23-.51.54-.52a.61.61,0,0,1,.66.42C32,118,32.2,119.3,32.49,121Z"/><path d="M161,127c-.88-1.25-.92-2.54-1.67-3.49a.61.61,0,0,1,.22-.92c.35-.21.67,0,1,.21.11.08.29.21.28.3C160.69,124.33,161.86,125.44,161,127Z"/><path d="M43.57,118.06A10.68,10.68,0,0,1,44.83,123C43.22,121.54,42.9,120.34,43.57,118.06Z"/><path d="M187.28,119.19a4.46,4.46,0,0,0,.53,2.64c.13.35.35.62-.2.8s-.62-.09-.79-.43a8,8,0,0,1-.57-3.52c0-.37.12-.73.57-.7s.48.44.49.79A2,2,0,0,1,187.28,119.19Z"/><path d="M73.16,125.07a5.77,5.77,0,0,1-1.41-3.56c0-.49-.15-1.18.49-1.23s.9.7.85,1.24A21,21,0,0,0,73.16,125.07Z"/><path d="M34.68,118.54c0-.4-.06-.82.41-.89s.61.24.71.61c.23.82.52,1.62.69,2.45a.76.76,0,0,1-.5.86c-.45.12-.65-.28-.74-.59C35,120.16,34.86,119.32,34.68,118.54Z"/><path d="M213.9,116.47a13.75,13.75,0,0,0,.76,3.64c.12.32.34.71-.1.92s-.69-.07-.83-.44a22.91,22.91,0,0,1-.84-2.41C212.68,117.41,212.93,116.81,213.9,116.47Z"/><path d="M174,125.51c-1.65-1-1.24-2.3-1.43-3.33-.15-.79-1.19-2.22.29-2.38,1-.12.36,1.39.39,2.12C173.31,123,174,124,174,125.51Z"/><path d="M67.07,120.4c1.45,1.43,1.08,3.33,1.42,5A6.82,6.82,0,0,1,67.07,120.4Z"/><path d="M210.07,93.13a13.82,13.82,0,0,1,.54,4.61.64.64,0,0,1-.6.74c-.45,0-.48-.37-.49-.76-.06-1.55-.21-3.11.59-4.55Z"/><path d="M230.56,98.31c-.27-1.89.37-3.22.9-5C232.6,95.44,231.78,96.73,230.56,98.31Z"/><path d="M53.93,124.14c-1.34-1-1.2-2.63-1.82-3.92-.12-.25.14-.55.45-.59s.53.08.55.17C53.37,121.24,54.09,122.61,53.93,124.14Z"/><path d="M26.77,115.84c.37,1.51,1.81,2.73,1.31,4.49C27,119,26.06,117.69,26.77,115.84Z"/><path d="M182.81,124.27c-1-2.18-1.11-3.8-.21-5.2C182.8,120.86,183.23,122.42,182.81,124.27Z"/><path d="M48.6,123.37a10.3,10.3,0,0,1-1.2-3.27.66.66,0,0,1,.52-.82c.42-.09.67.2.72.59.14,1.11.26,2.23.38,3.34Z"/><path d="M178.69,124c-.73.12-.93-.27-1-.69-.18-1-.33-2.1-.46-3.15-.06-.39.1-.74.53-.77a.51.51,0,0,1,.53.55C178,121.34,178.59,122.66,178.69,124Z"/><path d="M192.66,123c-1.73-.78-2-2-1-4.19C192,120.31,192.33,121.6,192.66,123Z"/><path d="M58,120.86a.86.86,0,0,1,.59.79c.12.82.9,1.48.59,2.38a.33.33,0,0,1-.53.13,4.45,4.45,0,0,1-1.2-2.6A.53.53,0,0,1,58,120.86Z"/><path d="M208.11,121.61c-.5-1.27-1.67-2.49-.21-4.07C208.76,119,208.34,120.3,208.11,121.61Z"/><path d="M229.7,110.55a3.38,3.38,0,0,1,3.8-.51c.24.16.45.4.35.7s-.43.33-.7.24a5.29,5.29,0,0,0-1.84-.45C230.79,110.54,230.25,111,229.7,110.55Z"/><path d="M202.45,122.73a5.89,5.89,0,0,1-1.6-2.78.61.61,0,0,1,.3-.72.46.46,0,0,1,.68.3C202.19,120.47,203,121.33,202.45,122.73Z"/><path d="M64.24,125.16c-.09.23-.11.43-.2.47a.77.77,0,0,1-.57.06,7.86,7.86,0,0,1-1.61-3.34.84.84,0,0,1,.42-.41.37.37,0,0,1,.36.12C63.2,123.1,63.43,124.31,64.24,125.16Z"/><path d="M54.65,152.63c1.84-1,3.51-.18,5.2.52a15.06,15.06,0,0,1-5.17-.56Z"/><path d="M197.33,123.72a4.79,4.79,0,0,1-.55-4.15A5.37,5.37,0,0,1,197.33,123.72Z"/><path d="M241,114.08a3.89,3.89,0,0,1-1.75-1.68.61.61,0,0,1,.37-.84c.36-.15.73-.1.86.3C240.69,112.44,240.79,113.05,241,114.08Z"/><path d="M150.42,123.26c-1.47.14-2.09-.58-3.08-1.1C148.86,121.23,149.41,122.24,150.42,123.26Z"/><path d="M89.42,200.21l4.67.53C92.5,200.84,90.88,201.26,89.42,200.21Z"/><path d="M138.81,336.18a1.81,1.81,0,0,1-1.5,2.19c-.08,0-.31-.14-.31-.2C137.09,337.13,137.89,336.77,138.81,336.18Z"/><path d="M228.45,114.4c.18,0,.28,0,.3,0a1.68,1.68,0,0,1,.24,2.06.37.37,0,0,1-.55,0A1.82,1.82,0,0,1,228.45,114.4Z"/><path d="M255.7,105.68a2,2,0,0,1-2.82.9,7.35,7.35,0,0,1,2.87-.85Z"/><path d="M170.8,91.68c-.64-1-.8-1.63-.31-2.27,0-.07.45,0,.55.13C171.58,90.21,171.22,90.8,170.8,91.68Z"/><path d="M147.35,478.79c.09.82.19,1.64.25,2.45a.38.38,0,0,1-.41.37.31.31,0,0,1-.33-.41,3.74,3.74,0,0,0,0-2.43Z"/><path d="M154,122.38l-2.35.76-.09-.3,2.31-.84Z"/><path d="M129.9,259.81c.52,4.36,1.66,8.25,1.41,12.34a.27.27,0,0,1-.41-.23c0-3.3-1.2-6.4-1.57-9.63A2.35,2.35,0,0,1,129.9,259.81Z"/><path d="M144.23,260.85v7.25C143.14,265.81,143.26,262.37,144.23,260.85Z"/><path d="M135.77,270.43a33.55,33.55,0,0,1-1.32-7.74C135.54,264.49,136,267.1,135.77,270.43Z"/><path d="M148.8,265.72c.19-1.62-.17-3.26.38-5A6.06,6.06,0,0,1,148.8,265.72Z"/><path d="M143.8,271c.5,1.84-.33,3.59-.12,5.4C142.93,274.61,144,272.82,143.8,271Z"/><path d="M154,264.67c.31.95-.25,1.7-.51,2.54A3.07,3.07,0,0,1,154,264.67Z"/><path d="M158.48,263.51c.53.91.07,1.62-.47,2.33Z"/><path d="M139.49,270.82v-2.43h.1v2.42Z"/></g></svg>