<svg xmlns="http://www.w3.org/2000/svg" viewBox="0 0 255.24 547.84"><defs><style>.cls-1,.cls-6{fill:#edffff;}.cls-2{fill:#ffb9eb;}.cls-3{fill:#c1272d;}.cls-4{fill:#fff;}.cls-5{fill:#ff78ff;}.cls-6{opacity:0.65;}.cls-7{opacity:0.43;}.cls-8{opacity:0.16;}</style></defs><title>pinkSquirrel</title><g id="glass"><path class="cls-1" d="M108.31,270c-4.43-3.35,19.31,6.95,19.31,6.95l38-7-8.37,28s-5.17,33.21-5.42,43-.25,48-.25,48l-.75,38-.44,27.67s26.87,5.08,33.66,7.58,19.53,8.79,24.78,16.64,8.5,22.75,6.25,26.68-2.75,9.43-3.5,9.68-13.26,16-30.5,22.75-44.37,6.56-44.37,6.56-2,3.52-23.51-4-38.85-22-38.85-22-6-10.41-4.27-19.71,10.5-22.61,10.5-22.61l18.5-11.93s31.5-9.41,32-9.58S130,384.67,130,384.67l-3.62-49s-2.49-18.58-3.24-21.15S111.77,272.59,108.31,270Z"/><path class="cls-1" d="M25.05,136.42c-2.43-3.25-8.43-14.5-7.18-21s5.51-15.78,17.51-21.14S80.29,78.39,80.29,78.39l29.91-5.47s33.66-.58,38.42,0,46.69,5.47,46.69,5.47l31.31,9.33s12.25,5.27,17.75,13.73,9.25,13.72,9.25,13.72-2.25,13.41-4.75,17.08-9.76,15.24-12.78,17S49,166,49,166Z"/></g><g id="liquid"><path class="cls-2" d="M35.38,134.67c-2.76-7.5-6.12-13-5-16.63s5.91-10,8.71-10.39,12.94-6.2,12.94-6.2l25.45-8.54,19.6-2.74s18.42.36,20-1.25,14.75-4.42,14.75-4.42l17-.86,20,3.18,39.29,5.45,17.58,9.18s9.13,10.42,10.13,15.57-1.75,17.65-1.75,17.65l-.12,5.47a8.2,8.2,0,0,1-1,2.4c-1,2.1,0,8.4,0,8.4s-1.2,6.1-3.2,8.29S180,244.31,179,246.45s-9.09,19.22-9.09,19.22l-4.21,4.25s-24.29,6.75-30,7-21.84-4.36-25.5-5.5-11.54-18.91-11.54-18.91l-10-19.59s-18.38-31.83-20.18-34-14.81-23.75-14.81-23.75Z"/></g><g id="cherry"><path class="cls-3" d="M91.12,113.49c3-5.16,3.93-12.76,7.46-14.54s9.87-1.78,9.87-1.78S99.34,76.6,98.58,72.92,89,61.48,86.82,62.48s-11,2.23-11,2.23S66.53,69.6,67.33,67,71,61.3,71,61.3l6.87-2.38s6-5.26,7.88-4,10.58,5.13,10.58,5.13l7.29,12.37,6.58,23.25s4.67-2.53,7.67-1.39,11,9.66,11,9.66l3,8.08-4.25,2.4a22.78,22.78,0,0,1-9.75,2.6c-5.5.15-18.07-.85-19.29-2.1S91.12,113.49,91.12,113.49Z"/></g><g id="straw"><path class="cls-4" d="M12.62,29.42c3.42-8.11,4-25.07,4-25.07S27.94,30.26,30.41,31.42s-1.58,31.25-1.58,31.25Z"/><polygon class="cls-4" points="35.38 72.66 39.84 49.06 53.87 78.39 48.83 101.75 35.38 72.66"/><polygon class="cls-4" points="56.12 113.49 62.8 94.28 72.06 111.96 56.12 113.49"/><path class="cls-5" d="M2.12,9.85s9-9.18,12.14-7.93,1,18.5-.45,21.25A9,9,0,0,1,9.09,27Z"/><path class="cls-5" d="M29,61.3l1.41-29.88,9.43,17.64s-4.37,24.6-5.42,23.6S29,61.3,29,61.3Z"/><polygon class="cls-5" points="47.71 99.33 53.21 77.01 62.8 94.28 56.12 113.49 47.71 99.33"/></g><g id="glass_rim_front" data-name="glass rim front"><path class="cls-6" d="M28.83,132.69s35.25,14.73,41.64,17.1,46.18,9.75,62.66,9.44,48.27-3.24,57.7-5.86,34.54-9.44,39.54-13.07,5.72-1.38,5.72-1.38L234,144.31s-15,4.25-24.94,7.93-17.83,6.12-28.3,7.47S154.84,164,154.84,164s-12.2,1.08-19.18.31-28.83.28-32.42-1.13-34.8-9.34-34.8-9.34-8.13-.41-11.9-1.68-19.65-8.51-19.65-8.51l-9.52-6.14Z"/></g><g id="shade"><path class="cls-7" d="M212.94,88.24C206.85,83.89,197.26,82.53,190,81c-6.05-1.28-17.91-5-22.47.36-.57.67-.64,4,.11,4.59,2.7,2,6.28,1.9,9.59,2.5,4,.72,8.07,1.43,12.09,2.27q5.53,1.14,11,2.63c4,1.09,8.48,3.37,12.56,3.34C214.26,96.67,214,89,212.94,88.24Z"/><path class="cls-7" d="M97.71,76.78C91.64,76.54,86,79,80.38,80.89c-5.81,2-12.54,3.44-17.78,6.66-1.31.81-1.19,8.89.21,8.79,6-.44,12.18-3.6,17.82-5.53S91.88,86.46,98,86.7C99.35,86.76,99.49,76.85,97.71,76.78Z"/><path class="cls-7" d="M148.58,76.72c-6.21-2.35-14.21-2.87-20.83-3.51-6.85-.67-13.86-.42-20.75-.49-1.48,0-1.46,9.9.24,9.92,6.88.09,13.88.52,20.74,0,6.54-.49,14.52-.81,20.67-3C149.16,79.43,149.07,76.91,148.58,76.72Z"/><path class="cls-7" d="M82.36,155.18c-8.31-3.51-16.42-7.92-25-10.63-8.37-2.63-17-4.1-24.76-8.4,0,0-.22,1.06,0,1.23,7.12,5.51,15.65,7.92,24,10.8s16.8,9.1,25.78,8.58C82.65,156.74,82.61,155.29,82.36,155.18Z"/><path class="cls-7" d="M201.31,153.55c-8-1-17.21,1.59-25.12,2.84s-17.6,1.77-25.06,5.1c-.19.08-.18,1.12,0,1.15,7.92,1.17,17.24-1.21,25.13-2.3,8.05-1.11,17.56-1.36,25.07-4.56C201.72,155.63,201.69,153.6,201.31,153.55Z"/><path class="cls-8" d="M227.45,105.26c-1.9-2.06-3.59-1-5.63.37s-4.41,2.55-6.52,4a9.39,9.39,0,0,0-4.12,6.79c-1.78.11-3.63.36-5.5.37a72.11,72.11,0,0,1-15.75-1.92c-7.06-1.55-19.8-7.25-25.72-.84-.41.45-.48,4.48.24,4.39,4.17-.52,7.27-.74,11.41.48,4.5,1.32,8.94,2.68,13.52,3.72-4.64,2.38-9.26,5.36-14.65,4.64-7.56-1-16-6.51-23.41-2-.41.25-.44,2.68.07,2.75a35,35,0,0,1,11.74,3.26,38.36,38.36,0,0,0,12.49,4c4.49.48,8.08-1.22,11.95-3.3,4.49-2.42,9.46-3.8,13.5-7a1.08,1.08,0,0,0,.25-.53,47.9,47.9,0,0,0,17.9-1.73c.77-.25.54-3.79,0-4.24a8.9,8.9,0,0,0-5.18-2.09c1.85-1.24,4.31-2.12,5.7-2.9,1.15-.64,2.18-1.45,3.3-2.14,1.5-.91,3.13-1.35,4.48-2.46C228.12,108.43,227.92,105.77,227.45,105.26Z"/><path class="cls-8" d="M141.1,111.33c-1.95-.86-3.21.49-5,1.37a29.44,29.44,0,0,1-6.32,2.21A51.75,51.75,0,0,1,116.87,116c-10.08-.21-22-3.2-31.54,1.15-.16.07-.15,1,0,1,5.58,1.42,11.54,2.1,17.21,3.19l4.18.82c-2.85,1.43-6.21,3.11-8,5.54a2.93,2.93,0,0,0,.06,2.44c1.43,1.38,1.75,1.38,3.68.67s3.7-1.79,5.56-2.6c4-1.72,8.06-2,12.09-3.24.27-.09.43-.52.51-1.1,7.61.06,17.54-1.41,20.74-8.73C141.71,114.48,141.92,111.69,141.1,111.33Z"/><path class="cls-8" d="M112.27,99.54c-.71.31-.27,2.58-.11,3.12.1.33.22.65.33,1-.22.33-.65.94-.7,1a4.45,4.45,0,0,1-3,1.15c-1.68,0-4.67-1.28-4.51-3.39,0-.23-.15-2.74-.48-2-.88,1.93-.48,5,.33,6.84a5.29,5.29,0,0,0,5.69,3.35c2.38-.42,3.62-2.39,3.91-4.65C113.83,105.18,114,98.78,112.27,99.54Z"/><path class="cls-8" d="M159.25,478.36c-.16-.19-.31-.18-.46,0-2.9,3.74-11.19.75-15.18.76-5.15,0-9.59,2.34-13.61,5.39-3.24,2.46-4.2,4.78-4,8.76.1,2.64.35,5.67,3.3,6.34,2.24.51,5.2-.21,7.5-.3,1,0,2-.06,3.05-.09.14.38.32.62.54.65,4.59.57,9.4.2,12.75-2.33a21.1,21.1,0,0,0,2-1c3.92-.17,8.1-.88,8.72-4.71C164.67,486.87,162.48,482,159.25,478.36Z"/><path class="cls-8" d="M144,539.43c-13.11.36-25-1-37.34-5.83-12.1-4.77-21.2-12.54-31.19-20.54-.16-.13-.19,1.3-.05,1.54,13,22.53,43.06,36.42,68.77,32.61C145.58,547,145.21,539.4,144,539.43Z"/><path class="cls-8" d="M213.57,506.48c-2.76.67-4.29,3-6.31,4.9a73.75,73.75,0,0,1-8.55,6.6c-6.29,4.26-15.1,8-19.68,14.15-.25.34-.42,2.94.16,3,3.81.26,8-3.13,11.25-5,2.94-1.73,5.88-3.45,8.74-5.31,6.13-4,12-8.13,14.65-15.16C214,509.3,214.09,506.35,213.57,506.48Z"/><path class="cls-8" d="M170,496.05c-4.86,1.88-9.1,4.17-14.34,5a76,76,0,0,1-16.31.52,125.64,125.64,0,0,1-17-2.42,31.31,31.31,0,0,1-4.08-.93,3.69,3.69,0,0,1-.64-.21c2.26-1.53,4.55-4.72,6.09-6.6.44-.53,0-3.75-.2-3.65-4.27,2.7-9.28,5.94-8.94,11.39.36,6,6.52,7,11.5,8.26a82.41,82.41,0,0,0,25.1,2c6.87-.47,14.52-1.73,19.2-7.23C170.93,501.45,170.66,495.79,170,496.05Z"/><path class="cls-8" d="M188.85,497c-.6-11.23-12.93-22.89-24.49-20.65-.61.12-.52,3.45.09,3.62,8,2.21,17.73,7.61,21.42,15.56,2.31,5-2.49,9.59-6.58,12s-8.7,3-12.73,5.12c-.81.43-.81,4.81.12,5.06,6,1.6,13.76-1.61,17.8-6.18C188,507.52,189.14,502.23,188.85,497Z"/><path class="cls-8" d="M155.32,516.41c-6.06-1.91-13-.91-19.32-1.11a120.05,120.05,0,0,1-19-2.08c-5.32-1-11.67-2.7-15.49-6.82-6.53-7-.35-15.17,4.08-21.41.51-.72.08-4.88-.39-4.51-9.4,7.48-12.52,26.09-2.27,34.3,6.2,5,15.56,6.75,23.23,7.7,8.94,1.11,20.73,2.62,29.3-.63C156.39,521.5,156.26,516.71,155.32,516.41Z"/><path class="cls-8" d="M149.47,430.75a264.4,264.4,0,0,0,.1-30.19c-.88-21.42.44-42.46,1.81-63.81,0-.46-.52-4.07-.86-2.14-4.05,22.55-3.45,46.16-2.57,68.95.48,12.17-.31,24.05-1.06,36.18-.58,9.4-1.32,21.12,2.93,29.84.67,1.38.84-4.14.69-4.83C147.92,453.16,148.61,442.48,149.47,430.75Z"/><path class="cls-8" d="M225.43,154.29c-2.53-.16-4.15,1.58-6.26,2.81l-.36.21a3.32,3.32,0,0,0-.25-.56c.41-.77.36-4.68-.31-4.57-6,1-11.88,1-17.51,3.58-6.29,2.85-12.25,5.55-19,7.16a220.54,220.54,0,0,1-45,6.19c-14.82.32-29.35-4.57-43.53-8.27-7.45-2-14.83-4-22.51-4.88-6.84-.74-13.75-1.28-19.47-5.5a.92.92,0,0,0,0,.69c4.88,4.64,10.72,6.93,16.81,9.53a158.34,158.34,0,0,0,22.57,7.39c14.77,3.85,30,9.16,45.45,9,15.11-.16,31.2-2.74,45.89-6.24,6.74-1.61,12.73-4.3,19-7.16,5-2.27,11.69-2.44,16.17-5.65l-.29.51c-1.65,1-3.29,2.05-4.93,3.09a74.34,74.34,0,0,1-19,8.79,204.82,204.82,0,0,1-21.66,5.45c-7.42,1.36-14.7,1.09-22.1,1.86-.27-.34-.52-.26-.73.07l-.16,0c-1.35.16-1.42,4.94-.8,8,.45,12.09,4.14,22.88,7.69,34.51,2.62,8.61,3.35,17.33,3.33,26.12a50.89,50.89,0,0,0-.1,23.9c.09.36.17.65.26.9-9.71,1.21-19.08,4.53-28.84,5.55-.34,0-.55.79-.63,1.76a3,3,0,0,0-1.81-.34c-.26,0-.1,1,0,1.2,2.2,6.16,6.8,11.25,11.06,16.14,1.31,1.5,2.7,3.28,4.2,5a8,8,0,0,0,.52,1.21c1.64,3,5,3.93,7.5,5.93a16.45,16.45,0,0,0,1.4,1.36c.52.43,1.35-6.17.26-7.48a8.25,8.25,0,0,0-1.54-1.41l-.15-.15c4.1-.52,8-2.48,9.46-6.33.44-1.17.83-4.65.11-6.34a14.7,14.7,0,0,0,1.63-1.25c.67-.59.63-4.58.2-6.6a9.33,9.33,0,0,0,.81-.85c.68-.81,1-7.85-.42-7.77l-.24,0c1.45-2.22,2.16-5.81,2.86-7.64q2.87-7.45,5.82-14.89,2.5-6.35,5.08-12.66a27.89,27.89,0,0,0,.25,4.3c.05.38,1,4.77,1.67,3.52q15.91-30,32.42-59.68c.44-.63.88-1.25,1.33-1.87a3.32,3.32,0,0,0,.44-1.3q2.2-4,4.42-7.92a37.77,37.77,0,0,0,9.28-15.27C225.83,157.08,226.11,154.33,225.43,154.29ZM180,203.72l1.6-.54c-.51.76-1,1.52-1.54,2.27C180.07,204.87,180.06,204.29,180,203.72Zm-18.76,30c.28.7.61,1,.92.9-.26.66-.5,1.32-.74,2Q161.36,235.18,161.26,233.74Zm.26,20.71c0-.94,0-1.88.08-2.82,1.18-3.13,2.82-6.21,3.87-8.55.41-.92.83-1.84,1.25-2.76C164.83,245,163,249.67,161.52,254.45Z"/></g><g id="outline"><path d="M90.79,158.9a7,7,0,0,1,3.62.31,58,58,0,0,0,12.21,2.59,42.87,42.87,0,0,0,11.09.12,18.1,18.1,0,0,1,8.46.92c3,1.13,6.09,1.09,9.15,1.13,2.7,0,5.38.27,8.07.29,4.22,0,8.5.9,12.65-.65,1.16-.43,2.47-.05,3.64-.64.74-.37,1.78-.48,1.6-1.64s-1.27-1.27-2.18-1.21c-2.4.15-4.8.34-7.18.62a11.87,11.87,0,0,1-5.07-.11,2.06,2.06,0,0,0-.91-.13c-4.82.63-9.67-.13-14.54.57a29.55,29.55,0,0,1-10.85-.63c-3-.73-6.16-.31-9.1-1.42-4.41-1.66-9.15-1.42-13.7-2.3-2.27-.44-4.63-.19-6.93-.54a23.92,23.92,0,0,1-5-1.19c-.49-.19-1.06-.47-1-1.14s.71-.81,1.24-.85a21.48,21.48,0,0,1,6.45.3c4.08.94,8.28.75,12.41,1.23a15,15,0,0,1,2.73.41c6.4,1.84,13,2.31,19.59,2.72a33.06,33.06,0,0,0,9.68-.47c1.61-.37,3.18.46,4.82.51,4.5.13,9,.18,13.48-.07,3.08-.18,6.17-.13,9.25-.25a17,17,0,0,0,3-.47c3.74-.86,7.38-2,11.33-2.08,2.66,0,5.23-1.22,7.79-2.12a75.26,75.26,0,0,1,11-2.82,2.34,2.34,0,0,1,.45-.07c.86,0,1.89-.08,2.17.92.34,1.22-.75,1.58-1.62,1.86a58.45,58.45,0,0,1-6.23,1.82c-2.37.49-4.53,1.59-6.87,2.14-.79.18-1.59.53-1.31,1.54s1.11.78,1.77.64c1.05-.23,2.34-.33,3.05-1,1.5-1.42,3.2-1.29,5-1.33a3.59,3.59,0,0,0,1.8-.4c3.14-2.07,7-1.78,10.32-3,1-.34,2-.47,2.92-.78.73-.23,1.71-.46,1.78-1.31.14-1.64,1-1.42,2.06-1.05a6.32,6.32,0,0,0,5.56-.61,2.24,2.24,0,0,1,.63-.29c.76-.18,2.57.58,2.61,1.14.08,1-.88,1.15-1.48,1.56a3.63,3.63,0,0,1-1.3.48c-5.46,1.13-10.69,3.09-16.11,4.36a9.74,9.74,0,0,0-2,.64c-3.45,1.69-7.24,2.12-10.89,3.09a111.27,111.27,0,0,1-13.62,2.84c-3.15.42-6.3.83-9.46,1-3.36.21-6.53,1.26-9.8,1.85a18.24,18.24,0,0,1-6.9.35,5.83,5.83,0,0,0-1.38-.14c-6.49.29-12.92-.69-19.38-.87-2.1-.06-4-1.13-6-1.37a19.75,19.75,0,0,0-5.09-.1c-1.34.2-1.53.72-.77,1.84,1.49,2.24,3,4.51,4.59,6.66.87,1.14,1.87,2.34,3.61,2.19,1-.09,1.33-.55.61-1.31a31.66,31.66,0,0,1-3.59-4.25c-.28-.41-.94-.88-.3-1.37s1,.25,1.31.62a33.84,33.84,0,0,1,3.44,4.07c1.29,2,3.26,1.44,5,1.59.76.06.74-.74.39-1.21-.67-.94-1.47-1.8-2.18-2.71-.33-.42-.84-1-.35-1.43s1.17.12,1.54.52a27,27,0,0,1,2.28,2.93,4.35,4.35,0,0,0,3.91,2.08c1.05,0,2.09.42,3.35.11-.62-1.4-1.78-2.08-2.69-3-.33-.32-.77-.53-1.12-.83s-1.16-.82-.59-1.5,1.23-.5,1.75.21c1,1.39,2.54,2.26,3.62,3.57,2,2.45,4.89,2.74,7.7,3.24a.89.89,0,0,0,1.07-.53c-.43-.94-1.43-1.46-2.23-2.11a35,35,0,0,1-4.37-4.49c-.29-.35-.77-.72-.35-1.18s1.08-.17,1.39.27c1.65,2.38,4.13,3.93,6,6.06a5.2,5.2,0,0,0,5.83,1.68c.36-.12.84-.11,1-.53.16-.6-.39-.76-.76-1a33.08,33.08,0,0,1-6.23-5.46,3.14,3.14,0,0,1,.43-.42c2.19,1.35,4.63,2.4,6,4.76.29.5.65.53,1.06.72,1.53.7,3.22,1,4.58,2.11,1,.81,2,.35,3.06-.15-.36-1.14-1.31-1.47-2-2a23,23,0,0,1-4.74-4.75c-.27-.33-.64-.82-.05-1.17.41-.24.72.12,1,.43a31.64,31.64,0,0,0,6.46,5.59,10.62,10.62,0,0,0,1.88.82c.75.37,1.75,1,2.26,0,.4-.74-.37-1.62-.93-2.2-1.34-1.4-2.84-2.62-4.12-4.08a5,5,0,0,1-1.26-2.07,4.39,4.39,0,0,1,3.53,2.09c1,1.35,2.26,2.51,3.22,3.91,1.17,1.7,2.2,2,4,1.45,1.11-.33,1.32-.94.56-1.81a3.31,3.31,0,0,0-.92-.69c-2.19-1.16-3.57-3.08-5-5.25a2.21,2.21,0,0,1,2.32.93,27.32,27.32,0,0,0,3,2.87c2,2.13,4.35,2.33,7.31,1.08-2.46-2.1-5.87-2.92-7-6.25.74-.21,1.35.3,1.87.78a56.07,56.07,0,0,0,7.34,5.21c1,.62,4.42-.14,5-1.13.38-.7-.23-1-.64-1.27-1.43-1-2.9-2-4.6-3.22,2.29-.53,3.73.65,5.14,1.7a10.29,10.29,0,0,0,2.54,1.58,3.07,3.07,0,0,0,2.91-.13c2.8-2.08,6.23-2.75,9.21-4.36,2.5-1.35,5-2.77,7.46-4.14a123.65,123.65,0,0,1,11.64-6.19c2.38-1,4.28-2.76,6.72-3.56a1.72,1.72,0,0,0,1.15-1.87c-.4-2.11.73-3.7,1.54-5.43.29-.62.52-1.27,1-2.4-3.94,1-7,3.05-10.16,4.69,1,2.17,1,2.17,3.15,2.51a2.79,2.79,0,0,1-4.67.37c-1.16-1.51-2.28-1.37-3.84-1.05-3.19.64-6.19,1.89-9.35,2.58a11.41,11.41,0,0,1-2.54.26c-.6,0-1.3-.14-1.45-.9s.45-1.13,1-1.35A35.48,35.48,0,0,0,209.9,146c2.6-1.31,5.47-1.53,8.21-2.23,3.36-.87,6.25-2.63,9.31-4.08s4.73-3.89,5.85-7a37.47,37.47,0,0,0,2.38-9.41,6.59,6.59,0,0,0-.87-4c-1-1.73-1.67-3.66-3.18-5.09a1.62,1.62,0,0,1-.11-2.33,1.58,1.58,0,0,1,2.3,0A10,10,0,0,1,237,116c.58,1.51.78,3.16,1.25,4.71,1,3.41-.33,6.55-1,9.76-.1.46-.26.9-.36,1.35-.13.63-.83,1.38,0,1.87.64.37,1.1-.4,1.54-.78,1.53-1.35,3.46-2,5.07-3.26,3.83-2.89,7-6.31,8.18-11.1.35-1.51,1-3.34-.36-4.88a.94.94,0,0,1,.1-1.44,1.48,1.48,0,0,1,1.47-.46,3.46,3.46,0,0,1,2.32,3.79c-1.15,4.28-1.24,8.73-2.17,13a7,7,0,0,1-1,2.78,67.09,67.09,0,0,0-4.51,6.45c-.28.5-.91.82-1.38,1.22-1.19,1-2.39,2-2.16,3.84a1.37,1.37,0,0,1-.45,1.27,19.09,19.09,0,0,0-4.32,5.39c-1.83,3.19-5.16,5-6.82,8.18-.29.54-1,1.06-.82,1.61.74,2-.67,2.76-2,3.24-1.88.66-2.9,2-4.05,3.53-5.55,7.48-9.87,15.74-15.12,23.38-4,5.76-7.08,12-10.55,18-2.17,3.76-4.42,7.45-6.4,11.31-3.87,7.57-7.94,15-11.9,22.56-2.23,4.24-4.12,8.63-6,13-1.62,3.68-3.29,7.34-4.8,11.07-1.2,3-1.18,3,1.94,3.19.07.89-.71,1-1.21,1.09a3.94,3.94,0,0,0-3.17,3.05,71.64,71.64,0,0,1-3.79,8.71,17.11,17.11,0,0,0-.76,2c-.24.75-.13,1.27.85,1,.37-.1.79-.35,1,.12a.84.84,0,0,1-.5,1.16c-3.59,1-3.6,4.43-4.38,7a148.63,148.63,0,0,0-4.77,21.52A42.47,42.47,0,0,0,155,324.4a12.43,12.43,0,0,1-.66,4.35,1.87,1.87,0,0,1-2.23,1.5c-1.12-.43-1.27-1.27-.77-2.26a4.28,4.28,0,0,0,.16-2.48,11.45,11.45,0,0,1,.54-5.93,8.56,8.56,0,0,0,.43-2.5c.22-2.08.44-4.15.56-6.24.07-1.22-.54-1.7-1.57-1.12-5.13,2.9-10.83,2.21-16.32,2.44a39.23,39.23,0,0,1-7.58-.73c-.62-.09-1.23-.14-1.84-.24-1.32-.24-1.47.45-1.19,1.48.15.52.35,1,.5,1.54a61.88,61.88,0,0,1,1.76,10.47,3.4,3.4,0,0,0,.08.46c1.87,8.37,1.25,16.93,2.07,25.37.42,4.34.2,8.65.23,13a3.55,3.55,0,0,1,0,.92c-.23.83-.49,1.77-1.57,1.73s-1.27-1-1.33-1.86c-.41-6.78-.83-13.57-1.43-20.34-.27-3.16-.42-6.34-.46-9.51a82.48,82.48,0,0,0-2.52-19.7c-.65-2.54-1.07-5.19-2.23-7.49a25.89,25.89,0,0,1-2.12-5.56c-1-3.9-2-7.77-2.89-11.69a35.05,35.05,0,0,0-2.53-6.72c-1.36-3.11-2-6.5-3.62-9.52a21.81,21.81,0,0,0-1.47-2.63c-1.37-1.92-1.37-1.92-.46-3.74a.94.94,0,0,0-1.08-.12,1.8,1.8,0,0,1-2.48-1.41A41.62,41.62,0,0,0,98.56,257c-.92-1.54-1.53-3.21-2.33-4.78-2.68-5.3-6.42-10-8.28-15.78-.82-2.53-2.63-4.67-3.88-7.07-2.46-4.71-4.51-9.64-7.26-14.2-3.29-5.47-6.66-10.89-10-16.34-.38-.64-1-1.36-.18-2.06a1.72,1.72,0,0,1,2.34.07,9.54,9.54,0,0,1,2.48,2.74c2.56,4.77,5.88,9.07,8.49,13.8,1.86,3.39,3.58,6.85,5.34,10.29a97,97,0,0,0,5.46,10.2,22.62,22.62,0,0,1,2.8,6.36,10.52,10.52,0,0,0,1.31,2.95c2.58,3.9,4.82,8,7.27,12.51-.08-2.81-1.25-4.87-1.8-7.1a31.87,31.87,0,0,0-3.65-9.71,10,10,0,0,1-1.16-3,14,14,0,0,0-1.6-4.08c-2.21-3.63-3.73-7.64-6-11.24-2.55-4.13-4.61-8.57-7.59-12.44-.19-.24-.34-.52-.51-.78-2.51-3.69-4.19-7.9-7.4-11.17-3.73-3.79-6.63-8.36-10.69-11.87-.39-.33-.85-.91-1.39-.39s-.09,1,.25,1.43.92,1,1.35,1.6c.89,1.15,1,2.4.24,2.62-1,.28-1.46-.6-1.94-1.26s-1-1.57-1.53-2.33c-3.41-4.84-6.74-9.74-9.71-14.86S42,161.59,38.64,156.7a26.38,26.38,0,0,1-2-3.08c-2.06-4.16-5.81-7-8.61-10.5a89.33,89.33,0,0,0-7.84-8.72c-.32-.31-1-.63-.78-1,1-1.55,0-2.75-.66-3.86-2.55-4.49-3-9.33-2.83-14.34a25.9,25.9,0,0,1,.28-4.39c.73-3.47,3.06-5.82,5.54-8.08.57-.52,1.24-.94,1.76-1.51A47,47,0,0,1,40,89.86c1.19-.5,1.24-1.27.66-2.22-1-1.65-1.94-3.35-3.09-4.89-.51-.68-.49-1.45-.88-2.1-3.07-5.18-5.5-10.71-8.71-15.82-.89-1.42-1.42-3.07-2.18-4.58-3-6-6.08-11.83-8.92-17.84-1.78-3.77-4.06-7.31-5.64-11.12-2.11-5.1-5.51-9.48-7.53-14.59-.85-2.17-2.62-3.83-3.35-6.08-.66-2-.38-3.07,1.57-3.55A6.66,6.66,0,0,0,5.3,4.8,15,15,0,0,1,14.37.07,3.33,3.33,0,0,1,18.1,1.65c1.5,2.28,2.32,4.89,3.74,7.21C24.35,13,26,17.51,28,21.87c2.36,5.18,4.67,10.38,7.25,15.47,2,4.06,3.37,8.47,5,12.72.51,1.33,0,2.63-.34,3.86-.82,3-.89,6.11-1.46,9.14S38,69.46,36.2,72.3c-.34.55,0,1,.27,1.52C39,78,40.78,82.54,43.39,86.67c1.33,2.12,2.14,4.59,3.47,6.76.32.51.48,1.29,1.27,1.07.56-.16.66-.81.74-1.36a78.79,78.79,0,0,0,1-15.94,12.06,12.06,0,0,0-1-4c-2.18-5.37-5.19-10.33-7.51-15.63-.12-.28-.26-.56-.37-.85-.29-.79-.8-1.6.25-2.24a2,2,0,0,1,2.81.77c.91,1.61,1.67,3.31,2.48,5,2.45,5.06,4.12,10.49,7.33,15.2a28.07,28.07,0,0,1,2.32,4.81c1,2.36,1.83,2.85,4.3,2.18s5.27-1.12,7.7-2.47a10.45,10.45,0,0,1,3.79-1,49.73,49.73,0,0,0,8.48-2.24c3.66-1.13,7.19-2.75,11-3.32a15.86,15.86,0,0,1,2.77.18c1.06,0,1.59-.63,1-1.47C93.47,69.21,92.16,65.86,88,65c-4.69-1-8.87-.54-12.88,2.2A10.32,10.32,0,0,1,68.75,69c-2.47-.14-3.85-2.24-2.68-4.41,1.85-3.43,4.34-6.27,8.65-6.44,2.52-.1,4.58-1.43,6.68-2.49,3.1-1.57,5.78-1.33,9,0,4.37,1.78,6.73,5.34,9.4,8.69a26.78,26.78,0,0,1,3.7,5.6A2.34,2.34,0,0,0,106,71.25c9.14,0,18.27-.81,27.41-.42a8.33,8.33,0,0,0,3.22-.32,3.23,3.23,0,0,1,2.29,0c2.78,1.26,5.85,1.45,8.69,2.46.61.22,1.59.19,1.28,1.23-.26.87-.91,1-1.85.82-3.27-.47-6.45-1.45-9.76-1.68-1.07-.07-2.71-.16-2.81,1-.14,1.46,1.61,1,2.55,1.18a21.44,21.44,0,0,0,3,.18c.53,0,1.2.09,1.28.76.11.9-.77,1-1.28,1-1.84,0-3.86.27-5.46-.54a12.77,12.77,0,0,0-5.36-1.19,28.59,28.59,0,0,0-6.73.18c-1.94.39-3.83-.24-5.78-.14-3.13.17-5.54,1.85-8.13,3.19a1.35,1.35,0,0,0-.66,1.78,56.93,56.93,0,0,1,1.91,7.17c.15.82.46,1.68,1.49.7a2.36,2.36,0,0,1,1.94-.48c3.06.12,5.86-.83,8.75-1.73,3-.94,5.94-2.24,9-3.15a4.24,4.24,0,0,1,1.6-.24c4.49.43,8.91-.84,13.42-.4,5.85.57,11.73,1,17.6,1.44,2.72.23,5.38,1.31,8.13,1.8,2.31.41,2.37.48,2.53-1.75.33-4.45.61-4-3.45-4.81a51.7,51.7,0,0,0-5.92-.63c-.11-1.28,1.35-1,1.66-2.06a27,27,0,0,0-7.5-.89,12.58,12.58,0,0,1-4.15-.4c-.86-.23-1.63-.63-1.5-1.74s.87-1.37,1.82-1.38a46.48,46.48,0,0,1,7.65.39c3.59.57,7.21,1,10.79,1.64,2.86.51,5.68,1.16,8.53,1.71a7.08,7.08,0,0,0,3.9.07,1.73,1.73,0,0,1,.92-.11c5.05,1.09,10.24,1.3,15.26,2.63,4.62,1.23,9.31,2.19,14,3.17a24.09,24.09,0,0,1,4.2,1.31c5.28,2.15,10.65,4.26,15.2,7.72a52.48,52.48,0,0,1,9.53,8.79c1.63,2,1.72,4.57,2.68,6.81a1.19,1.19,0,0,1-.74,1.54,1.46,1.46,0,0,1-1.82-.68,21,21,0,0,1-1.45-2.88,10.29,10.29,0,0,0-3.45-4.3,16.5,16.5,0,0,1-3.52-3.36c-1.46-1.87-3.72-2.68-5.57-4-2-1.46-4.38-2.53-6.54-3.91-4.79-3.06-10.35-4-15.85-4.87a2.64,2.64,0,0,0-1.15.06c-.8.22-1,.72-.38,1.33a4.61,4.61,0,0,0,2,1.14,30.56,30.56,0,0,1,6,2.37,25.73,25.73,0,0,0,7.72,2.38,10.55,10.55,0,0,1,5.37,2.51,89.19,89.19,0,0,1,6.94,6.13c1.86,1.92,2.9,4.36,4.64,6.34,2.56,2.9,4.91,6,7.34,9,1.54,1.91,1.51,4.15,1.21,6.41a.86.86,0,0,1-.74.8.75.75,0,0,1-.71-1c1-3.88-1.92-6.09-3.67-8.8a30.83,30.83,0,0,0-3.74-4.41,18.73,18.73,0,0,1-2.41-3.08,38.52,38.52,0,0,0-10.84-11c-2-1.41-4.42-1.82-6.74-2.4a20.21,20.21,0,0,1-6.09-2.15c-1.45-.92-3.32-.61-4.88-1.36-.19-.1-.62.09-.83.27-1,.91-.64,3.9.68,4.12,3,.49,5.17,2.72,8,3.48,1.78.49,3.62.68,5.1,2,2.15,1.89,4.38,3.69,6.37,5.75a1.53,1.53,0,0,1,.51,1.24c-.06.72-.59,1.12-1.06.57-1.69-2-4.31-2.36-6.32-3.81a26.57,26.57,0,0,0-4.34-2.05,42.77,42.77,0,0,1-5-2.5,9.76,9.76,0,0,0-3.89-1.4,22.07,22.07,0,0,1-5.71-1.91,27.75,27.75,0,0,0-8.43-2.4c-4.52-.56-9.08-.94-13.57-1.83-2.27-.45-4.57-.8-6.87-1a142.64,142.64,0,0,1-15.78-2.62,38.2,38.2,0,0,0-7.63-.59,39.78,39.78,0,0,1-4.63-.13c-4.67-.56-9.27.2-13.85,1a9.8,9.8,0,0,0-2.39.82c-1.76.78-3.52,1.63-5.55,1.49-1.68-.11-3.15.78-4.69,1.25-2.33.7-4.62,1.28-7.06.68-.46-.12-1-.16-1.22.35-.35.71.06,1.36.33,2a.83.83,0,0,0,1.15.45c5.38-1.64,9.77.62,13.65,3.9a18,18,0,0,1,5.28,9.09c.19.66.24,1.36.48,2,1.11,3,2,3.5,5,2.44a4.63,4.63,0,0,1,4.41.44,1.51,1.51,0,0,1,.79,1.78,1.67,1.67,0,0,1-1.85,1.12c-4.14-.72-7.5,1.13-10.72,3.26-.89.58-1.25.8-2-.06a2.26,2.26,0,0,0-2.84-.13c-3.12,2-6.57,1.34-9.93,1.44a12.77,12.77,0,0,1-3.7-.23c-1.12-.3-2.52-.63-2.41-2s1.55-1,2.49-1.16a6.28,6.28,0,0,1,2.07.09,28.94,28.94,0,0,0,7.38,0c2.55-.2,5-1.4,7.52-2.2a1.35,1.35,0,0,0,1.08-1.35,18.6,18.6,0,0,0-1.26-4.44c-.21-.68-.87-.47-1.34-.07a25.5,25.5,0,0,1-1.91,1.7c-.64.46-1.28,1.25-2.45.4,1.18-1,2.28-2,3.45-3,.66-.53,1.12-1.07.9-2a8.34,8.34,0,0,0-3.55-5.24c-1.06-.71-1.82-.63-2.29.73a20.55,20.55,0,0,1-1.44,3.17c-.52,1-1,2.08-2.7,2.17.84-1.78,2.06-3.13,2.36-4.89.11-.68.3-1.35.43-2,.09-.5,0-1-.56-1.1s-1,.21-1.14.82a13.73,13.73,0,0,1-1.36,3.7c-.25.39-.56.85-1.09.52s-.11-.67,0-1c.34-.94.7-1.88,1-2.85a1,1,0,0,0-.55-1.36c-1.21-.42-3.49,1.6-3.26,2.88a7,7,0,0,0,.66,2,3.14,3.14,0,0,1-.59,4.17c-.43.45-.81.94-1.22,1.4a1.67,1.67,0,0,1-2.48.3c-1.08-1.2-2.77-2.15-2.56-4.17a1.18,1.18,0,0,0,0-.46c-.29-1.09.38-2.62-1.41-3s-3.58-1.07-5.15,1.06c-1.37,1.86-2.88,3.62-4.19,5.54a13.64,13.64,0,0,0-1.67,3.81c-.38,1.26.16,1.8,1.37,1.7a10.3,10.3,0,0,1,6.25,1.31,4.3,4.3,0,0,0,2.27.36c.84-.06,1.24.45,1.76.9a1.32,1.32,0,0,1,.53,1.62,1.52,1.52,0,0,1-1.51.89,10.21,10.21,0,0,1-4.57-.72c-2.85-1.35-5.75-.92-8.67-.56-1.22.16-2.44.42-3.66.67a2.08,2.08,0,0,1-2.63-1.34A1.68,1.68,0,0,1,86,113.06c2.69-.29,3.15-2.33,3.83-4.28a24.7,24.7,0,0,1,4-7.54c1.22-1.52,2.79-2.77,3.88-4.44a2.26,2.26,0,0,1,2-.92c.93,0,1.86,0,2.79.05,1.22.11,1.81-.36,1.55-1.59a44.76,44.76,0,0,0-3.7-11c-.77-1.53-4.83-2.84-6.61-2.13-3,1.19-6.1,1.43-9.25,1.84-5.63.72-11.42,1-16.61,3.83a37.72,37.72,0,0,1-4.14,1.51c-2.1.85-2.24,1.46-1.26,3.42a43.84,43.84,0,0,0,3,5,13.73,13.73,0,0,1,8-2.81c2.49,0,4.48-1.62,6.84-2.1,3.45-.7,6.85-1.63,10.29-2.41a3.58,3.58,0,0,1,1.37.12.9.9,0,0,1,.79.75.93.93,0,0,1-.7,1.06,7.57,7.57,0,0,1-1.35.31C89,92,87,92,85.31,93.13a.42.42,0,0,1-.22.08c-3.81,0-7,2.22-10.74,2.74a35.4,35.4,0,0,0-6.25,1.74c-1.63.55-1.68.9-1,2.38,1.33,3,3.53,5.41,4.86,8.4.48,1.08,1.84.8,2.67.23,2.15-1.47,4.58-2.57,6.18-4.82.94-1.32,2-1.28,2.9-.28a1.24,1.24,0,0,1,.16,1.68,19.9,19.9,0,0,1-6,5.66,3.48,3.48,0,0,1-1.6.24,2,2,0,0,0-2,2,7,7,0,0,1-.14,1.13c-.4,1.41-1.27,1.88-2.39,1-1.41-1.16-2.69-.84-4.12-.33a5.48,5.48,0,0,1-1.57.39c-5.48.25-10.92,1.47-16.44.85a11,11,0,0,1-1.82-.34c-.85-.24-1.66-.61-1.6-1.69.07-1.24,1.07-1.39,2-1.53a8.06,8.06,0,0,1,1.39,0c2.06,0,2.29-.35,1.47-2.32a8.92,8.92,0,0,0-.84-1.91c-.66-.89-.94-1.61.22-2.27a2.06,2.06,0,0,1,3,.62c.3.54.42,1.17.69,1.73s.42,1.16,1.08,1a1.2,1.2,0,0,0,.77-1.32c-.08-1.73.58-3.33.9-5,.72-3.82.63-7.71,1.2-11.54,0-.23.12-.52,0-.68-1.46-2.22-1.89-5-4-7.11a8,8,0,0,0-1.47,3.94,37.07,37.07,0,0,1-2.32,9.68,2.14,2.14,0,0,0-.27,1.57,1.94,1.94,0,0,1-1.08,2.68c-.35.17-.76.44-.76.83,0,2-1.61,2.27-2.87,2.87-5.3,2.52-9.39,6.25-11.66,11.71a10.42,10.42,0,0,0-.11,7.28c.46,1.48.88,3,1.31,4.45A10,10,0,0,0,37,132.65c.57.66,2.07,1,1.25,2.44-.15.28.42.6.74.79A23.88,23.88,0,0,0,45,138.73c3.68.89,7.36,1.72,10.63,3.83a9.4,9.4,0,0,0,4.41,1.28,13.24,13.24,0,0,1,6.09,2.09,36.45,36.45,0,0,0,6.87,3.3,10.67,10.67,0,0,1,3.19,1.85c.66.57,1.17,1.47-.28,1.85-1.27.34-1.08.95-.28,1.57a1.28,1.28,0,0,1,.48,1.81c-.45.73-1.23.57-1.9.36-5.11-1.62-10.53-1.6-15.69-3a18.44,18.44,0,0,1-4.23-1.73c-1.68-.94-2.95-2.43-4.87-3.11-1.55-.55-1.7-2.39-1.8-3.78-.13-2-1-2.84-2.87-3.32a25.43,25.43,0,0,1-6.93-3.14,60.55,60.55,0,0,0-7.43-3.71c-2.71-1.21-4.37-3.59-5.66-5.9a13.52,13.52,0,0,1-1.4-6.73,27.65,27.65,0,0,0,0-4.17c-.34-2.7,1.36-4.82,1.86-7.27a29.54,29.54,0,0,1,1.13-3.05A16.2,16.2,0,0,1,32.28,100a62.61,62.61,0,0,1,9.08-6.27c-2.16-.1-3.73,1.15-5.4,2.12A69.9,69.9,0,0,0,25,104.33a15.93,15.93,0,0,0-5.64,12,13.22,13.22,0,0,0,2.11,8.12c.64,1,1.21,2,.63,3.26-.31.65.08,1.18.38,1.73,2,3.6,2,3.61,5.63,5.59,2.16,1.18,4.56,1.94,6.11,4.08a2.75,2.75,0,0,0,2.13.8c3.41.19,5.78,2.38,8.28,4.28a2.12,2.12,0,0,1,.58,3.07c-.72.81-2,.72-3.11-.28a14.26,14.26,0,0,0-7-3.81c-1.43-.28-2.73-1.27-4.42-1.57a3.81,3.81,0,0,0,1.15,2.08c2.82,3.24,5.9,6.27,8,10.11a4.71,4.71,0,0,0,1,1,12,12,0,0,1,2.8,3.65c.79,1.79,2.39,3,3.69,4.44a51.66,51.66,0,0,1,7,10.31,16.25,16.25,0,0,0,3.47,4.6c3.18,2.73,5.74,6.09,9,8.67a8.47,8.47,0,0,1,1.56,2c.87,1.26,1.62,2.59,3.16,3.27a4.27,4.27,0,0,1,1.73,1.83,107.32,107.32,0,0,1,5.58,9.62c1.39,3.06,3.69,5.5,5.45,8.31s3.28,5.59,4.93,8.37c2.37,4,4.25,8.21,6.39,12.31a16.41,16.41,0,0,1,1.09,2.8,33.2,33.2,0,0,0,2.25,5.56c1.43,2.73,2,5.82,2.93,8.76,1.82,5.67,3.08,11.54,6.13,16.76a6,6,0,0,0,2.32,2.41,28,28,0,0,0,10.07,3.82,15.27,15.27,0,0,1,5.25,1.82,8.36,8.36,0,0,0,4.46.95,75.18,75.18,0,0,0,12.67-1.15c4.34-.82,8.58-1.95,12.79-3.17,2.07-.6,4.13-1.32,6.15-2.09a4.87,4.87,0,0,0,2.84-2.92c1.6-4.49,4.2-8.66,4.61-13.56a4.9,4.9,0,0,1,.43-1.57,91.79,91.79,0,0,0,3.77-10.46c.34-1.13.82-2.17,2.22-2.39.77-.13,1.09-.73,1.32-1.46a13,13,0,0,1,1.7-3.55,4.19,4.19,0,0,1,1-1.24c.71-.45,1.61-.9,2.35-.22a1.62,1.62,0,0,1,.08,2.15,7.27,7.27,0,0,0-1,3.67c.82.27,1-.27,1.16-.64.92-2.22,2.34-4.19,3.17-6.46a17.13,17.13,0,0,1,2.31-4,56.13,56.13,0,0,0,4.44-8.4c2-4.26,4.51-8.29,6.9-12.37s4.65-8.55,7.1-12.76c1.81-3.13,3.85-6.13,5.66-9.3a5.85,5.85,0,0,0-2.6,2.68c-1.52,3.22-4.1,5.64-6.25,8.34-2.47,3.09-4.34,6.56-6.77,9.66-4.31,5.49-7.17,11.87-10.31,18.06-1.11,2.18-2.9,3.82-4.25,5.8a1.67,1.67,0,0,1-1.4.72,1.52,1.52,0,0,1-1.55-.81,1.17,1.17,0,0,1,.45-1.43,18.73,18.73,0,0,0,4.4-6.21,85.72,85.72,0,0,1,4.9-10.23c.1-.17,0-.44,0-.88a56.22,56.22,0,0,1-14.59-1.15c1.47-.52,1.49-.6,2.81-.31a35.61,35.61,0,0,0,10.14.68,10.7,10.7,0,0,0,1.39-.08c.86-.18,1.82-.51,1.72-1.54s-1.14-.78-1.88-.79c-2.4-.05-4.8-.05-7.2-.13a21.58,21.58,0,0,1-2.77-.33c-.56-.09-1.14-.36-1-1s.77-.57,1.32-.46c3.75.74,7.56.45,11.35.55a3.76,3.76,0,0,0,3.29-1.81c.47-.64.22-1-.42-1.21a5.73,5.73,0,0,0-1.38-.17c-2.62-.16-5.25-.3-7.88-.47a9.8,9.8,0,0,1-1.61-.25.71.71,0,0,1-.43-.48.5.5,0,0,1,.55-.58,18.36,18.36,0,0,1,4.63.17,27.35,27.35,0,0,0,5.77.64,5.6,5.6,0,0,0,4.84-3.55c.18-.64-.17-.87-.67-.95a11.69,11.69,0,0,0-4.17,0c-1.14.22-2.29.4-3.44.57-.48.08-1,.06-1.1-.52s.5-.79,1-.82c1.93-.14,3.91-.87,5.77-.37,3.35.9,5.29-.57,6.73-3.29.24-.47.82-.73.83-1.55-1.63-.47-3.33-.11-5,0-1.39,0-2.78-.14-4.17,0-.63.07-1.39,0-1.3-.85.07-.69.77-.66,1.3-.65,2.94.05,5.87.13,8.81.2,2,0,4.69-2.34,4.81-4.28.07-1-.69-1-1.27-.79a15.73,15.73,0,0,1-4.15.41,6.68,6.68,0,0,1-3.84-1.08,3.29,3.29,0,0,1,3-.43c3.25.51,6.1-.65,9-1.85a2.76,2.76,0,0,0,.61-.33c.48-.39,1.13-.75,1.06-1.43-.09-.87-1-.56-1.5-.76-.74-.27-2.22.06-2.06-.95.2-1.24,1.55-.53,2.34-.37,2.24.47,3.72-.59,5-2.2.14-.19.42-.45.37-.57-.78-1.85.61-2,1.78-2.34a1,1,0,0,0,.55-.4c1.32-2.39,3.74-3.86,5.1-6.27,1.65-2.91,4.24-5.11,6.42-7.62a10.68,10.68,0,0,0,2.13-3.17,9,9,0,0,0-4.14,1.7c-7.26,4.13-14.46,8.36-22.23,11.47-5.23,2.1-10.09,5.21-15.74,6.13-3.23.52-6.42,1.8-9.8.91-.83-.21-1.78-.33-1.57,1.14.15,1-.44,1.5-1.43,1.73-5.1,1.15-10.11,2.91-15.47,1.84a4.75,4.75,0,0,0-2.09,0c-4.54,1.17-8.89,0-13.26-1a4.66,4.66,0,0,0-1.58-.33c-3.17.52-6.31-.14-9.44-.33-4.46-.27-8.93.55-13.39-.4-2-.43-4-1.27-6-1.61-1.34-.22-1.65-1.2-1-2.5.42-.85-.11-1.1-.57-1.49-1.65-1.41-3.31-2.79-4.93-4.22-.39-.35-1.3-.72-.65-1.41.48-.52,1.21-.1,1.66.31a61.7,61.7,0,0,1,5,4.84c1.89,2.24,4.41,3,7.06,3.5.18,0,.39-.16.64-.26-2-3.52-5-6.08-7.4-9.19-1-1.26-2.52-1.06-3.68-.81-3.53.74-6.72-.64-10-1.33s-6.46-1.88-9.69-2.86a3.93,3.93,0,0,1-.6-.33ZM151.9,300.6c-.27-.14-.41-.29-.53-.28-3.19.4-6.32-.54-9.49-.41-.6,0-1.11-.16-1.12-.86s.46-1,1.06-1a8.88,8.88,0,0,1,2.77.21c3,.85,6.17.29,9.25.47a3.71,3.71,0,0,0,.92-.13,1.22,1.22,0,0,0,1.09-1.29c0-.85-.62-1-1.26-1-1.16-.07-2.32-.13-3.48-.15-2.32,0-4.61-.6-6.94-.45-.76.06-1.93.77-2.06-.55s1.17-.91,1.93-1a5,5,0,0,1,1.16,0c3.09.25,6.19.4,9.26.78a2.09,2.09,0,0,0,2.6-1.65c.4-1.26.08-1.66-1.27-1.56a29.38,29.38,0,0,1-4.16.33c-4.47-.35-8.93-.86-13.39-1.3-.32,0-.65-.07-.7-.45a.93.93,0,0,1,.35-.82,1.29,1.29,0,0,1,1.08-.28c2.46.29,4.94.48,7.38.92,3.24.57,6.49.29,9.73.31a2.51,2.51,0,0,0,2.43-1.84c.46-1.19.14-1.78-1.13-1.88s-2.79-.08-4.18-.12c-5-.13-10.08.11-15.08-.53a26.81,26.81,0,0,1-5.27-.77c-.5-.17-1.18-.3-1-1s.83-.41,1.33-.39c3.94.11,7.78,1.17,11.78.89,4.4-.31,8.81.45,13.23.29,1.27-.05,1.92-.41,2-1.67,0-.44.33-.89,0-1.31a2.31,2.31,0,0,0-1.38-.21c-6-.19-12.07-.52-18.07-1.24-.5-.06-1.25,0-1.27-.7s.69-.76,1.21-.74c2.47.11,5-.17,7.36.71a3.55,3.55,0,0,0,2.82,0,1,1,0,0,0-1-.33c-.56,0-1.14-.09-1.19-.82s.49-.9,1-1a14.27,14.27,0,0,1,3.69-.36q3.13,0,6.27,0c.44,0,1,0,1-.64s-.48-.51-.86-.56-.84-.06-.87-.56.34-.67.68-.85c.61-.33,1.25-.61,1.86-1a.66.66,0,0,0,.38-.76c-.14-.51-.57-.44-.95-.37s-.58.23-.88.29c-4.91,1-9.44,3.5-14.54,3.73-2,.09-3.71,1-5.63,1.27-3.07.39-6.18.17-9.25.66a8.36,8.36,0,0,1-2.76-.23c-1.88-.31-3.4-1.47-5.18-2a53,53,0,0,0-7.43-1.82c-.72-.11-1.51-1-2.13-.22-.48.6.33,1.25.56,1.88,1,2.75,2.44,5.34,3.32,8.15a74.43,74.43,0,0,1,2.18,11.36c.16,1.07.51,1.73,1.68,1.79a4,4,0,0,1,2.65,1.32c3.5,3.58,8.17,3.2,12.56,3.75a1.91,1.91,0,0,0,1.33-.33c1.75-1.56,3.69-1.12,5.68-.75s3.84.56,5.76.8A2.93,2.93,0,0,0,151.9,300.6ZM28.83,39.76c-.2-4-.07-8.18-1.77-12-.59-1.34-1.14-2.7-1.79-4-2.13-4.26-3.22-9-6.07-12.94-.27-.37-.42-.93-.93-.9s-.6.61-.64,1.07c-.47,5.47-2,10.8-2.22,16.31a1.94,1.94,0,0,1-.76,1.62c-1.17.77-1,1.68-.32,2.58,1,1.46,1.7,3.13,2.64,4.59,2.36,3.67,3.69,7.82,5.81,11.6,1.58,2.81,3,5.72,4.49,8.58.2.39.43.92,1,.68s.46-.67.29-1.16c-.78-2.33-.49-4.73-.37-7.11C28.35,45.67,28.61,42.74,28.83,39.76Zm4.07,92.93.46-.39c-1.66-2.06-2-4.62-3-7a10.46,10.46,0,0,1,.4-9.55c.86-1.56,1.79-3,2.78-4.51A24.12,24.12,0,0,1,44,102.79a2.51,2.51,0,0,0,1.55-2.11c.64-2.65-.83-4.34-1.86-6.4A10.08,10.08,0,0,1,42,95.74c-3.37,1.8-6.08,4.5-9.18,6.63A14.35,14.35,0,0,0,27.44,110c-.65,1.9-1.1,3.87-1.77,5.76a8.85,8.85,0,0,0-.54,4.33,46.9,46.9,0,0,0,1.47,7.48c.51,1.59,1.1,3.45,3,4.12C30.72,132,31.82,132.35,32.9,132.69ZM200.74,82.12A10.87,10.87,0,0,0,195,80.21c-3.25-.17-6.43-.78-9.66-1.1a7.86,7.86,0,0,0-3.68.21,14.63,14.63,0,0,1-4.71,1.14c-1.23.07-1.54.72-1.56,1.81s.79,2.22,0,3.37c-.19.29.17.62.47.67,1.67.3,3.27,1,5,.75,1.45-.21,1.94-.86,1.84-2.38a14.16,14.16,0,0,1-.08-1.84c0-.54-.41-1.45.56-1.47.71,0,.48.84.54,1.33.16,1.15.26,2.31.39,3.46.09.89.52,1.46,1.47,1.44,2.54-.08,5,.52,7.7.63-.16-1.07-.36-2-.41-2.88A1.1,1.1,0,0,1,194,84.06c.62,0,.43.69.53,1.11.21.82.41,1.64.68,2.44A4.05,4.05,0,0,0,199,89.7c1.41-.25,1.15-1.42,1.22-2.4a3.17,3.17,0,0,1,.08-.69c.11-.35.2-.79.71-.72s.43.41.46.71a14.53,14.53,0,0,1,.14,1.85c-.08,1.86,1.11,2.54,2.62,3,1.29.37,1.69.13,1.86-1.2.11-.92.15-1.85.24-2.78.13-1.48-.61-2.74-2-2.72-2.44,0-4.63-1.24-7.07-1a1.62,1.62,0,0,1-1.7-.94C197,81.26,198.8,82.83,200.74,82.12ZM14.24,9.31c.16-1.4-.68-2.53-1-3.8S12.37,4,11.4,5A40.29,40.29,0,0,1,4.72,10.3a1.35,1.35,0,0,0-.46,2.14,49.69,49.69,0,0,1,5.17,10,4.09,4.09,0,0,0,1,1.25c.35.41.69.94,1.32.69s.66-.82.77-1.34c.2-.9.16-1.83.42-2.74C13.94,16.71,13.44,12.93,14.24,9.31ZM33.77,68.58l.6-.17a26.3,26.3,0,0,0,1.07-6.57c0-2.29-.26-4.66,1.1-6.76a1.43,1.43,0,0,0,.11-.9,13.53,13.53,0,0,1,.19-5.07,2.78,2.78,0,0,0-.45-2,43.08,43.08,0,0,1-2.93-5.27c-.11-.3-.29-.59-.64-.6A.83.83,0,0,0,32,42c-.16.59-.28,1.2-.4,1.81-1.18,6.16-.5,12.43-1.2,18.62a.85.85,0,0,0,.09.45C31.58,64.75,32.68,66.66,33.77,68.58Zm113.47,239.1c-1.59-1.12-2.82-1.92-2.41-3.77.16-.73-.67-.71-1.18-.75-.8-.07-1.86-.57-2.24.52a3.38,3.38,0,0,1-4,2.34c-5.15-.55-10.5-.27-15.13-3.24-.52-.33-1.16-.76-1.59,0a1.13,1.13,0,0,0,.48,1.61c1.2.62.94,2.21,1.81,2.83s2.21-.42,3.32.15a.71.71,0,0,0,.22.07c3.79,1,7.57,2,11.57,1.32a26.89,26.89,0,0,1,3.71-.16A30.52,30.52,0,0,0,147.24,307.68ZM61.71,99c-.6,1.76-.79,3.38-1.34,4.89-.76,2.09-.9,4.38-1.87,6.44-.3.66-.5,1.7.77,1.68,2.4,0,4.8-.16,7.19-.3.49,0,1.1-.48.78-.87-.9-1.08-.31-2.47-.83-3.49C65,104.58,64.31,101.48,61.71,99Zm8.76-34.27a4.19,4.19,0,0,0,3.1-1.05,9.38,9.38,0,0,1,4.17-1.85c3-.32,6.09-.28,9.13-.76,2.31-.38,4.44.15,5.82,2.36a3.8,3.8,0,0,0,1,.9.81.81,0,0,0,1.06.09.72.72,0,0,0,.13-.86c-1.13-2.12-2.39-4.34-4.73-5.08a10.62,10.62,0,0,0-7.69.37A27.45,27.45,0,0,1,76,61.07,7.39,7.39,0,0,0,70.47,64.68Zm162.6,83.67a13.29,13.29,0,0,0,3.29-1.85c1.84-1.27,1.94-1.34,1-3.34-.62-1.36-.46-2,.92-2.71a17.41,17.41,0,0,0,7.49-6.71c.23-.4.63-.79.28-1.24s-.88-.14-1.23.1c-4.3,3-9.24,5.3-10.57,11.08a1.36,1.36,0,0,1-.29.63C233,145.39,233.1,146.7,233.07,148.35ZM75.62,82c.66.67,1.18.3,1.68.26,2.38-.23,4.72-.81,7.08-1a19.55,19.55,0,0,0,6.33-1c2.09-.84,4.1-1.89,6.46-1.08a.61.61,0,0,0,.78-.32.85.85,0,0,0-.17-.86,2.7,2.7,0,0,0-1.32-.9c-2.35-1-4.79-.66-7.06,0-4.46,1.25-8.68,3.26-13.16,4.49A3.17,3.17,0,0,0,75.62,82ZM97.75,69.07c2.85,6.35,5.61,12.44,8.1,18.65a12.62,12.62,0,0,0-.64-5c-.88-2.29-1.81-4.58-2.48-6.93a32.11,32.11,0,0,0-2.7-5.6A2.14,2.14,0,0,0,97.75,69.07ZM65,152.15c1.27,0,1.55-.39,1.12-1.53a6.19,6.19,0,0,0-4.52-3.19c-1-.05-1.16.52-1.11,1.32C60.57,150.68,62.52,152.16,65,152.15ZM59.45,147c-1.7-.19-2.67-1-3.82-1.42-.66-.23-1.39-.32-1.82.44a1.29,1.29,0,0,0,.33,1.68,10.16,10.16,0,0,0,4.57,2.4C58.86,149.08,58.53,148.12,59.45,147Zm9.78-64.16a24.11,24.11,0,0,1-6.91,2.41,12.24,12.24,0,0,0-1.87.89c-.46.21-.83.51-.61,1,.3.73.76.5,1.31.21a24.73,24.73,0,0,1,5.78-2.3A2.87,2.87,0,0,0,69.23,82.87Zm101.68,78.27a20.7,20.7,0,0,1,3.51-.52,1.13,1.13,0,0,0,1-1.55c-.22-.79-.85-.76-1.5-.57a13.6,13.6,0,0,1-3.16.68c-.63,0-.91.5-.84,1.15S170.17,161.2,170.91,161.14Zm-58.34-86.7c-1.86,0-3.28-.06-4.7,0-.83.05-1.84.18-1.55,1.45s1.27,1.25,2.21.91A17.72,17.72,0,0,0,112.57,74.44ZM52,145.31a.83.83,0,0,0,0-.32c-.14-.91-1.56-2.05-2.41-1.79-1.25.37-.27,1.29-.32,2a4.47,4.47,0,0,0,.31,1.34c.17.64.07,1.51,1.07,1.52s1.08-.88,1.17-1.65C51.91,146.06,52,145.75,52,145.31Zm128.65,12.52a6.85,6.85,0,0,0-2.36.33c-.56.15-1,.33-.9,1.05a1.06,1.06,0,0,0,1.33.92c.67-.11,1.34-.27,2-.42s1.76-.37,1.69-1.23C182.35,157.39,181.22,158,180.68,157.83Zm-27,122c1.54.66,6.09.52,7.26-.23C158.87,279,155,279.15,153.66,279.81Zm22.13-31.43c-2.28,3-3.56,6.15-3.18,8.27A52.46,52.46,0,0,0,175.79,248.38Zm-10.46-86.79c.33,0,.56,0,.79,0,.75-.07,1.79,0,1.7-1s-1.07-.78-1.8-.64c-.23.05-.45.09-.67.16-.68.21-1.91-.14-1.86.84S164.72,161.47,165.33,161.59Zm-91.78-8.75c-.14-.51-.58-.68-1-.88-1-.46-2.14-.26-3.09-.86-.33-.22-.78-.27-1,.19a.72.72,0,0,0,.49.93c1.3.43,2.63.79,4,1.13C73.25,153.43,73.51,153.21,73.55,152.84Zm35.06-53.51c-.07.57-.11.87-.14,1.16-.19,1.72,1.14,3.24.63,5-.06.21.18.45.45.39.42-.09.75-.42.62-.82C109.6,103.26,109.85,101.24,108.61,99.33Zm66.63-21.74a4.93,4.93,0,0,0-4.07-.34A3.7,3.7,0,0,0,175.24,77.59Zm-102,5c-1.24-.7-2.1-.44-2.43,1ZM96.65,67c.43-.05.52-.32.44-.65-.14-.56-.45-1-1.09-.92a.5.5,0,0,0-.45.65A1.16,1.16,0,0,0,96.65,67Z"/><path d="M210,511.37c-4.2,2.21-6.92,5.72-10.06,8.76-2.2,2.13-4.52,3.92-7.68,4.44-1.67.27-3.11,1.28-4.72,1.85-4.81,1.71-9.83,3-13.85,6.5-1.77,1.54-4.2,1.5-6.41,1.76a9.46,9.46,0,0,0-4.54,1.5,8.46,8.46,0,0,1-5.68,1.66,1.77,1.77,0,0,0-.92.1c-2.48,1.23-5.37.57-7.87,1.75a5.57,5.57,0,0,1-2.06.15,9.89,9.89,0,0,0-2.32.1c-4.3,1.22-8.4,0-12.51-1a35.77,35.77,0,0,1-3.78-1.15c-3-1.09-6.15-.18-9.22-.31a5.63,5.63,0,0,1-4.69-2.07c-.33-.45-.66-.87-.31-1.47s.87-.36,1.41-.25A36.19,36.19,0,0,0,124,534c2.67-.16,5,.78,7.45,1.52a28.26,28.26,0,0,0,12.27,1.38c5-.65,9.89-1.72,14.83-2.65a11.79,11.79,0,0,0,3.27-1.15,14.67,14.67,0,0,1,5.76-1.61,12.07,12.07,0,0,0,5-1.57,37.62,37.62,0,0,0,4.47-2.91,13.75,13.75,0,0,1,5.4-2.45c2.22-.53,4.26-1.78,6.44-2.55a31.28,31.28,0,0,0,11.64-7.7,50.28,50.28,0,0,1,5.81-4.64,12.22,12.22,0,0,0,4.76-6.07c.68-2,1.93-3.87,2.35-6a5.25,5.25,0,0,0,.19-2.07c-.83-3.75-1.25-7.66-3.3-11a31.68,31.68,0,0,0-3.62-4.48c-2.26-2.53-4.25-5.3-6.81-7.6-3.28-3-7.17-4.79-11.12-6.5a75.73,75.73,0,0,0-15.53-4.5c-4.71-.94-9.39-2-14.17-2.52a2.6,2.6,0,0,1-2.28-2.74c.1-1.1,1.1-1.71,2.71-1.4,4,.77,8.11,1.06,12.11,2.08,3,.78,6.26,1,9.28,2,7.45,2.39,14.69,5.17,20.93,10.18,4.11,3.29,7,7.48,10.32,11.44,4.29,5.16,4.94,11.39,6.32,17.46a6.89,6.89,0,0,1-.19,3.21,126.12,126.12,0,0,1-4.3,13.19,5.58,5.58,0,0,1-1.31,1.9,78.25,78.25,0,0,1-13.37,11.43A63.63,63.63,0,0,1,187.34,534c-1.22.45-2.37.79-3.48-.17s-.94-1.78.5-2.38c1.29-.53,2.67-.86,3.89-1.51,6.3-3.38,12.29-7.21,17.33-12.36.92-.95,2-1.77,2.88-2.71A5.61,5.61,0,0,0,210,511.37Z"/><path d="M142.66,501.49c-2.94.73-5.68-.51-8.49-.92-3.1-.45-6.27-.89-9.15-2.4-2.29-1.2-2.3-1.33-1.1-3.57,2.14-4,5.18-7.33,7.69-11.05a5,5,0,0,0,1.15-3.14c0-1.56.61-1.94,2.29-1.64s3.4.92,5.2,1.08c3.52.31,6.92-.51,10.38-.75a6.44,6.44,0,0,0,3.09-1.5c.32-.22.71-.46.45-.91s-.74-.3-1.19-.09a21.22,21.22,0,0,1-13.11,1.26c-.73-.14-2-.17-1.73-1.3s1.44-.78,2.39-.55c3.83.95,7.52,0,11.16-1.05,1.29-.39,1.57-1.26.95-2.87a44.08,44.08,0,0,1-2.32-7.76,69.42,69.42,0,0,1-1.56-14.25c.08-4,.69-8-.09-12a4.65,4.65,0,0,1,.05-1.39c.53-4.18-.21-8.33-.36-12.49a19.28,19.28,0,0,1,.19-2.3,1.67,1.67,0,0,1,1.93-1.58c1.19,0,1.46.87,1.49,1.93.2,6.65.19,13.29.12,19.94a137.6,137.6,0,0,0,1,18.27,39.24,39.24,0,0,0,2.14,8,105.75,105.75,0,0,0,4.82,11.27,12.66,12.66,0,0,0,1.88,2.9c1.5,1.69,1.67,4.15,3.28,5.81.18.18.05.75,0,1.12-.35,1.57-.82,3.12-1.09,4.7a2.14,2.14,0,0,1-1.69,1.95c-5.26,1.34-10.15,3.73-15.39,5.13C145.58,501.7,144.11,501.17,142.66,501.49Zm-4.72-15.81a27.9,27.9,0,0,0-2.69,9.34c0,.35.24.86-.28,1a1,1,0,0,1-1.14-.91,11.13,11.13,0,0,1,.33-4.37c.26-1.06.82-2.09.42-3.3-1.51,3-3.46,5.65-4.63,8.75-.53,1.38-.25,1.73,1.3,2a32.88,32.88,0,0,1,4.57.66c6.18,1.81,11.93.4,17.61-2,1.08-.46,1.17-1,.69-1.95-1.24-2.5-2.38-5-3.46-7.6a52,52,0,0,0-2.52-4.71c-.44-.8-1.1-.76-1.79-.38s-.41.83-.17,1.37c.31.7.43,1.48.73,2.19,1.34,3.16,1.11,6.85,3.24,9.75.3.4.09.72-.2,1-.67.66-1.35.48-1.7-.61-.61-1.91-.88-3.91-1.53-5.82a64.26,64.26,0,0,0-2.37-6.75c-.21-.44-.5-.83-1.06-.65s-.49.58-.46,1c.13,1.62.36,3.23.45,4.85.11,1.87.28,3.75,1.45,5.27.6.78.15,1.21-.26,1.54-.63.52-1-.14-1.23-.58a14.7,14.7,0,0,1-1.2-4c-.59-2.49-.41-5.1-1.1-7.57-.12-.45-.18-1-.79-1s-.68.67-.6,1.24a72.2,72.2,0,0,1,.53,10.39,4.91,4.91,0,0,1,0,1.15.94.94,0,0,1-1.21.79c-.67-.17-.36-.68-.29-1.13A18.06,18.06,0,0,0,137.94,485.68Zm-3.27-4.49-9.42,12.9c-.6.82-.39,1.36.45,1.86,1.43.85,2,.77,2.79-.63,1.68-3.11,3.41-6.2,5.12-9.29C134.32,484.75,135.77,483.44,134.67,481.19Zm21.7,14.28c.75-.27,1.84-.16,2.36-1.05s-.39-1.26-.73-1.8a27.49,27.49,0,0,1-3.32-6.07c-.47-1.44-1.26-2.77-1.76-4.21-.19-.54-.34-1.5-1.41-.95-.85.44-1.37,1-.92,2q2.46,5.72,4.86,11.43C155.62,495.22,155.79,495.52,156.37,495.47Zm4.56-7.4a2.74,2.74,0,0,0-.84-1.48c-1.43-1.89-3.18-3.56-4.07-5.83-.19-.48-.3-1.18-1-.94s-.53.9-.37,1.39c.43,1.32.92,2.61,1.42,3.91a32.29,32.29,0,0,0,4.37,7.82c.28.38.65.77,1.14.48a.77.77,0,0,0,.14-1.21C160.71,490.91,159.45,489.68,160.93,488.07Zm-24.76-4.28a.79.79,0,0,0,.74-.57c.13-.45,1-.87.35-1.3s-.87.48-1.15.92A.84.84,0,0,0,136.17,483.79Z"/><path d="M131.88,393.25a113.52,113.52,0,0,0-.25,15.09c.16,6.18-.51,12.35,0,18.52a14.18,14.18,0,0,0,.12,2.08c1.19,5.12.78,10.31.78,15.48,0,1.7.22,3.4.25,5.1.1,4.86.81,9.68.64,14.58-.11,3.07.22,6.16-.36,9.24a25.67,25.67,0,0,1-1.47,4.88c-.33.81-.89,1.3-1.82.89s-1.44-1.13-.95-2c1.56-2.89,1.13-6,1.29-9.1a11.3,11.3,0,0,1-.09-2.08c.32-1.25-1.7-1.09-1.24-2.15a7.09,7.09,0,0,0,1-2.54c.14-3.84.36-3.7-3.4-3.31a36.12,36.12,0,0,0-9,2.14c-3.33,1.27-6.81,2.06-10.06,3.51-5.88,2.63-11.58,5.53-16.21,10.13a15.64,15.64,0,0,0-3.27,3.87c-.29.56-.81,1.63-1.74.91a1.26,1.26,0,0,1,.1-2.16c.31-.24.7-.43.68-.87-.13-3,2-4.89,3.75-6.79a25.08,25.08,0,0,1,8-5.37c2.42-1.15,4.75-2.52,7.19-3.7,3.25-1.56,6.78-2.07,10.13-3.26,2.66-.94,5.49-1.45,8.24-2.16a14,14,0,0,1,2.74-.46c2.37-.11,2.49-.13,2.43-2.6-.06-2.77-.22-5.54-.29-8.32-.06-2.47.22-4.93.06-7.4s-.35-4.78-.72-7.15a40.55,40.55,0,0,1-.22-6.43c0-2.15.22-4.33.05-6.46-.31-3.86.4-7.72-.16-11.58a13,13,0,0,1,.19-5.09c.35-1.36-.37-2.57-.31-3.89.15-3.56.21-7.12.27-10.68a43.67,43.67,0,0,0-.42-9.48,9.45,9.45,0,0,1-.23-1.84c0-.95,0-2,1.32-2a1.89,1.89,0,0,1,2.17,1.66,58.79,58.79,0,0,1,.71,6.46C132,383.65,131.88,388.45,131.88,393.25Z"/><path d="M177.07,118.54c-.14-.89.56-1.52.87-2.27.71-1.73.62-2.43-.55-2.92-1.58-.66-1.75.83-2.32,1.61a8.74,8.74,0,0,0-.62,1.5c-.16.37-.45.71-.88.54s-.38-.62-.22-1c.4-.84.85-1.65,1.22-2.51A7.59,7.59,0,0,0,175,112c.09-.43.33-1-.31-1.19a1.05,1.05,0,0,0-1.24.38,12.11,12.11,0,0,0-2.39,3.67,28.31,28.31,0,0,1-1.21,2.77.88.88,0,0,1-1.24.54c0-1.64,1.06-3,1.75-4.35s1.66-2.76,2.51-4.16c-2.26-.41-2.49-.32-3.25,1.42-.84,1.91-2.49,3.37-3,5.45-.09.35-.46.72-.89.44s-.33-.68-.24-1.06c.24-1.06,1.36-1.69,1.45-3.06-2,.27-1.41,2.64-2.76,3.25-.06-1.79,1.13-4.39,2.43-5.16a5.36,5.36,0,0,0,1.4-1.19,5.92,5.92,0,0,1,7.74-1.06,20.73,20.73,0,0,1,5.17,4.58,6,6,0,0,0,3.66,2.25c2.78.67,5.71.65,8.38,1.8.29.13.62.23.86,0s.11-.7-.16-1c-1.17-1.33-2.17-2.85-4.07-3.29-.36-.09-.71-.32-.83-1.11a3.71,3.71,0,0,1,3.41,1.11c.86.79,1.63,1.66,2.46,2.47a1.31,1.31,0,0,0,1.69.32c.74-.5.25-1.08-.14-1.57s-.51-.84,0-1.17.8.15,1.14.47c1.78,1.62,2.88,3.78,4.48,5.54.31.34.56.77,1.16.57.46-.67-.07-1.34,0-2,0-.42.16-.79.62-.82a.59.59,0,0,1,.62.56,7.63,7.63,0,0,0,1,2.35,6.79,6.79,0,0,0,1.06,1.5,1.13,1.13,0,0,0,1.3.19c.55-.2.64-.61.47-1.12s-.22-1,.38-1.15c.32-.11.55.16.77.38.4.42.64,1.29,1.4.93a13.58,13.58,0,0,0,2.89-1.83c.44-.36.06-1-.21-1.47a19.52,19.52,0,0,0-3.78-4.65c-.33-.31-.81-.7-.43-1.16s1-.13,1.38.23a11.52,11.52,0,0,1,3.23,4.17c.77,1.84,1.67,3.49,3.74,4.14.69.22,1.38.59,1,1.5a1.19,1.19,0,0,1-2,.44c-.95-.78-2.06-.57-3.08-.87s-1.73.34-2.14,1.27c-.28.62-.15,1.07.56,1.21l4.57.88a1.62,1.62,0,0,0,1.46-.52c1.3-1.13,2.76-.59,4.18-.32.37.07.73.34.58.82s-.43.43-.75.4c-1.64-.15-3.12-.07-3.64,2-.1.38-.65.46-1,.17-1-.8-2.21-.64-3.26-1.15a10.19,10.19,0,0,0-8.57-.13c-1.86.74-3.86.25-5.7.91-.43.15-1,0-1.35.27-3.24,2.58-7.43,3.56-10.6,6.29a18.64,18.64,0,0,1-6.29,3.45c-3.91,1.29-8,2-11.7-.82-2-1.54-4.53-2-6.81-2.91a36.19,36.19,0,0,0-11.41-2.91,18.89,18.89,0,0,0-9.62,2.14c-.47.23-.83.74-1.45.62a.64.64,0,0,1,.08-1c1-.66,1.83-1.19,1.91-2.65,0-.9,1.38-1,2.26-1.3,3.5-1.21,7.17-1.75,10.67-2.93,1.17-.39,2.29-.93,3.46-1.35a.65.65,0,0,1,.89.51c.07.37-.21.55-.51.66-.64.26-1.3.49-1.94.75a9.21,9.21,0,0,0-2.67,1.39c2.06,1.24,3.17,1.18,4.71-.25a7.82,7.82,0,0,1,2.68-1.8.93.93,0,0,1,1.2.44c.36.66-.3.7-.66.92-.59.36-1.2.7-1.76,1.1-.38.27-.78.68-.5,1.16s.82.34,1.28.26a4.62,4.62,0,0,0,2.25-1.15,2.84,2.84,0,0,1,1.34-.88c.49-.08,1.12-.5,1.41.23.22.53-.29.8-.66,1.07a3.77,3.77,0,0,0-.39.26c-.57.54-1.68.9-1,2a2.38,2.38,0,0,0,3.28.07c.82-1,1.49-2.17,2.26-3.25.34-.48.75-1.27,1.42-.7s.44,1.29-.26,1.77-1,1.54-1.54,2.29c-.8,1.12-.12,1.61.72,2.18,1.11.75,1.3-.15,1.66-.81a1.39,1.39,0,0,1,.11-.21c.59-.65,1-2.08,2-1.59,1.24.64-.07,1.53-.35,2.3-.16.42-.5.86,0,1.26a1,1,0,0,0,1.28-.07,6,6,0,0,0,2-2.27c.24-.45.43-1.13,1.16-.77s.37.88.14,1.39-1.17,1-.5,1.55,1.5-.16,1.93-.75c.64-.85,1.06-1.87,1.63-2.78.27-.42.48-1.2,1.15-.9s.1.91,0,1.38c-.06.22-.12.44-.21.8,1.31.35,2.27-.38,3.18-1a35.79,35.79,0,0,0,4.13-3,4.87,4.87,0,0,1,2.95-1.13c2.31-.2,4.61-.53,6.91-.82.39,0,.83-.12.93-.56.15-.68-.44-.65-.85-.81s-.66-.23-.78-.46c-1.68-3.06-4.75-3.13-7.62-3.63a10.1,10.1,0,0,1-2.49-.51c-1.35-.61-2.45-.65-3.55.52a1.12,1.12,0,0,1-1.94-.28,4.18,4.18,0,0,0-.66-.94c-1.49-1.39-2.46-1.36-4,0C178,118.55,177.66,118.92,177.07,118.54ZM198.35,117c-.46,0-.8.21-.82.64,0,.9.74,1.09,1.37,1.34.4.15.83,0,.78-.53A1.76,1.76,0,0,0,198.35,117Z"/><path d="M76.1,516.34c.11,1.64,1.22,2.46,2.23,3.35,3.72,3.33,8.13,5.6,12.34,8.19a73.66,73.66,0,0,0,10,5.42c1.93.81,3.48,2.26,5.3,3.28,2.91,1.63,5.79,3.2,9.15,3.72,1.94.3,3.25,2,5.07,2.59a.85.85,0,0,1,.43,1.18.9.9,0,0,1-1,.39c-.76-.14-1.5-.39-2.26-.51a40.71,40.71,0,0,1-16.67-6.52,23.34,23.34,0,0,0-4-1.87A29.28,29.28,0,0,1,89,530.85c-2.38-2-5.34-3.11-8-4.75a42.68,42.68,0,0,1-7.3-5.71,18.07,18.07,0,0,1-4.4-8.06A27.85,27.85,0,0,1,68.2,502c.58-6.48,1.09-13.1,5.49-18.59,1.92-2.4,3.23-5.27,5.65-7.3.3-.24.53-.6.87-.76a2.35,2.35,0,0,1,2.59.49c.77.64.42,1.45,0,2.11a7.2,7.2,0,0,1-1.55,2c-2.72,2.21-4.09,5.42-6.1,8.15-1.4,1.89-1.69,4.33-2,6.61a40.87,40.87,0,0,0-.47,10.88c.12,1,.42,1.54,1.45,1.72s1.14.91,1.55,1.72c1.17,2.27,2.37,4.71,4.18,6.42,2.86,2.7,6.49,4.39,10.17,5.85a16.22,16.22,0,0,1,3.68,2,76.36,76.36,0,0,0,10.81,6.3,5.73,5.73,0,0,1,1.5,1.06c.4.43,1.08.78.65,1.54s-1,.6-1.65.57a2.37,2.37,0,0,1-1.54-.45c-1.74-1.47-3.93-2.13-5.87-3.26s-4-1.66-5.65-3.41a7.55,7.55,0,0,0-4.11-2,13.47,13.47,0,0,1-2.71-1.22A26.74,26.74,0,0,1,76.1,516.34Zm-.4-1.17c-.13-1.22-.32-1.84-1.31-2C74.32,514.1,74.76,514.53,75.7,515.17Z"/><path d="M149.66,372.91c-.87.31-1.42.93-2.26.87-2.94-.22-5.87-.4-8.81-.6-.47,0-1.05-.16-1.06-.69s.61-.57,1.06-.58a27.07,27.07,0,0,1,5.32.25c1.65.28,3.34.63,4.91-.57a2.24,2.24,0,0,0,1.17-1.83c0-1.77.12-3.54.06-5.31-.16-5.09-.34-10.17-.42-15.26-.06-4.06.85-8,.73-12,0-.69-.13-1.51.92-1.54a1.68,1.68,0,0,1,1.91,1.33,12.88,12.88,0,0,1,.16,5.31c-.64,3.41-.28,6.8-.29,10.2s.15,7,.39,10.44-.5,6.76-.15,10.16c.17,1.69,0,3.4.09,5.1.14,5.71-.71,11.4-.63,17.1.07,5-.76,10,.12,15a8,8,0,0,1,0,1.62,1.64,1.64,0,0,1-1.53,1.75c-1.08.13-1.47-.6-1.58-1.57a43.48,43.48,0,0,1-.68-6.68c.15-3.23-.22-6.5.42-9.7a14.53,14.53,0,0,0,0-3.23,15.75,15.75,0,0,1,.53-5.51,3,3,0,0,0,.06-1.6,23.25,23.25,0,0,1-.19-4.86c.09-2.86.08-2.84-2.5-1.81a12.5,12.5,0,0,1-5.68.77c-.61-.05-1.56-.1-1.5-1.08s.87-1,1.58-1c.93,0,1.86.12,2.78.13a6.68,6.68,0,0,0,3.18-.53C150.1,375.87,150.1,375.88,149.66,372.91Z"/><path d="M135.29,547.67a22.85,22.85,0,0,1-5.53-.46,4.37,4.37,0,0,1-2.13-.85c-.69-.61-1.52-1.27-1.15-2.34s1.41-.83,2.2-.72c6.6,1,13.1-.39,19.65-.63a102.08,102.08,0,0,0,15.61-2c3.56-.68,7-1.72,10.64-2.33,2.36-.41,4.58-1.76,6.82-2.78a2.85,2.85,0,0,1,3.4.54c.77.67.91,1.23-.05,1.79-.4.24-.82.44-1.24.65-2.26,1.14-4.54,2.28-6.8,3.43a11,11,0,0,1-4.09.72c-3,.3-5.78,1.59-8.74,2a135.36,135.36,0,0,1-20.29,2C140.65,546.69,137.82,547.93,135.29,547.67Z"/><path d="M85.69,164.3c1.57.57,2.51,2.4,4.47,2.22.49-.05,1.13.41,1.43-.27.24-.53-.34-.79-.6-1.15-.78-1-1.85-1.92-1.59-3.59,3.12,3.94,6.56,7.19,11.95,8.34-.88-2.25-2.87-3.43-3.29-5.91,1.88,1.24,2.85,2.84,4,4.2a7.65,7.65,0,0,0,4.24,2.94,3.71,3.71,0,0,1,.67.2,1.22,1.22,0,0,1,.82,1.66,1.12,1.12,0,0,1-1.53.67c-4.5-1.63-9.46-1.45-13.86-3.52a7.91,7.91,0,0,0-2.72-.5c-3.87-.27-7.09-2.57-10.77-3.41-2.86-.65-5.58-1.77-8.52-2.2-2-.31-3.64-1.93-5.56-2.72a10.34,10.34,0,0,0-1.44-.74c-5.37-1.31-9.87-4.34-14.45-7.22-1.7-1.06-3.42-2.07-5.23-3.15,1.15-1.39,2.32-1,3.52-.36,4.65,2.4,9.19,5.06,14,7.09a77.75,77.75,0,0,1,7.51,3.51c2.25,1.25,4.83,1.51,7.25,2.25s5.08,1.42,7.58,2.23a1.62,1.62,0,0,0,2.18-.62Z"/><path d="M97,488.75a26.13,26.13,0,0,1-1.41,2.93c-3.21,4.94-1.57,9.55,1.21,13.85,1.51,2.33,4.16,3.64,6.59,5,5.78,3.16,11.74,5.83,18.39,6.53,1.55.16,3,.85,4.51,1,5.3.65,10.63.87,15.92,1.44a31.71,31.71,0,0,0,11-.55c2-.48,3.94.31,5.89,0,.19,1-.36,1.16-.89,1.26-1.3.23-2.6.49-3.91.6-2.83.23-5.49,1.68-8.4,1.32-6.74-.83-13.61-.57-20.28-1.94-5.41-1.11-10.84-2-16-4.29a49.56,49.56,0,0,1-12.49-7.33,13.84,13.84,0,0,1-4.2-6.72,30.49,30.49,0,0,1-.8-4.09c-.62-3.29,1.15-5.8,2.71-8.38C95.14,489,95.22,489,97,488.75Z"/><path d="M139.33,506.47a2.71,2.71,0,0,1,1.65.24c1.69,1.22,3.51.77,5.37.6a95.42,95.42,0,0,0,11.17-1.76,31.22,31.22,0,0,0,5.33-2.17,6,6,0,0,1,3.12-.76c2.44.32,3.91-1.58,5.77-2.55.68-.36,0-.95-.43-1.22a22.21,22.21,0,0,1-4-3.15c-.23-.21-.49-.39-.71-.61-.68-.68-1.3-1.42-.65-2.42s1.67-.68,2.49-.27a14.27,14.27,0,0,1,5.3,4.71c2.12,3.06-.43,8-4.44,8.65a50.57,50.57,0,0,0-10.2,2.93,18.32,18.32,0,0,1-8.59,1.42,3.42,3.42,0,0,0-2,.26,7.37,7.37,0,0,1-6.48,0c-1.08-.44-2.16-.85-3.23-1.3-.81-.34-1.67-.78-1.36-1.83S138.65,506.52,139.33,506.47Z"/><path d="M103.12,126.46c2.63-.32,4.43-2.33,6.64-3.48.66,1.33-.91,1.51-.78,2.52a2.55,2.55,0,0,0,2.35-.22c.83-.43,1.66-.85,2.44-1.35.6-.39,1.21-1,1.75-.1s-.42.81-.79,1.12-.68.49-.33.92c.22.28.55.15.84,0a16.11,16.11,0,0,1,4-1.5c.37.89-.29,1.06-.69,1.34-.57.39-1.32.64-1.58,1.31-.72,1.84-2.1,1.91-3.8,1.83a30.38,30.38,0,0,0-10.52,1.51c-1.42.45-2.44,1.59-3.67,2.37-1.6,1-3,.61-3.61-.95a1.3,1.3,0,0,1-.09-.89,16.93,16.93,0,0,1,5.93-8.1c.51-.42,1.31-.92,1.36.49,0,.85.62.47,1,.24.57-.4,1.06-.91,1.63-1.31.35-.25.84-.66,1.22-.22s-.07.84-.43,1.12A11.42,11.42,0,0,0,103.12,126.46Zm-4.54,2.21a5.43,5.43,0,0,0,2.73-3.61C100.21,125.88,99,126.57,98.58,128.67Z"/><path d="M173.82,520.38a12.9,12.9,0,0,1,5.39-4.52c2.5-1.27,4.46-3.26,6.75-4.8a18.93,18.93,0,0,0,4.65-4.39c4.8-6.49,5.43-15.21,1.33-21.57-.5-.77-1-1.57-1.42-2.38-.2-.34-.29-.74.11-1a.9.9,0,0,1,1.08-.06,2.68,2.68,0,0,1,.67.63c4.64,6.53,5.33,13.51,2.33,20.88a29.82,29.82,0,0,1-2.14,4.36,17.76,17.76,0,0,1-5.33,5.31A73.13,73.13,0,0,1,173.82,520.38Z"/><path d="M109,516.6a2.91,2.91,0,0,1-3.18.62c-3.7-1.53-7.67-2.33-11.17-4.44a15.77,15.77,0,0,1-7.12-9.06c-2.12-6.79-.93-13,4.06-18.23,1.27-1.33,2.72-2.77,5.09-2.43-.26,1-1.06,1.4-1.72,1.88-5.72,4.22-7.65,10.64-5.66,17.73,1.5,5.3,5.07,8.54,10.17,10.18C102.67,513.87,105.43,515.79,109,516.6Z"/><path d="M168,479.07a3.25,3.25,0,0,1,3,.31,52.64,52.64,0,0,1,8.57,5.07c3.87,3.09,5.38,7.18,4,12-1.18,4.09-2.79,8.07-5.86,11.2-2.7,2.75-5.93,4.08-9.85,3.3-.47-.09-1-.07-1.06-.65s.53-.88,1.1-1,.93-.07,1.39-.12a11.6,11.6,0,0,0,9.23-6.17,61.2,61.2,0,0,0,2.71-5.89,10,10,0,0,0-4.32-12.81c-2.92-1.56-5.57-3.63-8.76-4.67C168.09,479.61,168.08,479.37,168,479.07Z"/><path d="M139.6,514.73c-.59,1.4-1.46,1.16-2.18,1.24-5.73.61-11.21-.55-16.7-2.09a32.3,32.3,0,0,1-11.65-6.54,13.18,13.18,0,0,1-4.48-7.91c-.3-1.59-.45-3.21-.64-4.82a.74.74,0,0,1,.54-.91c.49-.1.65.33.75.7a7.73,7.73,0,0,1,.3,1.58c.25,4.54,2.36,8,5.81,10.91A29.21,29.21,0,0,0,123,512.42c3.67,1,7.42,1.5,11.15,2.14A26.68,26.68,0,0,0,139.6,514.73Z"/><path d="M98.06,498.75c-.66-2.27-1-4.54.07-6.8a24.53,24.53,0,0,1,7.71-9c4.52-3.37,9.3-6,15-6.64.23,0,.46-.11.69-.12.77-.06,1.74-.21,1.87.79s-.84,1-1.48,1.15c-3,.6-5.93,1.05-8.62,2.52-5.56,3-10.62,6.62-13.93,12.21a7.1,7.1,0,0,0-.76,3.35C98.59,497,98.8,498,98.06,498.75Z"/><path d="M192.28,495a3.44,3.44,0,0,1-2.15,3.54.83.83,0,0,1-.87.05.57.57,0,0,1-.16-.82c2.85-3.7.35-6.85-1.11-10-1-2.24-3.32-3.38-5.13-4.94a8.44,8.44,0,0,1-1.11-.83c-2.43-2.95-5.94-4.08-9.26-5.53a7.85,7.85,0,0,0-3.87-.54c-.46,0-1-.1-1.07-.65s.58-.61,1-.67c3.67-.54,6.9.87,9.95,2.57a54.82,54.82,0,0,1,9.37,7.16C190.71,486.83,192,490.43,192.28,495Z"/><path d="M112.11,499.27c-1.58,0-2-.5-1.3-1.82a9.82,9.82,0,0,1,2.92-3.25c2.64-2,4.06-5,6.2-7.35,1-1.09,1.9-2.23,2.87-3.32a1.79,1.79,0,0,1,2.68-.14c1,.7.3,1.46-.1,2-1.69,2.28-3.38,4.59-5.27,6.7s-4.56,3.88-6.29,6.38A1.82,1.82,0,0,1,112.11,499.27Z"/><path d="M170.18,516a2.64,2.64,0,0,1-.79-.13c-.51-.27-1.43-.09-1.47-.85s.68-1,1.43-1.19c3.64-.67,6.7-2.63,9.93-4.29,2.81-1.44,4.78-3.27,5.27-6.47a2.06,2.06,0,0,1,.26-.64.6.6,0,0,1,.73-.39c.38.09.45.37.4.71-.51,2.9-.93,5.71-3.85,7.52-3.42,2.12-6.79,4.26-10.66,5.45C171,515.89,170.54,516,170.18,516Z"/><path d="M161.44,471c1-1.28,2.25-1,3.33-.88,2.72.42,5.54.53,8,2.07a3.38,3.38,0,0,0,1.53.5c4.2.21,7.75,2.33,11.51,3.81.38.15.76.3.67.77a.8.8,0,0,1-.87.61,3.2,3.2,0,0,1-2.18-.61,12.87,12.87,0,0,0-2.3-1c-3.4-1.69-7.32-1.74-10.69-3.55-2.3-1.23-5-1-7.46-1.4C162.53,471.28,162.06,471.46,161.44,471Z"/><path d="M127.08,508.15c-3.67-.16-6.93-.62-9.82-2.46-.7-.45-2-.76-1.48-1.95a2,2,0,0,1,2.82-.8,50.06,50.06,0,0,0,5.75,2.32c1.39.41,2.89.47,4.19,1.2.47.27,1.12.43,1,1.08s-.79.84-1.45.76Z"/><path d="M215.45,112.7c.21-1.31-.71-2.14-.43-3.32,1.21.66,1.54,1.89,2,2.93a16.26,16.26,0,0,0,1.45,3.14c.27.4.62.81.19,1.23s-.42,1.44-1.25,1.57-1.11-.73-1.46-1.27c-1.34-2.08-2.62-4.2-3.92-6.31a2.3,2.3,0,0,1-.23-.4c-.16-.43-.48-.94,0-1.27s.81.19,1.08.53A13.85,13.85,0,0,0,215.45,112.7Z"/><path d="M128.31,524.76a6.31,6.31,0,0,1-3.78-.27,24,24,0,0,0-7-1.1c-.74,0-1.82.1-1.89-.86-.09-1.18,1.06-1.09,1.87-1.16a8.76,8.76,0,0,1,4.07.63,22.33,22.33,0,0,0,5.91,1.91A.93.93,0,0,1,128.31,524.76Z"/><path d="M228.13,109.33c-2.49.28-4.22,3.14-7,2,0-.25,0-.48.07-.52,2.65-1.45,2.63-1.46.56-3.65-.53-.56-1.81-1.22-1.11-1.94s1.27.65,1.89,1.09a9.33,9.33,0,0,1,1.4,1.53c.38.42.74.76,1.39.44C226.49,107.71,227.29,108.53,228.13,109.33Z"/><path d="M144.5,361.21c-2.36,0-4-.75-5.7-1.23a.91.91,0,0,1-.76-1c.15-.65.74-.75,1.3-.66s1.34.37,2,.52c1.71.39,3.41,1.08,5.2.31a.85.85,0,0,1,1.29.57c.18.72-.36.93-.93,1Z"/><path d="M146.79,351.41c1,2.49.62,3.42-1,4a11.81,11.81,0,0,1-5.9.34c-.48-.07-1.2-.12-1.13-.87s.69-1,1.36-1c.92,0,1.84.12,2.75.09C144.49,354,146.18,354,146.79,351.41Z"/><path d="M141.91,346.93c.65,0,1.65,0,2.65,0,.44,0,1,.21,1,.8s-.46.62-.82.67c-2.13.28-4.27.76-6.42.14-.45-.12-.95-.22-.92-.83s.51-.75,1-.84A12.78,12.78,0,0,1,141.91,346.93Z"/><path d="M144,369.81a10.22,10.22,0,0,1-4.69-.94c-.43-.22-1.06-.59-.68-1.24s.83-.19,1.26-.06,1.18.34,1.76.54a5,5,0,0,0,5-.66c.3-.24.62-.56,1-.19s.16.74,0,1.08C146.77,369.79,145.39,369.87,144,369.81Z"/><path d="M141.42,362.62a12.47,12.47,0,0,0,3.23-.09c.58-.12,1.08-.09,1.18.67s-.14,1.15-.77,1.21a15.42,15.42,0,0,1-6.41-.38c-.36-.12-.75-.3-.73-.77s.48-.76,1-.76C139.72,362.51,140.57,362.58,141.42,362.62Z"/><path d="M142,343.21a8.9,8.9,0,0,1-4-.44c-.52-.16-1.08-.38-.91-1.1a1,1,0,0,1,1.23-.74c2.19.38,4.39.78,6.58,1.19a.64.64,0,0,1,.56.63c0,.46-.42.6-.84.59Z"/><path d="M142.47,450.92c.19,1-.29,1.38-.78,1.56a9.37,9.37,0,0,1-5.69.25c-.45-.12-.89-.38-.76-1a.61.61,0,0,1,.72-.43A16.6,16.6,0,0,0,142.47,450.92Z"/><path d="M137.21,458.56c-.72,0-1.32,0-1.42-.52a1.14,1.14,0,0,1,1-1.34,29.65,29.65,0,0,0,4.27-1,.7.7,0,0,1,.95.42.8.8,0,0,1-.49.94C140.11,457.92,138.48,458.08,137.21,458.56Z"/><path d="M142.8,338.78c-.64-.1-1.49-.17-2.31-.36a.86.86,0,0,1-.74-1,.83.83,0,0,1,1.06-.65,18.55,18.55,0,0,0,3,.39c.55,0,1.13.26,1.11.93s-.65.72-1.2.71Z"/><path d="M123,102.24a11.15,11.15,0,0,1-2.93,4,.72.72,0,0,1-1-.09c-.26-.29-.08-.57.14-.8a6.71,6.71,0,0,0,1.62-2.76,1.56,1.56,0,0,1,1.56-1.14C122.8,101.44,123.08,101.68,123,102.24Z"/><path d="M140.63,442.84c-.49,0-.64.05-.8,0-.51,0-1.24.15-1.23-.62,0-.58.66-.5,1.11-.55l3.9-.47c.42,0,.79.1.85.57s-.28.66-.71.71Z"/><path d="M137.74,446.74c1.79-.59,3.6-.25,5.38-.36.33,0,.62.12.63.49a.67.67,0,0,1-.72.72C141.25,447.51,139.39,448,137.74,446.74Z"/><path d="M141.7,438.47c-.69-.35-2.19.37-2.12-.91.06-1,1.43-.32,2.2-.45s1.68-.21,2.52-.3c.31,0,.62-.08.74.31a.7.7,0,0,1-.37.78C143.79,438.54,142.74,438.28,141.7,438.47Z"/><path d="M113.3,473.4a28.11,28.11,0,0,0-7.82,4.54C106.63,475.46,110.1,473.45,113.3,473.4Z"/><path d="M190.16,162c2.17.33,3.23,1.87,4.75,2.55a.63.63,0,0,1,.26,1,.77.77,0,0,1-1.2.21C192.67,164.74,191.08,164,190.16,162Z"/><path d="M139,434a.72.72,0,0,1-.94-.51.69.69,0,0,1,.5-.9c1-.26,1.93-.48,2.91-.65a.73.73,0,0,1,.84.6.76.76,0,0,1-.66,1A13.21,13.21,0,0,0,139,434Z"/><path d="M215.63,153.83a4.44,4.44,0,0,1-3.3,2.88.67.67,0,0,1-.77-.38.55.55,0,0,1,.24-.79C213.06,154.94,214.35,154.39,215.63,153.83Z"/><path d="M146.33,312.15a5,5,0,0,1-.62,4c-.32.56-.89.94-1.54.42s-.18-.92.14-1.38C144.92,314.34,145.47,313.45,146.33,312.15Z"/><path d="M85.75,164.25c-1.47.08-2.1-1.19-3-1.94a31.47,31.47,0,0,1-2.42-2.45c2.73.9,4,2.74,5.4,4.44Z"/><path d="M145.63,332.44c0,.95-1,.94-1.74,1.19a.66.66,0,0,1-1-.62c0-1.33,1.24-1.09,2-1.44C145.31,331.39,145.57,331.78,145.63,332.44Z"/><path d="M219.61,113.32c-1.51-.73-1.68-1.87-1.23-3.48A3.54,3.54,0,0,1,219.61,113.32Z"/><path d="M124.65,112c-.61-.11-.77-.4-.67-.69a2.49,2.49,0,0,1,2.16-1.75.42.42,0,0,1,.47.57A6.4,6.4,0,0,1,124.65,112Z"/><path d="M202.85,159.23c.51.07,1.23-.19,1.18.66a1,1,0,0,1-1.16.83c-.63-.06-1.59,0-1.51-.91C201.42,159.08,202.32,159.32,202.85,159.23Z"/><path d="M143.35,326.1c0-.63.53-.7.87-1s1.13-.88,1.5-.07-.46,1-1,1.27S143.69,326.71,143.35,326.1Z"/><path d="M171.17,80.56c.53.8.94,1.35,1.26,2a.64.64,0,0,1-.3.95.65.65,0,0,1-.88-.5A2.69,2.69,0,0,1,171.17,80.56Z"/><path d="M189.55,86.82c-1.12-1.12-1.15-2.64-1.47-4a.57.57,0,0,1,1-.48c.65.59.6,1.55.88,2.34S190.49,86.16,189.55,86.82Z"/><path d="M179.92,81.59c.31,1.12,0,2.36.86,3.26.18.18-.06.59-.35.76a.73.73,0,0,1-.86-.12C178.39,84.57,178.49,82.88,179.92,81.59Z"/></g></svg>